<?xml version="1.0" encoding="UTF-8" standalone="no"?>
<!DOCTYPE svg PUBLIC "-//W3C//DTD SVG 1.1//EN"
 "http://www.w3.org/Graphics/SVG/1.1/DTD/svg11.dtd">
<!-- Generated by graphviz version 2.48.0 (20210717.1556)
 -->
<!-- Title: Dialogues.DialogueGroup Pages: 1 -->
<svg width="512pt" height="215pt"
 viewBox="0.00 0.00 512.00 215.00" xmlns="http://www.w3.org/2000/svg" xmlns:xlink="http://www.w3.org/1999/xlink">
<g id="graph0" class="graph" transform="scale(1 1) rotate(0) translate(4 211)">
<title>Dialogues.DialogueGroup</title>
<!-- Node1 -->
<g id="node1" class="node">
<title>Node1</title>
<g id="a_node1"><a xlink:title=" ">
<polygon fill="#bfbfbf" stroke="black" points="144.5,-0.5 144.5,-90.5 294.5,-90.5 294.5,-0.5 144.5,-0.5"/>
<text text-anchor="middle" x="219.5" y="-78.5" font-family="Helvetica,sans-Serif" font-size="10.00">Dialogues.DialogueGroup</text>
<polyline fill="none" stroke="black" points="144.5,-71.5 294.5,-71.5 "/>
<text text-anchor="middle" x="219.5" y="-59.5" font-family="Helvetica,sans-Serif" font-size="10.00"> </text>
<polyline fill="none" stroke="black" points="144.5,-52.5 294.5,-52.5 "/>
<text text-anchor="start" x="152.5" y="-40.5" font-family="Helvetica,sans-Serif" font-size="10.00">+ int GetDialogueCount()</text>
<text text-anchor="start" x="152.5" y="-29.5" font-family="Helvetica,sans-Serif" font-size="10.00">+ DialogueData GetDialogue</text>
<text text-anchor="start" x="152.5" y="-18.5" font-family="Helvetica,sans-Serif" font-size="10.00">Locale(int index)</text>
<text text-anchor="start" x="152.5" y="-7.5" font-family="Helvetica,sans-Serif" font-size="10.00">+ DialogueData NextDialogue()</text>
</a>
</g>
</g>
<!-- Node2 -->
<g id="node2" class="node">
<title>Node2</title>
<g id="a_node2"><a xlink:title=" ">
<polygon fill="none" stroke="#bfbfbf" points="0,-149.5 0,-206.5 83,-206.5 83,-149.5 0,-149.5"/>
<text text-anchor="middle" x="41.5" y="-194.5" font-family="Helvetica,sans-Serif" font-size="10.00">MonoBehaviour</text>
<polyline fill="none" stroke="#bfbfbf" points="0,-187.5 83,-187.5 "/>
<text text-anchor="middle" x="41.5" y="-175.5" font-family="Helvetica,sans-Serif" font-size="10.00"> </text>
<polyline fill="none" stroke="#bfbfbf" points="0,-168.5 83,-168.5 "/>
<text text-anchor="middle" x="41.5" y="-156.5" font-family="Helvetica,sans-Serif" font-size="10.00"> </text>
</a>
</g>
</g>
<!-- Node2&#45;&gt;Node1 -->
<g id="edge1" class="edge">
<title>Node2&#45;&gt;Node1</title>
<path fill="none" stroke="midnightblue" d="M87.41,-143.34C109.35,-127.26 135.88,-107.81 159.39,-90.57"/>
<polygon fill="none" stroke="midnightblue" points="85.24,-140.59 79.25,-149.32 89.38,-146.23 85.24,-140.59"/>
</g>
<!-- Node3 -->
<g id="node3" class="node">
<title>Node3</title>
<g id="a_node3"><a xlink:title=" ">
<polygon fill="none" stroke="#bfbfbf" points="101,-149.5 101,-206.5 184,-206.5 184,-149.5 101,-149.5"/>
<text text-anchor="middle" x="142.5" y="-194.5" font-family="Helvetica,sans-Serif" font-size="10.00">LocalizedString</text>
<polyline fill="none" stroke="#bfbfbf" points="101,-187.5 184,-187.5 "/>
<text text-anchor="middle" x="142.5" y="-175.5" font-family="Helvetica,sans-Serif" font-size="10.00"> </text>
<polyline fill="none" stroke="#bfbfbf" points="101,-168.5 184,-168.5 "/>
<text text-anchor="middle" x="142.5" y="-156.5" font-family="Helvetica,sans-Serif" font-size="10.00"> </text>
</a>
</g>
</g>
<!-- Node3&#45;&gt;Node1 -->
<g id="edge2" class="edge">
<title>Node3&#45;&gt;Node1</title>
<path fill="none" stroke="#404040" d="M153.62,-149.22C159.04,-136.63 166.01,-121.75 173.5,-109 175.05,-106.36 176.69,-103.69 178.39,-101.03"/>
<polygon fill="none" stroke="#404040" points="178.54,-100.8 178.53,-93.59 185.18,-90.8 185.19,-98.01 178.54,-100.8"/>
<text text-anchor="middle" x="193.5" y="-117.5" font-family="Helvetica,sans-Serif" font-size="10.00"> +locales</text>
</g>
<!-- Node4 -->
<g id="node4" class="node">
<title>Node4</title>
<g id="a_node4"><a xlink:title=" ">
<polygon fill="none" stroke="#bfbfbf" points="202,-149.5 202,-206.5 265,-206.5 265,-149.5 202,-149.5"/>
<text text-anchor="middle" x="233.5" y="-194.5" font-family="Helvetica,sans-Serif" font-size="10.00">UnityEvent</text>
<polyline fill="none" stroke="#bfbfbf" points="202,-187.5 265,-187.5 "/>
<text text-anchor="middle" x="233.5" y="-175.5" font-family="Helvetica,sans-Serif" font-size="10.00"> </text>
<polyline fill="none" stroke="#bfbfbf" points="202,-168.5 265,-168.5 "/>
<text text-anchor="middle" x="233.5" y="-156.5" font-family="Helvetica,sans-Serif" font-size="10.00"> </text>
</a>
</g>
</g>
<!-- Node4&#45;&gt;Node1 -->
<g id="edge3" class="edge">
<title>Node4&#45;&gt;Node1</title>
<path fill="none" stroke="#404040" d="M224.33,-149.03C222.76,-143.14 221.36,-136.91 220.5,-131 219.19,-121.91 218.45,-112.22 218.1,-102.76"/>
<polygon fill="none" stroke="#404040" points="218.09,-102.52 213.96,-96.61 217.83,-90.53 221.96,-96.44 218.09,-102.52"/>
<text text-anchor="middle" x="278.5" y="-117.5" font-family="Helvetica,sans-Serif" font-size="10.00"> +dialogueActionCallbacks</text>
</g>
<!-- Node5 -->
<g id="node5" class="node">
<title>Node5</title>
<g id="a_node5"><a xlink:title=" ">
<polygon fill="none" stroke="#bfbfbf" points="344,-149.5 344,-206.5 373,-206.5 373,-149.5 344,-149.5"/>
<text text-anchor="middle" x="358.5" y="-194.5" font-family="Helvetica,sans-Serif" font-size="10.00">int</text>
<polyline fill="none" stroke="#bfbfbf" points="344,-187.5 373,-187.5 "/>
<text text-anchor="middle" x="358.5" y="-175.5" font-family="Helvetica,sans-Serif" font-size="10.00"> </text>
<polyline fill="none" stroke="#bfbfbf" points="344,-168.5 373,-168.5 "/>
<text text-anchor="middle" x="358.5" y="-156.5" font-family="Helvetica,sans-Serif" font-size="10.00"> </text>
</a>
</g>
</g>
<!-- Node5&#45;&gt;Node1 -->
<g id="edge4" class="edge">
<title>Node5&#45;&gt;Node1</title>
<path fill="none" stroke="#404040" d="M354.56,-149.49C351.48,-136.08 346.05,-120.42 336.5,-109 327.76,-98.55 316.81,-89.59 305.14,-81.99"/>
<polygon fill="none" stroke="#404040" points="304.98,-81.9 297.78,-82.2 294.73,-75.66 301.94,-75.36 304.98,-81.9"/>
<text text-anchor="middle" x="368.5" y="-123" font-family="Helvetica,sans-Serif" font-size="10.00"> +current</text>
<text text-anchor="middle" x="368.5" y="-112" font-family="Helvetica,sans-Serif" font-size="10.00">+from</text>
</g>
<!-- Node6 -->
<g id="node6" class="node">
<title>Node6</title>
<g id="a_node6"><a xlink:title=" ">
<polygon fill="none" stroke="#bfbfbf" points="391,-149.5 391,-206.5 504,-206.5 504,-149.5 391,-149.5"/>
<text text-anchor="middle" x="447.5" y="-194.5" font-family="Helvetica,sans-Serif" font-size="10.00">DIALOGUE_ACTION[]</text>
<polyline fill="none" stroke="#bfbfbf" points="391,-187.5 504,-187.5 "/>
<text text-anchor="middle" x="447.5" y="-175.5" font-family="Helvetica,sans-Serif" font-size="10.00"> </text>
<polyline fill="none" stroke="#bfbfbf" points="391,-168.5 504,-168.5 "/>
<text text-anchor="middle" x="447.5" y="-156.5" font-family="Helvetica,sans-Serif" font-size="10.00"> </text>
</a>
</g>
</g>
<!-- Node6&#45;&gt;Node1 -->
<g id="edge5" class="edge">
<title>Node6&#45;&gt;Node1</title>
<path fill="none" stroke="#404040" d="M430.47,-149.44C420.79,-135.69 407.59,-119.74 392.5,-109 367.01,-90.85 335.68,-77.44 306.72,-67.79"/>
<polygon fill="none" stroke="#404040" points="306.34,-67.67 299.41,-69.66 294.91,-64.02 301.84,-62.04 306.34,-67.67"/>
<text text-anchor="middle" x="454" y="-117.5" font-family="Helvetica,sans-Serif" font-size="10.00"> +dialogueActions</text>
</g>
</g>
</svg>
