<?xml version="1.0" encoding="UTF-8" standalone="no"?>
<!DOCTYPE svg PUBLIC "-//W3C//DTD SVG 1.1//EN"
 "http://www.w3.org/Graphics/SVG/1.1/DTD/svg11.dtd">
<!-- Generated by graphviz version 2.48.0 (20210717.1556)
 -->
<!-- Title: MainMenu Pages: 1 -->
<svg width="599pt" height="386pt"
 viewBox="0.00 0.00 599.00 386.00" xmlns="http://www.w3.org/2000/svg" xmlns:xlink="http://www.w3.org/1999/xlink">
<g id="graph0" class="graph" transform="scale(1 1) rotate(0) translate(4 382)">
<title>MainMenu</title>
<!-- Node1 -->
<g id="node1" class="node">
<title>Node1</title>
<g id="a_node1"><a xlink:title="Script para el menu principal">
<polygon fill="#bfbfbf" stroke="black" points="312,-0.5 312,-156.5 473,-156.5 473,-0.5 312,-0.5"/>
<text text-anchor="middle" x="392.5" y="-144.5" font-family="Helvetica,sans-Serif" font-size="10.00">MainMenu</text>
<polyline fill="none" stroke="black" points="312,-137.5 473,-137.5 "/>
<text text-anchor="middle" x="392.5" y="-125.5" font-family="Helvetica,sans-Serif" font-size="10.00"> </text>
<polyline fill="none" stroke="black" points="312,-118.5 473,-118.5 "/>
<text text-anchor="start" x="320" y="-106.5" font-family="Helvetica,sans-Serif" font-size="10.00">+ void BtnPlayCallBack()</text>
<text text-anchor="start" x="320" y="-95.5" font-family="Helvetica,sans-Serif" font-size="10.00">+ void BtnSettingsCallBack()</text>
<text text-anchor="start" x="320" y="-84.5" font-family="Helvetica,sans-Serif" font-size="10.00">+ void BtnQuitCallback()</text>
<text text-anchor="start" x="320" y="-73.5" font-family="Helvetica,sans-Serif" font-size="10.00">+ IEnumerator OnLocaleSelected</text>
<text text-anchor="start" x="320" y="-62.5" font-family="Helvetica,sans-Serif" font-size="10.00">(int index)</text>
<text text-anchor="start" x="320" y="-51.5" font-family="Helvetica,sans-Serif" font-size="10.00">+ IEnumerator DoFade</text>
<text text-anchor="start" x="320" y="-40.5" font-family="Helvetica,sans-Serif" font-size="10.00">(CanvasGroup cg, float</text>
<text text-anchor="start" x="320" y="-29.5" font-family="Helvetica,sans-Serif" font-size="10.00"> start, float end, float</text>
<text text-anchor="start" x="320" y="-18.5" font-family="Helvetica,sans-Serif" font-size="10.00"> duration, float delay=0.0f,</text>
<text text-anchor="start" x="320" y="-7.5" font-family="Helvetica,sans-Serif" font-size="10.00"> Action callback=null)</text>
</a>
</g>
</g>
<!-- Node2 -->
<g id="node2" class="node">
<title>Node2</title>
<g id="a_node2"><a xlink:title=" ">
<polygon fill="none" stroke="#bfbfbf" points="0,-320.5 0,-377.5 83,-377.5 83,-320.5 0,-320.5"/>
<text text-anchor="middle" x="41.5" y="-365.5" font-family="Helvetica,sans-Serif" font-size="10.00">MonoBehaviour</text>
<polyline fill="none" stroke="#bfbfbf" points="0,-358.5 83,-358.5 "/>
<text text-anchor="middle" x="41.5" y="-346.5" font-family="Helvetica,sans-Serif" font-size="10.00"> </text>
<polyline fill="none" stroke="#bfbfbf" points="0,-339.5 83,-339.5 "/>
<text text-anchor="middle" x="41.5" y="-327.5" font-family="Helvetica,sans-Serif" font-size="10.00"> </text>
</a>
</g>
</g>
<!-- Node2&#45;&gt;Node1 -->
<g id="edge1" class="edge">
<title>Node2&#45;&gt;Node1</title>
<path fill="none" stroke="midnightblue" d="M70.94,-312.42C97.57,-281.54 138.9,-236.76 180.5,-204 221.16,-171.98 270.86,-142.37 311.92,-120.06"/>
<polygon fill="none" stroke="midnightblue" points="68,-310.48 64.16,-320.35 73.32,-315.03 68,-310.48"/>
</g>
<!-- Node3 -->
<g id="node3" class="node">
<title>Node3</title>
<g id="a_node3"><a xlink:href="class_screen_opts.html" target="_top" xlink:title=" ">
<polygon fill="none" stroke="black" points="189.5,-204.5 189.5,-272.5 295.5,-272.5 295.5,-204.5 189.5,-204.5"/>
<text text-anchor="middle" x="242.5" y="-260.5" font-family="Helvetica,sans-Serif" font-size="10.00">ScreenOpts</text>
<polyline fill="none" stroke="black" points="189.5,-253.5 295.5,-253.5 "/>
<text text-anchor="middle" x="242.5" y="-241.5" font-family="Helvetica,sans-Serif" font-size="10.00"> </text>
<polyline fill="none" stroke="black" points="189.5,-234.5 295.5,-234.5 "/>
<text text-anchor="start" x="197.5" y="-222.5" font-family="Helvetica,sans-Serif" font-size="10.00">~ void SetFPSStr(int</text>
<text text-anchor="start" x="197.5" y="-211.5" font-family="Helvetica,sans-Serif" font-size="10.00"> sliderFPSamount)</text>
</a>
</g>
</g>
<!-- Node2&#45;&gt;Node3 -->
<g id="edge3" class="edge">
<title>Node2&#45;&gt;Node3</title>
<path fill="none" stroke="midnightblue" d="M92.22,-320.15C92.31,-320.1 92.41,-320.05 92.5,-320 124.58,-302.59 160.62,-283.24 189.33,-267.88"/>
<polygon fill="none" stroke="midnightblue" points="90.34,-317.19 83.23,-325.05 93.69,-323.34 90.34,-317.19"/>
</g>
<!-- Node3&#45;&gt;Node1 -->
<g id="edge2" class="edge">
<title>Node3&#45;&gt;Node1</title>
<path fill="none" stroke="#404040" d="M273.94,-204.38C284.87,-192.87 297.68,-179.38 310.76,-165.6"/>
<polygon fill="none" stroke="#404040" points="311.12,-165.22 312.35,-158.11 319.38,-156.52 318.15,-163.62 311.12,-165.22"/>
<text text-anchor="middle" x="330.5" y="-178" font-family="Helvetica,sans-Serif" font-size="10.00"> +screenOpts</text>
</g>
<!-- Node4 -->
<g id="node4" class="node">
<title>Node4</title>
<g id="a_node4"><a xlink:title=" ">
<polygon fill="none" stroke="#bfbfbf" points="222,-320.5 222,-377.5 263,-377.5 263,-320.5 222,-320.5"/>
<text text-anchor="middle" x="242.5" y="-365.5" font-family="Helvetica,sans-Serif" font-size="10.00">string</text>
<polyline fill="none" stroke="#bfbfbf" points="222,-358.5 263,-358.5 "/>
<text text-anchor="middle" x="242.5" y="-346.5" font-family="Helvetica,sans-Serif" font-size="10.00"> </text>
<polyline fill="none" stroke="#bfbfbf" points="222,-339.5 263,-339.5 "/>
<text text-anchor="middle" x="242.5" y="-327.5" font-family="Helvetica,sans-Serif" font-size="10.00"> </text>
</a>
</g>
</g>
<!-- Node4&#45;&gt;Node3 -->
<g id="edge4" class="edge">
<title>Node4&#45;&gt;Node3</title>
<path fill="none" stroke="#404040" d="M242.5,-320.34C242.5,-309.53 242.5,-296.85 242.5,-284.77"/>
<polygon fill="none" stroke="#404040" points="242.5,-284.52 238.5,-278.52 242.5,-272.52 246.5,-278.52 242.5,-284.52"/>
<text text-anchor="middle" x="294" y="-294" font-family="Helvetica,sans-Serif" font-size="10.00"> +sliderFPSamountSTR</text>
</g>
<!-- Node5 -->
<g id="node5" class="node">
<title>Node5</title>
<g id="a_node5"><a xlink:title=" ">
<polygon fill="none" stroke="#bfbfbf" points="391,-320.5 391,-377.5 420,-377.5 420,-320.5 391,-320.5"/>
<text text-anchor="middle" x="405.5" y="-365.5" font-family="Helvetica,sans-Serif" font-size="10.00">int</text>
<polyline fill="none" stroke="#bfbfbf" points="391,-358.5 420,-358.5 "/>
<text text-anchor="middle" x="405.5" y="-346.5" font-family="Helvetica,sans-Serif" font-size="10.00"> </text>
<polyline fill="none" stroke="#bfbfbf" points="391,-339.5 420,-339.5 "/>
<text text-anchor="middle" x="405.5" y="-327.5" font-family="Helvetica,sans-Serif" font-size="10.00"> </text>
</a>
</g>
</g>
<!-- Node5&#45;&gt;Node1 -->
<g id="edge7" class="edge">
<title>Node5&#45;&gt;Node1</title>
<path fill="none" stroke="#404040" d="M417.55,-320.22C419.6,-314.31 421.42,-308.03 422.5,-302 423.36,-297.19 422.84,-295.88 422.5,-291 419.65,-250.61 413.77,-206.2 407.97,-168.55"/>
<polygon fill="none" stroke="#404040" points="407.95,-168.43 403.07,-163.12 406.09,-156.57 410.98,-161.88 407.95,-168.43"/>
<text text-anchor="middle" x="464" y="-236" font-family="Helvetica,sans-Serif" font-size="10.00"> +sliderFPSamount</text>
</g>
<!-- Node5&#45;&gt;Node3 -->
<g id="edge5" class="edge">
<title>Node5&#45;&gt;Node3</title>
<path fill="none" stroke="#404040" d="M390.89,-331.35C379.61,-319.14 363.15,-302.73 346.5,-291 334.16,-282.3 320.12,-274.28 306.45,-267.28"/>
<polygon fill="none" stroke="#404040" points="306.35,-267.23 299.2,-268.15 295.6,-261.9 302.75,-260.99 306.35,-267.23"/>
<text text-anchor="middle" x="389" y="-294" font-family="Helvetica,sans-Serif" font-size="10.00"> +currentFPS</text>
</g>
<!-- Node6 -->
<g id="node6" class="node">
<title>Node6</title>
<g id="a_node6"><a xlink:title=" ">
<polygon fill="none" stroke="#bfbfbf" points="101.5,-320.5 101.5,-377.5 203.5,-377.5 203.5,-320.5 101.5,-320.5"/>
<text text-anchor="middle" x="152.5" y="-365.5" font-family="Helvetica,sans-Serif" font-size="10.00">LocalizeStringEvent</text>
<polyline fill="none" stroke="#bfbfbf" points="101.5,-358.5 203.5,-358.5 "/>
<text text-anchor="middle" x="152.5" y="-346.5" font-family="Helvetica,sans-Serif" font-size="10.00"> </text>
<polyline fill="none" stroke="#bfbfbf" points="101.5,-339.5 203.5,-339.5 "/>
<text text-anchor="middle" x="152.5" y="-327.5" font-family="Helvetica,sans-Serif" font-size="10.00"> </text>
</a>
</g>
</g>
<!-- Node6&#45;&gt;Node3 -->
<g id="edge6" class="edge">
<title>Node6&#45;&gt;Node3</title>
<path fill="none" stroke="#404040" d="M157.45,-320.24C160.16,-310.36 164.28,-299.57 170.5,-291 173.45,-286.94 176.81,-283.08 180.44,-279.44"/>
<polygon fill="none" stroke="#404040" points="180.45,-279.42 182.18,-272.42 189.31,-271.32 187.58,-278.32 180.45,-279.42"/>
<text text-anchor="middle" x="204.5" y="-294" font-family="Helvetica,sans-Serif" font-size="10.00"> +localizeString</text>
</g>
<!-- Node7 -->
<g id="node7" class="node">
<title>Node7</title>
<g id="a_node7"><a xlink:title=" ">
<polygon fill="none" stroke="#bfbfbf" points="546,-210 546,-267 591,-267 591,-210 546,-210"/>
<text text-anchor="middle" x="568.5" y="-255" font-family="Helvetica,sans-Serif" font-size="10.00">Button</text>
<polyline fill="none" stroke="#bfbfbf" points="546,-248 591,-248 "/>
<text text-anchor="middle" x="568.5" y="-236" font-family="Helvetica,sans-Serif" font-size="10.00"> </text>
<polyline fill="none" stroke="#bfbfbf" points="546,-229 591,-229 "/>
<text text-anchor="middle" x="568.5" y="-217" font-family="Helvetica,sans-Serif" font-size="10.00"> </text>
</a>
</g>
</g>
<!-- Node7&#45;&gt;Node1 -->
<g id="edge8" class="edge">
<title>Node7&#45;&gt;Node1</title>
<path fill="none" stroke="#404040" d="M545.82,-216.93C541.09,-212.65 536.14,-208.18 531.5,-204 515.55,-189.64 498.56,-174.38 482.12,-159.64"/>
<polygon fill="none" stroke="#404040" points="481.99,-159.52 474.85,-158.5 473.05,-151.52 480.19,-152.54 481.99,-159.52"/>
<text text-anchor="middle" x="546" y="-178" font-family="Helvetica,sans-Serif" font-size="10.00"> +selectedButton</text>
</g>
</g>
</svg>
