<?xml version="1.0" encoding="UTF-8" standalone="no"?>
<!DOCTYPE svg PUBLIC "-//W3C//DTD SVG 1.1//EN"
 "http://www.w3.org/Graphics/SVG/1.1/DTD/svg11.dtd">
<!-- Generated by graphviz version 2.48.0 (20210717.1556)
 -->
<!-- Title: DialogueTextEffector Pages: 1 -->
<svg width="219pt" height="215pt"
 viewBox="0.00 0.00 218.50 215.00" xmlns="http://www.w3.org/2000/svg" xmlns:xlink="http://www.w3.org/1999/xlink">
<g id="graph0" class="graph" transform="scale(1 1) rotate(0) translate(4 211)">
<title>DialogueTextEffector</title>
<!-- Node1 -->
<g id="node1" class="node">
<title>Node1</title>
<g id="a_node1"><a xlink:title=" ">
<polygon fill="#bfbfbf" stroke="black" points="50,-0.5 50,-90.5 193,-90.5 193,-0.5 50,-0.5"/>
<text text-anchor="middle" x="121.5" y="-78.5" font-family="Helvetica,sans-Serif" font-size="10.00">DialogueTextEffector</text>
<polyline fill="none" stroke="black" points="50,-71.5 193,-71.5 "/>
<text text-anchor="start" x="58" y="-59.5" font-family="Helvetica,sans-Serif" font-size="10.00">+ string Text</text>
<polyline fill="none" stroke="black" points="50,-52.5 193,-52.5 "/>
<text text-anchor="start" x="58" y="-40.5" font-family="Helvetica,sans-Serif" font-size="10.00">+ void DisplayDialogues()</text>
<text text-anchor="start" x="58" y="-29.5" font-family="Helvetica,sans-Serif" font-size="10.00">+ void SetDialogues(Dialogue</text>
<text text-anchor="start" x="58" y="-18.5" font-family="Helvetica,sans-Serif" font-size="10.00">Group dialogues)</text>
<text text-anchor="start" x="58" y="-7.5" font-family="Helvetica,sans-Serif" font-size="10.00">+ void ChooseOption(int i)</text>
</a>
</g>
</g>
<!-- Node2 -->
<g id="node2" class="node">
<title>Node2</title>
<g id="a_node2"><a xlink:title=" ">
<polygon fill="none" stroke="#bfbfbf" points="0,-149.5 0,-206.5 83,-206.5 83,-149.5 0,-149.5"/>
<text text-anchor="middle" x="41.5" y="-194.5" font-family="Helvetica,sans-Serif" font-size="10.00">MonoBehaviour</text>
<polyline fill="none" stroke="#bfbfbf" points="0,-187.5 83,-187.5 "/>
<text text-anchor="middle" x="41.5" y="-175.5" font-family="Helvetica,sans-Serif" font-size="10.00"> </text>
<polyline fill="none" stroke="#bfbfbf" points="0,-168.5 83,-168.5 "/>
<text text-anchor="middle" x="41.5" y="-156.5" font-family="Helvetica,sans-Serif" font-size="10.00"> </text>
</a>
</g>
</g>
<!-- Node2&#45;&gt;Node1 -->
<g id="edge1" class="edge">
<title>Node2&#45;&gt;Node1</title>
<path fill="none" stroke="midnightblue" d="M63.85,-140.54C73.35,-125.04 84.52,-106.82 94.49,-90.57"/>
<polygon fill="none" stroke="midnightblue" points="60.71,-138.97 58.47,-149.32 66.68,-142.63 60.71,-138.97"/>
</g>
<!-- Node3 -->
<g id="node3" class="node">
<title>Node3</title>
<g id="a_node3"><a xlink:title=" ">
<polygon fill="none" stroke="#bfbfbf" points="101,-149.5 101,-206.5 142,-206.5 142,-149.5 101,-149.5"/>
<text text-anchor="middle" x="121.5" y="-194.5" font-family="Helvetica,sans-Serif" font-size="10.00">string</text>
<polyline fill="none" stroke="#bfbfbf" points="101,-187.5 142,-187.5 "/>
<text text-anchor="middle" x="121.5" y="-175.5" font-family="Helvetica,sans-Serif" font-size="10.00"> </text>
<polyline fill="none" stroke="#bfbfbf" points="101,-168.5 142,-168.5 "/>
<text text-anchor="middle" x="121.5" y="-156.5" font-family="Helvetica,sans-Serif" font-size="10.00"> </text>
</a>
</g>
</g>
<!-- Node3&#45;&gt;Node1 -->
<g id="edge2" class="edge">
<title>Node3&#45;&gt;Node1</title>
<path fill="none" stroke="#404040" d="M121.5,-149.32C121.5,-135.73 121.5,-118.84 121.5,-102.7"/>
<polygon fill="none" stroke="#404040" points="121.5,-102.57 117.5,-96.57 121.5,-90.57 125.5,-96.57 121.5,-102.57"/>
<text text-anchor="middle" x="134.5" y="-117.5" font-family="Helvetica,sans-Serif" font-size="10.00"> +text</text>
</g>
<!-- Node4 -->
<g id="node4" class="node">
<title>Node4</title>
<g id="a_node4"><a xlink:title=" ">
<polygon fill="none" stroke="#bfbfbf" points="160,-149.5 160,-206.5 195,-206.5 195,-149.5 160,-149.5"/>
<text text-anchor="middle" x="177.5" y="-194.5" font-family="Helvetica,sans-Serif" font-size="10.00">float</text>
<polyline fill="none" stroke="#bfbfbf" points="160,-187.5 195,-187.5 "/>
<text text-anchor="middle" x="177.5" y="-175.5" font-family="Helvetica,sans-Serif" font-size="10.00"> </text>
<polyline fill="none" stroke="#bfbfbf" points="160,-168.5 195,-168.5 "/>
<text text-anchor="middle" x="177.5" y="-156.5" font-family="Helvetica,sans-Serif" font-size="10.00"> </text>
</a>
</g>
</g>
<!-- Node4&#45;&gt;Node1 -->
<g id="edge3" class="edge">
<title>Node4&#45;&gt;Node1</title>
<path fill="none" stroke="#404040" d="M167.51,-149.33C162.87,-136.91 157.15,-122.12 151.5,-109 150.46,-106.57 149.37,-104.11 148.26,-101.62"/>
<polygon fill="none" stroke="#404040" points="148.25,-101.59 142.12,-97.8 143.26,-90.68 149.39,-94.47 148.25,-101.59"/>
<text text-anchor="middle" x="185" y="-123" font-family="Helvetica,sans-Serif" font-size="10.00"> +delay</text>
<text text-anchor="middle" x="185" y="-112" font-family="Helvetica,sans-Serif" font-size="10.00">+startDelay</text>
</g>
</g>
</svg>
