<?xml version="1.0" encoding="UTF-8" standalone="no"?>
<!DOCTYPE svg PUBLIC "-//W3C//DTD SVG 1.1//EN"
 "http://www.w3.org/Graphics/SVG/1.1/DTD/svg11.dtd">
<!-- Generated by graphviz version 2.48.0 (20210717.1556)
 -->
<!-- Title: Controllers.StateMachine.States.Data.DeadStateData Pages: 1 -->
<svg width="263pt" height="193pt"
 viewBox="0.00 0.00 262.50 193.00" xmlns="http://www.w3.org/2000/svg" xmlns:xlink="http://www.w3.org/1999/xlink">
<g id="graph0" class="graph" transform="scale(1 1) rotate(0) translate(4 189)">
<title>Controllers.StateMachine.States.Data.DeadStateData</title>
<!-- Node1 -->
<g id="node1" class="node">
<title>Node1</title>
<g id="a_node1"><a xlink:title=" ">
<polygon fill="#bfbfbf" stroke="black" points="74,-0.5 74,-68.5 211,-68.5 211,-0.5 74,-0.5"/>
<text text-anchor="start" x="82" y="-56.5" font-family="Helvetica,sans-Serif" font-size="10.00">Controllers.StateMachine.</text>
<text text-anchor="middle" x="142.5" y="-45.5" font-family="Helvetica,sans-Serif" font-size="10.00">States.Data.DeadStateData</text>
<polyline fill="none" stroke="black" points="74,-38.5 211,-38.5 "/>
<text text-anchor="middle" x="142.5" y="-26.5" font-family="Helvetica,sans-Serif" font-size="10.00"> </text>
<polyline fill="none" stroke="black" points="74,-19.5 211,-19.5 "/>
<text text-anchor="middle" x="142.5" y="-7.5" font-family="Helvetica,sans-Serif" font-size="10.00"> </text>
</a>
</g>
</g>
<!-- Node2 -->
<g id="node2" class="node">
<title>Node2</title>
<g id="a_node2"><a xlink:href="class_scriptable_object.html" target="_top" xlink:title=" ">
<polygon fill="none" stroke="black" points="0,-127.5 0,-184.5 89,-184.5 89,-127.5 0,-127.5"/>
<text text-anchor="middle" x="44.5" y="-172.5" font-family="Helvetica,sans-Serif" font-size="10.00">ScriptableObject</text>
<polyline fill="none" stroke="black" points="0,-165.5 89,-165.5 "/>
<text text-anchor="middle" x="44.5" y="-153.5" font-family="Helvetica,sans-Serif" font-size="10.00"> </text>
<polyline fill="none" stroke="black" points="0,-146.5 89,-146.5 "/>
<text text-anchor="middle" x="44.5" y="-134.5" font-family="Helvetica,sans-Serif" font-size="10.00"> </text>
</a>
</g>
</g>
<!-- Node2&#45;&gt;Node1 -->
<g id="edge1" class="edge">
<title>Node2&#45;&gt;Node1</title>
<path fill="none" stroke="midnightblue" d="M73.88,-119.17C87.05,-103.12 102.48,-84.31 115.36,-68.59"/>
<polygon fill="none" stroke="midnightblue" points="70.86,-117.33 67.23,-127.28 76.28,-121.77 70.86,-117.33"/>
</g>
<!-- Node3 -->
<g id="node3" class="node">
<title>Node3</title>
<g id="a_node3"><a xlink:title=" ">
<polygon fill="none" stroke="#bfbfbf" points="107,-127.5 107,-184.5 178,-184.5 178,-127.5 107,-127.5"/>
<text text-anchor="middle" x="142.5" y="-172.5" font-family="Helvetica,sans-Serif" font-size="10.00">GameObject</text>
<polyline fill="none" stroke="#bfbfbf" points="107,-165.5 178,-165.5 "/>
<text text-anchor="middle" x="142.5" y="-153.5" font-family="Helvetica,sans-Serif" font-size="10.00"> </text>
<polyline fill="none" stroke="#bfbfbf" points="107,-146.5 178,-146.5 "/>
<text text-anchor="middle" x="142.5" y="-134.5" font-family="Helvetica,sans-Serif" font-size="10.00"> </text>
</a>
</g>
</g>
<!-- Node3&#45;&gt;Node1 -->
<g id="edge2" class="edge">
<title>Node3&#45;&gt;Node1</title>
<path fill="none" stroke="#404040" d="M142.5,-127.28C142.5,-113.47 142.5,-96.4 142.5,-80.75"/>
<polygon fill="none" stroke="#404040" points="142.5,-80.59 138.5,-74.59 142.5,-68.59 146.5,-74.59 142.5,-80.59"/>
<text text-anchor="middle" x="160" y="-95.5" font-family="Helvetica,sans-Serif" font-size="10.00"> +lapida</text>
</g>
<!-- Node4 -->
<g id="node4" class="node">
<title>Node4</title>
<g id="a_node4"><a xlink:title=" ">
<polygon fill="none" stroke="#bfbfbf" points="196,-127.5 196,-184.5 231,-184.5 231,-127.5 196,-127.5"/>
<text text-anchor="middle" x="213.5" y="-172.5" font-family="Helvetica,sans-Serif" font-size="10.00">bool</text>
<polyline fill="none" stroke="#bfbfbf" points="196,-165.5 231,-165.5 "/>
<text text-anchor="middle" x="213.5" y="-153.5" font-family="Helvetica,sans-Serif" font-size="10.00"> </text>
<polyline fill="none" stroke="#bfbfbf" points="196,-146.5 231,-146.5 "/>
<text text-anchor="middle" x="213.5" y="-134.5" font-family="Helvetica,sans-Serif" font-size="10.00"> </text>
</a>
</g>
</g>
<!-- Node4&#45;&gt;Node1 -->
<g id="edge3" class="edge">
<title>Node4&#45;&gt;Node1</title>
<path fill="none" stroke="#404040" d="M201.99,-127.19C196.39,-114.6 189.2,-99.73 181.5,-87 179.82,-84.22 178.01,-81.4 176.14,-78.6"/>
<polygon fill="none" stroke="#404040" points="176.02,-78.42 169.3,-75.8 169.14,-68.59 175.85,-71.21 176.02,-78.42"/>
<text text-anchor="middle" x="223.5" y="-101" font-family="Helvetica,sans-Serif" font-size="10.00"> +applyTorque</text>
<text text-anchor="middle" x="223.5" y="-90" font-family="Helvetica,sans-Serif" font-size="10.00">+showLapida</text>
</g>
</g>
</svg>
