<?xml version="1.0" encoding="UTF-8" standalone="no"?>
<!DOCTYPE svg PUBLIC "-//W3C//DTD SVG 1.1//EN"
 "http://www.w3.org/Graphics/SVG/1.1/DTD/svg11.dtd">
<!-- Generated by graphviz version 2.48.0 (20210717.1556)
 -->
<!-- Title: Controllers.StateMachine.State Pages: 1 -->
<svg width="2075pt" height="1437pt"
 viewBox="0.00 0.00 2075.00 1437.00" xmlns="http://www.w3.org/2000/svg" xmlns:xlink="http://www.w3.org/1999/xlink">
<g id="graph0" class="graph" transform="scale(1 1) rotate(0) translate(4 1433)">
<title>Controllers.StateMachine.State</title>
<!-- Node1 -->
<g id="node1" class="node">
<title>Node1</title>
<g id="a_node1"><a xlink:title="Clase base para los estados de cada personaje. Controla el ciclo de vida de cada estado (Enter,...">
<polygon fill="#bfbfbf" stroke="black" points="398,-0.5 398,-145.5 543,-145.5 543,-0.5 398,-0.5"/>
<text text-anchor="start" x="406" y="-133.5" font-family="Helvetica,sans-Serif" font-size="10.00">Controllers.StateMachine.</text>
<text text-anchor="middle" x="470.5" y="-122.5" font-family="Helvetica,sans-Serif" font-size="10.00">State</text>
<polyline fill="none" stroke="black" points="398,-115.5 543,-115.5 "/>
<text text-anchor="middle" x="470.5" y="-103.5" font-family="Helvetica,sans-Serif" font-size="10.00"> </text>
<polyline fill="none" stroke="black" points="398,-96.5 543,-96.5 "/>
<text text-anchor="start" x="406" y="-84.5" font-family="Helvetica,sans-Serif" font-size="10.00">+ State(BaseController</text>
<text text-anchor="start" x="406" y="-73.5" font-family="Helvetica,sans-Serif" font-size="10.00"> controller, ControllerState</text>
<text text-anchor="start" x="406" y="-62.5" font-family="Helvetica,sans-Serif" font-size="10.00">Machine stateMachine, string</text>
<text text-anchor="start" x="406" y="-51.5" font-family="Helvetica,sans-Serif" font-size="10.00"> animBoolName)</text>
<text text-anchor="start" x="406" y="-40.5" font-family="Helvetica,sans-Serif" font-size="10.00">+ virtual void Enter()</text>
<text text-anchor="start" x="406" y="-29.5" font-family="Helvetica,sans-Serif" font-size="10.00">+ virtual void Exit()</text>
<text text-anchor="start" x="406" y="-18.5" font-family="Helvetica,sans-Serif" font-size="10.00">+ virtual void UpdateState()</text>
<text text-anchor="start" x="406" y="-7.5" font-family="Helvetica,sans-Serif" font-size="10.00">+ virtual void UpdatePhysics()</text>
</a>
</g>
</g>
<!-- Node2 -->
<g id="node2" class="node">
<title>Node2</title>
<g id="a_node2"><a xlink:title=" ">
<polygon fill="none" stroke="#bfbfbf" points="113,-496 113,-553 154,-553 154,-496 113,-496"/>
<text text-anchor="middle" x="133.5" y="-541" font-family="Helvetica,sans-Serif" font-size="10.00">string</text>
<polyline fill="none" stroke="#bfbfbf" points="113,-534 154,-534 "/>
<text text-anchor="middle" x="133.5" y="-522" font-family="Helvetica,sans-Serif" font-size="10.00"> </text>
<polyline fill="none" stroke="#bfbfbf" points="113,-515 154,-515 "/>
<text text-anchor="middle" x="133.5" y="-503" font-family="Helvetica,sans-Serif" font-size="10.00"> </text>
</a>
</g>
</g>
<!-- Node2&#45;&gt;Node1 -->
<g id="edge1" class="edge">
<title>Node2&#45;&gt;Node1</title>
<path fill="none" stroke="#404040" d="M123.35,-495.6C101.44,-429.98 57.61,-263.91 134.5,-164 165,-124.37 296.69,-98.34 385.86,-84.91"/>
<polygon fill="none" stroke="#404040" points="386,-84.89 391.36,-80.06 397.88,-83.14 392.52,-87.97 386,-84.89"/>
<text text-anchor="middle" x="172" y="-167" font-family="Helvetica,sans-Serif" font-size="10.00"> #animBoolName</text>
</g>
<!-- Node3 -->
<g id="node3" class="node">
<title>Node3</title>
<g id="a_node3"><a xlink:href="class_controllers_1_1_base_controller.html" target="_top" xlink:title=" ">
<polygon fill="none" stroke="black" points="1092,-193.5 1092,-855.5 1265,-855.5 1265,-193.5 1092,-193.5"/>
<text text-anchor="middle" x="1178.5" y="-843.5" font-family="Helvetica,sans-Serif" font-size="10.00">Controllers.BaseController</text>
<polyline fill="none" stroke="black" points="1092,-836.5 1265,-836.5 "/>
<text text-anchor="start" x="1100" y="-824.5" font-family="Helvetica,sans-Serif" font-size="10.00">+ int FacingDirection</text>
<text text-anchor="start" x="1100" y="-813.5" font-family="Helvetica,sans-Serif" font-size="10.00">+ bool IsReadyToAttack</text>
<text text-anchor="start" x="1100" y="-802.5" font-family="Helvetica,sans-Serif" font-size="10.00">+ bool wallDetected</text>
<text text-anchor="start" x="1100" y="-791.5" font-family="Helvetica,sans-Serif" font-size="10.00">+ bool groundDetected</text>
<text text-anchor="start" x="1100" y="-780.5" font-family="Helvetica,sans-Serif" font-size="10.00">+ bool topDetected</text>
<polyline fill="none" stroke="black" points="1092,-773.5 1265,-773.5 "/>
<text text-anchor="start" x="1100" y="-761.5" font-family="Helvetica,sans-Serif" font-size="10.00">+ virtual void Damage</text>
<text text-anchor="start" x="1100" y="-750.5" font-family="Helvetica,sans-Serif" font-size="10.00">(float amount, int attackN)</text>
<text text-anchor="start" x="1100" y="-739.5" font-family="Helvetica,sans-Serif" font-size="10.00">+ virtual void Damage</text>
<text text-anchor="start" x="1100" y="-728.5" font-family="Helvetica,sans-Serif" font-size="10.00">(DamageInfo damageInfo)</text>
<text text-anchor="start" x="1100" y="-717.5" font-family="Helvetica,sans-Serif" font-size="10.00">+ void Damage(BaseController</text>
<text text-anchor="start" x="1100" y="-706.5" font-family="Helvetica,sans-Serif" font-size="10.00"> controller, DamageInfo</text>
<text text-anchor="start" x="1100" y="-695.5" font-family="Helvetica,sans-Serif" font-size="10.00"> damageInfo)</text>
<text text-anchor="start" x="1100" y="-684.5" font-family="Helvetica,sans-Serif" font-size="10.00">+ void Kill()</text>
<text text-anchor="start" x="1100" y="-673.5" font-family="Helvetica,sans-Serif" font-size="10.00">+ bool Interact(BaseController</text>
<text text-anchor="start" x="1100" y="-662.5" font-family="Helvetica,sans-Serif" font-size="10.00"> controller, EInteractionKind</text>
<text text-anchor="start" x="1100" y="-651.5" font-family="Helvetica,sans-Serif" font-size="10.00"> interactionKind)</text>
<text text-anchor="start" x="1100" y="-640.5" font-family="Helvetica,sans-Serif" font-size="10.00">+ virtual bool Interact</text>
<text text-anchor="start" x="1100" y="-629.5" font-family="Helvetica,sans-Serif" font-size="10.00">(PlayerController controller,</text>
<text text-anchor="start" x="1100" y="-618.5" font-family="Helvetica,sans-Serif" font-size="10.00"> EInteractionKind interactionKind)</text>
<text text-anchor="start" x="1100" y="-607.5" font-family="Helvetica,sans-Serif" font-size="10.00">+ void ReadyToInteract</text>
<text text-anchor="start" x="1100" y="-596.5" font-family="Helvetica,sans-Serif" font-size="10.00">(PlayerController controller,</text>
<text text-anchor="start" x="1100" y="-585.5" font-family="Helvetica,sans-Serif" font-size="10.00"> bool isReady)</text>
<text text-anchor="start" x="1100" y="-574.5" font-family="Helvetica,sans-Serif" font-size="10.00">+ void ReadyToInteract</text>
<text text-anchor="start" x="1100" y="-563.5" font-family="Helvetica,sans-Serif" font-size="10.00">(BaseController controller,</text>
<text text-anchor="start" x="1100" y="-552.5" font-family="Helvetica,sans-Serif" font-size="10.00"> bool isReady)</text>
<text text-anchor="start" x="1100" y="-541.5" font-family="Helvetica,sans-Serif" font-size="10.00">+ void Flip()</text>
<text text-anchor="start" x="1100" y="-530.5" font-family="Helvetica,sans-Serif" font-size="10.00">+ void SetVelocity(float</text>
<text text-anchor="start" x="1100" y="-519.5" font-family="Helvetica,sans-Serif" font-size="10.00"> velocity)</text>
<text text-anchor="start" x="1100" y="-508.5" font-family="Helvetica,sans-Serif" font-size="10.00">+ void AddForce(Vector2</text>
<text text-anchor="start" x="1100" y="-497.5" font-family="Helvetica,sans-Serif" font-size="10.00"> newForce, bool isImpulse)</text>
<text text-anchor="start" x="1100" y="-486.5" font-family="Helvetica,sans-Serif" font-size="10.00">+ void AddTorque(float</text>
<text text-anchor="start" x="1100" y="-475.5" font-family="Helvetica,sans-Serif" font-size="10.00"> newTorque, bool isImpulse)</text>
<text text-anchor="start" x="1100" y="-464.5" font-family="Helvetica,sans-Serif" font-size="10.00">+ T GetMovementController</text>
<text text-anchor="start" x="1100" y="-453.5" font-family="Helvetica,sans-Serif" font-size="10.00">&lt; T &gt;()</text>
<text text-anchor="start" x="1100" y="-442.5" font-family="Helvetica,sans-Serif" font-size="10.00">+ Animator GetAnimator()</text>
<text text-anchor="start" x="1100" y="-431.5" font-family="Helvetica,sans-Serif" font-size="10.00">+ Transform GetTransfrom()</text>
<text text-anchor="start" x="1100" y="-420.5" font-family="Helvetica,sans-Serif" font-size="10.00">+ GameObject GetDialogueBubble()</text>
<text text-anchor="start" x="1100" y="-409.5" font-family="Helvetica,sans-Serif" font-size="10.00">+ bool CheckWall()</text>
<text text-anchor="start" x="1100" y="-398.5" font-family="Helvetica,sans-Serif" font-size="10.00">+ bool CheckLedge()</text>
<text text-anchor="start" x="1100" y="-387.5" font-family="Helvetica,sans-Serif" font-size="10.00">+ bool CheckGround()</text>
<text text-anchor="start" x="1100" y="-376.5" font-family="Helvetica,sans-Serif" font-size="10.00">+ bool CheckTop()</text>
<text text-anchor="start" x="1100" y="-365.5" font-family="Helvetica,sans-Serif" font-size="10.00">+ bool CheckPlayerInNearRange()</text>
<text text-anchor="start" x="1100" y="-354.5" font-family="Helvetica,sans-Serif" font-size="10.00">+ bool CheckPlayerInLongRange()</text>
<text text-anchor="start" x="1100" y="-343.5" font-family="Helvetica,sans-Serif" font-size="10.00">+ void CheckTouchDamage()</text>
<text text-anchor="start" x="1100" y="-332.5" font-family="Helvetica,sans-Serif" font-size="10.00">+ virtual void Die()</text>
<text text-anchor="start" x="1100" y="-321.5" font-family="Helvetica,sans-Serif" font-size="10.00">+ void DestroyNow()</text>
<text text-anchor="start" x="1100" y="-310.5" font-family="Helvetica,sans-Serif" font-size="10.00">+ void DestroyNow(GameObject</text>
<text text-anchor="start" x="1100" y="-299.5" font-family="Helvetica,sans-Serif" font-size="10.00"> lapida)</text>
<text text-anchor="start" x="1100" y="-288.5" font-family="Helvetica,sans-Serif" font-size="10.00">+ bool CanCharacterInteract()</text>
<text text-anchor="start" x="1100" y="-277.5" font-family="Helvetica,sans-Serif" font-size="10.00">+ bool IsDead()</text>
<text text-anchor="start" x="1100" y="-266.5" font-family="Helvetica,sans-Serif" font-size="10.00"># virtual void Start()</text>
<text text-anchor="start" x="1100" y="-255.5" font-family="Helvetica,sans-Serif" font-size="10.00"># virtual void Update()</text>
<text text-anchor="start" x="1100" y="-244.5" font-family="Helvetica,sans-Serif" font-size="10.00"># virtual void OnDrawGizmos()</text>
<text text-anchor="start" x="1100" y="-233.5" font-family="Helvetica,sans-Serif" font-size="10.00"># void MoveOnDamaged</text>
<text text-anchor="start" x="1100" y="-222.5" font-family="Helvetica,sans-Serif" font-size="10.00">(int direction, Vector2</text>
<text text-anchor="start" x="1100" y="-211.5" font-family="Helvetica,sans-Serif" font-size="10.00"> moveOnDamagedForce)</text>
<text text-anchor="start" x="1100" y="-200.5" font-family="Helvetica,sans-Serif" font-size="10.00"># IEnumerator DamageEffect()</text>
</a>
</g>
</g>
<!-- Node3&#45;&gt;Node1 -->
<g id="edge2" class="edge">
<title>Node3&#45;&gt;Node1</title>
<path fill="none" stroke="#404040" d="M1091.69,-468.38C954.21,-381.1 688.22,-212.23 553.3,-126.57"/>
<polygon fill="none" stroke="#404040" points="553.15,-126.48 545.95,-126.64 543.02,-120.04 550.23,-119.88 553.15,-126.48"/>
<text text-anchor="middle" x="648" y="-167" font-family="Helvetica,sans-Serif" font-size="10.00"> #controller</text>
</g>
<!-- Node4 -->
<g id="node4" class="node">
<title>Node4</title>
<g id="a_node4"><a xlink:href="interface_controllers_1_1_i_damageable.html" target="_top" xlink:title="Interfaz para todos los NPCs/Enemigos/Objetos que pueden ser daniados.">
<polygon fill="none" stroke="black" points="1288.5,-1327.5 1288.5,-1428.5 1436.5,-1428.5 1436.5,-1327.5 1288.5,-1327.5"/>
<text text-anchor="middle" x="1362.5" y="-1416.5" font-family="Helvetica,sans-Serif" font-size="10.00">IDamageable</text>
<polyline fill="none" stroke="black" points="1288.5,-1409.5 1436.5,-1409.5 "/>
<text text-anchor="middle" x="1362.5" y="-1397.5" font-family="Helvetica,sans-Serif" font-size="10.00"> </text>
<polyline fill="none" stroke="black" points="1288.5,-1390.5 1436.5,-1390.5 "/>
<text text-anchor="start" x="1296.5" y="-1378.5" font-family="Helvetica,sans-Serif" font-size="10.00">+ void Damage(BaseController</text>
<text text-anchor="start" x="1296.5" y="-1367.5" font-family="Helvetica,sans-Serif" font-size="10.00"> controller, DamageInfo</text>
<text text-anchor="start" x="1296.5" y="-1356.5" font-family="Helvetica,sans-Serif" font-size="10.00"> damageInfo)</text>
<text text-anchor="start" x="1296.5" y="-1345.5" font-family="Helvetica,sans-Serif" font-size="10.00">+ void Damage(DamageInfo</text>
<text text-anchor="start" x="1296.5" y="-1334.5" font-family="Helvetica,sans-Serif" font-size="10.00"> damageInfo)</text>
</a>
</g>
</g>
<!-- Node4&#45;&gt;Node3 -->
<g id="edge3" class="edge">
<title>Node4&#45;&gt;Node3</title>
<path fill="none" stroke="midnightblue" d="M1445.29,-1333.55C1488.84,-1305.77 1538.13,-1265.3 1562.5,-1214 1591.11,-1153.78 1585.04,-976.74 1562.5,-914 1508.79,-764.51 1360.97,-644.32 1265.19,-579.09"/>
<polygon fill="none" stroke="midnightblue" points="1443.29,-1330.67 1436.66,-1338.94 1447,-1336.61 1443.29,-1330.67"/>
</g>
<!-- Node21 -->
<g id="node21" class="node">
<title>Node21</title>
<g id="a_node21"><a xlink:href="class_player_1_1_player_controller.html" target="_top" xlink:title=" ">
<polygon fill="none" stroke="black" points="638.5,-914.5 638.5,-1213.5 788.5,-1213.5 788.5,-914.5 638.5,-914.5"/>
<text text-anchor="middle" x="713.5" y="-1201.5" font-family="Helvetica,sans-Serif" font-size="10.00">Player.PlayerController</text>
<polyline fill="none" stroke="black" points="638.5,-1194.5 788.5,-1194.5 "/>
<text text-anchor="middle" x="713.5" y="-1182.5" font-family="Helvetica,sans-Serif" font-size="10.00"> </text>
<polyline fill="none" stroke="black" points="638.5,-1175.5 788.5,-1175.5 "/>
<text text-anchor="start" x="646.5" y="-1163.5" font-family="Helvetica,sans-Serif" font-size="10.00">+ void Damage(BaseController</text>
<text text-anchor="start" x="646.5" y="-1152.5" font-family="Helvetica,sans-Serif" font-size="10.00"> controller, DamageInfo</text>
<text text-anchor="start" x="646.5" y="-1141.5" font-family="Helvetica,sans-Serif" font-size="10.00"> damageInfo)</text>
<text text-anchor="start" x="646.5" y="-1130.5" font-family="Helvetica,sans-Serif" font-size="10.00">+ void Damage(DamageInfo</text>
<text text-anchor="start" x="646.5" y="-1119.5" font-family="Helvetica,sans-Serif" font-size="10.00"> damageInfo)</text>
<text text-anchor="start" x="646.5" y="-1108.5" font-family="Helvetica,sans-Serif" font-size="10.00">+ void ExitInteractionMode()</text>
<text text-anchor="start" x="646.5" y="-1097.5" font-family="Helvetica,sans-Serif" font-size="10.00">+ void EnterInteractionMode()</text>
<text text-anchor="start" x="646.5" y="-1086.5" font-family="Helvetica,sans-Serif" font-size="10.00">+ int GetFacingDirection()</text>
<text text-anchor="start" x="646.5" y="-1075.5" font-family="Helvetica,sans-Serif" font-size="10.00">+ void LandEvt()</text>
<text text-anchor="start" x="646.5" y="-1064.5" font-family="Helvetica,sans-Serif" font-size="10.00">+ void OnAirEvt()</text>
<text text-anchor="start" x="646.5" y="-1053.5" font-family="Helvetica,sans-Serif" font-size="10.00">+ bool IsFacingRight()</text>
<text text-anchor="start" x="646.5" y="-1042.5" font-family="Helvetica,sans-Serif" font-size="10.00">+ void AddEffect(EEffectKind</text>
<text text-anchor="start" x="646.5" y="-1031.5" font-family="Helvetica,sans-Serif" font-size="10.00"> kind, float lifetime)</text>
<text text-anchor="start" x="646.5" y="-1020.5" font-family="Helvetica,sans-Serif" font-size="10.00">+ void AddPowerUp(EPowerUp</text>
<text text-anchor="start" x="646.5" y="-1009.5" font-family="Helvetica,sans-Serif" font-size="10.00">Kind kind)</text>
<text text-anchor="start" x="646.5" y="-998.5" font-family="Helvetica,sans-Serif" font-size="10.00">+ void AnimStartPrayingEvt()</text>
<text text-anchor="start" x="646.5" y="-987.5" font-family="Helvetica,sans-Serif" font-size="10.00">+ void AnimRollEndEvt()</text>
<text text-anchor="start" x="646.5" y="-976.5" font-family="Helvetica,sans-Serif" font-size="10.00">+ void AnimFootStep1Evt()</text>
<text text-anchor="start" x="646.5" y="-965.5" font-family="Helvetica,sans-Serif" font-size="10.00">+ void AnimFootStep2Evt()</text>
<text text-anchor="start" x="646.5" y="-954.5" font-family="Helvetica,sans-Serif" font-size="10.00">+ void KrownsAdded()</text>
<text text-anchor="start" x="646.5" y="-943.5" font-family="Helvetica,sans-Serif" font-size="10.00">+ void KrownsRemoved()</text>
<text text-anchor="start" x="646.5" y="-932.5" font-family="Helvetica,sans-Serif" font-size="10.00">~ void OnEnable()</text>
<text text-anchor="start" x="646.5" y="-921.5" font-family="Helvetica,sans-Serif" font-size="10.00">~ void OnDisable()</text>
</a>
</g>
</g>
<!-- Node4&#45;&gt;Node21 -->
<g id="edge23" class="edge">
<title>Node4&#45;&gt;Node21</title>
<path fill="none" stroke="midnightblue" d="M1277.9,-1372.32C1158.85,-1361.71 940.47,-1327.07 797.5,-1214 794.47,-1211.61 791.54,-1209.07 788.69,-1206.41"/>
<polygon fill="none" stroke="midnightblue" points="1277.79,-1375.82 1288.05,-1373.19 1278.39,-1368.85 1277.79,-1375.82"/>
</g>
<!-- Node5 -->
<g id="node5" class="node">
<title>Node5</title>
<g id="a_node5"><a xlink:href="interface_interactions_1_1_interfaces_1_1_i_interactive.html" target="_top" xlink:title=" ">
<polygon fill="none" stroke="black" points="807,-975 807,-1153 958,-1153 958,-975 807,-975"/>
<text text-anchor="middle" x="882.5" y="-1141" font-family="Helvetica,sans-Serif" font-size="10.00">IInteractive</text>
<polyline fill="none" stroke="black" points="807,-1134 958,-1134 "/>
<text text-anchor="middle" x="882.5" y="-1122" font-family="Helvetica,sans-Serif" font-size="10.00"> </text>
<polyline fill="none" stroke="black" points="807,-1115 958,-1115 "/>
<text text-anchor="start" x="815" y="-1103" font-family="Helvetica,sans-Serif" font-size="10.00">+ bool Interact(BaseController</text>
<text text-anchor="start" x="815" y="-1092" font-family="Helvetica,sans-Serif" font-size="10.00"> controller, EInteractionKind</text>
<text text-anchor="start" x="815" y="-1081" font-family="Helvetica,sans-Serif" font-size="10.00"> interactionKind)</text>
<text text-anchor="start" x="815" y="-1070" font-family="Helvetica,sans-Serif" font-size="10.00">+ bool Interact(PlayerController</text>
<text text-anchor="start" x="815" y="-1059" font-family="Helvetica,sans-Serif" font-size="10.00"> controller, EInteractionKind</text>
<text text-anchor="start" x="815" y="-1048" font-family="Helvetica,sans-Serif" font-size="10.00"> interactionKind)</text>
<text text-anchor="start" x="815" y="-1037" font-family="Helvetica,sans-Serif" font-size="10.00">+ void ReadyToInteract</text>
<text text-anchor="start" x="815" y="-1026" font-family="Helvetica,sans-Serif" font-size="10.00">(PlayerController controller,</text>
<text text-anchor="start" x="815" y="-1015" font-family="Helvetica,sans-Serif" font-size="10.00"> bool isReady)</text>
<text text-anchor="start" x="815" y="-1004" font-family="Helvetica,sans-Serif" font-size="10.00">+ void ReadyToInteract</text>
<text text-anchor="start" x="815" y="-993" font-family="Helvetica,sans-Serif" font-size="10.00">(BaseController controller,</text>
<text text-anchor="start" x="815" y="-982" font-family="Helvetica,sans-Serif" font-size="10.00"> bool isReady)</text>
</a>
</g>
</g>
<!-- Node5&#45;&gt;Node3 -->
<g id="edge4" class="edge">
<title>Node5&#45;&gt;Node3</title>
<path fill="none" stroke="midnightblue" d="M935.98,-965.88C979.39,-887.05 1041.46,-774.35 1091.94,-682.69"/>
<polygon fill="none" stroke="midnightblue" points="932.8,-964.4 931.05,-974.84 938.94,-967.77 932.8,-964.4"/>
</g>
<!-- Node6 -->
<g id="node6" class="node">
<title>Node6</title>
<g id="a_node6"><a xlink:title=" ">
<polygon fill="none" stroke="#bfbfbf" points="976,-1035.5 976,-1092.5 1047,-1092.5 1047,-1035.5 976,-1035.5"/>
<text text-anchor="middle" x="1011.5" y="-1080.5" font-family="Helvetica,sans-Serif" font-size="10.00">Rigidbody2D</text>
<polyline fill="none" stroke="#bfbfbf" points="976,-1073.5 1047,-1073.5 "/>
<text text-anchor="middle" x="1011.5" y="-1061.5" font-family="Helvetica,sans-Serif" font-size="10.00"> </text>
<polyline fill="none" stroke="#bfbfbf" points="976,-1054.5 1047,-1054.5 "/>
<text text-anchor="middle" x="1011.5" y="-1042.5" font-family="Helvetica,sans-Serif" font-size="10.00"> </text>
</a>
</g>
</g>
<!-- Node6&#45;&gt;Node3 -->
<g id="edge5" class="edge">
<title>Node6&#45;&gt;Node3</title>
<path fill="none" stroke="#404040" d="M1014.4,-1035.39C1018.71,-998.24 1028,-930.31 1043.5,-874 1055.62,-829.98 1071.28,-783.82 1087.61,-740.03"/>
<polygon fill="none" stroke="#404040" points="1087.67,-739.89 1086.04,-732.86 1091.89,-728.65 1093.52,-735.68 1087.67,-739.89"/>
<text text-anchor="middle" x="1061" y="-882.5" font-family="Helvetica,sans-Serif" font-size="10.00"> ~rBody</text>
</g>
<!-- Node7 -->
<g id="node7" class="node">
<title>Node7</title>
<g id="a_node7"><a xlink:title=" ">
<polygon fill="none" stroke="#bfbfbf" points="1065.5,-1035.5 1065.5,-1092.5 1121.5,-1092.5 1121.5,-1035.5 1065.5,-1035.5"/>
<text text-anchor="middle" x="1093.5" y="-1080.5" font-family="Helvetica,sans-Serif" font-size="10.00">Animator</text>
<polyline fill="none" stroke="#bfbfbf" points="1065.5,-1073.5 1121.5,-1073.5 "/>
<text text-anchor="middle" x="1093.5" y="-1061.5" font-family="Helvetica,sans-Serif" font-size="10.00"> </text>
<polyline fill="none" stroke="#bfbfbf" points="1065.5,-1054.5 1121.5,-1054.5 "/>
<text text-anchor="middle" x="1093.5" y="-1042.5" font-family="Helvetica,sans-Serif" font-size="10.00"> </text>
</a>
</g>
</g>
<!-- Node7&#45;&gt;Node3 -->
<g id="edge6" class="edge">
<title>Node7&#45;&gt;Node3</title>
<path fill="none" stroke="#404040" d="M1091.33,-1035.25C1088.86,-1002.13 1084.97,-945.06 1083.5,-896 1082.57,-864.95 1085.15,-832.88 1089.99,-801.2"/>
<polygon fill="none" stroke="#404040" points="1090.04,-800.93 1087.05,-794.36 1091.96,-789.08 1094.95,-795.64 1090.04,-800.93"/>
<text text-anchor="middle" x="1127.5" y="-882.5" font-family="Helvetica,sans-Serif" font-size="10.00"> #characterAnimator</text>
</g>
<!-- Node8 -->
<g id="node8" class="node">
<title>Node8</title>
<g id="a_node8"><a xlink:title=" ">
<polygon fill="none" stroke="#bfbfbf" points="1140,-1035.5 1140,-1092.5 1211,-1092.5 1211,-1035.5 1140,-1035.5"/>
<text text-anchor="middle" x="1175.5" y="-1080.5" font-family="Helvetica,sans-Serif" font-size="10.00">GameObject</text>
<polyline fill="none" stroke="#bfbfbf" points="1140,-1073.5 1211,-1073.5 "/>
<text text-anchor="middle" x="1175.5" y="-1061.5" font-family="Helvetica,sans-Serif" font-size="10.00"> </text>
<polyline fill="none" stroke="#bfbfbf" points="1140,-1054.5 1211,-1054.5 "/>
<text text-anchor="middle" x="1175.5" y="-1042.5" font-family="Helvetica,sans-Serif" font-size="10.00"> </text>
</a>
</g>
</g>
<!-- Node8&#45;&gt;Node3 -->
<g id="edge7" class="edge">
<title>Node8&#45;&gt;Node3</title>
<path fill="none" stroke="#404040" d="M1175.65,-1035.23C1175.85,-1000.79 1176.2,-937.98 1176.59,-867.94"/>
<polygon fill="none" stroke="#404040" points="1176.59,-867.71 1172.62,-861.69 1176.66,-855.71 1180.62,-861.73 1176.59,-867.71"/>
<text text-anchor="middle" x="1213" y="-888" font-family="Helvetica,sans-Serif" font-size="10.00"> #dialogueBubble</text>
<text text-anchor="middle" x="1213" y="-877" font-family="Helvetica,sans-Serif" font-size="10.00">#hitParticles</text>
</g>
<!-- Node9 -->
<g id="node9" class="node">
<title>Node9</title>
<g id="a_node9"><a xlink:href="class_controllers_1_1_state_machine_1_1_states_1_1_data_1_1_controller_data.html" target="_top" xlink:title=" ">
<polygon fill="none" stroke="black" points="252,-1030 252,-1098 385,-1098 385,-1030 252,-1030"/>
<text text-anchor="start" x="260" y="-1086" font-family="Helvetica,sans-Serif" font-size="10.00">Controllers.StateMachine.</text>
<text text-anchor="middle" x="318.5" y="-1075" font-family="Helvetica,sans-Serif" font-size="10.00">States.Data.ControllerData</text>
<polyline fill="none" stroke="black" points="252,-1068 385,-1068 "/>
<text text-anchor="middle" x="318.5" y="-1056" font-family="Helvetica,sans-Serif" font-size="10.00"> </text>
<polyline fill="none" stroke="black" points="252,-1049 385,-1049 "/>
<text text-anchor="middle" x="318.5" y="-1037" font-family="Helvetica,sans-Serif" font-size="10.00"> </text>
</a>
</g>
</g>
<!-- Node9&#45;&gt;Node3 -->
<g id="edge8" class="edge">
<title>Node9&#45;&gt;Node3</title>
<path fill="none" stroke="#404040" d="M317.98,-1029.99C319.06,-988.82 326.86,-918.46 364.5,-874 552.56,-651.86 907.68,-567.68 1079.9,-538.9"/>
<polygon fill="none" stroke="#404040" points="1080.13,-538.86 1085.41,-533.94 1091.98,-536.92 1086.7,-541.84 1080.13,-538.86"/>
<text text-anchor="middle" x="386" y="-882.5" font-family="Helvetica,sans-Serif" font-size="10.00"> +ctrlData</text>
</g>
<!-- Node10 -->
<g id="node10" class="node">
<title>Node10</title>
<g id="a_node10"><a xlink:href="class_scriptable_object.html" target="_top" xlink:title=" ">
<polygon fill="none" stroke="black" points="0,-1349.5 0,-1406.5 89,-1406.5 89,-1349.5 0,-1349.5"/>
<text text-anchor="middle" x="44.5" y="-1394.5" font-family="Helvetica,sans-Serif" font-size="10.00">ScriptableObject</text>
<polyline fill="none" stroke="black" points="0,-1387.5 89,-1387.5 "/>
<text text-anchor="middle" x="44.5" y="-1375.5" font-family="Helvetica,sans-Serif" font-size="10.00"> </text>
<polyline fill="none" stroke="black" points="0,-1368.5 89,-1368.5 "/>
<text text-anchor="middle" x="44.5" y="-1356.5" font-family="Helvetica,sans-Serif" font-size="10.00"> </text>
</a>
</g>
</g>
<!-- Node10&#45;&gt;Node9 -->
<g id="edge9" class="edge">
<title>Node10&#45;&gt;Node9</title>
<path fill="none" stroke="midnightblue" d="M72.77,-1341.33C96.52,-1311.67 131.59,-1268.55 163.5,-1232 204.99,-1184.47 254.95,-1131.34 286.72,-1098.04"/>
<polygon fill="none" stroke="midnightblue" points="69.89,-1339.33 66.38,-1349.33 75.36,-1343.7 69.89,-1339.33"/>
</g>
<!-- Node11 -->
<g id="node11" class="node">
<title>Node11</title>
<g id="a_node11"><a xlink:title=" ">
<polygon fill="none" stroke="#bfbfbf" points="337,-1349.5 337,-1406.5 372,-1406.5 372,-1349.5 337,-1349.5"/>
<text text-anchor="middle" x="354.5" y="-1394.5" font-family="Helvetica,sans-Serif" font-size="10.00">float</text>
<polyline fill="none" stroke="#bfbfbf" points="337,-1387.5 372,-1387.5 "/>
<text text-anchor="middle" x="354.5" y="-1375.5" font-family="Helvetica,sans-Serif" font-size="10.00"> </text>
<polyline fill="none" stroke="#bfbfbf" points="337,-1368.5 372,-1368.5 "/>
<text text-anchor="middle" x="354.5" y="-1356.5" font-family="Helvetica,sans-Serif" font-size="10.00"> </text>
</a>
</g>
</g>
<!-- Node11&#45;&gt;Node1 -->
<g id="edge27" class="edge">
<title>Node11&#45;&gt;Node1</title>
<path fill="none" stroke="#404040" d="M336.98,-1367.01C318.14,-1355.4 288.61,-1334.53 271.5,-1309 173.51,-1162.76 219.24,-1088.48 242.5,-914 280.31,-630.35 386.94,-306.7 439.89,-157.44"/>
<polygon fill="none" stroke="#404040" points="440.04,-157.01 438.29,-150.01 444.07,-145.7 445.83,-152.7 440.04,-157.01"/>
<text text-anchor="middle" x="273" y="-882.5" font-family="Helvetica,sans-Serif" font-size="10.00"> #startTime</text>
</g>
<!-- Node11&#45;&gt;Node3 -->
<g id="edge16" class="edge">
<title>Node11&#45;&gt;Node3</title>
<path fill="none" stroke="#404040" d="M372.15,-1360.37C384.43,-1347.6 399.91,-1328.85 407.5,-1309 470.34,-1144.64 338.23,-1061.29 434.5,-914 584.12,-685.08 914.24,-583.01 1079.78,-544.83"/>
<polygon fill="none" stroke="#404040" points="1080.19,-544.74 1085.16,-539.51 1091.89,-542.08 1086.93,-547.31 1080.19,-544.74"/>
<text text-anchor="middle" x="481.5" y="-1067" font-family="Helvetica,sans-Serif" font-size="10.00"> #moveOnAttackStart</text>
<text text-anchor="middle" x="481.5" y="-1056" font-family="Helvetica,sans-Serif" font-size="10.00">+deadMaxWait</text>
</g>
<!-- Node11&#45;&gt;Node9 -->
<g id="edge10" class="edge">
<title>Node11&#45;&gt;Node9</title>
<path fill="none" stroke="#404040" d="M336.93,-1365.39C320.63,-1353.45 297.43,-1333.23 287.5,-1309 260.59,-1243.34 281.68,-1160.11 299.79,-1109.79"/>
<polygon fill="none" stroke="#404040" points="299.86,-1109.59 298.22,-1102.57 304.06,-1098.34 305.71,-1105.36 299.86,-1109.59"/>
<text text-anchor="middle" x="347.5" y="-1295.5" font-family="Helvetica,sans-Serif" font-size="10.00"> +groundCheckDistance</text>
<text text-anchor="middle" x="347.5" y="-1284.5" font-family="Helvetica,sans-Serif" font-size="10.00">+ledgeCheckDistacne</text>
<text text-anchor="middle" x="347.5" y="-1273.5" font-family="Helvetica,sans-Serif" font-size="10.00">+playerLongRangeDistance</text>
<text text-anchor="middle" x="347.5" y="-1262.5" font-family="Helvetica,sans-Serif" font-size="10.00">+playerNearRangeDistance</text>
<text text-anchor="middle" x="347.5" y="-1251.5" font-family="Helvetica,sans-Serif" font-size="10.00">+topCheckDistance</text>
<text text-anchor="middle" x="347.5" y="-1240.5" font-family="Helvetica,sans-Serif" font-size="10.00">+wallCheckDistance</text>
</g>
<!-- Node11&#45;&gt;Node21 -->
<g id="edge24" class="edge">
<title>Node11&#45;&gt;Node21</title>
<path fill="none" stroke="#404040" d="M372.08,-1374.19C406.38,-1367.93 483.16,-1350.04 532.5,-1309 563.32,-1283.36 548.88,-1257.88 579.5,-1232 595.95,-1218.1 608.11,-1227.98 624.5,-1214 626.3,-1212.46 628.08,-1210.87 629.83,-1209.24"/>
<polygon fill="none" stroke="#404040" points="629.85,-1209.23 631.29,-1202.16 638.37,-1200.77 636.93,-1207.84 629.85,-1209.23"/>
<text text-anchor="middle" x="630" y="-1273.5" font-family="Helvetica,sans-Serif" font-size="10.00"> #interactionRadius</text>
<text text-anchor="middle" x="630" y="-1262.5" font-family="Helvetica,sans-Serif" font-size="10.00">+specialMoveWaitTime</text>
</g>
<!-- Node12 -->
<g id="node12" class="node">
<title>Node12</title>
<g id="a_node12"><a xlink:title=" ">
<polygon fill="none" stroke="#bfbfbf" points="107,-1349.5 107,-1406.5 172,-1406.5 172,-1349.5 107,-1349.5"/>
<text text-anchor="middle" x="139.5" y="-1394.5" font-family="Helvetica,sans-Serif" font-size="10.00">LayerMask</text>
<polyline fill="none" stroke="#bfbfbf" points="107,-1387.5 172,-1387.5 "/>
<text text-anchor="middle" x="139.5" y="-1375.5" font-family="Helvetica,sans-Serif" font-size="10.00"> </text>
<polyline fill="none" stroke="#bfbfbf" points="107,-1368.5 172,-1368.5 "/>
<text text-anchor="middle" x="139.5" y="-1356.5" font-family="Helvetica,sans-Serif" font-size="10.00"> </text>
</a>
</g>
</g>
<!-- Node12&#45;&gt;Node9 -->
<g id="edge11" class="edge">
<title>Node12&#45;&gt;Node9</title>
<path fill="none" stroke="#404040" d="M149.67,-1349.24C161.01,-1319.47 180.65,-1271.2 202.5,-1232 227.11,-1187.85 260.48,-1140.84 285.11,-1107.99"/>
<polygon fill="none" stroke="#404040" points="285.22,-1107.84 285.65,-1100.64 292.46,-1098.26 292.03,-1105.46 285.22,-1107.84"/>
<text text-anchor="middle" x="237" y="-1268" font-family="Helvetica,sans-Serif" font-size="10.00"> +whatIsGround</text>
</g>
<!-- Node13 -->
<g id="node13" class="node">
<title>Node13</title>
<g id="a_node13"><a xlink:title=" ">
<polygon fill="none" stroke="#bfbfbf" points="656,-1349.5 656,-1406.5 685,-1406.5 685,-1349.5 656,-1349.5"/>
<text text-anchor="middle" x="670.5" y="-1394.5" font-family="Helvetica,sans-Serif" font-size="10.00">int</text>
<polyline fill="none" stroke="#bfbfbf" points="656,-1387.5 685,-1387.5 "/>
<text text-anchor="middle" x="670.5" y="-1375.5" font-family="Helvetica,sans-Serif" font-size="10.00"> </text>
<polyline fill="none" stroke="#bfbfbf" points="656,-1368.5 685,-1368.5 "/>
<text text-anchor="middle" x="670.5" y="-1356.5" font-family="Helvetica,sans-Serif" font-size="10.00"> </text>
</a>
</g>
</g>
<!-- Node13&#45;&gt;Node3 -->
<g id="edge19" class="edge">
<title>Node13&#45;&gt;Node3</title>
<path fill="none" stroke="#404040" d="M676.69,-1349.36C682.19,-1316.94 685.43,-1263.63 656.5,-1232 627.2,-1199.97 588.22,-1247.4 560.5,-1214 517.92,-1162.7 528.26,-972.35 560.5,-914 671.79,-712.58 936.13,-601.44 1080.41,-553.84"/>
<polygon fill="none" stroke="#404040" points="1080.45,-553.83 1084.92,-548.17 1091.86,-550.11 1087.39,-555.77 1080.45,-553.83"/>
<text text-anchor="middle" x="595" y="-1067" font-family="Helvetica,sans-Serif" font-size="10.00"> +KrownReward</text>
<text text-anchor="middle" x="595" y="-1056" font-family="Helvetica,sans-Serif" font-size="10.00">+currentHealth</text>
</g>
<!-- Node13&#45;&gt;Node9 -->
<g id="edge12" class="edge">
<title>Node13&#45;&gt;Node9</title>
<path fill="none" stroke="#404040" d="M655.74,-1375.98C618.25,-1372.69 517.96,-1359.4 455.5,-1309 424.83,-1284.25 432.22,-1265.53 411.5,-1232 406.45,-1223.82 404.47,-1222.23 399.5,-1214 378.59,-1179.35 356.79,-1138.96 341.07,-1108.98"/>
<polygon fill="none" stroke="#404040" points="340.91,-1108.67 334.59,-1105.2 335.36,-1098.03 341.69,-1101.5 340.91,-1108.67"/>
<text text-anchor="middle" x="494" y="-1273.5" font-family="Helvetica,sans-Serif" font-size="10.00"> +generalDamage</text>
<text text-anchor="middle" x="494" y="-1262.5" font-family="Helvetica,sans-Serif" font-size="10.00">+maxHealth</text>
</g>
<!-- Node13&#45;&gt;Node21 -->
<g id="edge25" class="edge">
<title>Node13&#45;&gt;Node21</title>
<path fill="none" stroke="#404040" d="M676.76,-1349.31C679.39,-1337.01 682.34,-1322.33 684.5,-1309 688.84,-1282.22 692.81,-1253.69 696.33,-1225.93"/>
<polygon fill="none" stroke="#404040" points="696.38,-1225.58 693.15,-1219.13 697.87,-1213.67 701.09,-1220.12 696.38,-1225.58"/>
<text text-anchor="middle" x="729" y="-1273.5" font-family="Helvetica,sans-Serif" font-size="10.00"> +currentHealth</text>
<text text-anchor="middle" x="729" y="-1262.5" font-family="Helvetica,sans-Serif" font-size="10.00">+maxHealth</text>
</g>
<!-- Node14 -->
<g id="node14" class="node">
<title>Node14</title>
<g id="a_node14"><a xlink:title=" ">
<polygon fill="none" stroke="#bfbfbf" points="1229,-1035.5 1229,-1092.5 1318,-1092.5 1318,-1035.5 1229,-1035.5"/>
<text text-anchor="middle" x="1273.5" y="-1080.5" font-family="Helvetica,sans-Serif" font-size="10.00">ECharacterState</text>
<polyline fill="none" stroke="#bfbfbf" points="1229,-1073.5 1318,-1073.5 "/>
<text text-anchor="middle" x="1273.5" y="-1061.5" font-family="Helvetica,sans-Serif" font-size="10.00"> </text>
<polyline fill="none" stroke="#bfbfbf" points="1229,-1054.5 1318,-1054.5 "/>
<text text-anchor="middle" x="1273.5" y="-1042.5" font-family="Helvetica,sans-Serif" font-size="10.00"> </text>
</a>
</g>
</g>
<!-- Node14&#45;&gt;Node3 -->
<g id="edge13" class="edge">
<title>Node14&#45;&gt;Node3</title>
<path fill="none" stroke="#404040" d="M1271.72,-1035.33C1269.11,-998.39 1263.55,-931 1254.5,-874 1254.15,-871.8 1253.8,-869.6 1253.44,-867.39"/>
<polygon fill="none" stroke="#404040" points="1253.43,-867.34 1248.5,-862.08 1251.47,-855.5 1256.4,-860.77 1253.43,-867.34"/>
<text text-anchor="middle" x="1288.5" y="-882.5" font-family="Helvetica,sans-Serif" font-size="10.00"> #currentState</text>
</g>
<!-- Node15 -->
<g id="node15" class="node">
<title>Node15</title>
<g id="a_node15"><a xlink:title=" ">
<polygon fill="none" stroke="#bfbfbf" points="1336,-1035.5 1336,-1092.5 1399,-1092.5 1399,-1035.5 1336,-1035.5"/>
<text text-anchor="middle" x="1367.5" y="-1080.5" font-family="Helvetica,sans-Serif" font-size="10.00">UnityEvent</text>
<polyline fill="none" stroke="#bfbfbf" points="1336,-1073.5 1399,-1073.5 "/>
<text text-anchor="middle" x="1367.5" y="-1061.5" font-family="Helvetica,sans-Serif" font-size="10.00"> </text>
<polyline fill="none" stroke="#bfbfbf" points="1336,-1054.5 1399,-1054.5 "/>
<text text-anchor="middle" x="1367.5" y="-1042.5" font-family="Helvetica,sans-Serif" font-size="10.00"> </text>
</a>
</g>
</g>
<!-- Node15&#45;&gt;Node3 -->
<g id="edge14" class="edge">
<title>Node15&#45;&gt;Node3</title>
<path fill="none" stroke="#404040" d="M1362.56,-1035.38C1355.58,-998.22 1341.62,-930.28 1323.5,-874 1308.11,-826.21 1288.95,-775.82 1269.65,-728.66"/>
<polygon fill="none" stroke="#404040" points="1269.58,-728.47 1263.59,-724.45 1265.01,-717.38 1270.99,-721.4 1269.58,-728.47"/>
<text text-anchor="middle" x="1363" y="-882.5" font-family="Helvetica,sans-Serif" font-size="10.00"> +OnLandEvent</text>
</g>
<!-- Node16 -->
<g id="node16" class="node">
<title>Node16</title>
<g id="a_node16"><a xlink:href="class_controllers_1_1_movement_1_1_base_movement_controller.html" target="_top" xlink:title=" ">
<polygon fill="none" stroke="black" points="1417.5,-1030 1417.5,-1098 1553.5,-1098 1553.5,-1030 1417.5,-1030"/>
<text text-anchor="start" x="1425.5" y="-1086" font-family="Helvetica,sans-Serif" font-size="10.00">Controllers.Movement.Base</text>
<text text-anchor="middle" x="1485.5" y="-1075" font-family="Helvetica,sans-Serif" font-size="10.00">MovementController</text>
<polyline fill="none" stroke="black" points="1417.5,-1068 1553.5,-1068 "/>
<text text-anchor="middle" x="1485.5" y="-1056" font-family="Helvetica,sans-Serif" font-size="10.00"> </text>
<polyline fill="none" stroke="black" points="1417.5,-1049 1553.5,-1049 "/>
<text text-anchor="middle" x="1485.5" y="-1037" font-family="Helvetica,sans-Serif" font-size="10.00"> </text>
</a>
</g>
</g>
<!-- Node16&#45;&gt;Node3 -->
<g id="edge15" class="edge">
<title>Node16&#45;&gt;Node3</title>
<path fill="none" stroke="#404040" d="M1472.31,-1029.87C1456.68,-991.58 1429.12,-927.03 1400.5,-874 1361.61,-801.94 1313.27,-724.86 1271.63,-661.56"/>
<polygon fill="none" stroke="#404040" points="1271.61,-661.54 1264.97,-658.73 1265.01,-651.52 1271.65,-654.32 1271.61,-661.54"/>
<text text-anchor="middle" x="1468" y="-882.5" font-family="Helvetica,sans-Serif" font-size="10.00"> #baseMovementController</text>
</g>
<!-- Node17 -->
<g id="node17" class="node">
<title>Node17</title>
<g id="a_node17"><a xlink:href="class_controllers_1_1_state_machine_1_1_controller_state_machine.html" target="_top" xlink:title="Controla el estado de un enemigo o NPC, desde que spawnea hasta que muere. Casi todos los metodos son...">
<polygon fill="none" stroke="black" points="1938,-1013.5 1938,-1114.5 2067,-1114.5 2067,-1013.5 1938,-1013.5"/>
<text text-anchor="start" x="1946" y="-1102.5" font-family="Helvetica,sans-Serif" font-size="10.00">Controllers.StateMachine.</text>
<text text-anchor="middle" x="2002.5" y="-1091.5" font-family="Helvetica,sans-Serif" font-size="10.00">ControllerStateMachine</text>
<polyline fill="none" stroke="black" points="1938,-1084.5 2067,-1084.5 "/>
<text text-anchor="start" x="1946" y="-1072.5" font-family="Helvetica,sans-Serif" font-size="10.00">+ State CurrentState</text>
<polyline fill="none" stroke="black" points="1938,-1065.5 2067,-1065.5 "/>
<text text-anchor="start" x="1946" y="-1053.5" font-family="Helvetica,sans-Serif" font-size="10.00">+ void Initialize(State</text>
<text text-anchor="start" x="1946" y="-1042.5" font-family="Helvetica,sans-Serif" font-size="10.00"> startState)</text>
<text text-anchor="start" x="1946" y="-1031.5" font-family="Helvetica,sans-Serif" font-size="10.00">+ void ChangeState(State</text>
<text text-anchor="start" x="1946" y="-1020.5" font-family="Helvetica,sans-Serif" font-size="10.00"> nextState)</text>
</a>
</g>
</g>
<!-- Node17&#45;&gt;Node1 -->
<g id="edge28" class="edge">
<title>Node17&#45;&gt;Node1</title>
<path fill="none" stroke="#404040" d="M2002.39,-1013.37C2000.41,-973.61 1993.25,-917.49 1970.5,-874 1769.88,-490.53 1662.15,-385.41 1274.5,-193 1149.09,-130.75 735.01,-93.51 555.14,-79.9"/>
<polygon fill="none" stroke="#404040" points="555.08,-79.9 548.8,-83.44 543.12,-79 549.4,-75.46 555.08,-79.9"/>
<text text-anchor="middle" x="1990" y="-522" font-family="Helvetica,sans-Serif" font-size="10.00"> #stateMachine</text>
</g>
<!-- Node17&#45;&gt;Node3 -->
<g id="edge17" class="edge">
<title>Node17&#45;&gt;Node3</title>
<path fill="none" stroke="#404040" d="M1985.03,-1013.27C1971.98,-981.77 1951.55,-941.85 1923.5,-914 1872.99,-863.83 1466.32,-664.27 1276.03,-572.33"/>
<polygon fill="none" stroke="#404040" points="1276,-572.32 1268.86,-573.31 1265.2,-567.1 1272.34,-566.11 1276,-572.32"/>
<text text-anchor="middle" x="1931.5" y="-882.5" font-family="Helvetica,sans-Serif" font-size="10.00"> +StateMachine</text>
</g>
<!-- Node18 -->
<g id="node18" class="node">
<title>Node18</title>
<g id="a_node18"><a xlink:title=" ">
<polygon fill="none" stroke="#bfbfbf" points="1609.5,-1035.5 1609.5,-1092.5 1693.5,-1092.5 1693.5,-1035.5 1609.5,-1035.5"/>
<text text-anchor="middle" x="1651.5" y="-1080.5" font-family="Helvetica,sans-Serif" font-size="10.00">EControllerKind</text>
<polyline fill="none" stroke="#bfbfbf" points="1609.5,-1073.5 1693.5,-1073.5 "/>
<text text-anchor="middle" x="1651.5" y="-1061.5" font-family="Helvetica,sans-Serif" font-size="10.00"> </text>
<polyline fill="none" stroke="#bfbfbf" points="1609.5,-1054.5 1693.5,-1054.5 "/>
<text text-anchor="middle" x="1651.5" y="-1042.5" font-family="Helvetica,sans-Serif" font-size="10.00"> </text>
</a>
</g>
</g>
<!-- Node18&#45;&gt;Node3 -->
<g id="edge18" class="edge">
<title>Node18&#45;&gt;Node3</title>
<path fill="none" stroke="#404040" d="M1648.39,-1035.23C1642.96,-996.4 1628.95,-924.91 1595.5,-874 1512.64,-747.9 1370.57,-643.35 1275.61,-582.63"/>
<polygon fill="none" stroke="#404040" points="1275.55,-582.6 1268.34,-582.76 1265.42,-576.17 1272.63,-576.01 1275.55,-582.6"/>
<text text-anchor="middle" x="1640" y="-882.5" font-family="Helvetica,sans-Serif" font-size="10.00"> +controllerKind</text>
</g>
<!-- Node19 -->
<g id="node19" class="node">
<title>Node19</title>
<g id="a_node19"><a xlink:title=" ">
<polygon fill="none" stroke="#bfbfbf" points="1723,-1349.5 1723,-1406.5 1758,-1406.5 1758,-1349.5 1723,-1349.5"/>
<text text-anchor="middle" x="1740.5" y="-1394.5" font-family="Helvetica,sans-Serif" font-size="10.00">bool</text>
<polyline fill="none" stroke="#bfbfbf" points="1723,-1387.5 1758,-1387.5 "/>
<text text-anchor="middle" x="1740.5" y="-1375.5" font-family="Helvetica,sans-Serif" font-size="10.00"> </text>
<polyline fill="none" stroke="#bfbfbf" points="1723,-1368.5 1758,-1368.5 "/>
<text text-anchor="middle" x="1740.5" y="-1356.5" font-family="Helvetica,sans-Serif" font-size="10.00"> </text>
</a>
</g>
</g>
<!-- Node19&#45;&gt;Node3 -->
<g id="edge20" class="edge">
<title>Node19&#45;&gt;Node3</title>
<path fill="none" stroke="#404040" d="M1752.22,-1349.37C1765.07,-1317.45 1784.87,-1263.02 1792.5,-1214 1813.01,-1082.25 1826.9,-1042.82 1792.5,-914 1787.21,-894.19 1783.92,-888.58 1769.5,-874 1623.55,-726.44 1402.49,-618.3 1276.18,-564.28"/>
<polygon fill="none" stroke="#404040" points="1276.05,-564.23 1268.96,-565.56 1265,-559.54 1272.09,-558.2 1276.05,-564.23"/>
<text text-anchor="middle" x="1862.5" y="-1083.5" font-family="Helvetica,sans-Serif" font-size="10.00"> #canInteract</text>
<text text-anchor="middle" x="1862.5" y="-1072.5" font-family="Helvetica,sans-Serif" font-size="10.00">#dead</text>
<text text-anchor="middle" x="1862.5" y="-1061.5" font-family="Helvetica,sans-Serif" font-size="10.00">#isInvencible</text>
<text text-anchor="middle" x="1862.5" y="-1050.5" font-family="Helvetica,sans-Serif" font-size="10.00">#lastGroundDetected</text>
<text text-anchor="middle" x="1862.5" y="-1039.5" font-family="Helvetica,sans-Serif" font-size="10.00">#playerFacingDirection</text>
</g>
<!-- Node19&#45;&gt;Node21 -->
<g id="edge26" class="edge">
<title>Node19&#45;&gt;Node21</title>
<path fill="none" stroke="#404040" d="M1722.95,-1373.86C1635.28,-1358.2 1236,-1287.09 908.5,-1232 862.68,-1224.29 841.55,-1240.07 798.76,-1213.89"/>
<polygon fill="none" stroke="#404040" points="798.66,-1213.83 791.45,-1213.85 788.66,-1207.2 795.87,-1207.18 798.66,-1213.83"/>
<text text-anchor="middle" x="1388" y="-1301" font-family="Helvetica,sans-Serif" font-size="10.00"> +isEnrolledInDialogue</text>
<text text-anchor="middle" x="1388" y="-1290" font-family="Helvetica,sans-Serif" font-size="10.00">+warpActioned</text>
<text text-anchor="middle" x="1388" y="-1279" font-family="Helvetica,sans-Serif" font-size="10.00">~moveOnDamaged</text>
<text text-anchor="middle" x="1388" y="-1268" font-family="Helvetica,sans-Serif" font-size="10.00">~praying</text>
<text text-anchor="middle" x="1388" y="-1257" font-family="Helvetica,sans-Serif" font-size="10.00">~respawning</text>
<text text-anchor="middle" x="1388" y="-1246" font-family="Helvetica,sans-Serif" font-size="10.00">~roll</text>
<text text-anchor="middle" x="1388" y="-1235" font-family="Helvetica,sans-Serif" font-size="10.00">~rollAnim</text>
</g>
<!-- Node20 -->
<g id="node20" class="node">
<title>Node20</title>
<g id="a_node20"><a xlink:title=" ">
<polygon fill="none" stroke="#bfbfbf" points="1711.5,-1035.5 1711.5,-1092.5 1783.5,-1092.5 1783.5,-1035.5 1711.5,-1035.5"/>
<text text-anchor="middle" x="1747.5" y="-1080.5" font-family="Helvetica,sans-Serif" font-size="10.00">AudioSource</text>
<polyline fill="none" stroke="#bfbfbf" points="1711.5,-1073.5 1783.5,-1073.5 "/>
<text text-anchor="middle" x="1747.5" y="-1061.5" font-family="Helvetica,sans-Serif" font-size="10.00"> </text>
<polyline fill="none" stroke="#bfbfbf" points="1711.5,-1054.5 1783.5,-1054.5 "/>
<text text-anchor="middle" x="1747.5" y="-1042.5" font-family="Helvetica,sans-Serif" font-size="10.00"> </text>
</a>
</g>
</g>
<!-- Node20&#45;&gt;Node3 -->
<g id="edge21" class="edge">
<title>Node20&#45;&gt;Node3</title>
<path fill="none" stroke="#404040" d="M1744.26,-1035.4C1738.19,-995.14 1721.54,-920.08 1678.5,-874 1558.46,-745.47 1383.52,-636.93 1275.57,-576.6"/>
<polygon fill="none" stroke="#404040" points="1275.5,-576.57 1268.32,-577.15 1265.01,-570.74 1272.2,-570.15 1275.5,-576.57"/>
<text text-anchor="middle" x="1730" y="-888" font-family="Helvetica,sans-Serif" font-size="10.00"> #hitAttackSFX1</text>
<text text-anchor="middle" x="1730" y="-877" font-family="Helvetica,sans-Serif" font-size="10.00">#hitAttackSFX2</text>
</g>
<!-- Node21&#45;&gt;Node3 -->
<g id="edge22" class="edge">
<title>Node21&#45;&gt;Node3</title>
<path fill="none" stroke="#404040" d="M788.51,-926.44C791.47,-922.19 794.47,-918.04 797.5,-914 883.3,-799.83 1000.63,-685.03 1082.33,-610.15"/>
<polygon fill="none" stroke="#404040" points="1082.75,-609.76 1084.48,-602.76 1091.61,-601.67 1089.88,-608.67 1082.75,-609.76"/>
<text text-anchor="middle" x="863.5" y="-882.5" font-family="Helvetica,sans-Serif" font-size="10.00"> #playerController</text>
</g>
</g>
</svg>
