<?xml version="1.0" encoding="UTF-8" standalone="no"?>
<!DOCTYPE svg PUBLIC "-//W3C//DTD SVG 1.1//EN"
 "http://www.w3.org/Graphics/SVG/1.1/DTD/svg11.dtd">
<!-- Generated by graphviz version 2.48.0 (20210717.1556)
 -->
<!-- Title: Controllers.StateMachine.States.Data.PrepareAttackStateData Pages: 1 -->
<svg width="289pt" height="182pt"
 viewBox="0.00 0.00 288.50 182.00" xmlns="http://www.w3.org/2000/svg" xmlns:xlink="http://www.w3.org/1999/xlink">
<g id="graph0" class="graph" transform="scale(1 1) rotate(0) translate(4 178)">
<title>Controllers.StateMachine.States.Data.PrepareAttackStateData</title>
<!-- Node1 -->
<g id="node1" class="node">
<title>Node1</title>
<g id="a_node1"><a xlink:title=" ">
<polygon fill="#bfbfbf" stroke="black" points="36,-0.5 36,-68.5 213,-68.5 213,-0.5 36,-0.5"/>
<text text-anchor="start" x="44" y="-56.5" font-family="Helvetica,sans-Serif" font-size="10.00">Controllers.StateMachine.</text>
<text text-anchor="middle" x="124.5" y="-45.5" font-family="Helvetica,sans-Serif" font-size="10.00">States.Data.PrepareAttackStateData</text>
<polyline fill="none" stroke="black" points="36,-38.5 213,-38.5 "/>
<text text-anchor="middle" x="124.5" y="-26.5" font-family="Helvetica,sans-Serif" font-size="10.00"> </text>
<polyline fill="none" stroke="black" points="36,-19.5 213,-19.5 "/>
<text text-anchor="middle" x="124.5" y="-7.5" font-family="Helvetica,sans-Serif" font-size="10.00"> </text>
</a>
</g>
</g>
<!-- Node2 -->
<g id="node2" class="node">
<title>Node2</title>
<g id="a_node2"><a xlink:href="class_scriptable_object.html" target="_top" xlink:title=" ">
<polygon fill="none" stroke="black" points="0,-116.5 0,-173.5 89,-173.5 89,-116.5 0,-116.5"/>
<text text-anchor="middle" x="44.5" y="-161.5" font-family="Helvetica,sans-Serif" font-size="10.00">ScriptableObject</text>
<polyline fill="none" stroke="black" points="0,-154.5 89,-154.5 "/>
<text text-anchor="middle" x="44.5" y="-142.5" font-family="Helvetica,sans-Serif" font-size="10.00"> </text>
<polyline fill="none" stroke="black" points="0,-135.5 89,-135.5 "/>
<text text-anchor="middle" x="44.5" y="-123.5" font-family="Helvetica,sans-Serif" font-size="10.00"> </text>
</a>
</g>
</g>
<!-- Node2&#45;&gt;Node1 -->
<g id="edge1" class="edge">
<title>Node2&#45;&gt;Node1</title>
<path fill="none" stroke="midnightblue" d="M70.9,-108.19C80.33,-95.4 90.91,-81.06 100.15,-68.52"/>
<polygon fill="none" stroke="midnightblue" points="68.01,-106.21 64.89,-116.34 73.65,-110.37 68.01,-106.21"/>
</g>
<!-- Node3 -->
<g id="node3" class="node">
<title>Node3</title>
<g id="a_node3"><a xlink:title=" ">
<polygon fill="none" stroke="#bfbfbf" points="107,-116.5 107,-173.5 142,-173.5 142,-116.5 107,-116.5"/>
<text text-anchor="middle" x="124.5" y="-161.5" font-family="Helvetica,sans-Serif" font-size="10.00">float</text>
<polyline fill="none" stroke="#bfbfbf" points="107,-154.5 142,-154.5 "/>
<text text-anchor="middle" x="124.5" y="-142.5" font-family="Helvetica,sans-Serif" font-size="10.00"> </text>
<polyline fill="none" stroke="#bfbfbf" points="107,-135.5 142,-135.5 "/>
<text text-anchor="middle" x="124.5" y="-123.5" font-family="Helvetica,sans-Serif" font-size="10.00"> </text>
</a>
</g>
</g>
<!-- Node3&#45;&gt;Node1 -->
<g id="edge2" class="edge">
<title>Node3&#45;&gt;Node1</title>
<path fill="none" stroke="#404040" d="M124.5,-116.34C124.5,-105.53 124.5,-92.85 124.5,-80.77"/>
<polygon fill="none" stroke="#404040" points="124.5,-80.52 120.5,-74.52 124.5,-68.52 128.5,-74.52 124.5,-80.52"/>
<text text-anchor="middle" x="149.5" y="-90" font-family="Helvetica,sans-Serif" font-size="10.00"> +cooldown</text>
</g>
<!-- Node4 -->
<g id="node4" class="node">
<title>Node4</title>
<g id="a_node4"><a xlink:title=" ">
<polygon fill="none" stroke="#bfbfbf" points="180,-116.5 180,-173.5 215,-173.5 215,-116.5 180,-116.5"/>
<text text-anchor="middle" x="197.5" y="-161.5" font-family="Helvetica,sans-Serif" font-size="10.00">bool</text>
<polyline fill="none" stroke="#bfbfbf" points="180,-154.5 215,-154.5 "/>
<text text-anchor="middle" x="197.5" y="-142.5" font-family="Helvetica,sans-Serif" font-size="10.00"> </text>
<polyline fill="none" stroke="#bfbfbf" points="180,-135.5 215,-135.5 "/>
<text text-anchor="middle" x="197.5" y="-123.5" font-family="Helvetica,sans-Serif" font-size="10.00"> </text>
</a>
</g>
</g>
<!-- Node4&#45;&gt;Node1 -->
<g id="edge3" class="edge">
<title>Node4&#45;&gt;Node1</title>
<path fill="none" stroke="#404040" d="M189.37,-116.22C185.88,-106.55 181.26,-95.9 175.5,-87 173.51,-83.93 171.32,-80.89 168.99,-77.92"/>
<polygon fill="none" stroke="#404040" points="168.94,-77.86 162.01,-75.86 161.19,-68.69 168.12,-70.69 168.94,-77.86"/>
<text text-anchor="middle" x="230.5" y="-90" font-family="Helvetica,sans-Serif" font-size="10.00"> +followPlayerDirection</text>
</g>
</g>
</svg>
