<?xml version="1.0" encoding="UTF-8" standalone="no"?>
<!DOCTYPE svg PUBLIC "-//W3C//DTD SVG 1.1//EN"
 "http://www.w3.org/Graphics/SVG/1.1/DTD/svg11.dtd">
<!-- Generated by graphviz version 2.48.0 (20210717.1556)
 -->
<!-- Title: UI_PanelOpacity Pages: 1 -->
<svg width="123pt" height="215pt"
 viewBox="0.00 0.00 123.00 215.00" xmlns="http://www.w3.org/2000/svg" xmlns:xlink="http://www.w3.org/1999/xlink">
<g id="graph0" class="graph" transform="scale(1 1) rotate(0) translate(4 211)">
<title>UI_PanelOpacity</title>
<!-- Node1 -->
<g id="node1" class="node">
<title>Node1</title>
<g id="a_node1"><a xlink:title=" ">
<polygon fill="#bfbfbf" stroke="black" points="0,-0.5 0,-112.5 115,-112.5 115,-0.5 0,-0.5"/>
<text text-anchor="middle" x="57.5" y="-100.5" font-family="Helvetica,sans-Serif" font-size="10.00">UI_PanelOpacity</text>
<polyline fill="none" stroke="black" points="0,-93.5 115,-93.5 "/>
<text text-anchor="middle" x="57.5" y="-81.5" font-family="Helvetica,sans-Serif" font-size="10.00"> </text>
<polyline fill="none" stroke="black" points="0,-74.5 115,-74.5 "/>
<text text-anchor="start" x="8" y="-62.5" font-family="Helvetica,sans-Serif" font-size="10.00">+ void FadePanel(bool</text>
<text text-anchor="start" x="8" y="-51.5" font-family="Helvetica,sans-Serif" font-size="10.00"> fadeMode)</text>
<text text-anchor="start" x="8" y="-40.5" font-family="Helvetica,sans-Serif" font-size="10.00">+ IEnumerator DoFade</text>
<text text-anchor="start" x="8" y="-29.5" font-family="Helvetica,sans-Serif" font-size="10.00">(CanvasGroup cg, float</text>
<text text-anchor="start" x="8" y="-18.5" font-family="Helvetica,sans-Serif" font-size="10.00"> start, float end, float</text>
<text text-anchor="start" x="8" y="-7.5" font-family="Helvetica,sans-Serif" font-size="10.00"> duration)</text>
</a>
</g>
</g>
<!-- Node2 -->
<g id="node2" class="node">
<title>Node2</title>
<g id="a_node2"><a xlink:title=" ">
<polygon fill="none" stroke="#bfbfbf" points="16,-149.5 16,-206.5 99,-206.5 99,-149.5 16,-149.5"/>
<text text-anchor="middle" x="57.5" y="-194.5" font-family="Helvetica,sans-Serif" font-size="10.00">MonoBehaviour</text>
<polyline fill="none" stroke="#bfbfbf" points="16,-187.5 99,-187.5 "/>
<text text-anchor="middle" x="57.5" y="-175.5" font-family="Helvetica,sans-Serif" font-size="10.00"> </text>
<polyline fill="none" stroke="#bfbfbf" points="16,-168.5 99,-168.5 "/>
<text text-anchor="middle" x="57.5" y="-156.5" font-family="Helvetica,sans-Serif" font-size="10.00"> </text>
</a>
</g>
</g>
<!-- Node2&#45;&gt;Node1 -->
<g id="edge1" class="edge">
<title>Node2&#45;&gt;Node1</title>
<path fill="none" stroke="midnightblue" d="M57.5,-139.11C57.5,-130.75 57.5,-121.73 57.5,-112.83"/>
<polygon fill="none" stroke="midnightblue" points="54,-139.28 57.5,-149.28 61,-139.28 54,-139.28"/>
</g>
</g>
</svg>
