<?xml version="1.0" encoding="UTF-8" standalone="no"?>
<!DOCTYPE svg PUBLIC "-//W3C//DTD SVG 1.1//EN"
 "http://www.w3.org/Graphics/SVG/1.1/DTD/svg11.dtd">
<!-- Generated by graphviz version 2.48.0 (20210717.1556)
 -->
<!-- Title: Controllers.DummyController Pages: 1 -->
<svg width="1899pt" height="1339pt"
 viewBox="0.00 0.00 1899.00 1339.00" xmlns="http://www.w3.org/2000/svg" xmlns:xlink="http://www.w3.org/1999/xlink">
<g id="graph0" class="graph" transform="scale(1 1) rotate(0) translate(4 1335)">
<title>Controllers.DummyController</title>
<!-- Node1 -->
<g id="node1" class="node">
<title>Node1</title>
<g id="a_node1"><a xlink:title=" ">
<polygon fill="#bfbfbf" stroke="black" points="962.5,-0.5 962.5,-57.5 1103.5,-57.5 1103.5,-0.5 962.5,-0.5"/>
<text text-anchor="middle" x="1033" y="-45.5" font-family="Helvetica,sans-Serif" font-size="10.00">Controllers.DummyController</text>
<polyline fill="none" stroke="black" points="962.5,-38.5 1103.5,-38.5 "/>
<text text-anchor="middle" x="1033" y="-26.5" font-family="Helvetica,sans-Serif" font-size="10.00"> </text>
<polyline fill="none" stroke="black" points="962.5,-19.5 1103.5,-19.5 "/>
<text text-anchor="start" x="970.5" y="-7.5" font-family="Helvetica,sans-Serif" font-size="10.00"># override void Start()</text>
</a>
</g>
</g>
<!-- Node2 -->
<g id="node2" class="node">
<title>Node2</title>
<g id="a_node2"><a xlink:href="class_controllers_1_1_base_controller.html" target="_top" xlink:title=" ">
<polygon fill="none" stroke="black" points="946.5,-95.5 946.5,-757.5 1119.5,-757.5 1119.5,-95.5 946.5,-95.5"/>
<text text-anchor="middle" x="1033" y="-745.5" font-family="Helvetica,sans-Serif" font-size="10.00">BaseController</text>
<polyline fill="none" stroke="black" points="946.5,-738.5 1119.5,-738.5 "/>
<text text-anchor="start" x="954.5" y="-726.5" font-family="Helvetica,sans-Serif" font-size="10.00">+ int FacingDirection</text>
<text text-anchor="start" x="954.5" y="-715.5" font-family="Helvetica,sans-Serif" font-size="10.00">+ bool IsReadyToAttack</text>
<text text-anchor="start" x="954.5" y="-704.5" font-family="Helvetica,sans-Serif" font-size="10.00">+ bool wallDetected</text>
<text text-anchor="start" x="954.5" y="-693.5" font-family="Helvetica,sans-Serif" font-size="10.00">+ bool groundDetected</text>
<text text-anchor="start" x="954.5" y="-682.5" font-family="Helvetica,sans-Serif" font-size="10.00">+ bool topDetected</text>
<polyline fill="none" stroke="black" points="946.5,-675.5 1119.5,-675.5 "/>
<text text-anchor="start" x="954.5" y="-663.5" font-family="Helvetica,sans-Serif" font-size="10.00">+ virtual void Damage</text>
<text text-anchor="start" x="954.5" y="-652.5" font-family="Helvetica,sans-Serif" font-size="10.00">(float amount, int attackN)</text>
<text text-anchor="start" x="954.5" y="-641.5" font-family="Helvetica,sans-Serif" font-size="10.00">+ virtual void Damage</text>
<text text-anchor="start" x="954.5" y="-630.5" font-family="Helvetica,sans-Serif" font-size="10.00">(DamageInfo damageInfo)</text>
<text text-anchor="start" x="954.5" y="-619.5" font-family="Helvetica,sans-Serif" font-size="10.00">+ void Damage(BaseController</text>
<text text-anchor="start" x="954.5" y="-608.5" font-family="Helvetica,sans-Serif" font-size="10.00"> controller, DamageInfo</text>
<text text-anchor="start" x="954.5" y="-597.5" font-family="Helvetica,sans-Serif" font-size="10.00"> damageInfo)</text>
<text text-anchor="start" x="954.5" y="-586.5" font-family="Helvetica,sans-Serif" font-size="10.00">+ void Kill()</text>
<text text-anchor="start" x="954.5" y="-575.5" font-family="Helvetica,sans-Serif" font-size="10.00">+ bool Interact(BaseController</text>
<text text-anchor="start" x="954.5" y="-564.5" font-family="Helvetica,sans-Serif" font-size="10.00"> controller, EInteractionKind</text>
<text text-anchor="start" x="954.5" y="-553.5" font-family="Helvetica,sans-Serif" font-size="10.00"> interactionKind)</text>
<text text-anchor="start" x="954.5" y="-542.5" font-family="Helvetica,sans-Serif" font-size="10.00">+ virtual bool Interact</text>
<text text-anchor="start" x="954.5" y="-531.5" font-family="Helvetica,sans-Serif" font-size="10.00">(PlayerController controller,</text>
<text text-anchor="start" x="954.5" y="-520.5" font-family="Helvetica,sans-Serif" font-size="10.00"> EInteractionKind interactionKind)</text>
<text text-anchor="start" x="954.5" y="-509.5" font-family="Helvetica,sans-Serif" font-size="10.00">+ void ReadyToInteract</text>
<text text-anchor="start" x="954.5" y="-498.5" font-family="Helvetica,sans-Serif" font-size="10.00">(PlayerController controller,</text>
<text text-anchor="start" x="954.5" y="-487.5" font-family="Helvetica,sans-Serif" font-size="10.00"> bool isReady)</text>
<text text-anchor="start" x="954.5" y="-476.5" font-family="Helvetica,sans-Serif" font-size="10.00">+ void ReadyToInteract</text>
<text text-anchor="start" x="954.5" y="-465.5" font-family="Helvetica,sans-Serif" font-size="10.00">(BaseController controller,</text>
<text text-anchor="start" x="954.5" y="-454.5" font-family="Helvetica,sans-Serif" font-size="10.00"> bool isReady)</text>
<text text-anchor="start" x="954.5" y="-443.5" font-family="Helvetica,sans-Serif" font-size="10.00">+ void Flip()</text>
<text text-anchor="start" x="954.5" y="-432.5" font-family="Helvetica,sans-Serif" font-size="10.00">+ void SetVelocity(float</text>
<text text-anchor="start" x="954.5" y="-421.5" font-family="Helvetica,sans-Serif" font-size="10.00"> velocity)</text>
<text text-anchor="start" x="954.5" y="-410.5" font-family="Helvetica,sans-Serif" font-size="10.00">+ void AddForce(Vector2</text>
<text text-anchor="start" x="954.5" y="-399.5" font-family="Helvetica,sans-Serif" font-size="10.00"> newForce, bool isImpulse)</text>
<text text-anchor="start" x="954.5" y="-388.5" font-family="Helvetica,sans-Serif" font-size="10.00">+ void AddTorque(float</text>
<text text-anchor="start" x="954.5" y="-377.5" font-family="Helvetica,sans-Serif" font-size="10.00"> newTorque, bool isImpulse)</text>
<text text-anchor="start" x="954.5" y="-366.5" font-family="Helvetica,sans-Serif" font-size="10.00">+ T GetMovementController</text>
<text text-anchor="start" x="954.5" y="-355.5" font-family="Helvetica,sans-Serif" font-size="10.00">&lt; T &gt;()</text>
<text text-anchor="start" x="954.5" y="-344.5" font-family="Helvetica,sans-Serif" font-size="10.00">+ Animator GetAnimator()</text>
<text text-anchor="start" x="954.5" y="-333.5" font-family="Helvetica,sans-Serif" font-size="10.00">+ Transform GetTransfrom()</text>
<text text-anchor="start" x="954.5" y="-322.5" font-family="Helvetica,sans-Serif" font-size="10.00">+ GameObject GetDialogueBubble()</text>
<text text-anchor="start" x="954.5" y="-311.5" font-family="Helvetica,sans-Serif" font-size="10.00">+ bool CheckWall()</text>
<text text-anchor="start" x="954.5" y="-300.5" font-family="Helvetica,sans-Serif" font-size="10.00">+ bool CheckLedge()</text>
<text text-anchor="start" x="954.5" y="-289.5" font-family="Helvetica,sans-Serif" font-size="10.00">+ bool CheckGround()</text>
<text text-anchor="start" x="954.5" y="-278.5" font-family="Helvetica,sans-Serif" font-size="10.00">+ bool CheckTop()</text>
<text text-anchor="start" x="954.5" y="-267.5" font-family="Helvetica,sans-Serif" font-size="10.00">+ bool CheckPlayerInNearRange()</text>
<text text-anchor="start" x="954.5" y="-256.5" font-family="Helvetica,sans-Serif" font-size="10.00">+ bool CheckPlayerInLongRange()</text>
<text text-anchor="start" x="954.5" y="-245.5" font-family="Helvetica,sans-Serif" font-size="10.00">+ void CheckTouchDamage()</text>
<text text-anchor="start" x="954.5" y="-234.5" font-family="Helvetica,sans-Serif" font-size="10.00">+ virtual void Die()</text>
<text text-anchor="start" x="954.5" y="-223.5" font-family="Helvetica,sans-Serif" font-size="10.00">+ void DestroyNow()</text>
<text text-anchor="start" x="954.5" y="-212.5" font-family="Helvetica,sans-Serif" font-size="10.00">+ void DestroyNow(GameObject</text>
<text text-anchor="start" x="954.5" y="-201.5" font-family="Helvetica,sans-Serif" font-size="10.00"> lapida)</text>
<text text-anchor="start" x="954.5" y="-190.5" font-family="Helvetica,sans-Serif" font-size="10.00">+ bool CanCharacterInteract()</text>
<text text-anchor="start" x="954.5" y="-179.5" font-family="Helvetica,sans-Serif" font-size="10.00">+ bool IsDead()</text>
<text text-anchor="start" x="954.5" y="-168.5" font-family="Helvetica,sans-Serif" font-size="10.00"># virtual void Start()</text>
<text text-anchor="start" x="954.5" y="-157.5" font-family="Helvetica,sans-Serif" font-size="10.00"># virtual void Update()</text>
<text text-anchor="start" x="954.5" y="-146.5" font-family="Helvetica,sans-Serif" font-size="10.00"># virtual void OnDrawGizmos()</text>
<text text-anchor="start" x="954.5" y="-135.5" font-family="Helvetica,sans-Serif" font-size="10.00"># void MoveOnDamaged</text>
<text text-anchor="start" x="954.5" y="-124.5" font-family="Helvetica,sans-Serif" font-size="10.00">(int direction, Vector2</text>
<text text-anchor="start" x="954.5" y="-113.5" font-family="Helvetica,sans-Serif" font-size="10.00"> moveOnDamagedForce)</text>
<text text-anchor="start" x="954.5" y="-102.5" font-family="Helvetica,sans-Serif" font-size="10.00"># IEnumerator DamageEffect()</text>
</a>
</g>
</g>
<!-- Node2&#45;&gt;Node1 -->
<g id="edge1" class="edge">
<title>Node2&#45;&gt;Node1</title>
<path fill="none" stroke="midnightblue" d="M1033,-85.11C1033,-74.81 1033,-65.61 1033,-57.82"/>
<polygon fill="none" stroke="midnightblue" points="1029.5,-85.31 1033,-95.31 1036.5,-85.31 1029.5,-85.31"/>
</g>
<!-- Node3 -->
<g id="node3" class="node">
<title>Node3</title>
<g id="a_node3"><a xlink:href="interface_controllers_1_1_i_damageable.html" target="_top" xlink:title="Interfaz para todos los NPCs/Enemigos/Objetos que pueden ser daniados.">
<polygon fill="none" stroke="black" points="0,-1229.5 0,-1330.5 148,-1330.5 148,-1229.5 0,-1229.5"/>
<text text-anchor="middle" x="74" y="-1318.5" font-family="Helvetica,sans-Serif" font-size="10.00">IDamageable</text>
<polyline fill="none" stroke="black" points="0,-1311.5 148,-1311.5 "/>
<text text-anchor="middle" x="74" y="-1299.5" font-family="Helvetica,sans-Serif" font-size="10.00"> </text>
<polyline fill="none" stroke="black" points="0,-1292.5 148,-1292.5 "/>
<text text-anchor="start" x="8" y="-1280.5" font-family="Helvetica,sans-Serif" font-size="10.00">+ void Damage(BaseController</text>
<text text-anchor="start" x="8" y="-1269.5" font-family="Helvetica,sans-Serif" font-size="10.00"> controller, DamageInfo</text>
<text text-anchor="start" x="8" y="-1258.5" font-family="Helvetica,sans-Serif" font-size="10.00"> damageInfo)</text>
<text text-anchor="start" x="8" y="-1247.5" font-family="Helvetica,sans-Serif" font-size="10.00">+ void Damage(DamageInfo</text>
<text text-anchor="start" x="8" y="-1236.5" font-family="Helvetica,sans-Serif" font-size="10.00"> damageInfo)</text>
</a>
</g>
</g>
<!-- Node3&#45;&gt;Node2 -->
<g id="edge2" class="edge">
<title>Node3&#45;&gt;Node2</title>
<path fill="none" stroke="midnightblue" d="M60.06,-1219.38C41.76,-1126.86 19.49,-945.85 89,-816 257.63,-500.96 746.21,-441.18 946.15,-430"/>
<polygon fill="none" stroke="midnightblue" points="56.68,-1220.31 62.1,-1229.41 63.54,-1218.91 56.68,-1220.31"/>
</g>
<!-- Node20 -->
<g id="node20" class="node">
<title>Node20</title>
<g id="a_node20"><a xlink:href="class_player_1_1_player_controller.html" target="_top" xlink:title=" ">
<polygon fill="none" stroke="black" points="235,-816.5 235,-1115.5 385,-1115.5 385,-816.5 235,-816.5"/>
<text text-anchor="middle" x="310" y="-1103.5" font-family="Helvetica,sans-Serif" font-size="10.00">Player.PlayerController</text>
<polyline fill="none" stroke="black" points="235,-1096.5 385,-1096.5 "/>
<text text-anchor="middle" x="310" y="-1084.5" font-family="Helvetica,sans-Serif" font-size="10.00"> </text>
<polyline fill="none" stroke="black" points="235,-1077.5 385,-1077.5 "/>
<text text-anchor="start" x="243" y="-1065.5" font-family="Helvetica,sans-Serif" font-size="10.00">+ void Damage(BaseController</text>
<text text-anchor="start" x="243" y="-1054.5" font-family="Helvetica,sans-Serif" font-size="10.00"> controller, DamageInfo</text>
<text text-anchor="start" x="243" y="-1043.5" font-family="Helvetica,sans-Serif" font-size="10.00"> damageInfo)</text>
<text text-anchor="start" x="243" y="-1032.5" font-family="Helvetica,sans-Serif" font-size="10.00">+ void Damage(DamageInfo</text>
<text text-anchor="start" x="243" y="-1021.5" font-family="Helvetica,sans-Serif" font-size="10.00"> damageInfo)</text>
<text text-anchor="start" x="243" y="-1010.5" font-family="Helvetica,sans-Serif" font-size="10.00">+ void ExitInteractionMode()</text>
<text text-anchor="start" x="243" y="-999.5" font-family="Helvetica,sans-Serif" font-size="10.00">+ void EnterInteractionMode()</text>
<text text-anchor="start" x="243" y="-988.5" font-family="Helvetica,sans-Serif" font-size="10.00">+ int GetFacingDirection()</text>
<text text-anchor="start" x="243" y="-977.5" font-family="Helvetica,sans-Serif" font-size="10.00">+ void LandEvt()</text>
<text text-anchor="start" x="243" y="-966.5" font-family="Helvetica,sans-Serif" font-size="10.00">+ void OnAirEvt()</text>
<text text-anchor="start" x="243" y="-955.5" font-family="Helvetica,sans-Serif" font-size="10.00">+ bool IsFacingRight()</text>
<text text-anchor="start" x="243" y="-944.5" font-family="Helvetica,sans-Serif" font-size="10.00">+ void AddEffect(EEffectKind</text>
<text text-anchor="start" x="243" y="-933.5" font-family="Helvetica,sans-Serif" font-size="10.00"> kind, float lifetime)</text>
<text text-anchor="start" x="243" y="-922.5" font-family="Helvetica,sans-Serif" font-size="10.00">+ void AddPowerUp(EPowerUp</text>
<text text-anchor="start" x="243" y="-911.5" font-family="Helvetica,sans-Serif" font-size="10.00">Kind kind)</text>
<text text-anchor="start" x="243" y="-900.5" font-family="Helvetica,sans-Serif" font-size="10.00">+ void AnimStartPrayingEvt()</text>
<text text-anchor="start" x="243" y="-889.5" font-family="Helvetica,sans-Serif" font-size="10.00">+ void AnimRollEndEvt()</text>
<text text-anchor="start" x="243" y="-878.5" font-family="Helvetica,sans-Serif" font-size="10.00">+ void AnimFootStep1Evt()</text>
<text text-anchor="start" x="243" y="-867.5" font-family="Helvetica,sans-Serif" font-size="10.00">+ void AnimFootStep2Evt()</text>
<text text-anchor="start" x="243" y="-856.5" font-family="Helvetica,sans-Serif" font-size="10.00">+ void KrownsAdded()</text>
<text text-anchor="start" x="243" y="-845.5" font-family="Helvetica,sans-Serif" font-size="10.00">+ void KrownsRemoved()</text>
<text text-anchor="start" x="243" y="-834.5" font-family="Helvetica,sans-Serif" font-size="10.00">~ void OnEnable()</text>
<text text-anchor="start" x="243" y="-823.5" font-family="Helvetica,sans-Serif" font-size="10.00">~ void OnDisable()</text>
</a>
</g>
</g>
<!-- Node3&#45;&gt;Node20 -->
<g id="edge22" class="edge">
<title>Node3&#45;&gt;Node20</title>
<path fill="none" stroke="midnightblue" d="M101.37,-1220.28C117.67,-1190.84 140.88,-1156.72 170,-1134 188.95,-1119.21 202.4,-1131.22 221,-1116 225.78,-1112.09 230.37,-1107.85 234.76,-1103.36"/>
<polygon fill="none" stroke="midnightblue" points="98.2,-1218.78 96.53,-1229.25 104.36,-1222.11 98.2,-1218.78"/>
</g>
<!-- Node4 -->
<g id="node4" class="node">
<title>Node4</title>
<g id="a_node4"><a xlink:href="interface_interactions_1_1_interfaces_1_1_i_interactive.html" target="_top" xlink:title=" ">
<polygon fill="none" stroke="black" points="804.5,-877 804.5,-1055 955.5,-1055 955.5,-877 804.5,-877"/>
<text text-anchor="middle" x="880" y="-1043" font-family="Helvetica,sans-Serif" font-size="10.00">IInteractive</text>
<polyline fill="none" stroke="black" points="804.5,-1036 955.5,-1036 "/>
<text text-anchor="middle" x="880" y="-1024" font-family="Helvetica,sans-Serif" font-size="10.00"> </text>
<polyline fill="none" stroke="black" points="804.5,-1017 955.5,-1017 "/>
<text text-anchor="start" x="812.5" y="-1005" font-family="Helvetica,sans-Serif" font-size="10.00">+ bool Interact(BaseController</text>
<text text-anchor="start" x="812.5" y="-994" font-family="Helvetica,sans-Serif" font-size="10.00"> controller, EInteractionKind</text>
<text text-anchor="start" x="812.5" y="-983" font-family="Helvetica,sans-Serif" font-size="10.00"> interactionKind)</text>
<text text-anchor="start" x="812.5" y="-972" font-family="Helvetica,sans-Serif" font-size="10.00">+ bool Interact(PlayerController</text>
<text text-anchor="start" x="812.5" y="-961" font-family="Helvetica,sans-Serif" font-size="10.00"> controller, EInteractionKind</text>
<text text-anchor="start" x="812.5" y="-950" font-family="Helvetica,sans-Serif" font-size="10.00"> interactionKind)</text>
<text text-anchor="start" x="812.5" y="-939" font-family="Helvetica,sans-Serif" font-size="10.00">+ void ReadyToInteract</text>
<text text-anchor="start" x="812.5" y="-928" font-family="Helvetica,sans-Serif" font-size="10.00">(PlayerController controller,</text>
<text text-anchor="start" x="812.5" y="-917" font-family="Helvetica,sans-Serif" font-size="10.00"> bool isReady)</text>
<text text-anchor="start" x="812.5" y="-906" font-family="Helvetica,sans-Serif" font-size="10.00">+ void ReadyToInteract</text>
<text text-anchor="start" x="812.5" y="-895" font-family="Helvetica,sans-Serif" font-size="10.00">(BaseController controller,</text>
<text text-anchor="start" x="812.5" y="-884" font-family="Helvetica,sans-Serif" font-size="10.00"> bool isReady)</text>
</a>
</g>
</g>
<!-- Node4&#45;&gt;Node2 -->
<g id="edge3" class="edge">
<title>Node4&#45;&gt;Node2</title>
<path fill="none" stroke="midnightblue" d="M907.87,-867.08C919.01,-827.95 932.5,-780.57 946.44,-731.59"/>
<polygon fill="none" stroke="midnightblue" points="904.47,-866.27 905.09,-876.84 911.2,-868.18 904.47,-866.27"/>
</g>
<!-- Node5 -->
<g id="node5" class="node">
<title>Node5</title>
<g id="a_node5"><a xlink:title=" ">
<polygon fill="none" stroke="#bfbfbf" points="973.5,-937.5 973.5,-994.5 1044.5,-994.5 1044.5,-937.5 973.5,-937.5"/>
<text text-anchor="middle" x="1009" y="-982.5" font-family="Helvetica,sans-Serif" font-size="10.00">Rigidbody2D</text>
<polyline fill="none" stroke="#bfbfbf" points="973.5,-975.5 1044.5,-975.5 "/>
<text text-anchor="middle" x="1009" y="-963.5" font-family="Helvetica,sans-Serif" font-size="10.00"> </text>
<polyline fill="none" stroke="#bfbfbf" points="973.5,-956.5 1044.5,-956.5 "/>
<text text-anchor="middle" x="1009" y="-944.5" font-family="Helvetica,sans-Serif" font-size="10.00"> </text>
</a>
</g>
</g>
<!-- Node5&#45;&gt;Node2 -->
<g id="edge4" class="edge">
<title>Node5&#45;&gt;Node2</title>
<path fill="none" stroke="#404040" d="M1008.13,-937.23C1007.14,-904.09 1005.59,-847.01 1005,-798 1004.89,-788.7 1004.88,-779.28 1004.96,-769.77"/>
<polygon fill="none" stroke="#404040" points="1004.96,-769.68 1001.03,-763.63 1005.11,-757.68 1009.03,-763.73 1004.96,-769.68"/>
<text text-anchor="middle" x="1022.5" y="-784.5" font-family="Helvetica,sans-Serif" font-size="10.00"> ~rBody</text>
</g>
<!-- Node6 -->
<g id="node6" class="node">
<title>Node6</title>
<g id="a_node6"><a xlink:title=" ">
<polygon fill="none" stroke="#bfbfbf" points="1063,-937.5 1063,-994.5 1119,-994.5 1119,-937.5 1063,-937.5"/>
<text text-anchor="middle" x="1091" y="-982.5" font-family="Helvetica,sans-Serif" font-size="10.00">Animator</text>
<polyline fill="none" stroke="#bfbfbf" points="1063,-975.5 1119,-975.5 "/>
<text text-anchor="middle" x="1091" y="-963.5" font-family="Helvetica,sans-Serif" font-size="10.00"> </text>
<polyline fill="none" stroke="#bfbfbf" points="1063,-956.5 1119,-956.5 "/>
<text text-anchor="middle" x="1091" y="-944.5" font-family="Helvetica,sans-Serif" font-size="10.00"> </text>
</a>
</g>
</g>
<!-- Node6&#45;&gt;Node2 -->
<g id="edge5" class="edge">
<title>Node6&#45;&gt;Node2</title>
<path fill="none" stroke="#404040" d="M1085.62,-937.33C1079.36,-904.29 1069.12,-847.3 1063,-798 1061.85,-788.77 1060.74,-779.4 1059.67,-769.95"/>
<polygon fill="none" stroke="#404040" points="1059.65,-769.85 1055.01,-764.33 1058.32,-757.92 1062.96,-763.44 1059.65,-769.85"/>
<text text-anchor="middle" x="1107" y="-784.5" font-family="Helvetica,sans-Serif" font-size="10.00"> #characterAnimator</text>
</g>
<!-- Node7 -->
<g id="node7" class="node">
<title>Node7</title>
<g id="a_node7"><a xlink:title=" ">
<polygon fill="none" stroke="#bfbfbf" points="1137.5,-937.5 1137.5,-994.5 1208.5,-994.5 1208.5,-937.5 1137.5,-937.5"/>
<text text-anchor="middle" x="1173" y="-982.5" font-family="Helvetica,sans-Serif" font-size="10.00">GameObject</text>
<polyline fill="none" stroke="#bfbfbf" points="1137.5,-975.5 1208.5,-975.5 "/>
<text text-anchor="middle" x="1173" y="-963.5" font-family="Helvetica,sans-Serif" font-size="10.00"> </text>
<polyline fill="none" stroke="#bfbfbf" points="1137.5,-956.5 1208.5,-956.5 "/>
<text text-anchor="middle" x="1173" y="-944.5" font-family="Helvetica,sans-Serif" font-size="10.00"> </text>
</a>
</g>
</g>
<!-- Node7&#45;&gt;Node2 -->
<g id="edge6" class="edge">
<title>Node7&#45;&gt;Node2</title>
<path fill="none" stroke="#404040" d="M1171.61,-937.47C1169.34,-900.4 1163.72,-832.56 1151,-776 1143.38,-742.12 1133.68,-706.92 1123.12,-672.49"/>
<polygon fill="none" stroke="#404040" points="1123.07,-672.3 1117.47,-667.76 1119.51,-660.84 1125.11,-665.39 1123.07,-672.3"/>
<text text-anchor="middle" x="1192.5" y="-790" font-family="Helvetica,sans-Serif" font-size="10.00"> #dialogueBubble</text>
<text text-anchor="middle" x="1192.5" y="-779" font-family="Helvetica,sans-Serif" font-size="10.00">#hitParticles</text>
</g>
<!-- Node8 -->
<g id="node8" class="node">
<title>Node8</title>
<g id="a_node8"><a xlink:href="class_controllers_1_1_state_machine_1_1_states_1_1_data_1_1_controller_data.html" target="_top" xlink:title=" ">
<polygon fill="none" stroke="black" points="547.5,-932 547.5,-1000 680.5,-1000 680.5,-932 547.5,-932"/>
<text text-anchor="start" x="555.5" y="-988" font-family="Helvetica,sans-Serif" font-size="10.00">Controllers.StateMachine.</text>
<text text-anchor="middle" x="614" y="-977" font-family="Helvetica,sans-Serif" font-size="10.00">States.Data.ControllerData</text>
<polyline fill="none" stroke="black" points="547.5,-970 680.5,-970 "/>
<text text-anchor="middle" x="614" y="-958" font-family="Helvetica,sans-Serif" font-size="10.00"> </text>
<polyline fill="none" stroke="black" points="547.5,-951 680.5,-951 "/>
<text text-anchor="middle" x="614" y="-939" font-family="Helvetica,sans-Serif" font-size="10.00"> </text>
</a>
</g>
</g>
<!-- Node8&#45;&gt;Node2 -->
<g id="edge7" class="edge">
<title>Node8&#45;&gt;Node2</title>
<path fill="none" stroke="#404040" d="M616.31,-931.77C620.31,-892.25 631.11,-825.42 660,-776 729.23,-657.58 851.11,-554.96 936.65,-492.32"/>
<polygon fill="none" stroke="#404040" points="936.67,-492.31 939.17,-485.55 946.38,-485.26 943.87,-492.02 936.67,-492.31"/>
<text text-anchor="middle" x="681.5" y="-784.5" font-family="Helvetica,sans-Serif" font-size="10.00"> +ctrlData</text>
</g>
<!-- Node9 -->
<g id="node9" class="node">
<title>Node9</title>
<g id="a_node9"><a xlink:href="class_scriptable_object.html" target="_top" xlink:title=" ">
<polygon fill="none" stroke="black" points="512.5,-1251.5 512.5,-1308.5 601.5,-1308.5 601.5,-1251.5 512.5,-1251.5"/>
<text text-anchor="middle" x="557" y="-1296.5" font-family="Helvetica,sans-Serif" font-size="10.00">ScriptableObject</text>
<polyline fill="none" stroke="black" points="512.5,-1289.5 601.5,-1289.5 "/>
<text text-anchor="middle" x="557" y="-1277.5" font-family="Helvetica,sans-Serif" font-size="10.00"> </text>
<polyline fill="none" stroke="black" points="512.5,-1270.5 601.5,-1270.5 "/>
<text text-anchor="middle" x="557" y="-1258.5" font-family="Helvetica,sans-Serif" font-size="10.00"> </text>
</a>
</g>
</g>
<!-- Node9&#45;&gt;Node8 -->
<g id="edge8" class="edge">
<title>Node9&#45;&gt;Node8</title>
<path fill="none" stroke="midnightblue" d="M566.99,-1241.4C569.44,-1231.55 571.95,-1220.91 574,-1211 589.46,-1136.17 602.76,-1047.44 609.43,-1000.31"/>
<polygon fill="none" stroke="midnightblue" points="563.54,-1240.77 564.47,-1251.33 570.32,-1242.5 563.54,-1240.77"/>
</g>
<!-- Node10 -->
<g id="node10" class="node">
<title>Node10</title>
<g id="a_node10"><a xlink:title=" ">
<polygon fill="none" stroke="#bfbfbf" points="166.5,-1251.5 166.5,-1308.5 201.5,-1308.5 201.5,-1251.5 166.5,-1251.5"/>
<text text-anchor="middle" x="184" y="-1296.5" font-family="Helvetica,sans-Serif" font-size="10.00">float</text>
<polyline fill="none" stroke="#bfbfbf" points="166.5,-1289.5 201.5,-1289.5 "/>
<text text-anchor="middle" x="184" y="-1277.5" font-family="Helvetica,sans-Serif" font-size="10.00"> </text>
<polyline fill="none" stroke="#bfbfbf" points="166.5,-1270.5 201.5,-1270.5 "/>
<text text-anchor="middle" x="184" y="-1258.5" font-family="Helvetica,sans-Serif" font-size="10.00"> </text>
</a>
</g>
</g>
<!-- Node10&#45;&gt;Node2 -->
<g id="edge15" class="edge">
<title>Node10&#45;&gt;Node2</title>
<path fill="none" stroke="#404040" d="M169.59,-1251.37C131.88,-1174.89 39.43,-956.73 132,-816 314.27,-538.91 740.46,-458.58 934.11,-436"/>
<polygon fill="none" stroke="#404040" points="934.32,-435.97 939.83,-431.32 946.24,-434.62 940.73,-439.27 934.32,-435.97"/>
<text text-anchor="middle" x="179" y="-969" font-family="Helvetica,sans-Serif" font-size="10.00"> #moveOnAttackStart</text>
<text text-anchor="middle" x="179" y="-958" font-family="Helvetica,sans-Serif" font-size="10.00">+deadMaxWait</text>
</g>
<!-- Node10&#45;&gt;Node8 -->
<g id="edge9" class="edge">
<title>Node10&#45;&gt;Node8</title>
<path fill="none" stroke="#404040" d="M201.77,-1272.72C230.15,-1262.79 287.57,-1243.15 337,-1229 369.13,-1219.8 383.74,-1231.66 410,-1211 440.31,-1187.15 419.62,-1157.75 450,-1134 477,-1112.88 497.38,-1136.31 525,-1116 560.4,-1089.98 584.34,-1045.26 598.4,-1011.59"/>
<polygon fill="none" stroke="#404040" points="598.51,-1011.33 597.02,-1004.27 602.96,-1000.19 604.45,-1007.24 598.51,-1011.33"/>
<text text-anchor="middle" x="510" y="-1197.5" font-family="Helvetica,sans-Serif" font-size="10.00"> +groundCheckDistance</text>
<text text-anchor="middle" x="510" y="-1186.5" font-family="Helvetica,sans-Serif" font-size="10.00">+ledgeCheckDistacne</text>
<text text-anchor="middle" x="510" y="-1175.5" font-family="Helvetica,sans-Serif" font-size="10.00">+playerLongRangeDistance</text>
<text text-anchor="middle" x="510" y="-1164.5" font-family="Helvetica,sans-Serif" font-size="10.00">+playerNearRangeDistance</text>
<text text-anchor="middle" x="510" y="-1153.5" font-family="Helvetica,sans-Serif" font-size="10.00">+topCheckDistance</text>
<text text-anchor="middle" x="510" y="-1142.5" font-family="Helvetica,sans-Serif" font-size="10.00">+wallCheckDistance</text>
</g>
<!-- Node10&#45;&gt;Node20 -->
<g id="edge23" class="edge">
<title>Node10&#45;&gt;Node20</title>
<path fill="none" stroke="#404040" d="M177.74,-1251.39C172.3,-1220.45 168.32,-1169.92 190,-1134 198.23,-1120.36 209.66,-1127.2 221,-1116 222.96,-1114.06 224.89,-1112.08 226.8,-1110.04"/>
<polygon fill="none" stroke="#404040" points="227,-1109.82 228,-1102.68 234.98,-1100.86 233.98,-1108 227,-1109.82"/>
<text text-anchor="middle" x="240.5" y="-1175.5" font-family="Helvetica,sans-Serif" font-size="10.00"> #interactionRadius</text>
<text text-anchor="middle" x="240.5" y="-1164.5" font-family="Helvetica,sans-Serif" font-size="10.00">+specialMoveWaitTime</text>
</g>
<!-- Node11 -->
<g id="node11" class="node">
<title>Node11</title>
<g id="a_node11"><a xlink:title=" ">
<polygon fill="none" stroke="#bfbfbf" points="619.5,-1251.5 619.5,-1308.5 684.5,-1308.5 684.5,-1251.5 619.5,-1251.5"/>
<text text-anchor="middle" x="652" y="-1296.5" font-family="Helvetica,sans-Serif" font-size="10.00">LayerMask</text>
<polyline fill="none" stroke="#bfbfbf" points="619.5,-1289.5 684.5,-1289.5 "/>
<text text-anchor="middle" x="652" y="-1277.5" font-family="Helvetica,sans-Serif" font-size="10.00"> </text>
<polyline fill="none" stroke="#bfbfbf" points="619.5,-1270.5 684.5,-1270.5 "/>
<text text-anchor="middle" x="652" y="-1258.5" font-family="Helvetica,sans-Serif" font-size="10.00"> </text>
</a>
</g>
</g>
<!-- Node11&#45;&gt;Node8 -->
<g id="edge10" class="edge">
<title>Node11&#45;&gt;Node8</title>
<path fill="none" stroke="#404040" d="M636.94,-1251.38C631.14,-1239.34 625.15,-1224.84 622,-1211 606.53,-1143.14 607.62,-1061.95 610.38,-1012.44"/>
<polygon fill="none" stroke="#404040" points="610.39,-1012.24 606.77,-1006.01 611.13,-1000.27 614.76,-1006.5 610.39,-1012.24"/>
<text text-anchor="middle" x="656.5" y="-1170" font-family="Helvetica,sans-Serif" font-size="10.00"> +whatIsGround</text>
</g>
<!-- Node12 -->
<g id="node12" class="node">
<title>Node12</title>
<g id="a_node12"><a xlink:title=" ">
<polygon fill="none" stroke="#bfbfbf" points="788.5,-1251.5 788.5,-1308.5 817.5,-1308.5 817.5,-1251.5 788.5,-1251.5"/>
<text text-anchor="middle" x="803" y="-1296.5" font-family="Helvetica,sans-Serif" font-size="10.00">int</text>
<polyline fill="none" stroke="#bfbfbf" points="788.5,-1289.5 817.5,-1289.5 "/>
<text text-anchor="middle" x="803" y="-1277.5" font-family="Helvetica,sans-Serif" font-size="10.00"> </text>
<polyline fill="none" stroke="#bfbfbf" points="788.5,-1270.5 817.5,-1270.5 "/>
<text text-anchor="middle" x="803" y="-1258.5" font-family="Helvetica,sans-Serif" font-size="10.00"> </text>
</a>
</g>
</g>
<!-- Node12&#45;&gt;Node2 -->
<g id="edge18" class="edge">
<title>Node12&#45;&gt;Node2</title>
<path fill="none" stroke="#404040" d="M817.71,-1271.25C836.25,-1260.54 867.24,-1239.29 880,-1211 894.07,-1179.8 902.74,-1159.57 880,-1134 834.5,-1082.83 772.5,-1167.17 727,-1116 682.7,-1066.18 705.17,-878.99 727,-816 768.53,-696.14 864.05,-585.23 937.4,-512.86"/>
<polygon fill="none" stroke="#404040" points="937.65,-512.62 939.15,-505.56 946.23,-504.23 944.74,-511.28 937.65,-512.62"/>
<text text-anchor="middle" x="761.5" y="-969" font-family="Helvetica,sans-Serif" font-size="10.00"> +KrownReward</text>
<text text-anchor="middle" x="761.5" y="-958" font-family="Helvetica,sans-Serif" font-size="10.00">+currentHealth</text>
</g>
<!-- Node12&#45;&gt;Node8 -->
<g id="edge11" class="edge">
<title>Node12&#45;&gt;Node8</title>
<path fill="none" stroke="#404040" d="M802.45,-1251.41C801.12,-1214.13 796.57,-1150.46 781,-1134 754.17,-1105.63 726.33,-1139.31 695,-1116 660.45,-1090.3 638.94,-1045.33 626.85,-1011.5"/>
<polygon fill="none" stroke="#404040" points="626.82,-1011.41 621.1,-1007.02 622.96,-1000.05 628.67,-1004.44 626.82,-1011.41"/>
<text text-anchor="middle" x="837.5" y="-1175.5" font-family="Helvetica,sans-Serif" font-size="10.00"> +generalDamage</text>
<text text-anchor="middle" x="837.5" y="-1164.5" font-family="Helvetica,sans-Serif" font-size="10.00">+maxHealth</text>
</g>
<!-- Node12&#45;&gt;Node20 -->
<g id="edge24" class="edge">
<title>Node12&#45;&gt;Node20</title>
<path fill="none" stroke="#404040" d="M788.23,-1272.32C767.46,-1262.13 729.94,-1240.74 710,-1211 690.37,-1181.72 718.07,-1156.58 691,-1134 641.08,-1092.36 454.53,-1149.81 399,-1116 397.62,-1115.16 396.27,-1114.3 394.93,-1113.4"/>
<polygon fill="none" stroke="#404040" points="394.64,-1113.19 387.44,-1112.8 385.03,-1106 392.23,-1106.39 394.64,-1113.19"/>
<text text-anchor="middle" x="743.5" y="-1175.5" font-family="Helvetica,sans-Serif" font-size="10.00"> +currentHealth</text>
<text text-anchor="middle" x="743.5" y="-1164.5" font-family="Helvetica,sans-Serif" font-size="10.00">+maxHealth</text>
</g>
<!-- Node13 -->
<g id="node13" class="node">
<title>Node13</title>
<g id="a_node13"><a xlink:title=" ">
<polygon fill="none" stroke="#bfbfbf" points="1226.5,-937.5 1226.5,-994.5 1315.5,-994.5 1315.5,-937.5 1226.5,-937.5"/>
<text text-anchor="middle" x="1271" y="-982.5" font-family="Helvetica,sans-Serif" font-size="10.00">ECharacterState</text>
<polyline fill="none" stroke="#bfbfbf" points="1226.5,-975.5 1315.5,-975.5 "/>
<text text-anchor="middle" x="1271" y="-963.5" font-family="Helvetica,sans-Serif" font-size="10.00"> </text>
<polyline fill="none" stroke="#bfbfbf" points="1226.5,-956.5 1315.5,-956.5 "/>
<text text-anchor="middle" x="1271" y="-944.5" font-family="Helvetica,sans-Serif" font-size="10.00"> </text>
</a>
</g>
</g>
<!-- Node13&#45;&gt;Node2 -->
<g id="edge12" class="edge">
<title>Node13&#45;&gt;Node2</title>
<path fill="none" stroke="#404040" d="M1268.46,-937.31C1264.38,-899.78 1254.63,-831.11 1234,-776 1206.51,-702.58 1164.48,-626.54 1125.95,-564.29"/>
<polygon fill="none" stroke="#404040" points="1125.9,-564.21 1119.33,-561.24 1119.55,-554.03 1126.12,-557 1125.9,-564.21"/>
<text text-anchor="middle" x="1271" y="-784.5" font-family="Helvetica,sans-Serif" font-size="10.00"> #currentState</text>
</g>
<!-- Node14 -->
<g id="node14" class="node">
<title>Node14</title>
<g id="a_node14"><a xlink:title=" ">
<polygon fill="none" stroke="#bfbfbf" points="1333.5,-937.5 1333.5,-994.5 1396.5,-994.5 1396.5,-937.5 1333.5,-937.5"/>
<text text-anchor="middle" x="1365" y="-982.5" font-family="Helvetica,sans-Serif" font-size="10.00">UnityEvent</text>
<polyline fill="none" stroke="#bfbfbf" points="1333.5,-975.5 1396.5,-975.5 "/>
<text text-anchor="middle" x="1365" y="-963.5" font-family="Helvetica,sans-Serif" font-size="10.00"> </text>
<polyline fill="none" stroke="#bfbfbf" points="1333.5,-956.5 1396.5,-956.5 "/>
<text text-anchor="middle" x="1365" y="-944.5" font-family="Helvetica,sans-Serif" font-size="10.00"> </text>
</a>
</g>
</g>
<!-- Node14&#45;&gt;Node2 -->
<g id="edge13" class="edge">
<title>Node14&#45;&gt;Node2</title>
<path fill="none" stroke="#404040" d="M1359.16,-937.35C1352.4,-907.08 1340.23,-857.35 1325,-816 1283.04,-702.06 1195.99,-593.46 1127.8,-520.2"/>
<polygon fill="none" stroke="#404040" points="1127.79,-520.19 1120.77,-518.56 1119.58,-511.44 1126.6,-513.08 1127.79,-520.19"/>
<text text-anchor="middle" x="1348.5" y="-784.5" font-family="Helvetica,sans-Serif" font-size="10.00"> +OnLandEvent</text>
</g>
<!-- Node15 -->
<g id="node15" class="node">
<title>Node15</title>
<g id="a_node15"><a xlink:href="class_controllers_1_1_movement_1_1_base_movement_controller.html" target="_top" xlink:title=" ">
<polygon fill="none" stroke="black" points="1415,-932 1415,-1000 1551,-1000 1551,-932 1415,-932"/>
<text text-anchor="start" x="1423" y="-988" font-family="Helvetica,sans-Serif" font-size="10.00">Controllers.Movement.Base</text>
<text text-anchor="middle" x="1483" y="-977" font-family="Helvetica,sans-Serif" font-size="10.00">MovementController</text>
<polyline fill="none" stroke="black" points="1415,-970 1551,-970 "/>
<text text-anchor="middle" x="1483" y="-958" font-family="Helvetica,sans-Serif" font-size="10.00"> </text>
<polyline fill="none" stroke="black" points="1415,-951 1551,-951 "/>
<text text-anchor="middle" x="1483" y="-939" font-family="Helvetica,sans-Serif" font-size="10.00"> </text>
</a>
</g>
</g>
<!-- Node15&#45;&gt;Node2 -->
<g id="edge14" class="edge">
<title>Node15&#45;&gt;Node2</title>
<path fill="none" stroke="#404040" d="M1469.78,-931.76C1453.33,-892.52 1422.87,-826.25 1386,-776 1310.85,-673.58 1205.11,-573.49 1128.98,-507.04"/>
<polygon fill="none" stroke="#404040" points="1128.9,-506.98 1121.75,-506.06 1119.85,-499.11 1127,-500.02 1128.9,-506.98"/>
<text text-anchor="middle" x="1456.5" y="-784.5" font-family="Helvetica,sans-Serif" font-size="10.00"> #baseMovementController</text>
</g>
<!-- Node16 -->
<g id="node16" class="node">
<title>Node16</title>
<g id="a_node16"><a xlink:href="class_controllers_1_1_state_machine_1_1_controller_state_machine.html" target="_top" xlink:title="Controla el estado de un enemigo o NPC, desde que spawnea hasta que muere. Casi todos los metodos son...">
<polygon fill="none" stroke="black" points="1569.5,-915.5 1569.5,-1016.5 1698.5,-1016.5 1698.5,-915.5 1569.5,-915.5"/>
<text text-anchor="start" x="1577.5" y="-1004.5" font-family="Helvetica,sans-Serif" font-size="10.00">Controllers.StateMachine.</text>
<text text-anchor="middle" x="1634" y="-993.5" font-family="Helvetica,sans-Serif" font-size="10.00">ControllerStateMachine</text>
<polyline fill="none" stroke="black" points="1569.5,-986.5 1698.5,-986.5 "/>
<text text-anchor="start" x="1577.5" y="-974.5" font-family="Helvetica,sans-Serif" font-size="10.00">+ State CurrentState</text>
<polyline fill="none" stroke="black" points="1569.5,-967.5 1698.5,-967.5 "/>
<text text-anchor="start" x="1577.5" y="-955.5" font-family="Helvetica,sans-Serif" font-size="10.00">+ void Initialize(State</text>
<text text-anchor="start" x="1577.5" y="-944.5" font-family="Helvetica,sans-Serif" font-size="10.00"> startState)</text>
<text text-anchor="start" x="1577.5" y="-933.5" font-family="Helvetica,sans-Serif" font-size="10.00">+ void ChangeState(State</text>
<text text-anchor="start" x="1577.5" y="-922.5" font-family="Helvetica,sans-Serif" font-size="10.00"> nextState)</text>
</a>
</g>
</g>
<!-- Node16&#45;&gt;Node2 -->
<g id="edge16" class="edge">
<title>Node16&#45;&gt;Node2</title>
<path fill="none" stroke="#404040" d="M1614.51,-915.24C1601.45,-885.05 1582.54,-846.57 1560,-816 1444.7,-659.64 1248.46,-538.89 1130.74,-475.9"/>
<polygon fill="none" stroke="#404040" points="1130.55,-475.8 1123.37,-476.52 1119.95,-470.17 1127.13,-469.45 1130.55,-475.8"/>
<text text-anchor="middle" x="1573" y="-784.5" font-family="Helvetica,sans-Serif" font-size="10.00"> +StateMachine</text>
</g>
<!-- Node17 -->
<g id="node17" class="node">
<title>Node17</title>
<g id="a_node17"><a xlink:title=" ">
<polygon fill="none" stroke="#bfbfbf" points="1717,-937.5 1717,-994.5 1801,-994.5 1801,-937.5 1717,-937.5"/>
<text text-anchor="middle" x="1759" y="-982.5" font-family="Helvetica,sans-Serif" font-size="10.00">EControllerKind</text>
<polyline fill="none" stroke="#bfbfbf" points="1717,-975.5 1801,-975.5 "/>
<text text-anchor="middle" x="1759" y="-963.5" font-family="Helvetica,sans-Serif" font-size="10.00"> </text>
<polyline fill="none" stroke="#bfbfbf" points="1717,-956.5 1801,-956.5 "/>
<text text-anchor="middle" x="1759" y="-944.5" font-family="Helvetica,sans-Serif" font-size="10.00"> </text>
</a>
</g>
</g>
<!-- Node17&#45;&gt;Node2 -->
<g id="edge17" class="edge">
<title>Node17&#45;&gt;Node2</title>
<path fill="none" stroke="#404040" d="M1755.51,-937.43C1750.2,-905.17 1737.38,-851.66 1708,-816 1551.88,-626.51 1277.63,-510.37 1131.38,-458.86"/>
<polygon fill="none" stroke="#404040" points="1131.11,-458.77 1124.13,-460.57 1119.78,-454.82 1126.76,-453.02 1131.11,-458.77"/>
<text text-anchor="middle" x="1714.5" y="-784.5" font-family="Helvetica,sans-Serif" font-size="10.00"> +controllerKind</text>
</g>
<!-- Node18 -->
<g id="node18" class="node">
<title>Node18</title>
<g id="a_node18"><a xlink:title=" ">
<polygon fill="none" stroke="#bfbfbf" points="346.5,-1251.5 346.5,-1308.5 381.5,-1308.5 381.5,-1251.5 346.5,-1251.5"/>
<text text-anchor="middle" x="364" y="-1296.5" font-family="Helvetica,sans-Serif" font-size="10.00">bool</text>
<polyline fill="none" stroke="#bfbfbf" points="346.5,-1289.5 381.5,-1289.5 "/>
<text text-anchor="middle" x="364" y="-1277.5" font-family="Helvetica,sans-Serif" font-size="10.00"> </text>
<polyline fill="none" stroke="#bfbfbf" points="346.5,-1270.5 381.5,-1270.5 "/>
<text text-anchor="middle" x="364" y="-1258.5" font-family="Helvetica,sans-Serif" font-size="10.00"> </text>
</a>
</g>
</g>
<!-- Node18&#45;&gt;Node2 -->
<g id="edge19" class="edge">
<title>Node18&#45;&gt;Node2</title>
<path fill="none" stroke="#404040" d="M381.71,-1256.45C390.61,-1243.81 400.64,-1227.35 406,-1211 460.91,-1043.65 347.96,-967.38 438,-816 551.02,-625.98 797.39,-511.62 935.02,-460.1"/>
<polygon fill="none" stroke="#404040" points="935.11,-460.07 939.35,-454.24 946.37,-455.91 942.13,-461.74 935.11,-460.07"/>
<text text-anchor="middle" x="488" y="-985.5" font-family="Helvetica,sans-Serif" font-size="10.00"> #canInteract</text>
<text text-anchor="middle" x="488" y="-974.5" font-family="Helvetica,sans-Serif" font-size="10.00">#dead</text>
<text text-anchor="middle" x="488" y="-963.5" font-family="Helvetica,sans-Serif" font-size="10.00">#isInvencible</text>
<text text-anchor="middle" x="488" y="-952.5" font-family="Helvetica,sans-Serif" font-size="10.00">#lastGroundDetected</text>
<text text-anchor="middle" x="488" y="-941.5" font-family="Helvetica,sans-Serif" font-size="10.00">#playerFacingDirection</text>
</g>
<!-- Node18&#45;&gt;Node20 -->
<g id="edge25" class="edge">
<title>Node18&#45;&gt;Node20</title>
<path fill="none" stroke="#404040" d="M346.36,-1263.7C333.24,-1251.08 316.39,-1231.9 309,-1211 299.73,-1184.79 295.28,-1155.99 293.78,-1127.64"/>
<polygon fill="none" stroke="#404040" points="293.78,-1127.52 289.55,-1121.67 293.32,-1115.52 297.54,-1121.37 293.78,-1127.52"/>
<text text-anchor="middle" x="357.5" y="-1203" font-family="Helvetica,sans-Serif" font-size="10.00"> +isEnrolledInDialogue</text>
<text text-anchor="middle" x="357.5" y="-1192" font-family="Helvetica,sans-Serif" font-size="10.00">+warpActioned</text>
<text text-anchor="middle" x="357.5" y="-1181" font-family="Helvetica,sans-Serif" font-size="10.00">~moveOnDamaged</text>
<text text-anchor="middle" x="357.5" y="-1170" font-family="Helvetica,sans-Serif" font-size="10.00">~praying</text>
<text text-anchor="middle" x="357.5" y="-1159" font-family="Helvetica,sans-Serif" font-size="10.00">~respawning</text>
<text text-anchor="middle" x="357.5" y="-1148" font-family="Helvetica,sans-Serif" font-size="10.00">~roll</text>
<text text-anchor="middle" x="357.5" y="-1137" font-family="Helvetica,sans-Serif" font-size="10.00">~rollAnim</text>
</g>
<!-- Node19 -->
<g id="node19" class="node">
<title>Node19</title>
<g id="a_node19"><a xlink:title=" ">
<polygon fill="none" stroke="#bfbfbf" points="1819,-937.5 1819,-994.5 1891,-994.5 1891,-937.5 1819,-937.5"/>
<text text-anchor="middle" x="1855" y="-982.5" font-family="Helvetica,sans-Serif" font-size="10.00">AudioSource</text>
<polyline fill="none" stroke="#bfbfbf" points="1819,-975.5 1891,-975.5 "/>
<text text-anchor="middle" x="1855" y="-963.5" font-family="Helvetica,sans-Serif" font-size="10.00"> </text>
<polyline fill="none" stroke="#bfbfbf" points="1819,-956.5 1891,-956.5 "/>
<text text-anchor="middle" x="1855" y="-944.5" font-family="Helvetica,sans-Serif" font-size="10.00"> </text>
</a>
</g>
</g>
<!-- Node19&#45;&gt;Node2 -->
<g id="edge20" class="edge">
<title>Node19&#45;&gt;Node2</title>
<path fill="none" stroke="#404040" d="M1852.13,-937.33C1847.67,-905.46 1836.6,-852.79 1810,-816 1791.86,-790.92 1779.68,-791.68 1753,-776 1538.51,-649.94 1271.62,-529.65 1130.71,-468.78"/>
<polygon fill="none" stroke="#404040" points="1130.57,-468.72 1123.47,-470.02 1119.55,-463.97 1126.64,-462.67 1130.57,-468.72"/>
<text text-anchor="middle" x="1827.5" y="-790" font-family="Helvetica,sans-Serif" font-size="10.00"> #hitAttackSFX1</text>
<text text-anchor="middle" x="1827.5" y="-779" font-family="Helvetica,sans-Serif" font-size="10.00">#hitAttackSFX2</text>
</g>
<!-- Node20&#45;&gt;Node2 -->
<g id="edge21" class="edge">
<title>Node20&#45;&gt;Node2</title>
<path fill="none" stroke="#404040" d="M311.93,-816.28C316.31,-801.91 322.49,-788.17 331,-776 475.31,-569.66 777.81,-479.53 934.39,-445.42"/>
<polygon fill="none" stroke="#404040" points="934.59,-445.38 939.62,-440.21 946.32,-442.87 941.29,-448.03 934.59,-445.38"/>
<text text-anchor="middle" x="369" y="-784.5" font-family="Helvetica,sans-Serif" font-size="10.00"> #playerController</text>
</g>
</g>
</svg>
