<?xml version="1.0" encoding="UTF-8" standalone="no"?>
<!DOCTYPE svg PUBLIC "-//W3C//DTD SVG 1.1//EN"
 "http://www.w3.org/Graphics/SVG/1.1/DTD/svg11.dtd">
<!-- Generated by graphviz version 2.48.0 (20210717.1556)
 -->
<!-- Title: ScreenOpts Pages: 1 -->
<svg width="391pt" height="182pt"
 viewBox="0.00 0.00 390.50 182.00" xmlns="http://www.w3.org/2000/svg" xmlns:xlink="http://www.w3.org/1999/xlink">
<g id="graph0" class="graph" transform="scale(1 1) rotate(0) translate(4 178)">
<title>ScreenOpts</title>
<!-- Node1 -->
<g id="node1" class="node">
<title>Node1</title>
<g id="a_node1"><a xlink:title=" ">
<polygon fill="#bfbfbf" stroke="black" points="131.5,-0.5 131.5,-68.5 237.5,-68.5 237.5,-0.5 131.5,-0.5"/>
<text text-anchor="middle" x="184.5" y="-56.5" font-family="Helvetica,sans-Serif" font-size="10.00">ScreenOpts</text>
<polyline fill="none" stroke="black" points="131.5,-49.5 237.5,-49.5 "/>
<text text-anchor="middle" x="184.5" y="-37.5" font-family="Helvetica,sans-Serif" font-size="10.00"> </text>
<polyline fill="none" stroke="black" points="131.5,-30.5 237.5,-30.5 "/>
<text text-anchor="start" x="139.5" y="-18.5" font-family="Helvetica,sans-Serif" font-size="10.00">~ void SetFPSStr(int</text>
<text text-anchor="start" x="139.5" y="-7.5" font-family="Helvetica,sans-Serif" font-size="10.00"> sliderFPSamount)</text>
</a>
</g>
</g>
<!-- Node2 -->
<g id="node2" class="node">
<title>Node2</title>
<g id="a_node2"><a xlink:title=" ">
<polygon fill="none" stroke="#bfbfbf" points="0,-116.5 0,-173.5 83,-173.5 83,-116.5 0,-116.5"/>
<text text-anchor="middle" x="41.5" y="-161.5" font-family="Helvetica,sans-Serif" font-size="10.00">MonoBehaviour</text>
<polyline fill="none" stroke="#bfbfbf" points="0,-154.5 83,-154.5 "/>
<text text-anchor="middle" x="41.5" y="-142.5" font-family="Helvetica,sans-Serif" font-size="10.00"> </text>
<polyline fill="none" stroke="#bfbfbf" points="0,-135.5 83,-135.5 "/>
<text text-anchor="middle" x="41.5" y="-123.5" font-family="Helvetica,sans-Serif" font-size="10.00"> </text>
</a>
</g>
</g>
<!-- Node2&#45;&gt;Node1 -->
<g id="edge1" class="edge">
<title>Node2&#45;&gt;Node1</title>
<path fill="none" stroke="midnightblue" d="M84.66,-109.97C94.43,-102.36 104.79,-94.36 114.5,-87 122.44,-80.98 130.93,-74.65 139.17,-68.56"/>
<polygon fill="none" stroke="midnightblue" points="82.34,-107.34 76.62,-116.25 86.65,-112.86 82.34,-107.34"/>
</g>
<!-- Node3 -->
<g id="node3" class="node">
<title>Node3</title>
<g id="a_node3"><a xlink:title=" ">
<polygon fill="none" stroke="#bfbfbf" points="101,-116.5 101,-173.5 142,-173.5 142,-116.5 101,-116.5"/>
<text text-anchor="middle" x="121.5" y="-161.5" font-family="Helvetica,sans-Serif" font-size="10.00">string</text>
<polyline fill="none" stroke="#bfbfbf" points="101,-154.5 142,-154.5 "/>
<text text-anchor="middle" x="121.5" y="-142.5" font-family="Helvetica,sans-Serif" font-size="10.00"> </text>
<polyline fill="none" stroke="#bfbfbf" points="101,-135.5 142,-135.5 "/>
<text text-anchor="middle" x="121.5" y="-123.5" font-family="Helvetica,sans-Serif" font-size="10.00"> </text>
</a>
</g>
</g>
<!-- Node3&#45;&gt;Node1 -->
<g id="edge2" class="edge">
<title>Node3&#45;&gt;Node1</title>
<path fill="none" stroke="#404040" d="M117.39,-116.24C117.13,-106.57 118.22,-95.92 122.5,-87 124,-83.87 125.8,-80.86 127.82,-77.97"/>
<polygon fill="none" stroke="#404040" points="127.83,-77.97 128.53,-70.79 135.43,-68.68 134.72,-75.86 127.83,-77.97"/>
<text text-anchor="middle" x="174" y="-90" font-family="Helvetica,sans-Serif" font-size="10.00"> +sliderFPSamountSTR</text>
</g>
<!-- Node4 -->
<g id="node4" class="node">
<title>Node4</title>
<g id="a_node4"><a xlink:title=" ">
<polygon fill="none" stroke="#bfbfbf" points="233,-116.5 233,-173.5 262,-173.5 262,-116.5 233,-116.5"/>
<text text-anchor="middle" x="247.5" y="-161.5" font-family="Helvetica,sans-Serif" font-size="10.00">int</text>
<polyline fill="none" stroke="#bfbfbf" points="233,-154.5 262,-154.5 "/>
<text text-anchor="middle" x="247.5" y="-142.5" font-family="Helvetica,sans-Serif" font-size="10.00"> </text>
<polyline fill="none" stroke="#bfbfbf" points="233,-135.5 262,-135.5 "/>
<text text-anchor="middle" x="247.5" y="-123.5" font-family="Helvetica,sans-Serif" font-size="10.00"> </text>
</a>
</g>
</g>
<!-- Node4&#45;&gt;Node1 -->
<g id="edge3" class="edge">
<title>Node4&#45;&gt;Node1</title>
<path fill="none" stroke="#404040" d="M238.72,-116.26C235.19,-106.7 230.72,-96.11 225.5,-87 223.88,-84.17 222.11,-81.33 220.24,-78.52"/>
<polygon fill="none" stroke="#404040" points="220.1,-78.32 213.37,-75.73 213.17,-68.53 219.9,-71.11 220.1,-78.32"/>
<text text-anchor="middle" x="260" y="-90" font-family="Helvetica,sans-Serif" font-size="10.00"> +currentFPS</text>
</g>
<!-- Node5 -->
<g id="node5" class="node">
<title>Node5</title>
<g id="a_node5"><a xlink:title=" ">
<polygon fill="none" stroke="#bfbfbf" points="280.5,-116.5 280.5,-173.5 382.5,-173.5 382.5,-116.5 280.5,-116.5"/>
<text text-anchor="middle" x="331.5" y="-161.5" font-family="Helvetica,sans-Serif" font-size="10.00">LocalizeStringEvent</text>
<polyline fill="none" stroke="#bfbfbf" points="280.5,-154.5 382.5,-154.5 "/>
<text text-anchor="middle" x="331.5" y="-142.5" font-family="Helvetica,sans-Serif" font-size="10.00"> </text>
<polyline fill="none" stroke="#bfbfbf" points="280.5,-135.5 382.5,-135.5 "/>
<text text-anchor="middle" x="331.5" y="-123.5" font-family="Helvetica,sans-Serif" font-size="10.00"> </text>
</a>
</g>
</g>
<!-- Node5&#45;&gt;Node1 -->
<g id="edge4" class="edge">
<title>Node5&#45;&gt;Node1</title>
<path fill="none" stroke="#404040" d="M317.3,-116.42C311.04,-106.22 302.95,-95.16 293.5,-87 280.43,-75.72 264.47,-66.36 248.84,-58.86"/>
<polygon fill="none" stroke="#404040" points="248.48,-58.7 241.36,-59.85 237.55,-53.72 244.67,-52.57 248.48,-58.7"/>
<text text-anchor="middle" x="337.5" y="-90" font-family="Helvetica,sans-Serif" font-size="10.00"> +localizeString</text>
</g>
</g>
</svg>
