<?xml version="1.0" encoding="UTF-8" standalone="no"?>
<!DOCTYPE svg PUBLIC "-//W3C//DTD SVG 1.1//EN"
 "http://www.w3.org/Graphics/SVG/1.1/DTD/svg11.dtd">
<!-- Generated by graphviz version 2.48.0 (20210717.1556)
 -->
<!-- Title: Controllers.StateMachine.States.Data.ControllerData Pages: 1 -->
<svg width="445pt" height="237pt"
 viewBox="0.00 0.00 444.50 237.00" xmlns="http://www.w3.org/2000/svg" xmlns:xlink="http://www.w3.org/1999/xlink">
<g id="graph0" class="graph" transform="scale(1 1) rotate(0) translate(4 233)">
<title>Controllers.StateMachine.States.Data.ControllerData</title>
<!-- Node1 -->
<g id="node1" class="node">
<title>Node1</title>
<g id="a_node1"><a xlink:title=" ">
<polygon fill="#bfbfbf" stroke="black" points="129,-0.5 129,-68.5 262,-68.5 262,-0.5 129,-0.5"/>
<text text-anchor="start" x="137" y="-56.5" font-family="Helvetica,sans-Serif" font-size="10.00">Controllers.StateMachine.</text>
<text text-anchor="middle" x="195.5" y="-45.5" font-family="Helvetica,sans-Serif" font-size="10.00">States.Data.ControllerData</text>
<polyline fill="none" stroke="black" points="129,-38.5 262,-38.5 "/>
<text text-anchor="middle" x="195.5" y="-26.5" font-family="Helvetica,sans-Serif" font-size="10.00"> </text>
<polyline fill="none" stroke="black" points="129,-19.5 262,-19.5 "/>
<text text-anchor="middle" x="195.5" y="-7.5" font-family="Helvetica,sans-Serif" font-size="10.00"> </text>
</a>
</g>
</g>
<!-- Node2 -->
<g id="node2" class="node">
<title>Node2</title>
<g id="a_node2"><a xlink:href="class_scriptable_object.html" target="_top" xlink:title=" ">
<polygon fill="none" stroke="black" points="0,-171.5 0,-228.5 89,-228.5 89,-171.5 0,-171.5"/>
<text text-anchor="middle" x="44.5" y="-216.5" font-family="Helvetica,sans-Serif" font-size="10.00">ScriptableObject</text>
<polyline fill="none" stroke="black" points="0,-209.5 89,-209.5 "/>
<text text-anchor="middle" x="44.5" y="-197.5" font-family="Helvetica,sans-Serif" font-size="10.00"> </text>
<polyline fill="none" stroke="black" points="0,-190.5 89,-190.5 "/>
<text text-anchor="middle" x="44.5" y="-178.5" font-family="Helvetica,sans-Serif" font-size="10.00"> </text>
</a>
</g>
</g>
<!-- Node2&#45;&gt;Node1 -->
<g id="edge1" class="edge">
<title>Node2&#45;&gt;Node1</title>
<path fill="none" stroke="midnightblue" d="M60.97,-161.89C72.67,-138.47 90.07,-108.66 111.5,-87 118.12,-80.31 125.77,-74.12 133.7,-68.52"/>
<polygon fill="none" stroke="midnightblue" points="57.69,-160.64 56.47,-171.17 63.99,-163.7 57.69,-160.64"/>
</g>
<!-- Node3 -->
<g id="node3" class="node">
<title>Node3</title>
<g id="a_node3"><a xlink:title=" ">
<polygon fill="none" stroke="#bfbfbf" points="107,-171.5 107,-228.5 142,-228.5 142,-171.5 107,-171.5"/>
<text text-anchor="middle" x="124.5" y="-216.5" font-family="Helvetica,sans-Serif" font-size="10.00">float</text>
<polyline fill="none" stroke="#bfbfbf" points="107,-209.5 142,-209.5 "/>
<text text-anchor="middle" x="124.5" y="-197.5" font-family="Helvetica,sans-Serif" font-size="10.00"> </text>
<polyline fill="none" stroke="#bfbfbf" points="107,-190.5 142,-190.5 "/>
<text text-anchor="middle" x="124.5" y="-178.5" font-family="Helvetica,sans-Serif" font-size="10.00"> </text>
</a>
</g>
</g>
<!-- Node3&#45;&gt;Node1 -->
<g id="edge2" class="edge">
<title>Node3&#45;&gt;Node1</title>
<path fill="none" stroke="#404040" d="M118.12,-171.12C114.19,-147.41 112.13,-113.14 125.5,-87 127.2,-83.68 129.22,-80.52 131.49,-77.53"/>
<polygon fill="none" stroke="#404040" points="131.52,-77.49 132.5,-70.35 139.47,-68.5 138.49,-75.65 131.52,-77.49"/>
<text text-anchor="middle" x="185.5" y="-145" font-family="Helvetica,sans-Serif" font-size="10.00"> +groundCheckDistance</text>
<text text-anchor="middle" x="185.5" y="-134" font-family="Helvetica,sans-Serif" font-size="10.00">+ledgeCheckDistacne</text>
<text text-anchor="middle" x="185.5" y="-123" font-family="Helvetica,sans-Serif" font-size="10.00">+playerLongRangeDistance</text>
<text text-anchor="middle" x="185.5" y="-112" font-family="Helvetica,sans-Serif" font-size="10.00">+playerNearRangeDistance</text>
<text text-anchor="middle" x="185.5" y="-101" font-family="Helvetica,sans-Serif" font-size="10.00">+topCheckDistance</text>
<text text-anchor="middle" x="185.5" y="-90" font-family="Helvetica,sans-Serif" font-size="10.00">+wallCheckDistance</text>
</g>
<!-- Node4 -->
<g id="node4" class="node">
<title>Node4</title>
<g id="a_node4"><a xlink:title=" ">
<polygon fill="none" stroke="#bfbfbf" points="235,-171.5 235,-228.5 300,-228.5 300,-171.5 235,-171.5"/>
<text text-anchor="middle" x="267.5" y="-216.5" font-family="Helvetica,sans-Serif" font-size="10.00">LayerMask</text>
<polyline fill="none" stroke="#bfbfbf" points="235,-209.5 300,-209.5 "/>
<text text-anchor="middle" x="267.5" y="-197.5" font-family="Helvetica,sans-Serif" font-size="10.00"> </text>
<polyline fill="none" stroke="#bfbfbf" points="235,-190.5 300,-190.5 "/>
<text text-anchor="middle" x="267.5" y="-178.5" font-family="Helvetica,sans-Serif" font-size="10.00"> </text>
</a>
</g>
</g>
<!-- Node4&#45;&gt;Node1 -->
<g id="edge3" class="edge">
<title>Node4&#45;&gt;Node1</title>
<path fill="none" stroke="#404040" d="M266.44,-171.31C264.54,-147.71 259.38,-113.51 245.5,-87 243.98,-84.1 242.25,-81.25 240.36,-78.47"/>
<polygon fill="none" stroke="#404040" points="240.23,-78.31 233.41,-75.97 232.95,-68.78 239.77,-71.11 240.23,-78.31"/>
<text text-anchor="middle" x="298" y="-117.5" font-family="Helvetica,sans-Serif" font-size="10.00"> +whatIsGround</text>
</g>
<!-- Node5 -->
<g id="node5" class="node">
<title>Node5</title>
<g id="a_node5"><a xlink:title=" ">
<polygon fill="none" stroke="#bfbfbf" points="345,-171.5 345,-228.5 374,-228.5 374,-171.5 345,-171.5"/>
<text text-anchor="middle" x="359.5" y="-216.5" font-family="Helvetica,sans-Serif" font-size="10.00">int</text>
<polyline fill="none" stroke="#bfbfbf" points="345,-209.5 374,-209.5 "/>
<text text-anchor="middle" x="359.5" y="-197.5" font-family="Helvetica,sans-Serif" font-size="10.00"> </text>
<polyline fill="none" stroke="#bfbfbf" points="345,-190.5 374,-190.5 "/>
<text text-anchor="middle" x="359.5" y="-178.5" font-family="Helvetica,sans-Serif" font-size="10.00"> </text>
</a>
</g>
</g>
<!-- Node5&#45;&gt;Node1 -->
<g id="edge4" class="edge">
<title>Node5&#45;&gt;Node1</title>
<path fill="none" stroke="#404040" d="M360.97,-171.34C360.79,-146.44 356.59,-110.3 336.5,-87 320.41,-68.34 296.98,-56.44 273.82,-48.85"/>
<polygon fill="none" stroke="#404040" points="273.64,-48.8 266.75,-50.91 262.14,-45.36 269.04,-43.25 273.64,-48.8"/>
<text text-anchor="middle" x="398" y="-123" font-family="Helvetica,sans-Serif" font-size="10.00"> +generalDamage</text>
<text text-anchor="middle" x="398" y="-112" font-family="Helvetica,sans-Serif" font-size="10.00">+maxHealth</text>
</g>
</g>
</svg>
