<?xml version="1.0" encoding="UTF-8" standalone="no"?>
<!DOCTYPE svg PUBLIC "-//W3C//DTD SVG 1.1//EN"
 "http://www.w3.org/Graphics/SVG/1.1/DTD/svg11.dtd">
<!-- Generated by graphviz version 2.48.0 (20210717.1556)
 -->
<!-- Title: Controllers.NjordController Pages: 1 -->
<svg width="1899pt" height="1372pt"
 viewBox="0.00 0.00 1899.00 1372.00" xmlns="http://www.w3.org/2000/svg" xmlns:xlink="http://www.w3.org/1999/xlink">
<g id="graph0" class="graph" transform="scale(1 1) rotate(0) translate(4 1368)">
<title>Controllers.NjordController</title>
<!-- Node1 -->
<g id="node1" class="node">
<title>Node1</title>
<g id="a_node1"><a xlink:title=" ">
<polygon fill="#bfbfbf" stroke="black" points="952.5,-0.5 952.5,-90.5 1113.5,-90.5 1113.5,-0.5 952.5,-0.5"/>
<text text-anchor="middle" x="1033" y="-78.5" font-family="Helvetica,sans-Serif" font-size="10.00">Controllers.NjordController</text>
<polyline fill="none" stroke="black" points="952.5,-71.5 1113.5,-71.5 "/>
<text text-anchor="middle" x="1033" y="-59.5" font-family="Helvetica,sans-Serif" font-size="10.00"> </text>
<polyline fill="none" stroke="black" points="952.5,-52.5 1113.5,-52.5 "/>
<text text-anchor="start" x="960.5" y="-40.5" font-family="Helvetica,sans-Serif" font-size="10.00">+ override bool Interact</text>
<text text-anchor="start" x="960.5" y="-29.5" font-family="Helvetica,sans-Serif" font-size="10.00">(PlayerController controller,</text>
<text text-anchor="start" x="960.5" y="-18.5" font-family="Helvetica,sans-Serif" font-size="10.00"> EInteractionKind interactionKind)</text>
<text text-anchor="start" x="960.5" y="-7.5" font-family="Helvetica,sans-Serif" font-size="10.00"># override void Start()</text>
</a>
</g>
</g>
<!-- Node2 -->
<g id="node2" class="node">
<title>Node2</title>
<g id="a_node2"><a xlink:href="class_controllers_1_1_base_controller.html" target="_top" xlink:title=" ">
<polygon fill="none" stroke="black" points="946.5,-128.5 946.5,-790.5 1119.5,-790.5 1119.5,-128.5 946.5,-128.5"/>
<text text-anchor="middle" x="1033" y="-778.5" font-family="Helvetica,sans-Serif" font-size="10.00">BaseController</text>
<polyline fill="none" stroke="black" points="946.5,-771.5 1119.5,-771.5 "/>
<text text-anchor="start" x="954.5" y="-759.5" font-family="Helvetica,sans-Serif" font-size="10.00">+ int FacingDirection</text>
<text text-anchor="start" x="954.5" y="-748.5" font-family="Helvetica,sans-Serif" font-size="10.00">+ bool IsReadyToAttack</text>
<text text-anchor="start" x="954.5" y="-737.5" font-family="Helvetica,sans-Serif" font-size="10.00">+ bool wallDetected</text>
<text text-anchor="start" x="954.5" y="-726.5" font-family="Helvetica,sans-Serif" font-size="10.00">+ bool groundDetected</text>
<text text-anchor="start" x="954.5" y="-715.5" font-family="Helvetica,sans-Serif" font-size="10.00">+ bool topDetected</text>
<polyline fill="none" stroke="black" points="946.5,-708.5 1119.5,-708.5 "/>
<text text-anchor="start" x="954.5" y="-696.5" font-family="Helvetica,sans-Serif" font-size="10.00">+ virtual void Damage</text>
<text text-anchor="start" x="954.5" y="-685.5" font-family="Helvetica,sans-Serif" font-size="10.00">(float amount, int attackN)</text>
<text text-anchor="start" x="954.5" y="-674.5" font-family="Helvetica,sans-Serif" font-size="10.00">+ virtual void Damage</text>
<text text-anchor="start" x="954.5" y="-663.5" font-family="Helvetica,sans-Serif" font-size="10.00">(DamageInfo damageInfo)</text>
<text text-anchor="start" x="954.5" y="-652.5" font-family="Helvetica,sans-Serif" font-size="10.00">+ void Damage(BaseController</text>
<text text-anchor="start" x="954.5" y="-641.5" font-family="Helvetica,sans-Serif" font-size="10.00"> controller, DamageInfo</text>
<text text-anchor="start" x="954.5" y="-630.5" font-family="Helvetica,sans-Serif" font-size="10.00"> damageInfo)</text>
<text text-anchor="start" x="954.5" y="-619.5" font-family="Helvetica,sans-Serif" font-size="10.00">+ void Kill()</text>
<text text-anchor="start" x="954.5" y="-608.5" font-family="Helvetica,sans-Serif" font-size="10.00">+ bool Interact(BaseController</text>
<text text-anchor="start" x="954.5" y="-597.5" font-family="Helvetica,sans-Serif" font-size="10.00"> controller, EInteractionKind</text>
<text text-anchor="start" x="954.5" y="-586.5" font-family="Helvetica,sans-Serif" font-size="10.00"> interactionKind)</text>
<text text-anchor="start" x="954.5" y="-575.5" font-family="Helvetica,sans-Serif" font-size="10.00">+ virtual bool Interact</text>
<text text-anchor="start" x="954.5" y="-564.5" font-family="Helvetica,sans-Serif" font-size="10.00">(PlayerController controller,</text>
<text text-anchor="start" x="954.5" y="-553.5" font-family="Helvetica,sans-Serif" font-size="10.00"> EInteractionKind interactionKind)</text>
<text text-anchor="start" x="954.5" y="-542.5" font-family="Helvetica,sans-Serif" font-size="10.00">+ void ReadyToInteract</text>
<text text-anchor="start" x="954.5" y="-531.5" font-family="Helvetica,sans-Serif" font-size="10.00">(PlayerController controller,</text>
<text text-anchor="start" x="954.5" y="-520.5" font-family="Helvetica,sans-Serif" font-size="10.00"> bool isReady)</text>
<text text-anchor="start" x="954.5" y="-509.5" font-family="Helvetica,sans-Serif" font-size="10.00">+ void ReadyToInteract</text>
<text text-anchor="start" x="954.5" y="-498.5" font-family="Helvetica,sans-Serif" font-size="10.00">(BaseController controller,</text>
<text text-anchor="start" x="954.5" y="-487.5" font-family="Helvetica,sans-Serif" font-size="10.00"> bool isReady)</text>
<text text-anchor="start" x="954.5" y="-476.5" font-family="Helvetica,sans-Serif" font-size="10.00">+ void Flip()</text>
<text text-anchor="start" x="954.5" y="-465.5" font-family="Helvetica,sans-Serif" font-size="10.00">+ void SetVelocity(float</text>
<text text-anchor="start" x="954.5" y="-454.5" font-family="Helvetica,sans-Serif" font-size="10.00"> velocity)</text>
<text text-anchor="start" x="954.5" y="-443.5" font-family="Helvetica,sans-Serif" font-size="10.00">+ void AddForce(Vector2</text>
<text text-anchor="start" x="954.5" y="-432.5" font-family="Helvetica,sans-Serif" font-size="10.00"> newForce, bool isImpulse)</text>
<text text-anchor="start" x="954.5" y="-421.5" font-family="Helvetica,sans-Serif" font-size="10.00">+ void AddTorque(float</text>
<text text-anchor="start" x="954.5" y="-410.5" font-family="Helvetica,sans-Serif" font-size="10.00"> newTorque, bool isImpulse)</text>
<text text-anchor="start" x="954.5" y="-399.5" font-family="Helvetica,sans-Serif" font-size="10.00">+ T GetMovementController</text>
<text text-anchor="start" x="954.5" y="-388.5" font-family="Helvetica,sans-Serif" font-size="10.00">&lt; T &gt;()</text>
<text text-anchor="start" x="954.5" y="-377.5" font-family="Helvetica,sans-Serif" font-size="10.00">+ Animator GetAnimator()</text>
<text text-anchor="start" x="954.5" y="-366.5" font-family="Helvetica,sans-Serif" font-size="10.00">+ Transform GetTransfrom()</text>
<text text-anchor="start" x="954.5" y="-355.5" font-family="Helvetica,sans-Serif" font-size="10.00">+ GameObject GetDialogueBubble()</text>
<text text-anchor="start" x="954.5" y="-344.5" font-family="Helvetica,sans-Serif" font-size="10.00">+ bool CheckWall()</text>
<text text-anchor="start" x="954.5" y="-333.5" font-family="Helvetica,sans-Serif" font-size="10.00">+ bool CheckLedge()</text>
<text text-anchor="start" x="954.5" y="-322.5" font-family="Helvetica,sans-Serif" font-size="10.00">+ bool CheckGround()</text>
<text text-anchor="start" x="954.5" y="-311.5" font-family="Helvetica,sans-Serif" font-size="10.00">+ bool CheckTop()</text>
<text text-anchor="start" x="954.5" y="-300.5" font-family="Helvetica,sans-Serif" font-size="10.00">+ bool CheckPlayerInNearRange()</text>
<text text-anchor="start" x="954.5" y="-289.5" font-family="Helvetica,sans-Serif" font-size="10.00">+ bool CheckPlayerInLongRange()</text>
<text text-anchor="start" x="954.5" y="-278.5" font-family="Helvetica,sans-Serif" font-size="10.00">+ void CheckTouchDamage()</text>
<text text-anchor="start" x="954.5" y="-267.5" font-family="Helvetica,sans-Serif" font-size="10.00">+ virtual void Die()</text>
<text text-anchor="start" x="954.5" y="-256.5" font-family="Helvetica,sans-Serif" font-size="10.00">+ void DestroyNow()</text>
<text text-anchor="start" x="954.5" y="-245.5" font-family="Helvetica,sans-Serif" font-size="10.00">+ void DestroyNow(GameObject</text>
<text text-anchor="start" x="954.5" y="-234.5" font-family="Helvetica,sans-Serif" font-size="10.00"> lapida)</text>
<text text-anchor="start" x="954.5" y="-223.5" font-family="Helvetica,sans-Serif" font-size="10.00">+ bool CanCharacterInteract()</text>
<text text-anchor="start" x="954.5" y="-212.5" font-family="Helvetica,sans-Serif" font-size="10.00">+ bool IsDead()</text>
<text text-anchor="start" x="954.5" y="-201.5" font-family="Helvetica,sans-Serif" font-size="10.00"># virtual void Start()</text>
<text text-anchor="start" x="954.5" y="-190.5" font-family="Helvetica,sans-Serif" font-size="10.00"># virtual void Update()</text>
<text text-anchor="start" x="954.5" y="-179.5" font-family="Helvetica,sans-Serif" font-size="10.00"># virtual void OnDrawGizmos()</text>
<text text-anchor="start" x="954.5" y="-168.5" font-family="Helvetica,sans-Serif" font-size="10.00"># void MoveOnDamaged</text>
<text text-anchor="start" x="954.5" y="-157.5" font-family="Helvetica,sans-Serif" font-size="10.00">(int direction, Vector2</text>
<text text-anchor="start" x="954.5" y="-146.5" font-family="Helvetica,sans-Serif" font-size="10.00"> moveOnDamagedForce)</text>
<text text-anchor="start" x="954.5" y="-135.5" font-family="Helvetica,sans-Serif" font-size="10.00"># IEnumerator DamageEffect()</text>
</a>
</g>
</g>
<!-- Node2&#45;&gt;Node1 -->
<g id="edge1" class="edge">
<title>Node2&#45;&gt;Node1</title>
<path fill="none" stroke="midnightblue" d="M1033,-118.18C1033,-108.22 1033,-98.99 1033,-90.71"/>
<polygon fill="none" stroke="midnightblue" points="1029.5,-118.39 1033,-128.39 1036.5,-118.39 1029.5,-118.39"/>
</g>
<!-- Node3 -->
<g id="node3" class="node">
<title>Node3</title>
<g id="a_node3"><a xlink:href="interface_controllers_1_1_i_damageable.html" target="_top" xlink:title="Interfaz para todos los NPCs/Enemigos/Objetos que pueden ser daniados.">
<polygon fill="none" stroke="black" points="0,-1262.5 0,-1363.5 148,-1363.5 148,-1262.5 0,-1262.5"/>
<text text-anchor="middle" x="74" y="-1351.5" font-family="Helvetica,sans-Serif" font-size="10.00">IDamageable</text>
<polyline fill="none" stroke="black" points="0,-1344.5 148,-1344.5 "/>
<text text-anchor="middle" x="74" y="-1332.5" font-family="Helvetica,sans-Serif" font-size="10.00"> </text>
<polyline fill="none" stroke="black" points="0,-1325.5 148,-1325.5 "/>
<text text-anchor="start" x="8" y="-1313.5" font-family="Helvetica,sans-Serif" font-size="10.00">+ void Damage(BaseController</text>
<text text-anchor="start" x="8" y="-1302.5" font-family="Helvetica,sans-Serif" font-size="10.00"> controller, DamageInfo</text>
<text text-anchor="start" x="8" y="-1291.5" font-family="Helvetica,sans-Serif" font-size="10.00"> damageInfo)</text>
<text text-anchor="start" x="8" y="-1280.5" font-family="Helvetica,sans-Serif" font-size="10.00">+ void Damage(DamageInfo</text>
<text text-anchor="start" x="8" y="-1269.5" font-family="Helvetica,sans-Serif" font-size="10.00"> damageInfo)</text>
</a>
</g>
</g>
<!-- Node3&#45;&gt;Node2 -->
<g id="edge2" class="edge">
<title>Node3&#45;&gt;Node2</title>
<path fill="none" stroke="midnightblue" d="M60.06,-1252.38C41.76,-1159.86 19.49,-978.85 89,-849 257.63,-533.96 746.21,-474.18 946.15,-463"/>
<polygon fill="none" stroke="midnightblue" points="56.68,-1253.31 62.1,-1262.41 63.54,-1251.91 56.68,-1253.31"/>
</g>
<!-- Node20 -->
<g id="node20" class="node">
<title>Node20</title>
<g id="a_node20"><a xlink:href="class_player_1_1_player_controller.html" target="_top" xlink:title=" ">
<polygon fill="none" stroke="black" points="235,-849.5 235,-1148.5 385,-1148.5 385,-849.5 235,-849.5"/>
<text text-anchor="middle" x="310" y="-1136.5" font-family="Helvetica,sans-Serif" font-size="10.00">Player.PlayerController</text>
<polyline fill="none" stroke="black" points="235,-1129.5 385,-1129.5 "/>
<text text-anchor="middle" x="310" y="-1117.5" font-family="Helvetica,sans-Serif" font-size="10.00"> </text>
<polyline fill="none" stroke="black" points="235,-1110.5 385,-1110.5 "/>
<text text-anchor="start" x="243" y="-1098.5" font-family="Helvetica,sans-Serif" font-size="10.00">+ void Damage(BaseController</text>
<text text-anchor="start" x="243" y="-1087.5" font-family="Helvetica,sans-Serif" font-size="10.00"> controller, DamageInfo</text>
<text text-anchor="start" x="243" y="-1076.5" font-family="Helvetica,sans-Serif" font-size="10.00"> damageInfo)</text>
<text text-anchor="start" x="243" y="-1065.5" font-family="Helvetica,sans-Serif" font-size="10.00">+ void Damage(DamageInfo</text>
<text text-anchor="start" x="243" y="-1054.5" font-family="Helvetica,sans-Serif" font-size="10.00"> damageInfo)</text>
<text text-anchor="start" x="243" y="-1043.5" font-family="Helvetica,sans-Serif" font-size="10.00">+ void ExitInteractionMode()</text>
<text text-anchor="start" x="243" y="-1032.5" font-family="Helvetica,sans-Serif" font-size="10.00">+ void EnterInteractionMode()</text>
<text text-anchor="start" x="243" y="-1021.5" font-family="Helvetica,sans-Serif" font-size="10.00">+ int GetFacingDirection()</text>
<text text-anchor="start" x="243" y="-1010.5" font-family="Helvetica,sans-Serif" font-size="10.00">+ void LandEvt()</text>
<text text-anchor="start" x="243" y="-999.5" font-family="Helvetica,sans-Serif" font-size="10.00">+ void OnAirEvt()</text>
<text text-anchor="start" x="243" y="-988.5" font-family="Helvetica,sans-Serif" font-size="10.00">+ bool IsFacingRight()</text>
<text text-anchor="start" x="243" y="-977.5" font-family="Helvetica,sans-Serif" font-size="10.00">+ void AddEffect(EEffectKind</text>
<text text-anchor="start" x="243" y="-966.5" font-family="Helvetica,sans-Serif" font-size="10.00"> kind, float lifetime)</text>
<text text-anchor="start" x="243" y="-955.5" font-family="Helvetica,sans-Serif" font-size="10.00">+ void AddPowerUp(EPowerUp</text>
<text text-anchor="start" x="243" y="-944.5" font-family="Helvetica,sans-Serif" font-size="10.00">Kind kind)</text>
<text text-anchor="start" x="243" y="-933.5" font-family="Helvetica,sans-Serif" font-size="10.00">+ void AnimStartPrayingEvt()</text>
<text text-anchor="start" x="243" y="-922.5" font-family="Helvetica,sans-Serif" font-size="10.00">+ void AnimRollEndEvt()</text>
<text text-anchor="start" x="243" y="-911.5" font-family="Helvetica,sans-Serif" font-size="10.00">+ void AnimFootStep1Evt()</text>
<text text-anchor="start" x="243" y="-900.5" font-family="Helvetica,sans-Serif" font-size="10.00">+ void AnimFootStep2Evt()</text>
<text text-anchor="start" x="243" y="-889.5" font-family="Helvetica,sans-Serif" font-size="10.00">+ void KrownsAdded()</text>
<text text-anchor="start" x="243" y="-878.5" font-family="Helvetica,sans-Serif" font-size="10.00">+ void KrownsRemoved()</text>
<text text-anchor="start" x="243" y="-867.5" font-family="Helvetica,sans-Serif" font-size="10.00">~ void OnEnable()</text>
<text text-anchor="start" x="243" y="-856.5" font-family="Helvetica,sans-Serif" font-size="10.00">~ void OnDisable()</text>
</a>
</g>
</g>
<!-- Node3&#45;&gt;Node20 -->
<g id="edge22" class="edge">
<title>Node3&#45;&gt;Node20</title>
<path fill="none" stroke="midnightblue" d="M101.37,-1253.28C117.67,-1223.84 140.88,-1189.72 170,-1167 188.95,-1152.21 202.4,-1164.22 221,-1149 225.78,-1145.09 230.37,-1140.85 234.76,-1136.36"/>
<polygon fill="none" stroke="midnightblue" points="98.2,-1251.78 96.53,-1262.25 104.36,-1255.11 98.2,-1251.78"/>
</g>
<!-- Node4 -->
<g id="node4" class="node">
<title>Node4</title>
<g id="a_node4"><a xlink:href="interface_interactions_1_1_interfaces_1_1_i_interactive.html" target="_top" xlink:title=" ">
<polygon fill="none" stroke="black" points="804.5,-910 804.5,-1088 955.5,-1088 955.5,-910 804.5,-910"/>
<text text-anchor="middle" x="880" y="-1076" font-family="Helvetica,sans-Serif" font-size="10.00">IInteractive</text>
<polyline fill="none" stroke="black" points="804.5,-1069 955.5,-1069 "/>
<text text-anchor="middle" x="880" y="-1057" font-family="Helvetica,sans-Serif" font-size="10.00"> </text>
<polyline fill="none" stroke="black" points="804.5,-1050 955.5,-1050 "/>
<text text-anchor="start" x="812.5" y="-1038" font-family="Helvetica,sans-Serif" font-size="10.00">+ bool Interact(BaseController</text>
<text text-anchor="start" x="812.5" y="-1027" font-family="Helvetica,sans-Serif" font-size="10.00"> controller, EInteractionKind</text>
<text text-anchor="start" x="812.5" y="-1016" font-family="Helvetica,sans-Serif" font-size="10.00"> interactionKind)</text>
<text text-anchor="start" x="812.5" y="-1005" font-family="Helvetica,sans-Serif" font-size="10.00">+ bool Interact(PlayerController</text>
<text text-anchor="start" x="812.5" y="-994" font-family="Helvetica,sans-Serif" font-size="10.00"> controller, EInteractionKind</text>
<text text-anchor="start" x="812.5" y="-983" font-family="Helvetica,sans-Serif" font-size="10.00"> interactionKind)</text>
<text text-anchor="start" x="812.5" y="-972" font-family="Helvetica,sans-Serif" font-size="10.00">+ void ReadyToInteract</text>
<text text-anchor="start" x="812.5" y="-961" font-family="Helvetica,sans-Serif" font-size="10.00">(PlayerController controller,</text>
<text text-anchor="start" x="812.5" y="-950" font-family="Helvetica,sans-Serif" font-size="10.00"> bool isReady)</text>
<text text-anchor="start" x="812.5" y="-939" font-family="Helvetica,sans-Serif" font-size="10.00">+ void ReadyToInteract</text>
<text text-anchor="start" x="812.5" y="-928" font-family="Helvetica,sans-Serif" font-size="10.00">(BaseController controller,</text>
<text text-anchor="start" x="812.5" y="-917" font-family="Helvetica,sans-Serif" font-size="10.00"> bool isReady)</text>
</a>
</g>
</g>
<!-- Node4&#45;&gt;Node2 -->
<g id="edge3" class="edge">
<title>Node4&#45;&gt;Node2</title>
<path fill="none" stroke="midnightblue" d="M907.87,-900.08C919.01,-860.95 932.5,-813.57 946.44,-764.59"/>
<polygon fill="none" stroke="midnightblue" points="904.47,-899.27 905.09,-909.84 911.2,-901.18 904.47,-899.27"/>
</g>
<!-- Node5 -->
<g id="node5" class="node">
<title>Node5</title>
<g id="a_node5"><a xlink:title=" ">
<polygon fill="none" stroke="#bfbfbf" points="973.5,-970.5 973.5,-1027.5 1044.5,-1027.5 1044.5,-970.5 973.5,-970.5"/>
<text text-anchor="middle" x="1009" y="-1015.5" font-family="Helvetica,sans-Serif" font-size="10.00">Rigidbody2D</text>
<polyline fill="none" stroke="#bfbfbf" points="973.5,-1008.5 1044.5,-1008.5 "/>
<text text-anchor="middle" x="1009" y="-996.5" font-family="Helvetica,sans-Serif" font-size="10.00"> </text>
<polyline fill="none" stroke="#bfbfbf" points="973.5,-989.5 1044.5,-989.5 "/>
<text text-anchor="middle" x="1009" y="-977.5" font-family="Helvetica,sans-Serif" font-size="10.00"> </text>
</a>
</g>
</g>
<!-- Node5&#45;&gt;Node2 -->
<g id="edge4" class="edge">
<title>Node5&#45;&gt;Node2</title>
<path fill="none" stroke="#404040" d="M1008.13,-970.23C1007.14,-937.09 1005.59,-880.01 1005,-831 1004.89,-821.7 1004.88,-812.28 1004.96,-802.77"/>
<polygon fill="none" stroke="#404040" points="1004.96,-802.68 1001.03,-796.63 1005.11,-790.68 1009.03,-796.73 1004.96,-802.68"/>
<text text-anchor="middle" x="1022.5" y="-817.5" font-family="Helvetica,sans-Serif" font-size="10.00"> ~rBody</text>
</g>
<!-- Node6 -->
<g id="node6" class="node">
<title>Node6</title>
<g id="a_node6"><a xlink:title=" ">
<polygon fill="none" stroke="#bfbfbf" points="1063,-970.5 1063,-1027.5 1119,-1027.5 1119,-970.5 1063,-970.5"/>
<text text-anchor="middle" x="1091" y="-1015.5" font-family="Helvetica,sans-Serif" font-size="10.00">Animator</text>
<polyline fill="none" stroke="#bfbfbf" points="1063,-1008.5 1119,-1008.5 "/>
<text text-anchor="middle" x="1091" y="-996.5" font-family="Helvetica,sans-Serif" font-size="10.00"> </text>
<polyline fill="none" stroke="#bfbfbf" points="1063,-989.5 1119,-989.5 "/>
<text text-anchor="middle" x="1091" y="-977.5" font-family="Helvetica,sans-Serif" font-size="10.00"> </text>
</a>
</g>
</g>
<!-- Node6&#45;&gt;Node2 -->
<g id="edge5" class="edge">
<title>Node6&#45;&gt;Node2</title>
<path fill="none" stroke="#404040" d="M1085.62,-970.33C1079.36,-937.29 1069.12,-880.3 1063,-831 1061.85,-821.77 1060.74,-812.4 1059.67,-802.95"/>
<polygon fill="none" stroke="#404040" points="1059.65,-802.85 1055.01,-797.33 1058.32,-790.92 1062.96,-796.44 1059.65,-802.85"/>
<text text-anchor="middle" x="1107" y="-817.5" font-family="Helvetica,sans-Serif" font-size="10.00"> #characterAnimator</text>
</g>
<!-- Node7 -->
<g id="node7" class="node">
<title>Node7</title>
<g id="a_node7"><a xlink:title=" ">
<polygon fill="none" stroke="#bfbfbf" points="1137.5,-970.5 1137.5,-1027.5 1208.5,-1027.5 1208.5,-970.5 1137.5,-970.5"/>
<text text-anchor="middle" x="1173" y="-1015.5" font-family="Helvetica,sans-Serif" font-size="10.00">GameObject</text>
<polyline fill="none" stroke="#bfbfbf" points="1137.5,-1008.5 1208.5,-1008.5 "/>
<text text-anchor="middle" x="1173" y="-996.5" font-family="Helvetica,sans-Serif" font-size="10.00"> </text>
<polyline fill="none" stroke="#bfbfbf" points="1137.5,-989.5 1208.5,-989.5 "/>
<text text-anchor="middle" x="1173" y="-977.5" font-family="Helvetica,sans-Serif" font-size="10.00"> </text>
</a>
</g>
</g>
<!-- Node7&#45;&gt;Node2 -->
<g id="edge6" class="edge">
<title>Node7&#45;&gt;Node2</title>
<path fill="none" stroke="#404040" d="M1171.61,-970.47C1169.34,-933.4 1163.72,-865.56 1151,-809 1143.38,-775.12 1133.68,-739.92 1123.12,-705.49"/>
<polygon fill="none" stroke="#404040" points="1123.07,-705.3 1117.47,-700.76 1119.51,-693.84 1125.11,-698.39 1123.07,-705.3"/>
<text text-anchor="middle" x="1192.5" y="-823" font-family="Helvetica,sans-Serif" font-size="10.00"> #dialogueBubble</text>
<text text-anchor="middle" x="1192.5" y="-812" font-family="Helvetica,sans-Serif" font-size="10.00">#hitParticles</text>
</g>
<!-- Node8 -->
<g id="node8" class="node">
<title>Node8</title>
<g id="a_node8"><a xlink:href="class_controllers_1_1_state_machine_1_1_states_1_1_data_1_1_controller_data.html" target="_top" xlink:title=" ">
<polygon fill="none" stroke="black" points="547.5,-965 547.5,-1033 680.5,-1033 680.5,-965 547.5,-965"/>
<text text-anchor="start" x="555.5" y="-1021" font-family="Helvetica,sans-Serif" font-size="10.00">Controllers.StateMachine.</text>
<text text-anchor="middle" x="614" y="-1010" font-family="Helvetica,sans-Serif" font-size="10.00">States.Data.ControllerData</text>
<polyline fill="none" stroke="black" points="547.5,-1003 680.5,-1003 "/>
<text text-anchor="middle" x="614" y="-991" font-family="Helvetica,sans-Serif" font-size="10.00"> </text>
<polyline fill="none" stroke="black" points="547.5,-984 680.5,-984 "/>
<text text-anchor="middle" x="614" y="-972" font-family="Helvetica,sans-Serif" font-size="10.00"> </text>
</a>
</g>
</g>
<!-- Node8&#45;&gt;Node2 -->
<g id="edge7" class="edge">
<title>Node8&#45;&gt;Node2</title>
<path fill="none" stroke="#404040" d="M616.31,-964.77C620.31,-925.25 631.11,-858.42 660,-809 729.23,-690.58 851.11,-587.96 936.65,-525.32"/>
<polygon fill="none" stroke="#404040" points="936.67,-525.31 939.17,-518.55 946.38,-518.26 943.87,-525.02 936.67,-525.31"/>
<text text-anchor="middle" x="681.5" y="-817.5" font-family="Helvetica,sans-Serif" font-size="10.00"> +ctrlData</text>
</g>
<!-- Node9 -->
<g id="node9" class="node">
<title>Node9</title>
<g id="a_node9"><a xlink:href="class_scriptable_object.html" target="_top" xlink:title=" ">
<polygon fill="none" stroke="black" points="512.5,-1284.5 512.5,-1341.5 601.5,-1341.5 601.5,-1284.5 512.5,-1284.5"/>
<text text-anchor="middle" x="557" y="-1329.5" font-family="Helvetica,sans-Serif" font-size="10.00">ScriptableObject</text>
<polyline fill="none" stroke="black" points="512.5,-1322.5 601.5,-1322.5 "/>
<text text-anchor="middle" x="557" y="-1310.5" font-family="Helvetica,sans-Serif" font-size="10.00"> </text>
<polyline fill="none" stroke="black" points="512.5,-1303.5 601.5,-1303.5 "/>
<text text-anchor="middle" x="557" y="-1291.5" font-family="Helvetica,sans-Serif" font-size="10.00"> </text>
</a>
</g>
</g>
<!-- Node9&#45;&gt;Node8 -->
<g id="edge8" class="edge">
<title>Node9&#45;&gt;Node8</title>
<path fill="none" stroke="midnightblue" d="M566.99,-1274.4C569.44,-1264.55 571.95,-1253.91 574,-1244 589.46,-1169.17 602.76,-1080.44 609.43,-1033.31"/>
<polygon fill="none" stroke="midnightblue" points="563.54,-1273.77 564.47,-1284.33 570.32,-1275.5 563.54,-1273.77"/>
</g>
<!-- Node10 -->
<g id="node10" class="node">
<title>Node10</title>
<g id="a_node10"><a xlink:title=" ">
<polygon fill="none" stroke="#bfbfbf" points="166.5,-1284.5 166.5,-1341.5 201.5,-1341.5 201.5,-1284.5 166.5,-1284.5"/>
<text text-anchor="middle" x="184" y="-1329.5" font-family="Helvetica,sans-Serif" font-size="10.00">float</text>
<polyline fill="none" stroke="#bfbfbf" points="166.5,-1322.5 201.5,-1322.5 "/>
<text text-anchor="middle" x="184" y="-1310.5" font-family="Helvetica,sans-Serif" font-size="10.00"> </text>
<polyline fill="none" stroke="#bfbfbf" points="166.5,-1303.5 201.5,-1303.5 "/>
<text text-anchor="middle" x="184" y="-1291.5" font-family="Helvetica,sans-Serif" font-size="10.00"> </text>
</a>
</g>
</g>
<!-- Node10&#45;&gt;Node2 -->
<g id="edge15" class="edge">
<title>Node10&#45;&gt;Node2</title>
<path fill="none" stroke="#404040" d="M169.59,-1284.37C131.88,-1207.89 39.43,-989.73 132,-849 314.27,-571.91 740.46,-491.58 934.11,-469"/>
<polygon fill="none" stroke="#404040" points="934.32,-468.97 939.83,-464.32 946.24,-467.62 940.73,-472.27 934.32,-468.97"/>
<text text-anchor="middle" x="179" y="-1002" font-family="Helvetica,sans-Serif" font-size="10.00"> #moveOnAttackStart</text>
<text text-anchor="middle" x="179" y="-991" font-family="Helvetica,sans-Serif" font-size="10.00">+deadMaxWait</text>
</g>
<!-- Node10&#45;&gt;Node8 -->
<g id="edge9" class="edge">
<title>Node10&#45;&gt;Node8</title>
<path fill="none" stroke="#404040" d="M201.77,-1305.72C230.15,-1295.79 287.57,-1276.15 337,-1262 369.13,-1252.8 383.74,-1264.66 410,-1244 440.31,-1220.15 419.62,-1190.75 450,-1167 477,-1145.88 497.38,-1169.31 525,-1149 560.4,-1122.98 584.34,-1078.26 598.4,-1044.59"/>
<polygon fill="none" stroke="#404040" points="598.51,-1044.33 597.02,-1037.27 602.96,-1033.19 604.45,-1040.24 598.51,-1044.33"/>
<text text-anchor="middle" x="510" y="-1230.5" font-family="Helvetica,sans-Serif" font-size="10.00"> +groundCheckDistance</text>
<text text-anchor="middle" x="510" y="-1219.5" font-family="Helvetica,sans-Serif" font-size="10.00">+ledgeCheckDistacne</text>
<text text-anchor="middle" x="510" y="-1208.5" font-family="Helvetica,sans-Serif" font-size="10.00">+playerLongRangeDistance</text>
<text text-anchor="middle" x="510" y="-1197.5" font-family="Helvetica,sans-Serif" font-size="10.00">+playerNearRangeDistance</text>
<text text-anchor="middle" x="510" y="-1186.5" font-family="Helvetica,sans-Serif" font-size="10.00">+topCheckDistance</text>
<text text-anchor="middle" x="510" y="-1175.5" font-family="Helvetica,sans-Serif" font-size="10.00">+wallCheckDistance</text>
</g>
<!-- Node10&#45;&gt;Node20 -->
<g id="edge23" class="edge">
<title>Node10&#45;&gt;Node20</title>
<path fill="none" stroke="#404040" d="M177.74,-1284.39C172.3,-1253.45 168.32,-1202.92 190,-1167 198.23,-1153.36 209.66,-1160.2 221,-1149 222.96,-1147.06 224.89,-1145.08 226.8,-1143.04"/>
<polygon fill="none" stroke="#404040" points="227,-1142.82 228,-1135.68 234.98,-1133.86 233.98,-1141 227,-1142.82"/>
<text text-anchor="middle" x="240.5" y="-1208.5" font-family="Helvetica,sans-Serif" font-size="10.00"> #interactionRadius</text>
<text text-anchor="middle" x="240.5" y="-1197.5" font-family="Helvetica,sans-Serif" font-size="10.00">+specialMoveWaitTime</text>
</g>
<!-- Node11 -->
<g id="node11" class="node">
<title>Node11</title>
<g id="a_node11"><a xlink:title=" ">
<polygon fill="none" stroke="#bfbfbf" points="619.5,-1284.5 619.5,-1341.5 684.5,-1341.5 684.5,-1284.5 619.5,-1284.5"/>
<text text-anchor="middle" x="652" y="-1329.5" font-family="Helvetica,sans-Serif" font-size="10.00">LayerMask</text>
<polyline fill="none" stroke="#bfbfbf" points="619.5,-1322.5 684.5,-1322.5 "/>
<text text-anchor="middle" x="652" y="-1310.5" font-family="Helvetica,sans-Serif" font-size="10.00"> </text>
<polyline fill="none" stroke="#bfbfbf" points="619.5,-1303.5 684.5,-1303.5 "/>
<text text-anchor="middle" x="652" y="-1291.5" font-family="Helvetica,sans-Serif" font-size="10.00"> </text>
</a>
</g>
</g>
<!-- Node11&#45;&gt;Node8 -->
<g id="edge10" class="edge">
<title>Node11&#45;&gt;Node8</title>
<path fill="none" stroke="#404040" d="M636.94,-1284.38C631.14,-1272.34 625.15,-1257.84 622,-1244 606.53,-1176.14 607.62,-1094.95 610.38,-1045.44"/>
<polygon fill="none" stroke="#404040" points="610.39,-1045.24 606.77,-1039.01 611.13,-1033.27 614.76,-1039.5 610.39,-1045.24"/>
<text text-anchor="middle" x="656.5" y="-1203" font-family="Helvetica,sans-Serif" font-size="10.00"> +whatIsGround</text>
</g>
<!-- Node12 -->
<g id="node12" class="node">
<title>Node12</title>
<g id="a_node12"><a xlink:title=" ">
<polygon fill="none" stroke="#bfbfbf" points="788.5,-1284.5 788.5,-1341.5 817.5,-1341.5 817.5,-1284.5 788.5,-1284.5"/>
<text text-anchor="middle" x="803" y="-1329.5" font-family="Helvetica,sans-Serif" font-size="10.00">int</text>
<polyline fill="none" stroke="#bfbfbf" points="788.5,-1322.5 817.5,-1322.5 "/>
<text text-anchor="middle" x="803" y="-1310.5" font-family="Helvetica,sans-Serif" font-size="10.00"> </text>
<polyline fill="none" stroke="#bfbfbf" points="788.5,-1303.5 817.5,-1303.5 "/>
<text text-anchor="middle" x="803" y="-1291.5" font-family="Helvetica,sans-Serif" font-size="10.00"> </text>
</a>
</g>
</g>
<!-- Node12&#45;&gt;Node2 -->
<g id="edge18" class="edge">
<title>Node12&#45;&gt;Node2</title>
<path fill="none" stroke="#404040" d="M817.71,-1304.25C836.25,-1293.54 867.24,-1272.29 880,-1244 894.07,-1212.8 902.74,-1192.57 880,-1167 834.5,-1115.83 772.5,-1200.17 727,-1149 682.7,-1099.18 705.17,-911.99 727,-849 768.53,-729.14 864.05,-618.23 937.4,-545.86"/>
<polygon fill="none" stroke="#404040" points="937.65,-545.62 939.15,-538.56 946.23,-537.23 944.74,-544.28 937.65,-545.62"/>
<text text-anchor="middle" x="761.5" y="-1002" font-family="Helvetica,sans-Serif" font-size="10.00"> +KrownReward</text>
<text text-anchor="middle" x="761.5" y="-991" font-family="Helvetica,sans-Serif" font-size="10.00">+currentHealth</text>
</g>
<!-- Node12&#45;&gt;Node8 -->
<g id="edge11" class="edge">
<title>Node12&#45;&gt;Node8</title>
<path fill="none" stroke="#404040" d="M802.45,-1284.41C801.12,-1247.13 796.57,-1183.46 781,-1167 754.17,-1138.63 726.33,-1172.31 695,-1149 660.45,-1123.3 638.94,-1078.33 626.85,-1044.5"/>
<polygon fill="none" stroke="#404040" points="626.82,-1044.41 621.1,-1040.02 622.96,-1033.05 628.67,-1037.44 626.82,-1044.41"/>
<text text-anchor="middle" x="837.5" y="-1208.5" font-family="Helvetica,sans-Serif" font-size="10.00"> +generalDamage</text>
<text text-anchor="middle" x="837.5" y="-1197.5" font-family="Helvetica,sans-Serif" font-size="10.00">+maxHealth</text>
</g>
<!-- Node12&#45;&gt;Node20 -->
<g id="edge24" class="edge">
<title>Node12&#45;&gt;Node20</title>
<path fill="none" stroke="#404040" d="M788.23,-1305.32C767.46,-1295.13 729.94,-1273.74 710,-1244 690.37,-1214.72 718.07,-1189.58 691,-1167 641.08,-1125.36 454.53,-1182.81 399,-1149 397.62,-1148.16 396.27,-1147.3 394.93,-1146.4"/>
<polygon fill="none" stroke="#404040" points="394.64,-1146.19 387.44,-1145.8 385.03,-1139 392.23,-1139.39 394.64,-1146.19"/>
<text text-anchor="middle" x="743.5" y="-1208.5" font-family="Helvetica,sans-Serif" font-size="10.00"> +currentHealth</text>
<text text-anchor="middle" x="743.5" y="-1197.5" font-family="Helvetica,sans-Serif" font-size="10.00">+maxHealth</text>
</g>
<!-- Node13 -->
<g id="node13" class="node">
<title>Node13</title>
<g id="a_node13"><a xlink:title=" ">
<polygon fill="none" stroke="#bfbfbf" points="1226.5,-970.5 1226.5,-1027.5 1315.5,-1027.5 1315.5,-970.5 1226.5,-970.5"/>
<text text-anchor="middle" x="1271" y="-1015.5" font-family="Helvetica,sans-Serif" font-size="10.00">ECharacterState</text>
<polyline fill="none" stroke="#bfbfbf" points="1226.5,-1008.5 1315.5,-1008.5 "/>
<text text-anchor="middle" x="1271" y="-996.5" font-family="Helvetica,sans-Serif" font-size="10.00"> </text>
<polyline fill="none" stroke="#bfbfbf" points="1226.5,-989.5 1315.5,-989.5 "/>
<text text-anchor="middle" x="1271" y="-977.5" font-family="Helvetica,sans-Serif" font-size="10.00"> </text>
</a>
</g>
</g>
<!-- Node13&#45;&gt;Node2 -->
<g id="edge12" class="edge">
<title>Node13&#45;&gt;Node2</title>
<path fill="none" stroke="#404040" d="M1268.46,-970.31C1264.38,-932.78 1254.63,-864.11 1234,-809 1206.51,-735.58 1164.48,-659.54 1125.95,-597.29"/>
<polygon fill="none" stroke="#404040" points="1125.9,-597.21 1119.33,-594.24 1119.55,-587.03 1126.12,-590 1125.9,-597.21"/>
<text text-anchor="middle" x="1271" y="-817.5" font-family="Helvetica,sans-Serif" font-size="10.00"> #currentState</text>
</g>
<!-- Node14 -->
<g id="node14" class="node">
<title>Node14</title>
<g id="a_node14"><a xlink:title=" ">
<polygon fill="none" stroke="#bfbfbf" points="1333.5,-970.5 1333.5,-1027.5 1396.5,-1027.5 1396.5,-970.5 1333.5,-970.5"/>
<text text-anchor="middle" x="1365" y="-1015.5" font-family="Helvetica,sans-Serif" font-size="10.00">UnityEvent</text>
<polyline fill="none" stroke="#bfbfbf" points="1333.5,-1008.5 1396.5,-1008.5 "/>
<text text-anchor="middle" x="1365" y="-996.5" font-family="Helvetica,sans-Serif" font-size="10.00"> </text>
<polyline fill="none" stroke="#bfbfbf" points="1333.5,-989.5 1396.5,-989.5 "/>
<text text-anchor="middle" x="1365" y="-977.5" font-family="Helvetica,sans-Serif" font-size="10.00"> </text>
</a>
</g>
</g>
<!-- Node14&#45;&gt;Node2 -->
<g id="edge13" class="edge">
<title>Node14&#45;&gt;Node2</title>
<path fill="none" stroke="#404040" d="M1359.16,-970.35C1352.4,-940.08 1340.23,-890.35 1325,-849 1283.04,-735.06 1195.99,-626.46 1127.8,-553.2"/>
<polygon fill="none" stroke="#404040" points="1127.79,-553.19 1120.77,-551.56 1119.58,-544.44 1126.6,-546.08 1127.79,-553.19"/>
<text text-anchor="middle" x="1348.5" y="-817.5" font-family="Helvetica,sans-Serif" font-size="10.00"> +OnLandEvent</text>
</g>
<!-- Node15 -->
<g id="node15" class="node">
<title>Node15</title>
<g id="a_node15"><a xlink:href="class_controllers_1_1_movement_1_1_base_movement_controller.html" target="_top" xlink:title=" ">
<polygon fill="none" stroke="black" points="1415,-965 1415,-1033 1551,-1033 1551,-965 1415,-965"/>
<text text-anchor="start" x="1423" y="-1021" font-family="Helvetica,sans-Serif" font-size="10.00">Controllers.Movement.Base</text>
<text text-anchor="middle" x="1483" y="-1010" font-family="Helvetica,sans-Serif" font-size="10.00">MovementController</text>
<polyline fill="none" stroke="black" points="1415,-1003 1551,-1003 "/>
<text text-anchor="middle" x="1483" y="-991" font-family="Helvetica,sans-Serif" font-size="10.00"> </text>
<polyline fill="none" stroke="black" points="1415,-984 1551,-984 "/>
<text text-anchor="middle" x="1483" y="-972" font-family="Helvetica,sans-Serif" font-size="10.00"> </text>
</a>
</g>
</g>
<!-- Node15&#45;&gt;Node2 -->
<g id="edge14" class="edge">
<title>Node15&#45;&gt;Node2</title>
<path fill="none" stroke="#404040" d="M1469.78,-964.76C1453.33,-925.52 1422.87,-859.25 1386,-809 1310.85,-706.58 1205.11,-606.49 1128.98,-540.04"/>
<polygon fill="none" stroke="#404040" points="1128.9,-539.98 1121.75,-539.06 1119.85,-532.11 1127,-533.02 1128.9,-539.98"/>
<text text-anchor="middle" x="1456.5" y="-817.5" font-family="Helvetica,sans-Serif" font-size="10.00"> #baseMovementController</text>
</g>
<!-- Node16 -->
<g id="node16" class="node">
<title>Node16</title>
<g id="a_node16"><a xlink:href="class_controllers_1_1_state_machine_1_1_controller_state_machine.html" target="_top" xlink:title="Controla el estado de un enemigo o NPC, desde que spawnea hasta que muere. Casi todos los metodos son...">
<polygon fill="none" stroke="black" points="1569.5,-948.5 1569.5,-1049.5 1698.5,-1049.5 1698.5,-948.5 1569.5,-948.5"/>
<text text-anchor="start" x="1577.5" y="-1037.5" font-family="Helvetica,sans-Serif" font-size="10.00">Controllers.StateMachine.</text>
<text text-anchor="middle" x="1634" y="-1026.5" font-family="Helvetica,sans-Serif" font-size="10.00">ControllerStateMachine</text>
<polyline fill="none" stroke="black" points="1569.5,-1019.5 1698.5,-1019.5 "/>
<text text-anchor="start" x="1577.5" y="-1007.5" font-family="Helvetica,sans-Serif" font-size="10.00">+ State CurrentState</text>
<polyline fill="none" stroke="black" points="1569.5,-1000.5 1698.5,-1000.5 "/>
<text text-anchor="start" x="1577.5" y="-988.5" font-family="Helvetica,sans-Serif" font-size="10.00">+ void Initialize(State</text>
<text text-anchor="start" x="1577.5" y="-977.5" font-family="Helvetica,sans-Serif" font-size="10.00"> startState)</text>
<text text-anchor="start" x="1577.5" y="-966.5" font-family="Helvetica,sans-Serif" font-size="10.00">+ void ChangeState(State</text>
<text text-anchor="start" x="1577.5" y="-955.5" font-family="Helvetica,sans-Serif" font-size="10.00"> nextState)</text>
</a>
</g>
</g>
<!-- Node16&#45;&gt;Node2 -->
<g id="edge16" class="edge">
<title>Node16&#45;&gt;Node2</title>
<path fill="none" stroke="#404040" d="M1614.51,-948.24C1601.45,-918.05 1582.54,-879.57 1560,-849 1444.7,-692.64 1248.46,-571.89 1130.74,-508.9"/>
<polygon fill="none" stroke="#404040" points="1130.55,-508.8 1123.37,-509.52 1119.95,-503.17 1127.13,-502.45 1130.55,-508.8"/>
<text text-anchor="middle" x="1573" y="-817.5" font-family="Helvetica,sans-Serif" font-size="10.00"> +StateMachine</text>
</g>
<!-- Node17 -->
<g id="node17" class="node">
<title>Node17</title>
<g id="a_node17"><a xlink:title=" ">
<polygon fill="none" stroke="#bfbfbf" points="1717,-970.5 1717,-1027.5 1801,-1027.5 1801,-970.5 1717,-970.5"/>
<text text-anchor="middle" x="1759" y="-1015.5" font-family="Helvetica,sans-Serif" font-size="10.00">EControllerKind</text>
<polyline fill="none" stroke="#bfbfbf" points="1717,-1008.5 1801,-1008.5 "/>
<text text-anchor="middle" x="1759" y="-996.5" font-family="Helvetica,sans-Serif" font-size="10.00"> </text>
<polyline fill="none" stroke="#bfbfbf" points="1717,-989.5 1801,-989.5 "/>
<text text-anchor="middle" x="1759" y="-977.5" font-family="Helvetica,sans-Serif" font-size="10.00"> </text>
</a>
</g>
</g>
<!-- Node17&#45;&gt;Node2 -->
<g id="edge17" class="edge">
<title>Node17&#45;&gt;Node2</title>
<path fill="none" stroke="#404040" d="M1755.51,-970.43C1750.2,-938.17 1737.38,-884.66 1708,-849 1551.88,-659.51 1277.63,-543.37 1131.38,-491.86"/>
<polygon fill="none" stroke="#404040" points="1131.11,-491.77 1124.13,-493.57 1119.78,-487.82 1126.76,-486.02 1131.11,-491.77"/>
<text text-anchor="middle" x="1714.5" y="-817.5" font-family="Helvetica,sans-Serif" font-size="10.00"> +controllerKind</text>
</g>
<!-- Node18 -->
<g id="node18" class="node">
<title>Node18</title>
<g id="a_node18"><a xlink:title=" ">
<polygon fill="none" stroke="#bfbfbf" points="346.5,-1284.5 346.5,-1341.5 381.5,-1341.5 381.5,-1284.5 346.5,-1284.5"/>
<text text-anchor="middle" x="364" y="-1329.5" font-family="Helvetica,sans-Serif" font-size="10.00">bool</text>
<polyline fill="none" stroke="#bfbfbf" points="346.5,-1322.5 381.5,-1322.5 "/>
<text text-anchor="middle" x="364" y="-1310.5" font-family="Helvetica,sans-Serif" font-size="10.00"> </text>
<polyline fill="none" stroke="#bfbfbf" points="346.5,-1303.5 381.5,-1303.5 "/>
<text text-anchor="middle" x="364" y="-1291.5" font-family="Helvetica,sans-Serif" font-size="10.00"> </text>
</a>
</g>
</g>
<!-- Node18&#45;&gt;Node2 -->
<g id="edge19" class="edge">
<title>Node18&#45;&gt;Node2</title>
<path fill="none" stroke="#404040" d="M381.71,-1289.45C390.61,-1276.81 400.64,-1260.35 406,-1244 460.91,-1076.65 347.96,-1000.38 438,-849 551.02,-658.98 797.39,-544.62 935.02,-493.1"/>
<polygon fill="none" stroke="#404040" points="935.11,-493.07 939.35,-487.24 946.37,-488.91 942.13,-494.74 935.11,-493.07"/>
<text text-anchor="middle" x="488" y="-1018.5" font-family="Helvetica,sans-Serif" font-size="10.00"> #canInteract</text>
<text text-anchor="middle" x="488" y="-1007.5" font-family="Helvetica,sans-Serif" font-size="10.00">#dead</text>
<text text-anchor="middle" x="488" y="-996.5" font-family="Helvetica,sans-Serif" font-size="10.00">#isInvencible</text>
<text text-anchor="middle" x="488" y="-985.5" font-family="Helvetica,sans-Serif" font-size="10.00">#lastGroundDetected</text>
<text text-anchor="middle" x="488" y="-974.5" font-family="Helvetica,sans-Serif" font-size="10.00">#playerFacingDirection</text>
</g>
<!-- Node18&#45;&gt;Node20 -->
<g id="edge25" class="edge">
<title>Node18&#45;&gt;Node20</title>
<path fill="none" stroke="#404040" d="M346.36,-1296.7C333.24,-1284.08 316.39,-1264.9 309,-1244 299.73,-1217.79 295.28,-1188.99 293.78,-1160.64"/>
<polygon fill="none" stroke="#404040" points="293.78,-1160.52 289.55,-1154.67 293.32,-1148.52 297.54,-1154.37 293.78,-1160.52"/>
<text text-anchor="middle" x="357.5" y="-1236" font-family="Helvetica,sans-Serif" font-size="10.00"> +isEnrolledInDialogue</text>
<text text-anchor="middle" x="357.5" y="-1225" font-family="Helvetica,sans-Serif" font-size="10.00">+warpActioned</text>
<text text-anchor="middle" x="357.5" y="-1214" font-family="Helvetica,sans-Serif" font-size="10.00">~moveOnDamaged</text>
<text text-anchor="middle" x="357.5" y="-1203" font-family="Helvetica,sans-Serif" font-size="10.00">~praying</text>
<text text-anchor="middle" x="357.5" y="-1192" font-family="Helvetica,sans-Serif" font-size="10.00">~respawning</text>
<text text-anchor="middle" x="357.5" y="-1181" font-family="Helvetica,sans-Serif" font-size="10.00">~roll</text>
<text text-anchor="middle" x="357.5" y="-1170" font-family="Helvetica,sans-Serif" font-size="10.00">~rollAnim</text>
</g>
<!-- Node19 -->
<g id="node19" class="node">
<title>Node19</title>
<g id="a_node19"><a xlink:title=" ">
<polygon fill="none" stroke="#bfbfbf" points="1819,-970.5 1819,-1027.5 1891,-1027.5 1891,-970.5 1819,-970.5"/>
<text text-anchor="middle" x="1855" y="-1015.5" font-family="Helvetica,sans-Serif" font-size="10.00">AudioSource</text>
<polyline fill="none" stroke="#bfbfbf" points="1819,-1008.5 1891,-1008.5 "/>
<text text-anchor="middle" x="1855" y="-996.5" font-family="Helvetica,sans-Serif" font-size="10.00"> </text>
<polyline fill="none" stroke="#bfbfbf" points="1819,-989.5 1891,-989.5 "/>
<text text-anchor="middle" x="1855" y="-977.5" font-family="Helvetica,sans-Serif" font-size="10.00"> </text>
</a>
</g>
</g>
<!-- Node19&#45;&gt;Node2 -->
<g id="edge20" class="edge">
<title>Node19&#45;&gt;Node2</title>
<path fill="none" stroke="#404040" d="M1852.13,-970.33C1847.67,-938.46 1836.6,-885.79 1810,-849 1791.86,-823.92 1779.68,-824.68 1753,-809 1538.51,-682.94 1271.62,-562.65 1130.71,-501.78"/>
<polygon fill="none" stroke="#404040" points="1130.57,-501.72 1123.47,-503.02 1119.55,-496.97 1126.64,-495.67 1130.57,-501.72"/>
<text text-anchor="middle" x="1827.5" y="-823" font-family="Helvetica,sans-Serif" font-size="10.00"> #hitAttackSFX1</text>
<text text-anchor="middle" x="1827.5" y="-812" font-family="Helvetica,sans-Serif" font-size="10.00">#hitAttackSFX2</text>
</g>
<!-- Node20&#45;&gt;Node2 -->
<g id="edge21" class="edge">
<title>Node20&#45;&gt;Node2</title>
<path fill="none" stroke="#404040" d="M311.93,-849.28C316.31,-834.91 322.49,-821.17 331,-809 475.31,-602.66 777.81,-512.53 934.39,-478.42"/>
<polygon fill="none" stroke="#404040" points="934.59,-478.38 939.62,-473.21 946.32,-475.87 941.29,-481.03 934.59,-478.38"/>
<text text-anchor="middle" x="369" y="-817.5" font-family="Helvetica,sans-Serif" font-size="10.00"> #playerController</text>
</g>
</g>
</svg>
