<?xml version="1.0" encoding="UTF-8" standalone="no"?>
<!DOCTYPE svg PUBLIC "-//W3C//DTD SVG 1.1//EN"
 "http://www.w3.org/Graphics/SVG/1.1/DTD/svg11.dtd">
<!-- Generated by graphviz version 2.48.0 (20210717.1556)
 -->
<!-- Title: Player.PlayerMovementController Pages: 1 -->
<svg width="658pt" height="442pt"
 viewBox="0.00 0.00 657.50 442.00" xmlns="http://www.w3.org/2000/svg" xmlns:xlink="http://www.w3.org/1999/xlink">
<g id="graph0" class="graph" transform="scale(1 1) rotate(0) translate(4 438)">
<title>Player.PlayerMovementController</title>
<!-- Node1 -->
<g id="node1" class="node">
<title>Node1</title>
<g id="a_node1"><a xlink:title=" ">
<polygon fill="#bfbfbf" stroke="black" points="268,-0.5 268,-189.5 429,-189.5 429,-0.5 268,-0.5"/>
<text text-anchor="middle" x="348.5" y="-177.5" font-family="Helvetica,sans-Serif" font-size="10.00">Player.PlayerMovementController</text>
<polyline fill="none" stroke="black" points="268,-170.5 429,-170.5 "/>
<text text-anchor="middle" x="348.5" y="-158.5" font-family="Helvetica,sans-Serif" font-size="10.00"> </text>
<polyline fill="none" stroke="black" points="268,-151.5 429,-151.5 "/>
<text text-anchor="start" x="276" y="-139.5" font-family="Helvetica,sans-Serif" font-size="10.00">+ void Move(float moveH,</text>
<text text-anchor="start" x="276" y="-128.5" font-family="Helvetica,sans-Serif" font-size="10.00"> float moveV, bool crouch,</text>
<text text-anchor="start" x="276" y="-117.5" font-family="Helvetica,sans-Serif" font-size="10.00"> bool jump, bool roll, bool</text>
<text text-anchor="start" x="276" y="-106.5" font-family="Helvetica,sans-Serif" font-size="10.00"> attacking)</text>
<text text-anchor="start" x="276" y="-95.5" font-family="Helvetica,sans-Serif" font-size="10.00">+ bool IsFacingRight()</text>
<text text-anchor="start" x="276" y="-84.5" font-family="Helvetica,sans-Serif" font-size="10.00">+ void EnableFlip()</text>
<text text-anchor="start" x="276" y="-73.5" font-family="Helvetica,sans-Serif" font-size="10.00">+ void DisableFlip()</text>
<text text-anchor="start" x="276" y="-62.5" font-family="Helvetica,sans-Serif" font-size="10.00">+ void AddSpeedPenalty</text>
<text text-anchor="start" x="276" y="-51.5" font-family="Helvetica,sans-Serif" font-size="10.00">(float lifetime)</text>
<text text-anchor="start" x="276" y="-40.5" font-family="Helvetica,sans-Serif" font-size="10.00">~ void AttackMovement</text>
<text text-anchor="start" x="276" y="-29.5" font-family="Helvetica,sans-Serif" font-size="10.00">(int power)</text>
<text text-anchor="start" x="276" y="-18.5" font-family="Helvetica,sans-Serif" font-size="10.00">~ void PrepareRespawn</text>
<text text-anchor="start" x="276" y="-7.5" font-family="Helvetica,sans-Serif" font-size="10.00">(Transform SpawnPoint)</text>
</a>
</g>
</g>
<!-- Node2 -->
<g id="node2" class="node">
<title>Node2</title>
<g id="a_node2"><a xlink:title=" ">
<polygon fill="none" stroke="#bfbfbf" points="0,-276 0,-333 83,-333 83,-276 0,-276"/>
<text text-anchor="middle" x="41.5" y="-321" font-family="Helvetica,sans-Serif" font-size="10.00">MonoBehaviour</text>
<polyline fill="none" stroke="#bfbfbf" points="0,-314 83,-314 "/>
<text text-anchor="middle" x="41.5" y="-302" font-family="Helvetica,sans-Serif" font-size="10.00"> </text>
<polyline fill="none" stroke="#bfbfbf" points="0,-295 83,-295 "/>
<text text-anchor="middle" x="41.5" y="-283" font-family="Helvetica,sans-Serif" font-size="10.00"> </text>
</a>
</g>
</g>
<!-- Node2&#45;&gt;Node1 -->
<g id="edge1" class="edge">
<title>Node2&#45;&gt;Node1</title>
<path fill="none" stroke="midnightblue" d="M90.57,-270.33C138.26,-238.1 211.53,-188.58 267.81,-150.54"/>
<polygon fill="none" stroke="midnightblue" points="88.59,-267.45 82.27,-275.95 92.51,-273.25 88.59,-267.45"/>
</g>
<!-- Node3 -->
<g id="node3" class="node">
<title>Node3</title>
<g id="a_node3"><a xlink:href="class_player_1_1_player_movement_controller_1_1_bool_event.html" target="_top" xlink:title=" ">
<polygon fill="none" stroke="black" points="101.5,-270.5 101.5,-338.5 265.5,-338.5 265.5,-270.5 101.5,-270.5"/>
<text text-anchor="start" x="109.5" y="-326.5" font-family="Helvetica,sans-Serif" font-size="10.00">Player.PlayerMovementController.</text>
<text text-anchor="middle" x="183.5" y="-315.5" font-family="Helvetica,sans-Serif" font-size="10.00">BoolEvent</text>
<polyline fill="none" stroke="black" points="101.5,-308.5 265.5,-308.5 "/>
<text text-anchor="middle" x="183.5" y="-296.5" font-family="Helvetica,sans-Serif" font-size="10.00"> </text>
<polyline fill="none" stroke="black" points="101.5,-289.5 265.5,-289.5 "/>
<text text-anchor="middle" x="183.5" y="-277.5" font-family="Helvetica,sans-Serif" font-size="10.00"> </text>
</a>
</g>
</g>
<!-- Node3&#45;&gt;Node1 -->
<g id="edge2" class="edge">
<title>Node3&#45;&gt;Node1</title>
<path fill="none" stroke="#404040" d="M193.34,-270.26C200,-251 210.06,-226.89 223.5,-208 233.66,-193.73 245.94,-179.98 258.78,-167.3"/>
<polygon fill="none" stroke="#404040" points="259.09,-167 260.65,-159.96 267.75,-158.7 266.19,-165.74 259.09,-167"/>
<text text-anchor="middle" x="262" y="-227.5" font-family="Helvetica,sans-Serif" font-size="10.00"> +OnCrouchEvent</text>
</g>
<!-- Node4 -->
<g id="node4" class="node">
<title>Node4</title>
<g id="a_node4"><a xlink:title=" ">
<polygon fill="none" stroke="#bfbfbf" points="134,-376.5 134,-433.5 233,-433.5 233,-376.5 134,-376.5"/>
<text text-anchor="middle" x="183.5" y="-421.5" font-family="Helvetica,sans-Serif" font-size="10.00">UnityEvent&lt; bool &gt;</text>
<polyline fill="none" stroke="#bfbfbf" points="134,-414.5 233,-414.5 "/>
<text text-anchor="middle" x="183.5" y="-402.5" font-family="Helvetica,sans-Serif" font-size="10.00"> </text>
<polyline fill="none" stroke="#bfbfbf" points="134,-395.5 233,-395.5 "/>
<text text-anchor="middle" x="183.5" y="-383.5" font-family="Helvetica,sans-Serif" font-size="10.00"> </text>
</a>
</g>
</g>
<!-- Node4&#45;&gt;Node3 -->
<g id="edge3" class="edge">
<title>Node4&#45;&gt;Node3</title>
<path fill="none" stroke="midnightblue" d="M183.5,-366.01C183.5,-356.96 183.5,-347.38 183.5,-338.58"/>
<polygon fill="none" stroke="midnightblue" points="180,-366.3 183.5,-376.3 187,-366.3 180,-366.3"/>
</g>
<!-- Node5 -->
<g id="node5" class="node">
<title>Node5</title>
<g id="a_node5"><a xlink:title=" ">
<polygon fill="none" stroke="#bfbfbf" points="284,-276 284,-333 347,-333 347,-276 284,-276"/>
<text text-anchor="middle" x="315.5" y="-321" font-family="Helvetica,sans-Serif" font-size="10.00">UnityEvent</text>
<polyline fill="none" stroke="#bfbfbf" points="284,-314 347,-314 "/>
<text text-anchor="middle" x="315.5" y="-302" font-family="Helvetica,sans-Serif" font-size="10.00"> </text>
<polyline fill="none" stroke="#bfbfbf" points="284,-295 347,-295 "/>
<text text-anchor="middle" x="315.5" y="-283" font-family="Helvetica,sans-Serif" font-size="10.00"> </text>
</a>
</g>
</g>
<!-- Node5&#45;&gt;Node1 -->
<g id="edge4" class="edge">
<title>Node5&#45;&gt;Node1</title>
<path fill="none" stroke="#404040" d="M309.76,-275.82C308.41,-268.14 307.17,-259.78 306.5,-252 304.81,-232.52 303.01,-227.24 306.5,-208 306.89,-205.83 307.33,-203.65 307.79,-201.47"/>
<polygon fill="none" stroke="#404040" points="307.81,-201.39 305.32,-194.63 310.61,-189.73 313.1,-196.49 307.81,-201.39"/>
<text text-anchor="middle" x="338.5" y="-233" font-family="Helvetica,sans-Serif" font-size="10.00"> +OnAirEvent</text>
<text text-anchor="middle" x="338.5" y="-222" font-family="Helvetica,sans-Serif" font-size="10.00">+OnLandEvent</text>
</g>
<!-- Node6 -->
<g id="node6" class="node">
<title>Node6</title>
<g id="a_node6"><a xlink:title=" ">
<polygon fill="none" stroke="#bfbfbf" points="375,-276 375,-333 410,-333 410,-276 375,-276"/>
<text text-anchor="middle" x="392.5" y="-321" font-family="Helvetica,sans-Serif" font-size="10.00">float</text>
<polyline fill="none" stroke="#bfbfbf" points="375,-314 410,-314 "/>
<text text-anchor="middle" x="392.5" y="-302" font-family="Helvetica,sans-Serif" font-size="10.00"> </text>
<polyline fill="none" stroke="#bfbfbf" points="375,-295 410,-295 "/>
<text text-anchor="middle" x="392.5" y="-283" font-family="Helvetica,sans-Serif" font-size="10.00"> </text>
</a>
</g>
</g>
<!-- Node6&#45;&gt;Node1 -->
<g id="edge5" class="edge">
<title>Node6&#45;&gt;Node1</title>
<path fill="none" stroke="#404040" d="M386.66,-275.95C382.53,-256.46 376.7,-228.98 370.84,-201.35"/>
<polygon fill="none" stroke="#404040" points="370.82,-201.27 365.66,-196.23 368.33,-189.53 373.49,-194.57 370.82,-201.27"/>
<text text-anchor="middle" x="429" y="-244" font-family="Helvetica,sans-Serif" font-size="10.00"> +LedgeClimbXOffset1</text>
<text text-anchor="middle" x="429" y="-233" font-family="Helvetica,sans-Serif" font-size="10.00">+LedgeClimbXOffset2</text>
<text text-anchor="middle" x="429" y="-222" font-family="Helvetica,sans-Serif" font-size="10.00">+LedgeClimbYOffset1</text>
<text text-anchor="middle" x="429" y="-211" font-family="Helvetica,sans-Serif" font-size="10.00">+LedgeClimbYOffset2</text>
</g>
<!-- Node7 -->
<g id="node7" class="node">
<title>Node7</title>
<g id="a_node7"><a xlink:title=" ">
<polygon fill="none" stroke="#bfbfbf" points="487.5,-276 487.5,-333 537.5,-333 537.5,-276 487.5,-276"/>
<text text-anchor="middle" x="512.5" y="-321" font-family="Helvetica,sans-Serif" font-size="10.00">Vector3</text>
<polyline fill="none" stroke="#bfbfbf" points="487.5,-314 537.5,-314 "/>
<text text-anchor="middle" x="512.5" y="-302" font-family="Helvetica,sans-Serif" font-size="10.00"> </text>
<polyline fill="none" stroke="#bfbfbf" points="487.5,-295 537.5,-295 "/>
<text text-anchor="middle" x="512.5" y="-283" font-family="Helvetica,sans-Serif" font-size="10.00"> </text>
</a>
</g>
</g>
<!-- Node7&#45;&gt;Node1 -->
<g id="edge6" class="edge">
<title>Node7&#45;&gt;Node1</title>
<path fill="none" stroke="#404040" d="M507.75,-275.77C503.35,-255.67 495.32,-228.54 481.5,-208 469.74,-190.52 454.5,-174.25 438.56,-159.82"/>
<polygon fill="none" stroke="#404040" points="438.14,-159.45 430.99,-158.51 429.11,-151.54 436.26,-152.49 438.14,-159.45"/>
<text text-anchor="middle" x="523" y="-227.5" font-family="Helvetica,sans-Serif" font-size="10.00"> ~Velocity</text>
</g>
<!-- Node8 -->
<g id="node8" class="node">
<title>Node8</title>
<g id="a_node8"><a xlink:title=" ">
<polygon fill="none" stroke="#bfbfbf" points="563,-276 563,-333 598,-333 598,-276 563,-276"/>
<text text-anchor="middle" x="580.5" y="-321" font-family="Helvetica,sans-Serif" font-size="10.00">bool</text>
<polyline fill="none" stroke="#bfbfbf" points="563,-314 598,-314 "/>
<text text-anchor="middle" x="580.5" y="-302" font-family="Helvetica,sans-Serif" font-size="10.00"> </text>
<polyline fill="none" stroke="#bfbfbf" points="563,-295 598,-295 "/>
<text text-anchor="middle" x="580.5" y="-283" font-family="Helvetica,sans-Serif" font-size="10.00"> </text>
</a>
</g>
</g>
<!-- Node8&#45;&gt;Node1 -->
<g id="edge7" class="edge">
<title>Node8&#45;&gt;Node1</title>
<path fill="none" stroke="#404040" d="M577.05,-275.79C573.26,-255.18 565.44,-227.39 549.5,-208 520.98,-173.32 478.76,-147.5 440.36,-129.45"/>
<polygon fill="none" stroke="#404040" points="440.04,-129.3 432.92,-130.45 429.12,-124.33 436.23,-123.17 440.04,-129.3"/>
<text text-anchor="middle" x="610" y="-238.5" font-family="Helvetica,sans-Serif" font-size="10.00"> ~Grounded</text>
<text text-anchor="middle" x="610" y="-227.5" font-family="Helvetica,sans-Serif" font-size="10.00">~IsTouchingLedge</text>
<text text-anchor="middle" x="610" y="-216.5" font-family="Helvetica,sans-Serif" font-size="10.00">~IsTouchingWall</text>
</g>
</g>
</svg>
