<?xml version="1.0" encoding="UTF-8" standalone="no"?>
<!DOCTYPE svg PUBLIC "-//W3C//DTD SVG 1.1//EN"
 "http://www.w3.org/Graphics/SVG/1.1/DTD/svg11.dtd">
<!-- Generated by graphviz version 2.48.0 (20210717.1556)
 -->
<!-- Title: ImageAnimation Pages: 1 -->
<svg width="350pt" height="182pt"
 viewBox="0.00 0.00 349.50 182.00" xmlns="http://www.w3.org/2000/svg" xmlns:xlink="http://www.w3.org/1999/xlink">
<g id="graph0" class="graph" transform="scale(1 1) rotate(0) translate(4 178)">
<title>ImageAnimation</title>
<!-- Node1 -->
<g id="node1" class="node">
<title>Node1</title>
<g id="a_node1"><a xlink:title=" ">
<polygon fill="#bfbfbf" stroke="black" points="113.5,-0.5 113.5,-57.5 199.5,-57.5 199.5,-0.5 113.5,-0.5"/>
<text text-anchor="middle" x="156.5" y="-45.5" font-family="Helvetica,sans-Serif" font-size="10.00">ImageAnimation</text>
<polyline fill="none" stroke="black" points="113.5,-38.5 199.5,-38.5 "/>
<text text-anchor="middle" x="156.5" y="-26.5" font-family="Helvetica,sans-Serif" font-size="10.00"> </text>
<polyline fill="none" stroke="black" points="113.5,-19.5 199.5,-19.5 "/>
<text text-anchor="middle" x="156.5" y="-7.5" font-family="Helvetica,sans-Serif" font-size="10.00"> </text>
</a>
</g>
</g>
<!-- Node2 -->
<g id="node2" class="node">
<title>Node2</title>
<g id="a_node2"><a xlink:title=" ">
<polygon fill="none" stroke="#bfbfbf" points="0,-116.5 0,-173.5 83,-173.5 83,-116.5 0,-116.5"/>
<text text-anchor="middle" x="41.5" y="-161.5" font-family="Helvetica,sans-Serif" font-size="10.00">MonoBehaviour</text>
<polyline fill="none" stroke="#bfbfbf" points="0,-154.5 83,-154.5 "/>
<text text-anchor="middle" x="41.5" y="-142.5" font-family="Helvetica,sans-Serif" font-size="10.00"> </text>
<polyline fill="none" stroke="#bfbfbf" points="0,-135.5 83,-135.5 "/>
<text text-anchor="middle" x="41.5" y="-123.5" font-family="Helvetica,sans-Serif" font-size="10.00"> </text>
</a>
</g>
</g>
<!-- Node2&#45;&gt;Node1 -->
<g id="edge1" class="edge">
<title>Node2&#45;&gt;Node1</title>
<path fill="none" stroke="midnightblue" d="M76.75,-109.06C93.37,-92.58 112.93,-73.19 128.52,-57.74"/>
<polygon fill="none" stroke="midnightblue" points="73.98,-106.88 69.34,-116.4 78.9,-111.85 73.98,-106.88"/>
</g>
<!-- Node3 -->
<g id="node3" class="node">
<title>Node3</title>
<g id="a_node3"><a xlink:title=" ">
<polygon fill="none" stroke="#bfbfbf" points="101.5,-116.5 101.5,-173.5 149.5,-173.5 149.5,-116.5 101.5,-116.5"/>
<text text-anchor="middle" x="125.5" y="-161.5" font-family="Helvetica,sans-Serif" font-size="10.00">Sprite[]</text>
<polyline fill="none" stroke="#bfbfbf" points="101.5,-154.5 149.5,-154.5 "/>
<text text-anchor="middle" x="125.5" y="-142.5" font-family="Helvetica,sans-Serif" font-size="10.00"> </text>
<polyline fill="none" stroke="#bfbfbf" points="101.5,-135.5 149.5,-135.5 "/>
<text text-anchor="middle" x="125.5" y="-123.5" font-family="Helvetica,sans-Serif" font-size="10.00"> </text>
</a>
</g>
</g>
<!-- Node3&#45;&gt;Node1 -->
<g id="edge2" class="edge">
<title>Node3&#45;&gt;Node1</title>
<path fill="none" stroke="#404040" d="M122.45,-116.33C121.94,-103.77 122.57,-88.87 126.5,-76 127.28,-73.44 128.25,-70.9 129.36,-68.39"/>
<polygon fill="none" stroke="#404040" points="129.38,-68.34 128.61,-61.17 134.94,-57.7 135.7,-64.87 129.38,-68.34"/>
<text text-anchor="middle" x="146" y="-84.5" font-family="Helvetica,sans-Serif" font-size="10.00"> +sprites</text>
</g>
<!-- Node4 -->
<g id="node4" class="node">
<title>Node4</title>
<g id="a_node4"><a xlink:title=" ">
<polygon fill="none" stroke="#bfbfbf" points="173,-116.5 173,-173.5 202,-173.5 202,-116.5 173,-116.5"/>
<text text-anchor="middle" x="187.5" y="-161.5" font-family="Helvetica,sans-Serif" font-size="10.00">int</text>
<polyline fill="none" stroke="#bfbfbf" points="173,-154.5 202,-154.5 "/>
<text text-anchor="middle" x="187.5" y="-142.5" font-family="Helvetica,sans-Serif" font-size="10.00"> </text>
<polyline fill="none" stroke="#bfbfbf" points="173,-135.5 202,-135.5 "/>
<text text-anchor="middle" x="187.5" y="-123.5" font-family="Helvetica,sans-Serif" font-size="10.00"> </text>
</a>
</g>
</g>
<!-- Node4&#45;&gt;Node1 -->
<g id="edge3" class="edge">
<title>Node4&#45;&gt;Node1</title>
<path fill="none" stroke="#404040" d="M180,-116.4C176.18,-102.36 171.47,-85.05 167.27,-69.61"/>
<polygon fill="none" stroke="#404040" points="167.19,-69.32 161.76,-64.58 164.04,-57.74 169.48,-62.48 167.19,-69.32"/>
<text text-anchor="middle" x="212.5" y="-84.5" font-family="Helvetica,sans-Serif" font-size="10.00"> +spritePerFrame</text>
</g>
<!-- Node5 -->
<g id="node5" class="node">
<title>Node5</title>
<g id="a_node5"><a xlink:title=" ">
<polygon fill="none" stroke="#bfbfbf" points="269,-116.5 269,-173.5 304,-173.5 304,-116.5 269,-116.5"/>
<text text-anchor="middle" x="286.5" y="-161.5" font-family="Helvetica,sans-Serif" font-size="10.00">bool</text>
<polyline fill="none" stroke="#bfbfbf" points="269,-154.5 304,-154.5 "/>
<text text-anchor="middle" x="286.5" y="-142.5" font-family="Helvetica,sans-Serif" font-size="10.00"> </text>
<polyline fill="none" stroke="#bfbfbf" points="269,-135.5 304,-135.5 "/>
<text text-anchor="middle" x="286.5" y="-123.5" font-family="Helvetica,sans-Serif" font-size="10.00"> </text>
</a>
</g>
</g>
<!-- Node5&#45;&gt;Node1 -->
<g id="edge4" class="edge">
<title>Node5&#45;&gt;Node1</title>
<path fill="none" stroke="#404040" d="M278.38,-116.19C273.3,-102.7 265.58,-87.07 254.5,-76 242.3,-63.81 226.26,-54.46 210.7,-47.46"/>
<polygon fill="none" stroke="#404040" points="210.59,-47.41 203.51,-48.79 199.52,-42.78 206.59,-41.41 210.59,-47.41"/>
<text text-anchor="middle" x="305.5" y="-90" font-family="Helvetica,sans-Serif" font-size="10.00"> +destroyOnEnd</text>
<text text-anchor="middle" x="305.5" y="-79" font-family="Helvetica,sans-Serif" font-size="10.00">+loop</text>
</g>
</g>
</svg>
