<?xml version="1.0" encoding="UTF-8" standalone="no"?>
<!DOCTYPE svg PUBLIC "-//W3C//DTD SVG 1.1//EN"
 "http://www.w3.org/Graphics/SVG/1.1/DTD/svg11.dtd">
<!-- Generated by graphviz version 2.48.0 (20210717.1556)
 -->
<!-- Title: Controllers.StateMachine.States.Data.SuperFroggy_SecondPhaseStateData Pages: 1 -->
<svg width="276pt" height="193pt"
 viewBox="0.00 0.00 275.50 193.00" xmlns="http://www.w3.org/2000/svg" xmlns:xlink="http://www.w3.org/1999/xlink">
<g id="graph0" class="graph" transform="scale(1 1) rotate(0) translate(4 189)">
<title>Controllers.StateMachine.States.Data.SuperFroggy_SecondPhaseStateData</title>
<!-- Node1 -->
<g id="node1" class="node">
<title>Node1</title>
<g id="a_node1"><a xlink:title=" ">
<polygon fill="#bfbfbf" stroke="black" points="78,-0.5 78,-79.5 207,-79.5 207,-0.5 78,-0.5"/>
<text text-anchor="start" x="86" y="-67.5" font-family="Helvetica,sans-Serif" font-size="10.00">Controllers.StateMachine.</text>
<text text-anchor="start" x="86" y="-56.5" font-family="Helvetica,sans-Serif" font-size="10.00">States.Data.SuperFroggy</text>
<text text-anchor="middle" x="142.5" y="-45.5" font-family="Helvetica,sans-Serif" font-size="10.00">_SecondPhaseStateData</text>
<polyline fill="none" stroke="black" points="78,-38.5 207,-38.5 "/>
<text text-anchor="middle" x="142.5" y="-26.5" font-family="Helvetica,sans-Serif" font-size="10.00"> </text>
<polyline fill="none" stroke="black" points="78,-19.5 207,-19.5 "/>
<text text-anchor="middle" x="142.5" y="-7.5" font-family="Helvetica,sans-Serif" font-size="10.00"> </text>
</a>
</g>
</g>
<!-- Node2 -->
<g id="node2" class="node">
<title>Node2</title>
<g id="a_node2"><a xlink:href="class_scriptable_object.html" target="_top" xlink:title=" ">
<polygon fill="none" stroke="black" points="0,-127.5 0,-184.5 89,-184.5 89,-127.5 0,-127.5"/>
<text text-anchor="middle" x="44.5" y="-172.5" font-family="Helvetica,sans-Serif" font-size="10.00">ScriptableObject</text>
<polyline fill="none" stroke="black" points="0,-165.5 89,-165.5 "/>
<text text-anchor="middle" x="44.5" y="-153.5" font-family="Helvetica,sans-Serif" font-size="10.00"> </text>
<polyline fill="none" stroke="black" points="0,-146.5 89,-146.5 "/>
<text text-anchor="middle" x="44.5" y="-134.5" font-family="Helvetica,sans-Serif" font-size="10.00"> </text>
</a>
</g>
</g>
<!-- Node2&#45;&gt;Node1 -->
<g id="edge1" class="edge">
<title>Node2&#45;&gt;Node1</title>
<path fill="none" stroke="midnightblue" d="M74.83,-119.72C85.78,-106.98 98.19,-92.54 109.37,-79.54"/>
<polygon fill="none" stroke="midnightblue" points="72.09,-117.54 68.22,-127.4 77.4,-122.1 72.09,-117.54"/>
</g>
<!-- Node3 -->
<g id="node3" class="node">
<title>Node3</title>
<g id="a_node3"><a xlink:title=" ">
<polygon fill="none" stroke="#bfbfbf" points="107,-127.5 107,-184.5 178,-184.5 178,-127.5 107,-127.5"/>
<text text-anchor="middle" x="142.5" y="-172.5" font-family="Helvetica,sans-Serif" font-size="10.00">GameObject</text>
<polyline fill="none" stroke="#bfbfbf" points="107,-165.5 178,-165.5 "/>
<text text-anchor="middle" x="142.5" y="-153.5" font-family="Helvetica,sans-Serif" font-size="10.00"> </text>
<polyline fill="none" stroke="#bfbfbf" points="107,-146.5 178,-146.5 "/>
<text text-anchor="middle" x="142.5" y="-134.5" font-family="Helvetica,sans-Serif" font-size="10.00"> </text>
</a>
</g>
</g>
<!-- Node3&#45;&gt;Node1 -->
<g id="edge2" class="edge">
<title>Node3&#45;&gt;Node1</title>
<path fill="none" stroke="#404040" d="M142.5,-127.4C142.5,-116.63 142.5,-103.93 142.5,-91.62"/>
<polygon fill="none" stroke="#404040" points="142.5,-91.54 138.5,-85.54 142.5,-79.54 146.5,-85.54 142.5,-91.54"/>
<text text-anchor="middle" x="162" y="-101" font-family="Helvetica,sans-Serif" font-size="10.00"> +bombs</text>
</g>
<!-- Node4 -->
<g id="node4" class="node">
<title>Node4</title>
<g id="a_node4"><a xlink:title=" ">
<polygon fill="none" stroke="#bfbfbf" points="196,-127.5 196,-184.5 231,-184.5 231,-127.5 196,-127.5"/>
<text text-anchor="middle" x="213.5" y="-172.5" font-family="Helvetica,sans-Serif" font-size="10.00">float</text>
<polyline fill="none" stroke="#bfbfbf" points="196,-165.5 231,-165.5 "/>
<text text-anchor="middle" x="213.5" y="-153.5" font-family="Helvetica,sans-Serif" font-size="10.00"> </text>
<polyline fill="none" stroke="#bfbfbf" points="196,-146.5 231,-146.5 "/>
<text text-anchor="middle" x="213.5" y="-134.5" font-family="Helvetica,sans-Serif" font-size="10.00"> </text>
</a>
</g>
</g>
<!-- Node4&#45;&gt;Node1 -->
<g id="edge3" class="edge">
<title>Node4&#45;&gt;Node1</title>
<path fill="none" stroke="#404040" d="M201.28,-127.47C196.7,-117.93 191.22,-107.3 185.5,-98 183.79,-95.23 181.98,-92.42 180.11,-89.62"/>
<polygon fill="none" stroke="#404040" points="179.97,-89.41 173.26,-86.77 173.12,-79.56 179.83,-82.2 179.97,-89.41"/>
<text text-anchor="middle" x="229.5" y="-101" font-family="Helvetica,sans-Serif" font-size="10.00"> +bombCooldown</text>
</g>
</g>
</svg>
