<?xml version="1.0" encoding="UTF-8" standalone="no"?>
<!DOCTYPE svg PUBLIC "-//W3C//DTD SVG 1.1//EN"
 "http://www.w3.org/Graphics/SVG/1.1/DTD/svg11.dtd">
<!-- Generated by graphviz version 2.48.0 (20210717.1556)
 -->
<!-- Title: OLC_HallTrigger Pages: 1 -->
<svg width="95pt" height="160pt"
 viewBox="0.00 0.00 95.00 160.00" xmlns="http://www.w3.org/2000/svg" xmlns:xlink="http://www.w3.org/1999/xlink">
<g id="graph0" class="graph" transform="scale(1 1) rotate(0) translate(4 156)">
<title>OLC_HallTrigger</title>
<!-- Node1 -->
<g id="node1" class="node">
<title>Node1</title>
<g id="a_node1"><a xlink:title=" ">
<polygon fill="#bfbfbf" stroke="black" points="0,-0.5 0,-57.5 87,-57.5 87,-0.5 0,-0.5"/>
<text text-anchor="middle" x="43.5" y="-45.5" font-family="Helvetica,sans-Serif" font-size="10.00">OLC_HallTrigger</text>
<polyline fill="none" stroke="black" points="0,-38.5 87,-38.5 "/>
<text text-anchor="middle" x="43.5" y="-26.5" font-family="Helvetica,sans-Serif" font-size="10.00"> </text>
<polyline fill="none" stroke="black" points="0,-19.5 87,-19.5 "/>
<text text-anchor="middle" x="43.5" y="-7.5" font-family="Helvetica,sans-Serif" font-size="10.00"> </text>
</a>
</g>
</g>
<!-- Node2 -->
<g id="node2" class="node">
<title>Node2</title>
<g id="a_node2"><a xlink:title=" ">
<polygon fill="none" stroke="#bfbfbf" points="2,-94.5 2,-151.5 85,-151.5 85,-94.5 2,-94.5"/>
<text text-anchor="middle" x="43.5" y="-139.5" font-family="Helvetica,sans-Serif" font-size="10.00">MonoBehaviour</text>
<polyline fill="none" stroke="#bfbfbf" points="2,-132.5 85,-132.5 "/>
<text text-anchor="middle" x="43.5" y="-120.5" font-family="Helvetica,sans-Serif" font-size="10.00"> </text>
<polyline fill="none" stroke="#bfbfbf" points="2,-113.5 85,-113.5 "/>
<text text-anchor="middle" x="43.5" y="-101.5" font-family="Helvetica,sans-Serif" font-size="10.00"> </text>
</a>
</g>
</g>
<!-- Node2&#45;&gt;Node1 -->
<g id="edge1" class="edge">
<title>Node2&#45;&gt;Node1</title>
<path fill="none" stroke="midnightblue" d="M43.5,-84.21C43.5,-75.29 43.5,-65.95 43.5,-57.58"/>
<polygon fill="none" stroke="midnightblue" points="40,-84.4 43.5,-94.4 47,-84.4 40,-84.4"/>
</g>
</g>
</svg>
