<?xml version="1.0" encoding="UTF-8" standalone="no"?>
<!DOCTYPE svg PUBLIC "-//W3C//DTD SVG 1.1//EN"
 "http://www.w3.org/Graphics/SVG/1.1/DTD/svg11.dtd">
<!-- Generated by graphviz version 2.48.0 (20210717.1556)
 -->
<!-- Title: Controllers.BaseController Pages: 1 -->
<!--zoomable 1244 -->
<svg id="main" version="1.1" xmlns="http://www.w3.org/2000/svg" xmlns:xlink="http://www.w3.org/1999/xlink" xml:space="preserve" onload="init(evt)">
<style type="text/css"><![CDATA[
.edge:hover path { stroke: red; }
.edge:hover polygon { stroke: red; fill: red; }
]]></style>
<script type="text/javascript"><![CDATA[
var edges = document.getElementsByTagName('g');
if (edges && edges.length) {
  for (var i=0;i<edges.length;i++) {
    if (edges[i].id.substr(0,4)=='edge') {
      edges[i].setAttribute('class','edge');
    }
  }
}
]]></script>
        <defs>
                <circle id="rim" cx="0" cy="0" r="7"/>
                <circle id="rim2" cx="0" cy="0" r="3.5"/>
                <g id="zoomPlus">
                        <use xlink:href="#rim" fill="#404040">
                                <set attributeName="fill" to="#808080" begin="zoomplus.mouseover" end="zoomplus.mouseout"/>
                        </use>
                        <path d="M-4,0h8M0,-4v8" fill="none" stroke="white" stroke-width="1.5" pointer-events="none"/>
                </g>
                <g id="zoomMin">
                        <use xlink:href="#rim" fill="#404040">
                                <set attributeName="fill" to="#808080" begin="zoomminus.mouseover" end="zoomminus.mouseout"/>
                        </use>
                        <path d="M-4,0h8" fill="none" stroke="white" stroke-width="1.5" pointer-events="none"/>
                </g>
                <g id="dirArrow">
                        <path fill="none" stroke="white" stroke-width="1.5" d="M0,-3.0v7 M-2.5,-0.5L0,-3.0L2.5,-0.5"/>
                </g>
               <g id="resetDef">
                       <use xlink:href="#rim2" fill="#404040">
                               <set attributeName="fill" to="#808080" begin="reset.mouseover" end="reset.mouseout"/>
                       </use>
               </g>
        </defs>

<script type="text/javascript">
var viewWidth = 1899;
var viewHeight = 1244;
var sectionId = 'dynsection-1';
</script>
<script xlink:href="svgpan.js"/>
<svg id="graph" class="graph">
<g id="viewport">
<title>Controllers.BaseController</title>
<!-- Node1 -->
<g id="node1" class="node">
<title>Node1</title>
<g id="a_node1"><a xlink:title=" ">
<polygon fill="#bfbfbf" stroke="black" points="946.5,-0.5 946.5,-662.5 1119.5,-662.5 1119.5,-0.5 946.5,-0.5"/>
<text text-anchor="middle" x="1033" y="-650.5" font-family="Helvetica,sans-Serif" font-size="10.00">Controllers.BaseController</text>
<polyline fill="none" stroke="black" points="946.5,-643.5 1119.5,-643.5 "/>
<text text-anchor="start" x="954.5" y="-631.5" font-family="Helvetica,sans-Serif" font-size="10.00">+ int FacingDirection</text>
<text text-anchor="start" x="954.5" y="-620.5" font-family="Helvetica,sans-Serif" font-size="10.00">+ bool IsReadyToAttack</text>
<text text-anchor="start" x="954.5" y="-609.5" font-family="Helvetica,sans-Serif" font-size="10.00">+ bool wallDetected</text>
<text text-anchor="start" x="954.5" y="-598.5" font-family="Helvetica,sans-Serif" font-size="10.00">+ bool groundDetected</text>
<text text-anchor="start" x="954.5" y="-587.5" font-family="Helvetica,sans-Serif" font-size="10.00">+ bool topDetected</text>
<polyline fill="none" stroke="black" points="946.5,-580.5 1119.5,-580.5 "/>
<text text-anchor="start" x="954.5" y="-568.5" font-family="Helvetica,sans-Serif" font-size="10.00">+ virtual void Damage</text>
<text text-anchor="start" x="954.5" y="-557.5" font-family="Helvetica,sans-Serif" font-size="10.00">(float amount, int attackN)</text>
<text text-anchor="start" x="954.5" y="-546.5" font-family="Helvetica,sans-Serif" font-size="10.00">+ virtual void Damage</text>
<text text-anchor="start" x="954.5" y="-535.5" font-family="Helvetica,sans-Serif" font-size="10.00">(DamageInfo damageInfo)</text>
<text text-anchor="start" x="954.5" y="-524.5" font-family="Helvetica,sans-Serif" font-size="10.00">+ void Damage(BaseController</text>
<text text-anchor="start" x="954.5" y="-513.5" font-family="Helvetica,sans-Serif" font-size="10.00"> controller, DamageInfo</text>
<text text-anchor="start" x="954.5" y="-502.5" font-family="Helvetica,sans-Serif" font-size="10.00"> damageInfo)</text>
<text text-anchor="start" x="954.5" y="-491.5" font-family="Helvetica,sans-Serif" font-size="10.00">+ void Kill()</text>
<text text-anchor="start" x="954.5" y="-480.5" font-family="Helvetica,sans-Serif" font-size="10.00">+ bool Interact(BaseController</text>
<text text-anchor="start" x="954.5" y="-469.5" font-family="Helvetica,sans-Serif" font-size="10.00"> controller, EInteractionKind</text>
<text text-anchor="start" x="954.5" y="-458.5" font-family="Helvetica,sans-Serif" font-size="10.00"> interactionKind)</text>
<text text-anchor="start" x="954.5" y="-447.5" font-family="Helvetica,sans-Serif" font-size="10.00">+ virtual bool Interact</text>
<text text-anchor="start" x="954.5" y="-436.5" font-family="Helvetica,sans-Serif" font-size="10.00">(PlayerController controller,</text>
<text text-anchor="start" x="954.5" y="-425.5" font-family="Helvetica,sans-Serif" font-size="10.00"> EInteractionKind interactionKind)</text>
<text text-anchor="start" x="954.5" y="-414.5" font-family="Helvetica,sans-Serif" font-size="10.00">+ void ReadyToInteract</text>
<text text-anchor="start" x="954.5" y="-403.5" font-family="Helvetica,sans-Serif" font-size="10.00">(PlayerController controller,</text>
<text text-anchor="start" x="954.5" y="-392.5" font-family="Helvetica,sans-Serif" font-size="10.00"> bool isReady)</text>
<text text-anchor="start" x="954.5" y="-381.5" font-family="Helvetica,sans-Serif" font-size="10.00">+ void ReadyToInteract</text>
<text text-anchor="start" x="954.5" y="-370.5" font-family="Helvetica,sans-Serif" font-size="10.00">(BaseController controller,</text>
<text text-anchor="start" x="954.5" y="-359.5" font-family="Helvetica,sans-Serif" font-size="10.00"> bool isReady)</text>
<text text-anchor="start" x="954.5" y="-348.5" font-family="Helvetica,sans-Serif" font-size="10.00">+ void Flip()</text>
<text text-anchor="start" x="954.5" y="-337.5" font-family="Helvetica,sans-Serif" font-size="10.00">+ void SetVelocity(float</text>
<text text-anchor="start" x="954.5" y="-326.5" font-family="Helvetica,sans-Serif" font-size="10.00"> velocity)</text>
<text text-anchor="start" x="954.5" y="-315.5" font-family="Helvetica,sans-Serif" font-size="10.00">+ void AddForce(Vector2</text>
<text text-anchor="start" x="954.5" y="-304.5" font-family="Helvetica,sans-Serif" font-size="10.00"> newForce, bool isImpulse)</text>
<text text-anchor="start" x="954.5" y="-293.5" font-family="Helvetica,sans-Serif" font-size="10.00">+ void AddTorque(float</text>
<text text-anchor="start" x="954.5" y="-282.5" font-family="Helvetica,sans-Serif" font-size="10.00"> newTorque, bool isImpulse)</text>
<text text-anchor="start" x="954.5" y="-271.5" font-family="Helvetica,sans-Serif" font-size="10.00">+ T GetMovementController</text>
<text text-anchor="start" x="954.5" y="-260.5" font-family="Helvetica,sans-Serif" font-size="10.00">&lt; T &gt;()</text>
<text text-anchor="start" x="954.5" y="-249.5" font-family="Helvetica,sans-Serif" font-size="10.00">+ Animator GetAnimator()</text>
<text text-anchor="start" x="954.5" y="-238.5" font-family="Helvetica,sans-Serif" font-size="10.00">+ Transform GetTransfrom()</text>
<text text-anchor="start" x="954.5" y="-227.5" font-family="Helvetica,sans-Serif" font-size="10.00">+ GameObject GetDialogueBubble()</text>
<text text-anchor="start" x="954.5" y="-216.5" font-family="Helvetica,sans-Serif" font-size="10.00">+ bool CheckWall()</text>
<text text-anchor="start" x="954.5" y="-205.5" font-family="Helvetica,sans-Serif" font-size="10.00">+ bool CheckLedge()</text>
<text text-anchor="start" x="954.5" y="-194.5" font-family="Helvetica,sans-Serif" font-size="10.00">+ bool CheckGround()</text>
<text text-anchor="start" x="954.5" y="-183.5" font-family="Helvetica,sans-Serif" font-size="10.00">+ bool CheckTop()</text>
<text text-anchor="start" x="954.5" y="-172.5" font-family="Helvetica,sans-Serif" font-size="10.00">+ bool CheckPlayerInNearRange()</text>
<text text-anchor="start" x="954.5" y="-161.5" font-family="Helvetica,sans-Serif" font-size="10.00">+ bool CheckPlayerInLongRange()</text>
<text text-anchor="start" x="954.5" y="-150.5" font-family="Helvetica,sans-Serif" font-size="10.00">+ void CheckTouchDamage()</text>
<text text-anchor="start" x="954.5" y="-139.5" font-family="Helvetica,sans-Serif" font-size="10.00">+ virtual void Die()</text>
<text text-anchor="start" x="954.5" y="-128.5" font-family="Helvetica,sans-Serif" font-size="10.00">+ void DestroyNow()</text>
<text text-anchor="start" x="954.5" y="-117.5" font-family="Helvetica,sans-Serif" font-size="10.00">+ void DestroyNow(GameObject</text>
<text text-anchor="start" x="954.5" y="-106.5" font-family="Helvetica,sans-Serif" font-size="10.00"> lapida)</text>
<text text-anchor="start" x="954.5" y="-95.5" font-family="Helvetica,sans-Serif" font-size="10.00">+ bool CanCharacterInteract()</text>
<text text-anchor="start" x="954.5" y="-84.5" font-family="Helvetica,sans-Serif" font-size="10.00">+ bool IsDead()</text>
<text text-anchor="start" x="954.5" y="-73.5" font-family="Helvetica,sans-Serif" font-size="10.00"># virtual void Start()</text>
<text text-anchor="start" x="954.5" y="-62.5" font-family="Helvetica,sans-Serif" font-size="10.00"># virtual void Update()</text>
<text text-anchor="start" x="954.5" y="-51.5" font-family="Helvetica,sans-Serif" font-size="10.00"># virtual void OnDrawGizmos()</text>
<text text-anchor="start" x="954.5" y="-40.5" font-family="Helvetica,sans-Serif" font-size="10.00"># void MoveOnDamaged</text>
<text text-anchor="start" x="954.5" y="-29.5" font-family="Helvetica,sans-Serif" font-size="10.00">(int direction, Vector2</text>
<text text-anchor="start" x="954.5" y="-18.5" font-family="Helvetica,sans-Serif" font-size="10.00"> moveOnDamagedForce)</text>
<text text-anchor="start" x="954.5" y="-7.5" font-family="Helvetica,sans-Serif" font-size="10.00"># IEnumerator DamageEffect()</text>
</a>
</g>
</g>
<!-- Node2 -->
<g id="node2" class="node">
<title>Node2</title>
<g id="a_node2"><a xlink:href="interface_controllers_1_1_i_damageable.html" target="_top" xlink:title="Interfaz para todos los NPCs/Enemigos/Objetos que pueden ser daniados.">
<polygon fill="none" stroke="black" points="0,-1134.5 0,-1235.5 148,-1235.5 148,-1134.5 0,-1134.5"/>
<text text-anchor="middle" x="74" y="-1223.5" font-family="Helvetica,sans-Serif" font-size="10.00">IDamageable</text>
<polyline fill="none" stroke="black" points="0,-1216.5 148,-1216.5 "/>
<text text-anchor="middle" x="74" y="-1204.5" font-family="Helvetica,sans-Serif" font-size="10.00"> </text>
<polyline fill="none" stroke="black" points="0,-1197.5 148,-1197.5 "/>
<text text-anchor="start" x="8" y="-1185.5" font-family="Helvetica,sans-Serif" font-size="10.00">+ void Damage(BaseController</text>
<text text-anchor="start" x="8" y="-1174.5" font-family="Helvetica,sans-Serif" font-size="10.00"> controller, DamageInfo</text>
<text text-anchor="start" x="8" y="-1163.5" font-family="Helvetica,sans-Serif" font-size="10.00"> damageInfo)</text>
<text text-anchor="start" x="8" y="-1152.5" font-family="Helvetica,sans-Serif" font-size="10.00">+ void Damage(DamageInfo</text>
<text text-anchor="start" x="8" y="-1141.5" font-family="Helvetica,sans-Serif" font-size="10.00"> damageInfo)</text>
</a>
</g>
</g>
<!-- Node2&#45;&gt;Node1 -->
<g id="edge1" class="edge">
<title>Node2&#45;&gt;Node1</title>
<path fill="none" stroke="midnightblue" d="M60.06,-1124.38C41.76,-1031.86 19.49,-850.85 89,-721 257.63,-405.96 746.21,-346.18 946.15,-335"/>
<polygon fill="none" stroke="midnightblue" points="56.68,-1125.31 62.1,-1134.41 63.54,-1123.91 56.68,-1125.31"/>
</g>
<!-- Node19 -->
<g id="node19" class="node">
<title>Node19</title>
<g id="a_node19"><a xlink:href="class_player_1_1_player_controller.html" target="_top" xlink:title=" ">
<polygon fill="none" stroke="black" points="235,-721.5 235,-1020.5 385,-1020.5 385,-721.5 235,-721.5"/>
<text text-anchor="middle" x="310" y="-1008.5" font-family="Helvetica,sans-Serif" font-size="10.00">Player.PlayerController</text>
<polyline fill="none" stroke="black" points="235,-1001.5 385,-1001.5 "/>
<text text-anchor="middle" x="310" y="-989.5" font-family="Helvetica,sans-Serif" font-size="10.00"> </text>
<polyline fill="none" stroke="black" points="235,-982.5 385,-982.5 "/>
<text text-anchor="start" x="243" y="-970.5" font-family="Helvetica,sans-Serif" font-size="10.00">+ void Damage(BaseController</text>
<text text-anchor="start" x="243" y="-959.5" font-family="Helvetica,sans-Serif" font-size="10.00"> controller, DamageInfo</text>
<text text-anchor="start" x="243" y="-948.5" font-family="Helvetica,sans-Serif" font-size="10.00"> damageInfo)</text>
<text text-anchor="start" x="243" y="-937.5" font-family="Helvetica,sans-Serif" font-size="10.00">+ void Damage(DamageInfo</text>
<text text-anchor="start" x="243" y="-926.5" font-family="Helvetica,sans-Serif" font-size="10.00"> damageInfo)</text>
<text text-anchor="start" x="243" y="-915.5" font-family="Helvetica,sans-Serif" font-size="10.00">+ void ExitInteractionMode()</text>
<text text-anchor="start" x="243" y="-904.5" font-family="Helvetica,sans-Serif" font-size="10.00">+ void EnterInteractionMode()</text>
<text text-anchor="start" x="243" y="-893.5" font-family="Helvetica,sans-Serif" font-size="10.00">+ int GetFacingDirection()</text>
<text text-anchor="start" x="243" y="-882.5" font-family="Helvetica,sans-Serif" font-size="10.00">+ void LandEvt()</text>
<text text-anchor="start" x="243" y="-871.5" font-family="Helvetica,sans-Serif" font-size="10.00">+ void OnAirEvt()</text>
<text text-anchor="start" x="243" y="-860.5" font-family="Helvetica,sans-Serif" font-size="10.00">+ bool IsFacingRight()</text>
<text text-anchor="start" x="243" y="-849.5" font-family="Helvetica,sans-Serif" font-size="10.00">+ void AddEffect(EEffectKind</text>
<text text-anchor="start" x="243" y="-838.5" font-family="Helvetica,sans-Serif" font-size="10.00"> kind, float lifetime)</text>
<text text-anchor="start" x="243" y="-827.5" font-family="Helvetica,sans-Serif" font-size="10.00">+ void AddPowerUp(EPowerUp</text>
<text text-anchor="start" x="243" y="-816.5" font-family="Helvetica,sans-Serif" font-size="10.00">Kind kind)</text>
<text text-anchor="start" x="243" y="-805.5" font-family="Helvetica,sans-Serif" font-size="10.00">+ void AnimStartPrayingEvt()</text>
<text text-anchor="start" x="243" y="-794.5" font-family="Helvetica,sans-Serif" font-size="10.00">+ void AnimRollEndEvt()</text>
<text text-anchor="start" x="243" y="-783.5" font-family="Helvetica,sans-Serif" font-size="10.00">+ void AnimFootStep1Evt()</text>
<text text-anchor="start" x="243" y="-772.5" font-family="Helvetica,sans-Serif" font-size="10.00">+ void AnimFootStep2Evt()</text>
<text text-anchor="start" x="243" y="-761.5" font-family="Helvetica,sans-Serif" font-size="10.00">+ void KrownsAdded()</text>
<text text-anchor="start" x="243" y="-750.5" font-family="Helvetica,sans-Serif" font-size="10.00">+ void KrownsRemoved()</text>
<text text-anchor="start" x="243" y="-739.5" font-family="Helvetica,sans-Serif" font-size="10.00">~ void OnEnable()</text>
<text text-anchor="start" x="243" y="-728.5" font-family="Helvetica,sans-Serif" font-size="10.00">~ void OnDisable()</text>
</a>
</g>
</g>
<!-- Node2&#45;&gt;Node19 -->
<g id="edge21" class="edge">
<title>Node2&#45;&gt;Node19</title>
<path fill="none" stroke="midnightblue" d="M101.37,-1125.28C117.67,-1095.84 140.88,-1061.72 170,-1039 188.95,-1024.21 202.4,-1036.22 221,-1021 225.78,-1017.09 230.37,-1012.85 234.76,-1008.36"/>
<polygon fill="none" stroke="midnightblue" points="98.2,-1123.78 96.53,-1134.25 104.36,-1127.11 98.2,-1123.78"/>
</g>
<!-- Node3 -->
<g id="node3" class="node">
<title>Node3</title>
<g id="a_node3"><a xlink:href="interface_interactions_1_1_interfaces_1_1_i_interactive.html" target="_top" xlink:title=" ">
<polygon fill="none" stroke="black" points="804.5,-782 804.5,-960 955.5,-960 955.5,-782 804.5,-782"/>
<text text-anchor="middle" x="880" y="-948" font-family="Helvetica,sans-Serif" font-size="10.00">IInteractive</text>
<polyline fill="none" stroke="black" points="804.5,-941 955.5,-941 "/>
<text text-anchor="middle" x="880" y="-929" font-family="Helvetica,sans-Serif" font-size="10.00"> </text>
<polyline fill="none" stroke="black" points="804.5,-922 955.5,-922 "/>
<text text-anchor="start" x="812.5" y="-910" font-family="Helvetica,sans-Serif" font-size="10.00">+ bool Interact(BaseController</text>
<text text-anchor="start" x="812.5" y="-899" font-family="Helvetica,sans-Serif" font-size="10.00"> controller, EInteractionKind</text>
<text text-anchor="start" x="812.5" y="-888" font-family="Helvetica,sans-Serif" font-size="10.00"> interactionKind)</text>
<text text-anchor="start" x="812.5" y="-877" font-family="Helvetica,sans-Serif" font-size="10.00">+ bool Interact(PlayerController</text>
<text text-anchor="start" x="812.5" y="-866" font-family="Helvetica,sans-Serif" font-size="10.00"> controller, EInteractionKind</text>
<text text-anchor="start" x="812.5" y="-855" font-family="Helvetica,sans-Serif" font-size="10.00"> interactionKind)</text>
<text text-anchor="start" x="812.5" y="-844" font-family="Helvetica,sans-Serif" font-size="10.00">+ void ReadyToInteract</text>
<text text-anchor="start" x="812.5" y="-833" font-family="Helvetica,sans-Serif" font-size="10.00">(PlayerController controller,</text>
<text text-anchor="start" x="812.5" y="-822" font-family="Helvetica,sans-Serif" font-size="10.00"> bool isReady)</text>
<text text-anchor="start" x="812.5" y="-811" font-family="Helvetica,sans-Serif" font-size="10.00">+ void ReadyToInteract</text>
<text text-anchor="start" x="812.5" y="-800" font-family="Helvetica,sans-Serif" font-size="10.00">(BaseController controller,</text>
<text text-anchor="start" x="812.5" y="-789" font-family="Helvetica,sans-Serif" font-size="10.00"> bool isReady)</text>
</a>
</g>
</g>
<!-- Node3&#45;&gt;Node1 -->
<g id="edge2" class="edge">
<title>Node3&#45;&gt;Node1</title>
<path fill="none" stroke="midnightblue" d="M907.87,-772.08C919.01,-732.95 932.5,-685.57 946.44,-636.59"/>
<polygon fill="none" stroke="midnightblue" points="904.47,-771.27 905.09,-781.84 911.2,-773.18 904.47,-771.27"/>
</g>
<!-- Node4 -->
<g id="node4" class="node">
<title>Node4</title>
<g id="a_node4"><a xlink:title=" ">
<polygon fill="none" stroke="#bfbfbf" points="973.5,-842.5 973.5,-899.5 1044.5,-899.5 1044.5,-842.5 973.5,-842.5"/>
<text text-anchor="middle" x="1009" y="-887.5" font-family="Helvetica,sans-Serif" font-size="10.00">Rigidbody2D</text>
<polyline fill="none" stroke="#bfbfbf" points="973.5,-880.5 1044.5,-880.5 "/>
<text text-anchor="middle" x="1009" y="-868.5" font-family="Helvetica,sans-Serif" font-size="10.00"> </text>
<polyline fill="none" stroke="#bfbfbf" points="973.5,-861.5 1044.5,-861.5 "/>
<text text-anchor="middle" x="1009" y="-849.5" font-family="Helvetica,sans-Serif" font-size="10.00"> </text>
</a>
</g>
</g>
<!-- Node4&#45;&gt;Node1 -->
<g id="edge3" class="edge">
<title>Node4&#45;&gt;Node1</title>
<path fill="none" stroke="#404040" d="M1008.13,-842.23C1007.14,-809.09 1005.59,-752.01 1005,-703 1004.89,-693.7 1004.88,-684.28 1004.96,-674.77"/>
<polygon fill="none" stroke="#404040" points="1004.96,-674.68 1001.03,-668.63 1005.11,-662.68 1009.03,-668.73 1004.96,-674.68"/>
<text text-anchor="middle" x="1022.5" y="-689.5" font-family="Helvetica,sans-Serif" font-size="10.00"> ~rBody</text>
</g>
<!-- Node5 -->
<g id="node5" class="node">
<title>Node5</title>
<g id="a_node5"><a xlink:title=" ">
<polygon fill="none" stroke="#bfbfbf" points="1063,-842.5 1063,-899.5 1119,-899.5 1119,-842.5 1063,-842.5"/>
<text text-anchor="middle" x="1091" y="-887.5" font-family="Helvetica,sans-Serif" font-size="10.00">Animator</text>
<polyline fill="none" stroke="#bfbfbf" points="1063,-880.5 1119,-880.5 "/>
<text text-anchor="middle" x="1091" y="-868.5" font-family="Helvetica,sans-Serif" font-size="10.00"> </text>
<polyline fill="none" stroke="#bfbfbf" points="1063,-861.5 1119,-861.5 "/>
<text text-anchor="middle" x="1091" y="-849.5" font-family="Helvetica,sans-Serif" font-size="10.00"> </text>
</a>
</g>
</g>
<!-- Node5&#45;&gt;Node1 -->
<g id="edge4" class="edge">
<title>Node5&#45;&gt;Node1</title>
<path fill="none" stroke="#404040" d="M1085.62,-842.33C1079.36,-809.29 1069.12,-752.3 1063,-703 1061.85,-693.77 1060.74,-684.4 1059.67,-674.95"/>
<polygon fill="none" stroke="#404040" points="1059.65,-674.85 1055.01,-669.33 1058.32,-662.92 1062.96,-668.44 1059.65,-674.85"/>
<text text-anchor="middle" x="1107" y="-689.5" font-family="Helvetica,sans-Serif" font-size="10.00"> #characterAnimator</text>
</g>
<!-- Node6 -->
<g id="node6" class="node">
<title>Node6</title>
<g id="a_node6"><a xlink:title=" ">
<polygon fill="none" stroke="#bfbfbf" points="1137.5,-842.5 1137.5,-899.5 1208.5,-899.5 1208.5,-842.5 1137.5,-842.5"/>
<text text-anchor="middle" x="1173" y="-887.5" font-family="Helvetica,sans-Serif" font-size="10.00">GameObject</text>
<polyline fill="none" stroke="#bfbfbf" points="1137.5,-880.5 1208.5,-880.5 "/>
<text text-anchor="middle" x="1173" y="-868.5" font-family="Helvetica,sans-Serif" font-size="10.00"> </text>
<polyline fill="none" stroke="#bfbfbf" points="1137.5,-861.5 1208.5,-861.5 "/>
<text text-anchor="middle" x="1173" y="-849.5" font-family="Helvetica,sans-Serif" font-size="10.00"> </text>
</a>
</g>
</g>
<!-- Node6&#45;&gt;Node1 -->
<g id="edge5" class="edge">
<title>Node6&#45;&gt;Node1</title>
<path fill="none" stroke="#404040" d="M1171.61,-842.47C1169.34,-805.4 1163.72,-737.56 1151,-681 1143.38,-647.12 1133.68,-611.92 1123.12,-577.49"/>
<polygon fill="none" stroke="#404040" points="1123.07,-577.3 1117.47,-572.76 1119.51,-565.84 1125.11,-570.39 1123.07,-577.3"/>
<text text-anchor="middle" x="1192.5" y="-695" font-family="Helvetica,sans-Serif" font-size="10.00"> #dialogueBubble</text>
<text text-anchor="middle" x="1192.5" y="-684" font-family="Helvetica,sans-Serif" font-size="10.00">#hitParticles</text>
</g>
<!-- Node7 -->
<g id="node7" class="node">
<title>Node7</title>
<g id="a_node7"><a xlink:href="class_controllers_1_1_state_machine_1_1_states_1_1_data_1_1_controller_data.html" target="_top" xlink:title=" ">
<polygon fill="none" stroke="black" points="547.5,-837 547.5,-905 680.5,-905 680.5,-837 547.5,-837"/>
<text text-anchor="start" x="555.5" y="-893" font-family="Helvetica,sans-Serif" font-size="10.00">Controllers.StateMachine.</text>
<text text-anchor="middle" x="614" y="-882" font-family="Helvetica,sans-Serif" font-size="10.00">States.Data.ControllerData</text>
<polyline fill="none" stroke="black" points="547.5,-875 680.5,-875 "/>
<text text-anchor="middle" x="614" y="-863" font-family="Helvetica,sans-Serif" font-size="10.00"> </text>
<polyline fill="none" stroke="black" points="547.5,-856 680.5,-856 "/>
<text text-anchor="middle" x="614" y="-844" font-family="Helvetica,sans-Serif" font-size="10.00"> </text>
</a>
</g>
</g>
<!-- Node7&#45;&gt;Node1 -->
<g id="edge6" class="edge">
<title>Node7&#45;&gt;Node1</title>
<path fill="none" stroke="#404040" d="M616.31,-836.77C620.31,-797.25 631.11,-730.42 660,-681 729.23,-562.58 851.11,-459.96 936.65,-397.32"/>
<polygon fill="none" stroke="#404040" points="936.67,-397.31 939.17,-390.55 946.38,-390.26 943.87,-397.02 936.67,-397.31"/>
<text text-anchor="middle" x="681.5" y="-689.5" font-family="Helvetica,sans-Serif" font-size="10.00"> +ctrlData</text>
</g>
<!-- Node8 -->
<g id="node8" class="node">
<title>Node8</title>
<g id="a_node8"><a xlink:href="class_scriptable_object.html" target="_top" xlink:title=" ">
<polygon fill="none" stroke="black" points="512.5,-1156.5 512.5,-1213.5 601.5,-1213.5 601.5,-1156.5 512.5,-1156.5"/>
<text text-anchor="middle" x="557" y="-1201.5" font-family="Helvetica,sans-Serif" font-size="10.00">ScriptableObject</text>
<polyline fill="none" stroke="black" points="512.5,-1194.5 601.5,-1194.5 "/>
<text text-anchor="middle" x="557" y="-1182.5" font-family="Helvetica,sans-Serif" font-size="10.00"> </text>
<polyline fill="none" stroke="black" points="512.5,-1175.5 601.5,-1175.5 "/>
<text text-anchor="middle" x="557" y="-1163.5" font-family="Helvetica,sans-Serif" font-size="10.00"> </text>
</a>
</g>
</g>
<!-- Node8&#45;&gt;Node7 -->
<g id="edge7" class="edge">
<title>Node8&#45;&gt;Node7</title>
<path fill="none" stroke="midnightblue" d="M566.99,-1146.4C569.44,-1136.55 571.95,-1125.91 574,-1116 589.46,-1041.17 602.76,-952.44 609.43,-905.31"/>
<polygon fill="none" stroke="midnightblue" points="563.54,-1145.77 564.47,-1156.33 570.32,-1147.5 563.54,-1145.77"/>
</g>
<!-- Node9 -->
<g id="node9" class="node">
<title>Node9</title>
<g id="a_node9"><a xlink:title=" ">
<polygon fill="none" stroke="#bfbfbf" points="166.5,-1156.5 166.5,-1213.5 201.5,-1213.5 201.5,-1156.5 166.5,-1156.5"/>
<text text-anchor="middle" x="184" y="-1201.5" font-family="Helvetica,sans-Serif" font-size="10.00">float</text>
<polyline fill="none" stroke="#bfbfbf" points="166.5,-1194.5 201.5,-1194.5 "/>
<text text-anchor="middle" x="184" y="-1182.5" font-family="Helvetica,sans-Serif" font-size="10.00"> </text>
<polyline fill="none" stroke="#bfbfbf" points="166.5,-1175.5 201.5,-1175.5 "/>
<text text-anchor="middle" x="184" y="-1163.5" font-family="Helvetica,sans-Serif" font-size="10.00"> </text>
</a>
</g>
</g>
<!-- Node9&#45;&gt;Node1 -->
<g id="edge14" class="edge">
<title>Node9&#45;&gt;Node1</title>
<path fill="none" stroke="#404040" d="M169.59,-1156.37C131.88,-1079.89 39.43,-861.73 132,-721 314.27,-443.91 740.46,-363.58 934.11,-341"/>
<polygon fill="none" stroke="#404040" points="934.32,-340.97 939.83,-336.32 946.24,-339.62 940.73,-344.27 934.32,-340.97"/>
<text text-anchor="middle" x="179" y="-874" font-family="Helvetica,sans-Serif" font-size="10.00"> #moveOnAttackStart</text>
<text text-anchor="middle" x="179" y="-863" font-family="Helvetica,sans-Serif" font-size="10.00">+deadMaxWait</text>
</g>
<!-- Node9&#45;&gt;Node7 -->
<g id="edge8" class="edge">
<title>Node9&#45;&gt;Node7</title>
<path fill="none" stroke="#404040" d="M201.77,-1177.72C230.15,-1167.79 287.57,-1148.15 337,-1134 369.13,-1124.8 383.74,-1136.66 410,-1116 440.31,-1092.15 419.62,-1062.75 450,-1039 477,-1017.88 497.38,-1041.31 525,-1021 560.4,-994.98 584.34,-950.26 598.4,-916.59"/>
<polygon fill="none" stroke="#404040" points="598.51,-916.33 597.02,-909.27 602.96,-905.19 604.45,-912.24 598.51,-916.33"/>
<text text-anchor="middle" x="510" y="-1102.5" font-family="Helvetica,sans-Serif" font-size="10.00"> +groundCheckDistance</text>
<text text-anchor="middle" x="510" y="-1091.5" font-family="Helvetica,sans-Serif" font-size="10.00">+ledgeCheckDistacne</text>
<text text-anchor="middle" x="510" y="-1080.5" font-family="Helvetica,sans-Serif" font-size="10.00">+playerLongRangeDistance</text>
<text text-anchor="middle" x="510" y="-1069.5" font-family="Helvetica,sans-Serif" font-size="10.00">+playerNearRangeDistance</text>
<text text-anchor="middle" x="510" y="-1058.5" font-family="Helvetica,sans-Serif" font-size="10.00">+topCheckDistance</text>
<text text-anchor="middle" x="510" y="-1047.5" font-family="Helvetica,sans-Serif" font-size="10.00">+wallCheckDistance</text>
</g>
<!-- Node9&#45;&gt;Node19 -->
<g id="edge22" class="edge">
<title>Node9&#45;&gt;Node19</title>
<path fill="none" stroke="#404040" d="M177.74,-1156.39C172.3,-1125.45 168.32,-1074.92 190,-1039 198.23,-1025.36 209.66,-1032.2 221,-1021 222.96,-1019.06 224.89,-1017.08 226.8,-1015.04"/>
<polygon fill="none" stroke="#404040" points="227,-1014.82 228,-1007.68 234.98,-1005.86 233.98,-1013 227,-1014.82"/>
<text text-anchor="middle" x="240.5" y="-1080.5" font-family="Helvetica,sans-Serif" font-size="10.00"> #interactionRadius</text>
<text text-anchor="middle" x="240.5" y="-1069.5" font-family="Helvetica,sans-Serif" font-size="10.00">+specialMoveWaitTime</text>
</g>
<!-- Node10 -->
<g id="node10" class="node">
<title>Node10</title>
<g id="a_node10"><a xlink:title=" ">
<polygon fill="none" stroke="#bfbfbf" points="619.5,-1156.5 619.5,-1213.5 684.5,-1213.5 684.5,-1156.5 619.5,-1156.5"/>
<text text-anchor="middle" x="652" y="-1201.5" font-family="Helvetica,sans-Serif" font-size="10.00">LayerMask</text>
<polyline fill="none" stroke="#bfbfbf" points="619.5,-1194.5 684.5,-1194.5 "/>
<text text-anchor="middle" x="652" y="-1182.5" font-family="Helvetica,sans-Serif" font-size="10.00"> </text>
<polyline fill="none" stroke="#bfbfbf" points="619.5,-1175.5 684.5,-1175.5 "/>
<text text-anchor="middle" x="652" y="-1163.5" font-family="Helvetica,sans-Serif" font-size="10.00"> </text>
</a>
</g>
</g>
<!-- Node10&#45;&gt;Node7 -->
<g id="edge9" class="edge">
<title>Node10&#45;&gt;Node7</title>
<path fill="none" stroke="#404040" d="M636.94,-1156.38C631.14,-1144.34 625.15,-1129.84 622,-1116 606.53,-1048.14 607.62,-966.95 610.38,-917.44"/>
<polygon fill="none" stroke="#404040" points="610.39,-917.24 606.77,-911.01 611.13,-905.27 614.76,-911.5 610.39,-917.24"/>
<text text-anchor="middle" x="656.5" y="-1075" font-family="Helvetica,sans-Serif" font-size="10.00"> +whatIsGround</text>
</g>
<!-- Node11 -->
<g id="node11" class="node">
<title>Node11</title>
<g id="a_node11"><a xlink:title=" ">
<polygon fill="none" stroke="#bfbfbf" points="788.5,-1156.5 788.5,-1213.5 817.5,-1213.5 817.5,-1156.5 788.5,-1156.5"/>
<text text-anchor="middle" x="803" y="-1201.5" font-family="Helvetica,sans-Serif" font-size="10.00">int</text>
<polyline fill="none" stroke="#bfbfbf" points="788.5,-1194.5 817.5,-1194.5 "/>
<text text-anchor="middle" x="803" y="-1182.5" font-family="Helvetica,sans-Serif" font-size="10.00"> </text>
<polyline fill="none" stroke="#bfbfbf" points="788.5,-1175.5 817.5,-1175.5 "/>
<text text-anchor="middle" x="803" y="-1163.5" font-family="Helvetica,sans-Serif" font-size="10.00"> </text>
</a>
</g>
</g>
<!-- Node11&#45;&gt;Node1 -->
<g id="edge17" class="edge">
<title>Node11&#45;&gt;Node1</title>
<path fill="none" stroke="#404040" d="M817.71,-1176.25C836.25,-1165.54 867.24,-1144.29 880,-1116 894.07,-1084.8 902.74,-1064.57 880,-1039 834.5,-987.83 772.5,-1072.17 727,-1021 682.7,-971.18 705.17,-783.99 727,-721 768.53,-601.14 864.05,-490.23 937.4,-417.86"/>
<polygon fill="none" stroke="#404040" points="937.65,-417.62 939.15,-410.56 946.23,-409.23 944.74,-416.28 937.65,-417.62"/>
<text text-anchor="middle" x="761.5" y="-874" font-family="Helvetica,sans-Serif" font-size="10.00"> +KrownReward</text>
<text text-anchor="middle" x="761.5" y="-863" font-family="Helvetica,sans-Serif" font-size="10.00">+currentHealth</text>
</g>
<!-- Node11&#45;&gt;Node7 -->
<g id="edge10" class="edge">
<title>Node11&#45;&gt;Node7</title>
<path fill="none" stroke="#404040" d="M802.45,-1156.41C801.12,-1119.13 796.57,-1055.46 781,-1039 754.17,-1010.63 726.33,-1044.31 695,-1021 660.45,-995.3 638.94,-950.33 626.85,-916.5"/>
<polygon fill="none" stroke="#404040" points="626.82,-916.41 621.1,-912.02 622.96,-905.05 628.67,-909.44 626.82,-916.41"/>
<text text-anchor="middle" x="837.5" y="-1080.5" font-family="Helvetica,sans-Serif" font-size="10.00"> +generalDamage</text>
<text text-anchor="middle" x="837.5" y="-1069.5" font-family="Helvetica,sans-Serif" font-size="10.00">+maxHealth</text>
</g>
<!-- Node11&#45;&gt;Node19 -->
<g id="edge23" class="edge">
<title>Node11&#45;&gt;Node19</title>
<path fill="none" stroke="#404040" d="M788.23,-1177.32C767.46,-1167.13 729.94,-1145.74 710,-1116 690.37,-1086.72 718.07,-1061.58 691,-1039 641.08,-997.36 454.53,-1054.81 399,-1021 397.62,-1020.16 396.27,-1019.3 394.93,-1018.4"/>
<polygon fill="none" stroke="#404040" points="394.64,-1018.19 387.44,-1017.8 385.03,-1011 392.23,-1011.39 394.64,-1018.19"/>
<text text-anchor="middle" x="743.5" y="-1080.5" font-family="Helvetica,sans-Serif" font-size="10.00"> +currentHealth</text>
<text text-anchor="middle" x="743.5" y="-1069.5" font-family="Helvetica,sans-Serif" font-size="10.00">+maxHealth</text>
</g>
<!-- Node12 -->
<g id="node12" class="node">
<title>Node12</title>
<g id="a_node12"><a xlink:title=" ">
<polygon fill="none" stroke="#bfbfbf" points="1226.5,-842.5 1226.5,-899.5 1315.5,-899.5 1315.5,-842.5 1226.5,-842.5"/>
<text text-anchor="middle" x="1271" y="-887.5" font-family="Helvetica,sans-Serif" font-size="10.00">ECharacterState</text>
<polyline fill="none" stroke="#bfbfbf" points="1226.5,-880.5 1315.5,-880.5 "/>
<text text-anchor="middle" x="1271" y="-868.5" font-family="Helvetica,sans-Serif" font-size="10.00"> </text>
<polyline fill="none" stroke="#bfbfbf" points="1226.5,-861.5 1315.5,-861.5 "/>
<text text-anchor="middle" x="1271" y="-849.5" font-family="Helvetica,sans-Serif" font-size="10.00"> </text>
</a>
</g>
</g>
<!-- Node12&#45;&gt;Node1 -->
<g id="edge11" class="edge">
<title>Node12&#45;&gt;Node1</title>
<path fill="none" stroke="#404040" d="M1268.46,-842.31C1264.38,-804.78 1254.63,-736.11 1234,-681 1206.51,-607.58 1164.48,-531.54 1125.95,-469.29"/>
<polygon fill="none" stroke="#404040" points="1125.9,-469.21 1119.33,-466.24 1119.55,-459.03 1126.12,-462 1125.9,-469.21"/>
<text text-anchor="middle" x="1271" y="-689.5" font-family="Helvetica,sans-Serif" font-size="10.00"> #currentState</text>
</g>
<!-- Node13 -->
<g id="node13" class="node">
<title>Node13</title>
<g id="a_node13"><a xlink:title=" ">
<polygon fill="none" stroke="#bfbfbf" points="1333.5,-842.5 1333.5,-899.5 1396.5,-899.5 1396.5,-842.5 1333.5,-842.5"/>
<text text-anchor="middle" x="1365" y="-887.5" font-family="Helvetica,sans-Serif" font-size="10.00">UnityEvent</text>
<polyline fill="none" stroke="#bfbfbf" points="1333.5,-880.5 1396.5,-880.5 "/>
<text text-anchor="middle" x="1365" y="-868.5" font-family="Helvetica,sans-Serif" font-size="10.00"> </text>
<polyline fill="none" stroke="#bfbfbf" points="1333.5,-861.5 1396.5,-861.5 "/>
<text text-anchor="middle" x="1365" y="-849.5" font-family="Helvetica,sans-Serif" font-size="10.00"> </text>
</a>
</g>
</g>
<!-- Node13&#45;&gt;Node1 -->
<g id="edge12" class="edge">
<title>Node13&#45;&gt;Node1</title>
<path fill="none" stroke="#404040" d="M1359.16,-842.35C1352.4,-812.08 1340.23,-762.35 1325,-721 1283.04,-607.06 1195.99,-498.46 1127.8,-425.2"/>
<polygon fill="none" stroke="#404040" points="1127.79,-425.19 1120.77,-423.56 1119.58,-416.44 1126.6,-418.08 1127.79,-425.19"/>
<text text-anchor="middle" x="1348.5" y="-689.5" font-family="Helvetica,sans-Serif" font-size="10.00"> +OnLandEvent</text>
</g>
<!-- Node14 -->
<g id="node14" class="node">
<title>Node14</title>
<g id="a_node14"><a xlink:href="class_controllers_1_1_movement_1_1_base_movement_controller.html" target="_top" xlink:title=" ">
<polygon fill="none" stroke="black" points="1415,-837 1415,-905 1551,-905 1551,-837 1415,-837"/>
<text text-anchor="start" x="1423" y="-893" font-family="Helvetica,sans-Serif" font-size="10.00">Controllers.Movement.Base</text>
<text text-anchor="middle" x="1483" y="-882" font-family="Helvetica,sans-Serif" font-size="10.00">MovementController</text>
<polyline fill="none" stroke="black" points="1415,-875 1551,-875 "/>
<text text-anchor="middle" x="1483" y="-863" font-family="Helvetica,sans-Serif" font-size="10.00"> </text>
<polyline fill="none" stroke="black" points="1415,-856 1551,-856 "/>
<text text-anchor="middle" x="1483" y="-844" font-family="Helvetica,sans-Serif" font-size="10.00"> </text>
</a>
</g>
</g>
<!-- Node14&#45;&gt;Node1 -->
<g id="edge13" class="edge">
<title>Node14&#45;&gt;Node1</title>
<path fill="none" stroke="#404040" d="M1469.78,-836.76C1453.33,-797.52 1422.87,-731.25 1386,-681 1310.85,-578.58 1205.11,-478.49 1128.98,-412.04"/>
<polygon fill="none" stroke="#404040" points="1128.9,-411.98 1121.75,-411.06 1119.85,-404.11 1127,-405.02 1128.9,-411.98"/>
<text text-anchor="middle" x="1456.5" y="-689.5" font-family="Helvetica,sans-Serif" font-size="10.00"> #baseMovementController</text>
</g>
<!-- Node15 -->
<g id="node15" class="node">
<title>Node15</title>
<g id="a_node15"><a xlink:href="class_controllers_1_1_state_machine_1_1_controller_state_machine.html" target="_top" xlink:title="Controla el estado de un enemigo o NPC, desde que spawnea hasta que muere. Casi todos los metodos son...">
<polygon fill="none" stroke="black" points="1569.5,-820.5 1569.5,-921.5 1698.5,-921.5 1698.5,-820.5 1569.5,-820.5"/>
<text text-anchor="start" x="1577.5" y="-909.5" font-family="Helvetica,sans-Serif" font-size="10.00">Controllers.StateMachine.</text>
<text text-anchor="middle" x="1634" y="-898.5" font-family="Helvetica,sans-Serif" font-size="10.00">ControllerStateMachine</text>
<polyline fill="none" stroke="black" points="1569.5,-891.5 1698.5,-891.5 "/>
<text text-anchor="start" x="1577.5" y="-879.5" font-family="Helvetica,sans-Serif" font-size="10.00">+ State CurrentState</text>
<polyline fill="none" stroke="black" points="1569.5,-872.5 1698.5,-872.5 "/>
<text text-anchor="start" x="1577.5" y="-860.5" font-family="Helvetica,sans-Serif" font-size="10.00">+ void Initialize(State</text>
<text text-anchor="start" x="1577.5" y="-849.5" font-family="Helvetica,sans-Serif" font-size="10.00"> startState)</text>
<text text-anchor="start" x="1577.5" y="-838.5" font-family="Helvetica,sans-Serif" font-size="10.00">+ void ChangeState(State</text>
<text text-anchor="start" x="1577.5" y="-827.5" font-family="Helvetica,sans-Serif" font-size="10.00"> nextState)</text>
</a>
</g>
</g>
<!-- Node15&#45;&gt;Node1 -->
<g id="edge15" class="edge">
<title>Node15&#45;&gt;Node1</title>
<path fill="none" stroke="#404040" d="M1614.51,-820.24C1601.45,-790.05 1582.54,-751.57 1560,-721 1444.7,-564.64 1248.46,-443.89 1130.74,-380.9"/>
<polygon fill="none" stroke="#404040" points="1130.55,-380.8 1123.37,-381.52 1119.95,-375.17 1127.13,-374.45 1130.55,-380.8"/>
<text text-anchor="middle" x="1573" y="-689.5" font-family="Helvetica,sans-Serif" font-size="10.00"> +StateMachine</text>
</g>
<!-- Node16 -->
<g id="node16" class="node">
<title>Node16</title>
<g id="a_node16"><a xlink:title=" ">
<polygon fill="none" stroke="#bfbfbf" points="1717,-842.5 1717,-899.5 1801,-899.5 1801,-842.5 1717,-842.5"/>
<text text-anchor="middle" x="1759" y="-887.5" font-family="Helvetica,sans-Serif" font-size="10.00">EControllerKind</text>
<polyline fill="none" stroke="#bfbfbf" points="1717,-880.5 1801,-880.5 "/>
<text text-anchor="middle" x="1759" y="-868.5" font-family="Helvetica,sans-Serif" font-size="10.00"> </text>
<polyline fill="none" stroke="#bfbfbf" points="1717,-861.5 1801,-861.5 "/>
<text text-anchor="middle" x="1759" y="-849.5" font-family="Helvetica,sans-Serif" font-size="10.00"> </text>
</a>
</g>
</g>
<!-- Node16&#45;&gt;Node1 -->
<g id="edge16" class="edge">
<title>Node16&#45;&gt;Node1</title>
<path fill="none" stroke="#404040" d="M1755.51,-842.43C1750.2,-810.17 1737.38,-756.66 1708,-721 1551.88,-531.51 1277.63,-415.37 1131.38,-363.86"/>
<polygon fill="none" stroke="#404040" points="1131.11,-363.77 1124.13,-365.57 1119.78,-359.82 1126.76,-358.02 1131.11,-363.77"/>
<text text-anchor="middle" x="1714.5" y="-689.5" font-family="Helvetica,sans-Serif" font-size="10.00"> +controllerKind</text>
</g>
<!-- Node17 -->
<g id="node17" class="node">
<title>Node17</title>
<g id="a_node17"><a xlink:title=" ">
<polygon fill="none" stroke="#bfbfbf" points="346.5,-1156.5 346.5,-1213.5 381.5,-1213.5 381.5,-1156.5 346.5,-1156.5"/>
<text text-anchor="middle" x="364" y="-1201.5" font-family="Helvetica,sans-Serif" font-size="10.00">bool</text>
<polyline fill="none" stroke="#bfbfbf" points="346.5,-1194.5 381.5,-1194.5 "/>
<text text-anchor="middle" x="364" y="-1182.5" font-family="Helvetica,sans-Serif" font-size="10.00"> </text>
<polyline fill="none" stroke="#bfbfbf" points="346.5,-1175.5 381.5,-1175.5 "/>
<text text-anchor="middle" x="364" y="-1163.5" font-family="Helvetica,sans-Serif" font-size="10.00"> </text>
</a>
</g>
</g>
<!-- Node17&#45;&gt;Node1 -->
<g id="edge18" class="edge">
<title>Node17&#45;&gt;Node1</title>
<path fill="none" stroke="#404040" d="M381.71,-1161.45C390.61,-1148.81 400.64,-1132.35 406,-1116 460.91,-948.65 347.96,-872.38 438,-721 551.02,-530.98 797.39,-416.62 935.02,-365.1"/>
<polygon fill="none" stroke="#404040" points="935.11,-365.07 939.35,-359.24 946.37,-360.91 942.13,-366.74 935.11,-365.07"/>
<text text-anchor="middle" x="488" y="-890.5" font-family="Helvetica,sans-Serif" font-size="10.00"> #canInteract</text>
<text text-anchor="middle" x="488" y="-879.5" font-family="Helvetica,sans-Serif" font-size="10.00">#dead</text>
<text text-anchor="middle" x="488" y="-868.5" font-family="Helvetica,sans-Serif" font-size="10.00">#isInvencible</text>
<text text-anchor="middle" x="488" y="-857.5" font-family="Helvetica,sans-Serif" font-size="10.00">#lastGroundDetected</text>
<text text-anchor="middle" x="488" y="-846.5" font-family="Helvetica,sans-Serif" font-size="10.00">#playerFacingDirection</text>
</g>
<!-- Node17&#45;&gt;Node19 -->
<g id="edge24" class="edge">
<title>Node17&#45;&gt;Node19</title>
<path fill="none" stroke="#404040" d="M346.36,-1168.7C333.24,-1156.08 316.39,-1136.9 309,-1116 299.73,-1089.79 295.28,-1060.99 293.78,-1032.64"/>
<polygon fill="none" stroke="#404040" points="293.78,-1032.52 289.55,-1026.67 293.32,-1020.52 297.54,-1026.37 293.78,-1032.52"/>
<text text-anchor="middle" x="357.5" y="-1108" font-family="Helvetica,sans-Serif" font-size="10.00"> +isEnrolledInDialogue</text>
<text text-anchor="middle" x="357.5" y="-1097" font-family="Helvetica,sans-Serif" font-size="10.00">+warpActioned</text>
<text text-anchor="middle" x="357.5" y="-1086" font-family="Helvetica,sans-Serif" font-size="10.00">~moveOnDamaged</text>
<text text-anchor="middle" x="357.5" y="-1075" font-family="Helvetica,sans-Serif" font-size="10.00">~praying</text>
<text text-anchor="middle" x="357.5" y="-1064" font-family="Helvetica,sans-Serif" font-size="10.00">~respawning</text>
<text text-anchor="middle" x="357.5" y="-1053" font-family="Helvetica,sans-Serif" font-size="10.00">~roll</text>
<text text-anchor="middle" x="357.5" y="-1042" font-family="Helvetica,sans-Serif" font-size="10.00">~rollAnim</text>
</g>
<!-- Node18 -->
<g id="node18" class="node">
<title>Node18</title>
<g id="a_node18"><a xlink:title=" ">
<polygon fill="none" stroke="#bfbfbf" points="1819,-842.5 1819,-899.5 1891,-899.5 1891,-842.5 1819,-842.5"/>
<text text-anchor="middle" x="1855" y="-887.5" font-family="Helvetica,sans-Serif" font-size="10.00">AudioSource</text>
<polyline fill="none" stroke="#bfbfbf" points="1819,-880.5 1891,-880.5 "/>
<text text-anchor="middle" x="1855" y="-868.5" font-family="Helvetica,sans-Serif" font-size="10.00"> </text>
<polyline fill="none" stroke="#bfbfbf" points="1819,-861.5 1891,-861.5 "/>
<text text-anchor="middle" x="1855" y="-849.5" font-family="Helvetica,sans-Serif" font-size="10.00"> </text>
</a>
</g>
</g>
<!-- Node18&#45;&gt;Node1 -->
<g id="edge19" class="edge">
<title>Node18&#45;&gt;Node1</title>
<path fill="none" stroke="#404040" d="M1852.13,-842.33C1847.67,-810.46 1836.6,-757.79 1810,-721 1791.86,-695.92 1779.68,-696.68 1753,-681 1538.51,-554.94 1271.62,-434.65 1130.71,-373.78"/>
<polygon fill="none" stroke="#404040" points="1130.57,-373.72 1123.47,-375.02 1119.55,-368.97 1126.64,-367.67 1130.57,-373.72"/>
<text text-anchor="middle" x="1827.5" y="-695" font-family="Helvetica,sans-Serif" font-size="10.00"> #hitAttackSFX1</text>
<text text-anchor="middle" x="1827.5" y="-684" font-family="Helvetica,sans-Serif" font-size="10.00">#hitAttackSFX2</text>
</g>
<!-- Node19&#45;&gt;Node1 -->
<g id="edge20" class="edge">
<title>Node19&#45;&gt;Node1</title>
<path fill="none" stroke="#404040" d="M311.93,-721.28C316.31,-706.91 322.49,-693.17 331,-681 475.31,-474.66 777.81,-384.53 934.39,-350.42"/>
<polygon fill="none" stroke="#404040" points="934.59,-350.38 939.62,-345.21 946.32,-347.87 941.29,-353.03 934.59,-350.38"/>
<text text-anchor="middle" x="369" y="-689.5" font-family="Helvetica,sans-Serif" font-size="10.00"> #playerController</text>
</g>
</g>
</svg>
        <g id="navigator" transform="translate(0 0)" fill="#404254">
                <rect fill="#f2f5e9" fill-opacity="0.5" stroke="#606060" stroke-width=".5" x="0" y="0" width="60" height="60"/>
                <use id="zoomplus" xlink:href="#zoomPlus" x="17" y="9" onmousedown="handleZoom(evt,'in')"/>
                <use id="zoomminus" xlink:href="#zoomMin" x="42" y="9" onmousedown="handleZoom(evt,'out')"/>
                <use id="reset" xlink:href="#resetDef" x="30" y="36" onmousedown="handleReset()"/>
                <g id="arrowUp" xlink:href="#dirArrow" transform="translate(30 24)" onmousedown="handlePan(0,-1)">
                  <use xlink:href="#rim" fill="#404040">
                        <set attributeName="fill" to="#808080" begin="arrowUp.mouseover" end="arrowUp.mouseout"/>
                  </use>
                  <path fill="none" stroke="white" stroke-width="1.5" d="M0,-3.0v7 M-2.5,-0.5L0,-3.0L2.5,-0.5"/>
                </g>
                <g id="arrowRight" xlink:href="#dirArrow" transform="rotate(90) translate(36 -43)" onmousedown="handlePan(1,0)">
                  <use xlink:href="#rim" fill="#404040">
                        <set attributeName="fill" to="#808080" begin="arrowRight.mouseover" end="arrowRight.mouseout"/>
                  </use>
                  <path fill="none" stroke="white" stroke-width="1.5" d="M0,-3.0v7 M-2.5,-0.5L0,-3.0L2.5,-0.5"/>
                </g>
                <g id="arrowDown" xlink:href="#dirArrow" transform="rotate(180) translate(-30 -48)" onmousedown="handlePan(0,1)">
                  <use xlink:href="#rim" fill="#404040">
                        <set attributeName="fill" to="#808080" begin="arrowDown.mouseover" end="arrowDown.mouseout"/>
                  </use>
                  <path fill="none" stroke="white" stroke-width="1.5" d="M0,-3.0v7 M-2.5,-0.5L0,-3.0L2.5,-0.5"/>
                </g>
                <g id="arrowLeft" xlink:href="#dirArrow" transform="rotate(270) translate(-36 17)" onmousedown="handlePan(-1,0)">
                  <use xlink:href="#rim" fill="#404040">
                        <set attributeName="fill" to="#808080" begin="arrowLeft.mouseover" end="arrowLeft.mouseout"/>
                  </use>
                  <path fill="none" stroke="white" stroke-width="1.5" d="M0,-3.0v7 M-2.5,-0.5L0,-3.0L2.5,-0.5"/>
                </g>
        </g>
        <svg viewBox="0 0 15 15" width="100%" height="30px" preserveAspectRatio="xMaxYMin meet">
         <g id="arrow_out" transform="scale(0.3 0.3)">
          <a xlink:href="class_controllers_1_1_base_controller__coll__graph_org.svg" target="_base">
           <rect id="button" ry="5" rx="5" y="6" x="6" height="38" width="38"
                fill="#f2f5e9" fill-opacity="0.5" stroke="#606060" stroke-width="1.0"/>
           <path id="arrow"
             d="M 11.500037,31.436501 C 11.940474,20.09759 22.043105,11.32322 32.158766,21.979434 L 37.068811,17.246167 C 37.068811,17.246167 37.088388,32 37.088388,32 L 22.160133,31.978069 C 22.160133,31.978069 26.997745,27.140456 26.997745,27.140456 C 18.528582,18.264221 13.291696,25.230495 11.500037,31.436501 z"
             style="fill:#404040;"/>
          </a>
         </g>
        </svg>
</svg>
