<?xml version="1.0" encoding="UTF-8" standalone="no"?>
<!DOCTYPE svg PUBLIC "-//W3C//DTD SVG 1.1//EN"
 "http://www.w3.org/Graphics/SVG/1.1/DTD/svg11.dtd">
<!-- Generated by graphviz version 2.48.0 (20210717.1556)
 -->
<!-- Title: Controllers.Froggy.FroggyController Pages: 1 -->
<svg width="1963pt" height="1570pt"
 viewBox="0.00 0.00 1962.50 1570.00" xmlns="http://www.w3.org/2000/svg" xmlns:xlink="http://www.w3.org/1999/xlink">
<g id="graph0" class="graph" transform="scale(1 1) rotate(0) translate(4 1566)">
<title>Controllers.Froggy.FroggyController</title>
<!-- Node1 -->
<g id="node1" class="node">
<title>Node1</title>
<g id="a_node1"><a xlink:title=" ">
<polygon fill="#bfbfbf" stroke="black" points="1423,-0.5 1423,-288.5 1582,-288.5 1582,-0.5 1423,-0.5"/>
<text text-anchor="start" x="1431" y="-276.5" font-family="Helvetica,sans-Serif" font-size="10.00">Controllers.Froggy.Froggy</text>
<text text-anchor="middle" x="1502.5" y="-265.5" font-family="Helvetica,sans-Serif" font-size="10.00">Controller</text>
<polyline fill="none" stroke="black" points="1423,-258.5 1582,-258.5 "/>
<text text-anchor="start" x="1431" y="-246.5" font-family="Helvetica,sans-Serif" font-size="10.00">+ Froggy_IdleState _idleState</text>
<text text-anchor="start" x="1431" y="-235.5" font-family="Helvetica,sans-Serif" font-size="10.00">+ JumpState _jumpState</text>
<text text-anchor="start" x="1431" y="-224.5" font-family="Helvetica,sans-Serif" font-size="10.00">+ Froggy_PrepareAttackState</text>
<text text-anchor="start" x="1431" y="-213.5" font-family="Helvetica,sans-Serif" font-size="10.00"> _prepareAttackState</text>
<text text-anchor="start" x="1431" y="-202.5" font-family="Helvetica,sans-Serif" font-size="10.00">+ Froggy_AttackState</text>
<text text-anchor="start" x="1431" y="-191.5" font-family="Helvetica,sans-Serif" font-size="10.00"> _attackState</text>
<text text-anchor="start" x="1431" y="-180.5" font-family="Helvetica,sans-Serif" font-size="10.00">+ Froggy_DeadState _deadState</text>
<text text-anchor="start" x="1431" y="-169.5" font-family="Helvetica,sans-Serif" font-size="10.00">+ Froggy_DamageState</text>
<text text-anchor="start" x="1431" y="-158.5" font-family="Helvetica,sans-Serif" font-size="10.00"> _damageState</text>
<text text-anchor="start" x="1431" y="-147.5" font-family="Helvetica,sans-Serif" font-size="10.00">+ Froggy_NearAttackState</text>
<text text-anchor="start" x="1431" y="-136.5" font-family="Helvetica,sans-Serif" font-size="10.00"> _nearAttackState</text>
<text text-anchor="start" x="1431" y="-125.5" font-family="Helvetica,sans-Serif" font-size="10.00">+ SuperFroggy_SecondPhase</text>
<text text-anchor="start" x="1431" y="-114.5" font-family="Helvetica,sans-Serif" font-size="10.00"> _superFroggySecondPhase</text>
<polyline fill="none" stroke="black" points="1423,-107.5 1582,-107.5 "/>
<text text-anchor="start" x="1431" y="-95.5" font-family="Helvetica,sans-Serif" font-size="10.00">+ void Anim_OnAttackingAnim</text>
<text text-anchor="start" x="1431" y="-84.5" font-family="Helvetica,sans-Serif" font-size="10.00">Started()</text>
<text text-anchor="start" x="1431" y="-73.5" font-family="Helvetica,sans-Serif" font-size="10.00">+ void SpecialAttack()</text>
<text text-anchor="start" x="1431" y="-62.5" font-family="Helvetica,sans-Serif" font-size="10.00">+ override void Die()</text>
<text text-anchor="start" x="1431" y="-51.5" font-family="Helvetica,sans-Serif" font-size="10.00">+ void EnterPhaseTwo()</text>
<text text-anchor="start" x="1431" y="-40.5" font-family="Helvetica,sans-Serif" font-size="10.00">+ void Explode()</text>
<text text-anchor="start" x="1431" y="-29.5" font-family="Helvetica,sans-Serif" font-size="10.00">+ void PlaceBomb()</text>
<text text-anchor="start" x="1431" y="-18.5" font-family="Helvetica,sans-Serif" font-size="10.00"># override void Start()</text>
<text text-anchor="start" x="1431" y="-7.5" font-family="Helvetica,sans-Serif" font-size="10.00"># override void Update()</text>
</a>
</g>
</g>
<!-- Node2 -->
<g id="node2" class="node">
<title>Node2</title>
<g id="a_node2"><a xlink:href="class_controllers_1_1_base_controller.html" target="_top" xlink:title=" ">
<polygon fill="none" stroke="black" points="806,-326.5 806,-988.5 979,-988.5 979,-326.5 806,-326.5"/>
<text text-anchor="middle" x="892.5" y="-976.5" font-family="Helvetica,sans-Serif" font-size="10.00">BaseController</text>
<polyline fill="none" stroke="black" points="806,-969.5 979,-969.5 "/>
<text text-anchor="start" x="814" y="-957.5" font-family="Helvetica,sans-Serif" font-size="10.00">+ int FacingDirection</text>
<text text-anchor="start" x="814" y="-946.5" font-family="Helvetica,sans-Serif" font-size="10.00">+ bool IsReadyToAttack</text>
<text text-anchor="start" x="814" y="-935.5" font-family="Helvetica,sans-Serif" font-size="10.00">+ bool wallDetected</text>
<text text-anchor="start" x="814" y="-924.5" font-family="Helvetica,sans-Serif" font-size="10.00">+ bool groundDetected</text>
<text text-anchor="start" x="814" y="-913.5" font-family="Helvetica,sans-Serif" font-size="10.00">+ bool topDetected</text>
<polyline fill="none" stroke="black" points="806,-906.5 979,-906.5 "/>
<text text-anchor="start" x="814" y="-894.5" font-family="Helvetica,sans-Serif" font-size="10.00">+ virtual void Damage</text>
<text text-anchor="start" x="814" y="-883.5" font-family="Helvetica,sans-Serif" font-size="10.00">(float amount, int attackN)</text>
<text text-anchor="start" x="814" y="-872.5" font-family="Helvetica,sans-Serif" font-size="10.00">+ virtual void Damage</text>
<text text-anchor="start" x="814" y="-861.5" font-family="Helvetica,sans-Serif" font-size="10.00">(DamageInfo damageInfo)</text>
<text text-anchor="start" x="814" y="-850.5" font-family="Helvetica,sans-Serif" font-size="10.00">+ void Damage(BaseController</text>
<text text-anchor="start" x="814" y="-839.5" font-family="Helvetica,sans-Serif" font-size="10.00"> controller, DamageInfo</text>
<text text-anchor="start" x="814" y="-828.5" font-family="Helvetica,sans-Serif" font-size="10.00"> damageInfo)</text>
<text text-anchor="start" x="814" y="-817.5" font-family="Helvetica,sans-Serif" font-size="10.00">+ void Kill()</text>
<text text-anchor="start" x="814" y="-806.5" font-family="Helvetica,sans-Serif" font-size="10.00">+ bool Interact(BaseController</text>
<text text-anchor="start" x="814" y="-795.5" font-family="Helvetica,sans-Serif" font-size="10.00"> controller, EInteractionKind</text>
<text text-anchor="start" x="814" y="-784.5" font-family="Helvetica,sans-Serif" font-size="10.00"> interactionKind)</text>
<text text-anchor="start" x="814" y="-773.5" font-family="Helvetica,sans-Serif" font-size="10.00">+ virtual bool Interact</text>
<text text-anchor="start" x="814" y="-762.5" font-family="Helvetica,sans-Serif" font-size="10.00">(PlayerController controller,</text>
<text text-anchor="start" x="814" y="-751.5" font-family="Helvetica,sans-Serif" font-size="10.00"> EInteractionKind interactionKind)</text>
<text text-anchor="start" x="814" y="-740.5" font-family="Helvetica,sans-Serif" font-size="10.00">+ void ReadyToInteract</text>
<text text-anchor="start" x="814" y="-729.5" font-family="Helvetica,sans-Serif" font-size="10.00">(PlayerController controller,</text>
<text text-anchor="start" x="814" y="-718.5" font-family="Helvetica,sans-Serif" font-size="10.00"> bool isReady)</text>
<text text-anchor="start" x="814" y="-707.5" font-family="Helvetica,sans-Serif" font-size="10.00">+ void ReadyToInteract</text>
<text text-anchor="start" x="814" y="-696.5" font-family="Helvetica,sans-Serif" font-size="10.00">(BaseController controller,</text>
<text text-anchor="start" x="814" y="-685.5" font-family="Helvetica,sans-Serif" font-size="10.00"> bool isReady)</text>
<text text-anchor="start" x="814" y="-674.5" font-family="Helvetica,sans-Serif" font-size="10.00">+ void Flip()</text>
<text text-anchor="start" x="814" y="-663.5" font-family="Helvetica,sans-Serif" font-size="10.00">+ void SetVelocity(float</text>
<text text-anchor="start" x="814" y="-652.5" font-family="Helvetica,sans-Serif" font-size="10.00"> velocity)</text>
<text text-anchor="start" x="814" y="-641.5" font-family="Helvetica,sans-Serif" font-size="10.00">+ void AddForce(Vector2</text>
<text text-anchor="start" x="814" y="-630.5" font-family="Helvetica,sans-Serif" font-size="10.00"> newForce, bool isImpulse)</text>
<text text-anchor="start" x="814" y="-619.5" font-family="Helvetica,sans-Serif" font-size="10.00">+ void AddTorque(float</text>
<text text-anchor="start" x="814" y="-608.5" font-family="Helvetica,sans-Serif" font-size="10.00"> newTorque, bool isImpulse)</text>
<text text-anchor="start" x="814" y="-597.5" font-family="Helvetica,sans-Serif" font-size="10.00">+ T GetMovementController</text>
<text text-anchor="start" x="814" y="-586.5" font-family="Helvetica,sans-Serif" font-size="10.00">&lt; T &gt;()</text>
<text text-anchor="start" x="814" y="-575.5" font-family="Helvetica,sans-Serif" font-size="10.00">+ Animator GetAnimator()</text>
<text text-anchor="start" x="814" y="-564.5" font-family="Helvetica,sans-Serif" font-size="10.00">+ Transform GetTransfrom()</text>
<text text-anchor="start" x="814" y="-553.5" font-family="Helvetica,sans-Serif" font-size="10.00">+ GameObject GetDialogueBubble()</text>
<text text-anchor="start" x="814" y="-542.5" font-family="Helvetica,sans-Serif" font-size="10.00">+ bool CheckWall()</text>
<text text-anchor="start" x="814" y="-531.5" font-family="Helvetica,sans-Serif" font-size="10.00">+ bool CheckLedge()</text>
<text text-anchor="start" x="814" y="-520.5" font-family="Helvetica,sans-Serif" font-size="10.00">+ bool CheckGround()</text>
<text text-anchor="start" x="814" y="-509.5" font-family="Helvetica,sans-Serif" font-size="10.00">+ bool CheckTop()</text>
<text text-anchor="start" x="814" y="-498.5" font-family="Helvetica,sans-Serif" font-size="10.00">+ bool CheckPlayerInNearRange()</text>
<text text-anchor="start" x="814" y="-487.5" font-family="Helvetica,sans-Serif" font-size="10.00">+ bool CheckPlayerInLongRange()</text>
<text text-anchor="start" x="814" y="-476.5" font-family="Helvetica,sans-Serif" font-size="10.00">+ void CheckTouchDamage()</text>
<text text-anchor="start" x="814" y="-465.5" font-family="Helvetica,sans-Serif" font-size="10.00">+ virtual void Die()</text>
<text text-anchor="start" x="814" y="-454.5" font-family="Helvetica,sans-Serif" font-size="10.00">+ void DestroyNow()</text>
<text text-anchor="start" x="814" y="-443.5" font-family="Helvetica,sans-Serif" font-size="10.00">+ void DestroyNow(GameObject</text>
<text text-anchor="start" x="814" y="-432.5" font-family="Helvetica,sans-Serif" font-size="10.00"> lapida)</text>
<text text-anchor="start" x="814" y="-421.5" font-family="Helvetica,sans-Serif" font-size="10.00">+ bool CanCharacterInteract()</text>
<text text-anchor="start" x="814" y="-410.5" font-family="Helvetica,sans-Serif" font-size="10.00">+ bool IsDead()</text>
<text text-anchor="start" x="814" y="-399.5" font-family="Helvetica,sans-Serif" font-size="10.00"># virtual void Start()</text>
<text text-anchor="start" x="814" y="-388.5" font-family="Helvetica,sans-Serif" font-size="10.00"># virtual void Update()</text>
<text text-anchor="start" x="814" y="-377.5" font-family="Helvetica,sans-Serif" font-size="10.00"># virtual void OnDrawGizmos()</text>
<text text-anchor="start" x="814" y="-366.5" font-family="Helvetica,sans-Serif" font-size="10.00"># void MoveOnDamaged</text>
<text text-anchor="start" x="814" y="-355.5" font-family="Helvetica,sans-Serif" font-size="10.00">(int direction, Vector2</text>
<text text-anchor="start" x="814" y="-344.5" font-family="Helvetica,sans-Serif" font-size="10.00"> moveOnDamagedForce)</text>
<text text-anchor="start" x="814" y="-333.5" font-family="Helvetica,sans-Serif" font-size="10.00"># IEnumerator DamageEffect()</text>
</a>
</g>
</g>
<!-- Node2&#45;&gt;Node1 -->
<g id="edge1" class="edge">
<title>Node2&#45;&gt;Node1</title>
<path fill="none" stroke="midnightblue" d="M987.01,-577.33C1106.67,-477.09 1310.71,-306.17 1422.84,-212.23"/>
<polygon fill="none" stroke="midnightblue" points="984.67,-574.72 979.25,-583.83 989.16,-580.09 984.67,-574.72"/>
</g>
<!-- Node3 -->
<g id="node3" class="node">
<title>Node3</title>
<g id="a_node3"><a xlink:href="interface_controllers_1_1_i_damageable.html" target="_top" xlink:title="Interfaz para todos los NPCs/Enemigos/Objetos que pueden ser daniados.">
<polygon fill="none" stroke="black" points="657.5,-1460.5 657.5,-1561.5 805.5,-1561.5 805.5,-1460.5 657.5,-1460.5"/>
<text text-anchor="middle" x="731.5" y="-1549.5" font-family="Helvetica,sans-Serif" font-size="10.00">IDamageable</text>
<polyline fill="none" stroke="black" points="657.5,-1542.5 805.5,-1542.5 "/>
<text text-anchor="middle" x="731.5" y="-1530.5" font-family="Helvetica,sans-Serif" font-size="10.00"> </text>
<polyline fill="none" stroke="black" points="657.5,-1523.5 805.5,-1523.5 "/>
<text text-anchor="start" x="665.5" y="-1511.5" font-family="Helvetica,sans-Serif" font-size="10.00">+ void Damage(BaseController</text>
<text text-anchor="start" x="665.5" y="-1500.5" font-family="Helvetica,sans-Serif" font-size="10.00"> controller, DamageInfo</text>
<text text-anchor="start" x="665.5" y="-1489.5" font-family="Helvetica,sans-Serif" font-size="10.00"> damageInfo)</text>
<text text-anchor="start" x="665.5" y="-1478.5" font-family="Helvetica,sans-Serif" font-size="10.00">+ void Damage(DamageInfo</text>
<text text-anchor="start" x="665.5" y="-1467.5" font-family="Helvetica,sans-Serif" font-size="10.00"> damageInfo)</text>
</a>
</g>
</g>
<!-- Node3&#45;&gt;Node2 -->
<g id="edge2" class="edge">
<title>Node3&#45;&gt;Node2</title>
<path fill="none" stroke="midnightblue" d="M647.29,-1501.56C602.4,-1493.08 549.05,-1476.07 512.5,-1442 412.15,-1348.47 467.76,-1064.79 475.5,-1047 542.61,-892.76 704.48,-772.05 805.66,-708.35"/>
<polygon fill="none" stroke="midnightblue" points="646.87,-1505.04 657.32,-1503.35 648.09,-1498.15 646.87,-1505.04"/>
</g>
<!-- Node20 -->
<g id="node20" class="node">
<title>Node20</title>
<g id="a_node20"><a xlink:href="class_player_1_1_player_controller.html" target="_top" xlink:title=" ">
<polygon fill="none" stroke="black" points="1077.5,-1047.5 1077.5,-1346.5 1227.5,-1346.5 1227.5,-1047.5 1077.5,-1047.5"/>
<text text-anchor="middle" x="1152.5" y="-1334.5" font-family="Helvetica,sans-Serif" font-size="10.00">Player.PlayerController</text>
<polyline fill="none" stroke="black" points="1077.5,-1327.5 1227.5,-1327.5 "/>
<text text-anchor="middle" x="1152.5" y="-1315.5" font-family="Helvetica,sans-Serif" font-size="10.00"> </text>
<polyline fill="none" stroke="black" points="1077.5,-1308.5 1227.5,-1308.5 "/>
<text text-anchor="start" x="1085.5" y="-1296.5" font-family="Helvetica,sans-Serif" font-size="10.00">+ void Damage(BaseController</text>
<text text-anchor="start" x="1085.5" y="-1285.5" font-family="Helvetica,sans-Serif" font-size="10.00"> controller, DamageInfo</text>
<text text-anchor="start" x="1085.5" y="-1274.5" font-family="Helvetica,sans-Serif" font-size="10.00"> damageInfo)</text>
<text text-anchor="start" x="1085.5" y="-1263.5" font-family="Helvetica,sans-Serif" font-size="10.00">+ void Damage(DamageInfo</text>
<text text-anchor="start" x="1085.5" y="-1252.5" font-family="Helvetica,sans-Serif" font-size="10.00"> damageInfo)</text>
<text text-anchor="start" x="1085.5" y="-1241.5" font-family="Helvetica,sans-Serif" font-size="10.00">+ void ExitInteractionMode()</text>
<text text-anchor="start" x="1085.5" y="-1230.5" font-family="Helvetica,sans-Serif" font-size="10.00">+ void EnterInteractionMode()</text>
<text text-anchor="start" x="1085.5" y="-1219.5" font-family="Helvetica,sans-Serif" font-size="10.00">+ int GetFacingDirection()</text>
<text text-anchor="start" x="1085.5" y="-1208.5" font-family="Helvetica,sans-Serif" font-size="10.00">+ void LandEvt()</text>
<text text-anchor="start" x="1085.5" y="-1197.5" font-family="Helvetica,sans-Serif" font-size="10.00">+ void OnAirEvt()</text>
<text text-anchor="start" x="1085.5" y="-1186.5" font-family="Helvetica,sans-Serif" font-size="10.00">+ bool IsFacingRight()</text>
<text text-anchor="start" x="1085.5" y="-1175.5" font-family="Helvetica,sans-Serif" font-size="10.00">+ void AddEffect(EEffectKind</text>
<text text-anchor="start" x="1085.5" y="-1164.5" font-family="Helvetica,sans-Serif" font-size="10.00"> kind, float lifetime)</text>
<text text-anchor="start" x="1085.5" y="-1153.5" font-family="Helvetica,sans-Serif" font-size="10.00">+ void AddPowerUp(EPowerUp</text>
<text text-anchor="start" x="1085.5" y="-1142.5" font-family="Helvetica,sans-Serif" font-size="10.00">Kind kind)</text>
<text text-anchor="start" x="1085.5" y="-1131.5" font-family="Helvetica,sans-Serif" font-size="10.00">+ void AnimStartPrayingEvt()</text>
<text text-anchor="start" x="1085.5" y="-1120.5" font-family="Helvetica,sans-Serif" font-size="10.00">+ void AnimRollEndEvt()</text>
<text text-anchor="start" x="1085.5" y="-1109.5" font-family="Helvetica,sans-Serif" font-size="10.00">+ void AnimFootStep1Evt()</text>
<text text-anchor="start" x="1085.5" y="-1098.5" font-family="Helvetica,sans-Serif" font-size="10.00">+ void AnimFootStep2Evt()</text>
<text text-anchor="start" x="1085.5" y="-1087.5" font-family="Helvetica,sans-Serif" font-size="10.00">+ void KrownsAdded()</text>
<text text-anchor="start" x="1085.5" y="-1076.5" font-family="Helvetica,sans-Serif" font-size="10.00">+ void KrownsRemoved()</text>
<text text-anchor="start" x="1085.5" y="-1065.5" font-family="Helvetica,sans-Serif" font-size="10.00">~ void OnEnable()</text>
<text text-anchor="start" x="1085.5" y="-1054.5" font-family="Helvetica,sans-Serif" font-size="10.00">~ void OnDisable()</text>
</a>
</g>
</g>
<!-- Node3&#45;&gt;Node20 -->
<g id="edge22" class="edge">
<title>Node3&#45;&gt;Node20</title>
<path fill="none" stroke="midnightblue" d="M814.97,-1468.38C874.31,-1439.01 956.01,-1399 1028.5,-1365 1046.15,-1356.72 1054.11,-1360.15 1068.5,-1347 1071.57,-1344.2 1074.55,-1341.25 1077.46,-1338.2"/>
<polygon fill="none" stroke="midnightblue" points="813.05,-1465.43 805.64,-1473 816.16,-1471.7 813.05,-1465.43"/>
</g>
<!-- Node4 -->
<g id="node4" class="node">
<title>Node4</title>
<g id="a_node4"><a xlink:href="interface_interactions_1_1_interfaces_1_1_i_interactive.html" target="_top" xlink:title=" ">
<polygon fill="none" stroke="black" points="1441,-1108 1441,-1286 1592,-1286 1592,-1108 1441,-1108"/>
<text text-anchor="middle" x="1516.5" y="-1274" font-family="Helvetica,sans-Serif" font-size="10.00">IInteractive</text>
<polyline fill="none" stroke="black" points="1441,-1267 1592,-1267 "/>
<text text-anchor="middle" x="1516.5" y="-1255" font-family="Helvetica,sans-Serif" font-size="10.00"> </text>
<polyline fill="none" stroke="black" points="1441,-1248 1592,-1248 "/>
<text text-anchor="start" x="1449" y="-1236" font-family="Helvetica,sans-Serif" font-size="10.00">+ bool Interact(BaseController</text>
<text text-anchor="start" x="1449" y="-1225" font-family="Helvetica,sans-Serif" font-size="10.00"> controller, EInteractionKind</text>
<text text-anchor="start" x="1449" y="-1214" font-family="Helvetica,sans-Serif" font-size="10.00"> interactionKind)</text>
<text text-anchor="start" x="1449" y="-1203" font-family="Helvetica,sans-Serif" font-size="10.00">+ bool Interact(PlayerController</text>
<text text-anchor="start" x="1449" y="-1192" font-family="Helvetica,sans-Serif" font-size="10.00"> controller, EInteractionKind</text>
<text text-anchor="start" x="1449" y="-1181" font-family="Helvetica,sans-Serif" font-size="10.00"> interactionKind)</text>
<text text-anchor="start" x="1449" y="-1170" font-family="Helvetica,sans-Serif" font-size="10.00">+ void ReadyToInteract</text>
<text text-anchor="start" x="1449" y="-1159" font-family="Helvetica,sans-Serif" font-size="10.00">(PlayerController controller,</text>
<text text-anchor="start" x="1449" y="-1148" font-family="Helvetica,sans-Serif" font-size="10.00"> bool isReady)</text>
<text text-anchor="start" x="1449" y="-1137" font-family="Helvetica,sans-Serif" font-size="10.00">+ void ReadyToInteract</text>
<text text-anchor="start" x="1449" y="-1126" font-family="Helvetica,sans-Serif" font-size="10.00">(BaseController controller,</text>
<text text-anchor="start" x="1449" y="-1115" font-family="Helvetica,sans-Serif" font-size="10.00"> bool isReady)</text>
</a>
</g>
</g>
<!-- Node4&#45;&gt;Node2 -->
<g id="edge3" class="edge">
<title>Node4&#45;&gt;Node2</title>
<path fill="none" stroke="midnightblue" d="M1465.68,-1099.04C1454.03,-1080.81 1440.81,-1062.59 1426.5,-1047 1291.22,-899.61 1092.25,-772.65 979.27,-706.74"/>
<polygon fill="none" stroke="midnightblue" points="1463,-1101.36 1471.27,-1107.98 1468.94,-1097.65 1463,-1101.36"/>
</g>
<!-- Node5 -->
<g id="node5" class="node">
<title>Node5</title>
<g id="a_node5"><a xlink:title=" ">
<polygon fill="none" stroke="#bfbfbf" points="1610,-1168.5 1610,-1225.5 1681,-1225.5 1681,-1168.5 1610,-1168.5"/>
<text text-anchor="middle" x="1645.5" y="-1213.5" font-family="Helvetica,sans-Serif" font-size="10.00">Rigidbody2D</text>
<polyline fill="none" stroke="#bfbfbf" points="1610,-1206.5 1681,-1206.5 "/>
<text text-anchor="middle" x="1645.5" y="-1194.5" font-family="Helvetica,sans-Serif" font-size="10.00"> </text>
<polyline fill="none" stroke="#bfbfbf" points="1610,-1187.5 1681,-1187.5 "/>
<text text-anchor="middle" x="1645.5" y="-1175.5" font-family="Helvetica,sans-Serif" font-size="10.00"> </text>
</a>
</g>
</g>
<!-- Node5&#45;&gt;Node2 -->
<g id="edge4" class="edge">
<title>Node5&#45;&gt;Node2</title>
<path fill="none" stroke="#404040" d="M1643.62,-1168.37C1640.12,-1136.06 1630.1,-1082.49 1601.5,-1047 1439.48,-845.96 1144.21,-733.24 990.85,-685.72"/>
<polygon fill="none" stroke="#404040" points="990.63,-685.65 983.72,-687.72 979.16,-682.14 986.07,-680.07 990.63,-685.65"/>
<text text-anchor="middle" x="1590" y="-1015.5" font-family="Helvetica,sans-Serif" font-size="10.00"> ~rBody</text>
</g>
<!-- Node6 -->
<g id="node6" class="node">
<title>Node6</title>
<g id="a_node6"><a xlink:title=" ">
<polygon fill="none" stroke="#bfbfbf" points="90.5,-1168.5 90.5,-1225.5 146.5,-1225.5 146.5,-1168.5 90.5,-1168.5"/>
<text text-anchor="middle" x="118.5" y="-1213.5" font-family="Helvetica,sans-Serif" font-size="10.00">Animator</text>
<polyline fill="none" stroke="#bfbfbf" points="90.5,-1206.5 146.5,-1206.5 "/>
<text text-anchor="middle" x="118.5" y="-1194.5" font-family="Helvetica,sans-Serif" font-size="10.00"> </text>
<polyline fill="none" stroke="#bfbfbf" points="90.5,-1187.5 146.5,-1187.5 "/>
<text text-anchor="middle" x="118.5" y="-1175.5" font-family="Helvetica,sans-Serif" font-size="10.00"> </text>
</a>
</g>
</g>
<!-- Node6&#45;&gt;Node2 -->
<g id="edge5" class="edge">
<title>Node6&#45;&gt;Node2</title>
<path fill="none" stroke="#404040" d="M118.87,-1168.16C120.95,-1127.25 130.88,-1050.98 174.5,-1007 352.96,-827.03 642.97,-726.32 794,-683.49"/>
<polygon fill="none" stroke="#404040" points="794.41,-683.37 799.11,-677.9 805.96,-680.13 801.27,-685.6 794.41,-683.37"/>
<text text-anchor="middle" x="218.5" y="-1015.5" font-family="Helvetica,sans-Serif" font-size="10.00"> #characterAnimator</text>
</g>
<!-- Node7 -->
<g id="node7" class="node">
<title>Node7</title>
<g id="a_node7"><a xlink:title=" ">
<polygon fill="none" stroke="#bfbfbf" points="0,-1168.5 0,-1225.5 71,-1225.5 71,-1168.5 0,-1168.5"/>
<text text-anchor="middle" x="35.5" y="-1213.5" font-family="Helvetica,sans-Serif" font-size="10.00">GameObject</text>
<polyline fill="none" stroke="#bfbfbf" points="0,-1206.5 71,-1206.5 "/>
<text text-anchor="middle" x="35.5" y="-1194.5" font-family="Helvetica,sans-Serif" font-size="10.00"> </text>
<polyline fill="none" stroke="#bfbfbf" points="0,-1187.5 71,-1187.5 "/>
<text text-anchor="middle" x="35.5" y="-1175.5" font-family="Helvetica,sans-Serif" font-size="10.00"> </text>
</a>
</g>
</g>
<!-- Node7&#45;&gt;Node1 -->
<g id="edge26" class="edge">
<title>Node7&#45;&gt;Node1</title>
<path fill="none" stroke="#404040" d="M33.95,-1168.21C32.94,-1129.96 35.21,-1059.84 60.5,-1007 241.01,-629.88 345.97,-532.52 709.5,-326 939,-195.62 1256.18,-159.41 1410.61,-149.36"/>
<polygon fill="none" stroke="#404040" points="1410.81,-149.34 1416.55,-144.98 1422.79,-148.6 1417.05,-152.96 1410.81,-149.34"/>
<text text-anchor="middle" x="753.5" y="-660.5" font-family="Helvetica,sans-Serif" font-size="10.00"> +_froggyTongue</text>
<text text-anchor="middle" x="753.5" y="-649.5" font-family="Helvetica,sans-Serif" font-size="10.00">+_superFroggyNuke</text>
</g>
<!-- Node7&#45;&gt;Node2 -->
<g id="edge6" class="edge">
<title>Node7&#45;&gt;Node2</title>
<path fill="none" stroke="#404040" d="M34.3,-1168.34C34.06,-1128 39.54,-1052.84 79.5,-1007 94.2,-990.14 105.78,-997.43 126.5,-989 368.54,-890.49 649.9,-766.67 794.92,-702.15"/>
<polygon fill="none" stroke="#404040" points="795.01,-702.11 798.87,-696.01 805.98,-697.23 802.12,-703.32 795.01,-702.11"/>
<text text-anchor="middle" x="117" y="-1021" font-family="Helvetica,sans-Serif" font-size="10.00"> #dialogueBubble</text>
<text text-anchor="middle" x="117" y="-1010" font-family="Helvetica,sans-Serif" font-size="10.00">#hitParticles</text>
</g>
<!-- Node8 -->
<g id="node8" class="node">
<title>Node8</title>
<g id="a_node8"><a xlink:href="class_controllers_1_1_state_machine_1_1_states_1_1_data_1_1_controller_data.html" target="_top" xlink:title=" ">
<polygon fill="none" stroke="black" points="165,-1163 165,-1231 298,-1231 298,-1163 165,-1163"/>
<text text-anchor="start" x="173" y="-1219" font-family="Helvetica,sans-Serif" font-size="10.00">Controllers.StateMachine.</text>
<text text-anchor="middle" x="231.5" y="-1208" font-family="Helvetica,sans-Serif" font-size="10.00">States.Data.ControllerData</text>
<polyline fill="none" stroke="black" points="165,-1201 298,-1201 "/>
<text text-anchor="middle" x="231.5" y="-1189" font-family="Helvetica,sans-Serif" font-size="10.00"> </text>
<polyline fill="none" stroke="black" points="165,-1182 298,-1182 "/>
<text text-anchor="middle" x="231.5" y="-1170" font-family="Helvetica,sans-Serif" font-size="10.00"> </text>
</a>
</g>
</g>
<!-- Node8&#45;&gt;Node2 -->
<g id="edge7" class="edge">
<title>Node8&#45;&gt;Node2</title>
<path fill="none" stroke="#404040" d="M231.82,-1162.92C233.81,-1122.33 242.59,-1053.21 277.5,-1007 409.67,-832.05 656.91,-731.55 794.23,-686.8"/>
<polygon fill="none" stroke="#404040" points="794.53,-686.7 799.01,-681.06 805.95,-683.03 801.46,-688.67 794.53,-686.7"/>
<text text-anchor="middle" x="299" y="-1015.5" font-family="Helvetica,sans-Serif" font-size="10.00"> +ctrlData</text>
</g>
<!-- Node9 -->
<g id="node9" class="node">
<title>Node9</title>
<g id="a_node9"><a xlink:href="class_scriptable_object.html" target="_top" xlink:title=" ">
<polygon fill="none" stroke="black" points="138,-1482.5 138,-1539.5 227,-1539.5 227,-1482.5 138,-1482.5"/>
<text text-anchor="middle" x="182.5" y="-1527.5" font-family="Helvetica,sans-Serif" font-size="10.00">ScriptableObject</text>
<polyline fill="none" stroke="black" points="138,-1520.5 227,-1520.5 "/>
<text text-anchor="middle" x="182.5" y="-1508.5" font-family="Helvetica,sans-Serif" font-size="10.00"> </text>
<polyline fill="none" stroke="black" points="138,-1501.5 227,-1501.5 "/>
<text text-anchor="middle" x="182.5" y="-1489.5" font-family="Helvetica,sans-Serif" font-size="10.00"> </text>
</a>
</g>
</g>
<!-- Node9&#45;&gt;Node8 -->
<g id="edge8" class="edge">
<title>Node9&#45;&gt;Node8</title>
<path fill="none" stroke="midnightblue" d="M185.01,-1472.14C187.23,-1442.8 190.98,-1401.18 196.5,-1365 203.65,-1318.15 215.53,-1264.62 223.44,-1231.07"/>
<polygon fill="none" stroke="midnightblue" points="181.5,-1472.13 184.26,-1482.36 188.48,-1472.64 181.5,-1472.13"/>
</g>
<!-- Node10 -->
<g id="node10" class="node">
<title>Node10</title>
<g id="a_node10"><a xlink:title=" ">
<polygon fill="none" stroke="#bfbfbf" points="333,-1482.5 333,-1539.5 368,-1539.5 368,-1482.5 333,-1482.5"/>
<text text-anchor="middle" x="350.5" y="-1527.5" font-family="Helvetica,sans-Serif" font-size="10.00">float</text>
<polyline fill="none" stroke="#bfbfbf" points="333,-1520.5 368,-1520.5 "/>
<text text-anchor="middle" x="350.5" y="-1508.5" font-family="Helvetica,sans-Serif" font-size="10.00"> </text>
<polyline fill="none" stroke="#bfbfbf" points="333,-1501.5 368,-1501.5 "/>
<text text-anchor="middle" x="350.5" y="-1489.5" font-family="Helvetica,sans-Serif" font-size="10.00"> </text>
</a>
</g>
</g>
<!-- Node10&#45;&gt;Node2 -->
<g id="edge15" class="edge">
<title>Node10&#45;&gt;Node2</title>
<path fill="none" stroke="#404040" d="M347.61,-1482.26C338.92,-1394.33 316.05,-1123.21 355.5,-1047 448.44,-867.45 666.75,-751.36 794.57,-696.2"/>
<polygon fill="none" stroke="#404040" points="794.85,-696.08 798.8,-690.05 805.89,-691.37 801.94,-697.4 794.85,-696.08"/>
<text text-anchor="middle" x="402.5" y="-1200" font-family="Helvetica,sans-Serif" font-size="10.00"> #moveOnAttackStart</text>
<text text-anchor="middle" x="402.5" y="-1189" font-family="Helvetica,sans-Serif" font-size="10.00">+deadMaxWait</text>
</g>
<!-- Node10&#45;&gt;Node8 -->
<g id="edge9" class="edge">
<title>Node10&#45;&gt;Node8</title>
<path fill="none" stroke="#404040" d="M332.8,-1503.67C299.51,-1491.35 229.71,-1463.51 216.5,-1442 179.11,-1381.1 197.4,-1294.75 214.29,-1242.78"/>
<polygon fill="none" stroke="#404040" points="214.34,-1242.65 212.47,-1235.68 218.19,-1231.29 220.05,-1238.25 214.34,-1242.65"/>
<text text-anchor="middle" x="276.5" y="-1428.5" font-family="Helvetica,sans-Serif" font-size="10.00"> +groundCheckDistance</text>
<text text-anchor="middle" x="276.5" y="-1417.5" font-family="Helvetica,sans-Serif" font-size="10.00">+ledgeCheckDistacne</text>
<text text-anchor="middle" x="276.5" y="-1406.5" font-family="Helvetica,sans-Serif" font-size="10.00">+playerLongRangeDistance</text>
<text text-anchor="middle" x="276.5" y="-1395.5" font-family="Helvetica,sans-Serif" font-size="10.00">+playerNearRangeDistance</text>
<text text-anchor="middle" x="276.5" y="-1384.5" font-family="Helvetica,sans-Serif" font-size="10.00">+topCheckDistance</text>
<text text-anchor="middle" x="276.5" y="-1373.5" font-family="Helvetica,sans-Serif" font-size="10.00">+wallCheckDistance</text>
</g>
<!-- Node10&#45;&gt;Node20 -->
<g id="edge23" class="edge">
<title>Node10&#45;&gt;Node20</title>
<path fill="none" stroke="#404040" d="M368.34,-1501.81C425.23,-1476.13 608.05,-1397.01 768.5,-1365 830.67,-1352.6 994.09,-1379.42 1066.47,-1346.68"/>
<polygon fill="none" stroke="#404040" points="1066.69,-1346.56 1070.09,-1340.2 1077.27,-1340.9 1073.87,-1347.26 1066.69,-1346.56"/>
<text text-anchor="middle" x="819" y="-1406.5" font-family="Helvetica,sans-Serif" font-size="10.00"> #interactionRadius</text>
<text text-anchor="middle" x="819" y="-1395.5" font-family="Helvetica,sans-Serif" font-size="10.00">+specialMoveWaitTime</text>
</g>
<!-- Node11 -->
<g id="node11" class="node">
<title>Node11</title>
<g id="a_node11"><a xlink:title=" ">
<polygon fill="none" stroke="#bfbfbf" points="55,-1482.5 55,-1539.5 120,-1539.5 120,-1482.5 55,-1482.5"/>
<text text-anchor="middle" x="87.5" y="-1527.5" font-family="Helvetica,sans-Serif" font-size="10.00">LayerMask</text>
<polyline fill="none" stroke="#bfbfbf" points="55,-1520.5 120,-1520.5 "/>
<text text-anchor="middle" x="87.5" y="-1508.5" font-family="Helvetica,sans-Serif" font-size="10.00"> </text>
<polyline fill="none" stroke="#bfbfbf" points="55,-1501.5 120,-1501.5 "/>
<text text-anchor="middle" x="87.5" y="-1489.5" font-family="Helvetica,sans-Serif" font-size="10.00"> </text>
</a>
</g>
</g>
<!-- Node11&#45;&gt;Node8 -->
<g id="edge10" class="edge">
<title>Node11&#45;&gt;Node8</title>
<path fill="none" stroke="#404040" d="M85.68,-1482.35C85.07,-1450.67 88.77,-1398.78 115.5,-1365 127.6,-1349.71 141.38,-1360.44 155.5,-1347 185.65,-1318.28 205.87,-1274.99 217.82,-1242.46"/>
<polygon fill="none" stroke="#404040" points="217.87,-1242.33 216.09,-1235.34 221.86,-1231.01 223.64,-1238 217.87,-1242.33"/>
<text text-anchor="middle" x="150" y="-1401" font-family="Helvetica,sans-Serif" font-size="10.00"> +whatIsGround</text>
</g>
<!-- Node12 -->
<g id="node12" class="node">
<title>Node12</title>
<g id="a_node12"><a xlink:title=" ">
<polygon fill="none" stroke="#bfbfbf" points="1288,-1482.5 1288,-1539.5 1317,-1539.5 1317,-1482.5 1288,-1482.5"/>
<text text-anchor="middle" x="1302.5" y="-1527.5" font-family="Helvetica,sans-Serif" font-size="10.00">int</text>
<polyline fill="none" stroke="#bfbfbf" points="1288,-1520.5 1317,-1520.5 "/>
<text text-anchor="middle" x="1302.5" y="-1508.5" font-family="Helvetica,sans-Serif" font-size="10.00"> </text>
<polyline fill="none" stroke="#bfbfbf" points="1288,-1501.5 1317,-1501.5 "/>
<text text-anchor="middle" x="1302.5" y="-1489.5" font-family="Helvetica,sans-Serif" font-size="10.00"> </text>
</a>
</g>
</g>
<!-- Node12&#45;&gt;Node1 -->
<g id="edge27" class="edge">
<title>Node12&#45;&gt;Node1</title>
<path fill="none" stroke="#404040" d="M1317.05,-1509.86C1382.12,-1508.89 1645.56,-1501.33 1695.5,-1442 1838.7,-1271.89 1650.8,-605.97 1553.86,-300.35"/>
<polygon fill="none" stroke="#404040" points="1553.8,-300.17 1548.17,-295.67 1550.16,-288.74 1555.8,-293.24 1553.8,-300.17"/>
<text text-anchor="middle" x="1764" y="-1021" font-family="Helvetica,sans-Serif" font-size="10.00"> +currentPhase</text>
<text text-anchor="middle" x="1764" y="-1010" font-family="Helvetica,sans-Serif" font-size="10.00">+hallPosition</text>
</g>
<!-- Node12&#45;&gt;Node2 -->
<g id="edge18" class="edge">
<title>Node12&#45;&gt;Node2</title>
<path fill="none" stroke="#404040" d="M1317.12,-1487.42C1324.51,-1474.65 1332.71,-1458.06 1336.5,-1442 1346.6,-1399.22 1361.02,-1145.38 1326.5,-1047 1270.04,-886.09 1099.64,-768.59 989.91,-707.14"/>
<polygon fill="none" stroke="#404040" points="989.66,-706.99 982.47,-707.59 979.16,-701.18 986.34,-700.59 989.66,-706.99"/>
<text text-anchor="middle" x="1382" y="-1200" font-family="Helvetica,sans-Serif" font-size="10.00"> +KrownReward</text>
<text text-anchor="middle" x="1382" y="-1189" font-family="Helvetica,sans-Serif" font-size="10.00">+currentHealth</text>
</g>
<!-- Node12&#45;&gt;Node8 -->
<g id="edge11" class="edge">
<title>Node12&#45;&gt;Node8</title>
<path fill="none" stroke="#404040" d="M1287.73,-1503.21C1233.78,-1478.82 1041.76,-1395.45 873.5,-1365 812.13,-1353.9 365.59,-1379.73 312.5,-1347 275.4,-1324.12 254.12,-1277.88 242.77,-1242.94"/>
<polygon fill="none" stroke="#404040" points="242.66,-1242.59 237.09,-1238.02 239.16,-1231.11 244.74,-1235.68 242.66,-1242.59"/>
<text text-anchor="middle" x="1170" y="-1406.5" font-family="Helvetica,sans-Serif" font-size="10.00"> +generalDamage</text>
<text text-anchor="middle" x="1170" y="-1395.5" font-family="Helvetica,sans-Serif" font-size="10.00">+maxHealth</text>
</g>
<!-- Node12&#45;&gt;Node20 -->
<g id="edge24" class="edge">
<title>Node12&#45;&gt;Node20</title>
<path fill="none" stroke="#404040" d="M1289.19,-1482.31C1275.32,-1453.47 1252.43,-1405.86 1229.31,-1357.77"/>
<polygon fill="none" stroke="#404040" points="1229.27,-1357.68 1223.06,-1354 1224.07,-1346.86 1230.27,-1350.54 1229.27,-1357.68"/>
<text text-anchor="middle" x="1299" y="-1406.5" font-family="Helvetica,sans-Serif" font-size="10.00"> +currentHealth</text>
<text text-anchor="middle" x="1299" y="-1395.5" font-family="Helvetica,sans-Serif" font-size="10.00">+maxHealth</text>
</g>
<!-- Node13 -->
<g id="node13" class="node">
<title>Node13</title>
<g id="a_node13"><a xlink:title=" ">
<polygon fill="none" stroke="#bfbfbf" points="485,-1168.5 485,-1225.5 574,-1225.5 574,-1168.5 485,-1168.5"/>
<text text-anchor="middle" x="529.5" y="-1213.5" font-family="Helvetica,sans-Serif" font-size="10.00">ECharacterState</text>
<polyline fill="none" stroke="#bfbfbf" points="485,-1206.5 574,-1206.5 "/>
<text text-anchor="middle" x="529.5" y="-1194.5" font-family="Helvetica,sans-Serif" font-size="10.00"> </text>
<polyline fill="none" stroke="#bfbfbf" points="485,-1187.5 574,-1187.5 "/>
<text text-anchor="middle" x="529.5" y="-1175.5" font-family="Helvetica,sans-Serif" font-size="10.00"> </text>
</a>
</g>
</g>
<!-- Node13&#45;&gt;Node2 -->
<g id="edge12" class="edge">
<title>Node13&#45;&gt;Node2</title>
<path fill="none" stroke="#404040" d="M537.73,-1168.44C547.2,-1138.04 564,-1088 583.5,-1047 636.78,-935.01 727.79,-826.17 797.29,-752.32"/>
<polygon fill="none" stroke="#404040" points="797.4,-752.2 798.62,-745.1 805.65,-743.49 804.43,-750.6 797.4,-752.2"/>
<text text-anchor="middle" x="632.5" y="-1015.5" font-family="Helvetica,sans-Serif" font-size="10.00"> #currentState</text>
</g>
<!-- Node14 -->
<g id="node14" class="node">
<title>Node14</title>
<g id="a_node14"><a xlink:title=" ">
<polygon fill="none" stroke="#bfbfbf" points="592,-1168.5 592,-1225.5 655,-1225.5 655,-1168.5 592,-1168.5"/>
<text text-anchor="middle" x="623.5" y="-1213.5" font-family="Helvetica,sans-Serif" font-size="10.00">UnityEvent</text>
<polyline fill="none" stroke="#bfbfbf" points="592,-1206.5 655,-1206.5 "/>
<text text-anchor="middle" x="623.5" y="-1194.5" font-family="Helvetica,sans-Serif" font-size="10.00"> </text>
<polyline fill="none" stroke="#bfbfbf" points="592,-1187.5 655,-1187.5 "/>
<text text-anchor="middle" x="623.5" y="-1175.5" font-family="Helvetica,sans-Serif" font-size="10.00"> </text>
</a>
</g>
</g>
<!-- Node14&#45;&gt;Node2 -->
<g id="edge13" class="edge">
<title>Node14&#45;&gt;Node2</title>
<path fill="none" stroke="#404040" d="M628.83,-1168.36C635.22,-1137.89 647.28,-1087.78 664.5,-1047 701.11,-960.31 753.68,-869.28 799.12,-797.14"/>
<polygon fill="none" stroke="#404040" points="799.35,-796.78 799.18,-789.57 805.77,-786.64 805.94,-793.85 799.35,-796.78"/>
<text text-anchor="middle" x="712" y="-1015.5" font-family="Helvetica,sans-Serif" font-size="10.00"> +OnLandEvent</text>
</g>
<!-- Node15 -->
<g id="node15" class="node">
<title>Node15</title>
<g id="a_node15"><a xlink:href="class_controllers_1_1_movement_1_1_base_movement_controller.html" target="_top" xlink:title=" ">
<polygon fill="none" stroke="black" points="673.5,-1163 673.5,-1231 809.5,-1231 809.5,-1163 673.5,-1163"/>
<text text-anchor="start" x="681.5" y="-1219" font-family="Helvetica,sans-Serif" font-size="10.00">Controllers.Movement.Base</text>
<text text-anchor="middle" x="741.5" y="-1208" font-family="Helvetica,sans-Serif" font-size="10.00">MovementController</text>
<polyline fill="none" stroke="black" points="673.5,-1201 809.5,-1201 "/>
<text text-anchor="middle" x="741.5" y="-1189" font-family="Helvetica,sans-Serif" font-size="10.00"> </text>
<polyline fill="none" stroke="black" points="673.5,-1182 809.5,-1182 "/>
<text text-anchor="middle" x="741.5" y="-1170" font-family="Helvetica,sans-Serif" font-size="10.00"> </text>
</a>
</g>
</g>
<!-- Node15&#45;&gt;Node2 -->
<g id="edge14" class="edge">
<title>Node15&#45;&gt;Node2</title>
<path fill="none" stroke="#404040" d="M745.46,-1162.89C750.38,-1124.89 759.84,-1060.87 773.5,-1007 781.76,-974.43 791.64,-940.55 802.14,-907.26"/>
<polygon fill="none" stroke="#404040" points="802.23,-906.95 800.24,-900.02 805.87,-895.52 807.87,-902.45 802.23,-906.95"/>
<text text-anchor="middle" x="831" y="-1015.5" font-family="Helvetica,sans-Serif" font-size="10.00"> #baseMovementController</text>
</g>
<!-- Node16 -->
<g id="node16" class="node">
<title>Node16</title>
<g id="a_node16"><a xlink:href="class_controllers_1_1_state_machine_1_1_controller_state_machine.html" target="_top" xlink:title="Controla el estado de un enemigo o NPC, desde que spawnea hasta que muere. Casi todos los metodos son...">
<polygon fill="none" stroke="black" points="828,-1146.5 828,-1247.5 957,-1247.5 957,-1146.5 828,-1146.5"/>
<text text-anchor="start" x="836" y="-1235.5" font-family="Helvetica,sans-Serif" font-size="10.00">Controllers.StateMachine.</text>
<text text-anchor="middle" x="892.5" y="-1224.5" font-family="Helvetica,sans-Serif" font-size="10.00">ControllerStateMachine</text>
<polyline fill="none" stroke="black" points="828,-1217.5 957,-1217.5 "/>
<text text-anchor="start" x="836" y="-1205.5" font-family="Helvetica,sans-Serif" font-size="10.00">+ State CurrentState</text>
<polyline fill="none" stroke="black" points="828,-1198.5 957,-1198.5 "/>
<text text-anchor="start" x="836" y="-1186.5" font-family="Helvetica,sans-Serif" font-size="10.00">+ void Initialize(State</text>
<text text-anchor="start" x="836" y="-1175.5" font-family="Helvetica,sans-Serif" font-size="10.00"> startState)</text>
<text text-anchor="start" x="836" y="-1164.5" font-family="Helvetica,sans-Serif" font-size="10.00">+ void ChangeState(State</text>
<text text-anchor="start" x="836" y="-1153.5" font-family="Helvetica,sans-Serif" font-size="10.00"> nextState)</text>
</a>
</g>
</g>
<!-- Node16&#45;&gt;Node2 -->
<g id="edge16" class="edge">
<title>Node16&#45;&gt;Node2</title>
<path fill="none" stroke="#404040" d="M892.5,-1146.4C892.5,-1110.37 892.5,-1058.08 892.5,-1000.97"/>
<polygon fill="none" stroke="#404040" points="892.5,-1000.72 888.5,-994.72 892.5,-988.72 896.5,-994.72 892.5,-1000.72"/>
<text text-anchor="middle" x="927.5" y="-1015.5" font-family="Helvetica,sans-Serif" font-size="10.00"> +StateMachine</text>
</g>
<!-- Node17 -->
<g id="node17" class="node">
<title>Node17</title>
<g id="a_node17"><a xlink:title=" ">
<polygon fill="none" stroke="#bfbfbf" points="975.5,-1168.5 975.5,-1225.5 1059.5,-1225.5 1059.5,-1168.5 975.5,-1168.5"/>
<text text-anchor="middle" x="1017.5" y="-1213.5" font-family="Helvetica,sans-Serif" font-size="10.00">EControllerKind</text>
<polyline fill="none" stroke="#bfbfbf" points="975.5,-1206.5 1059.5,-1206.5 "/>
<text text-anchor="middle" x="1017.5" y="-1194.5" font-family="Helvetica,sans-Serif" font-size="10.00"> </text>
<polyline fill="none" stroke="#bfbfbf" points="975.5,-1187.5 1059.5,-1187.5 "/>
<text text-anchor="middle" x="1017.5" y="-1175.5" font-family="Helvetica,sans-Serif" font-size="10.00"> </text>
</a>
</g>
</g>
<!-- Node17&#45;&gt;Node2 -->
<g id="edge17" class="edge">
<title>Node17&#45;&gt;Node2</title>
<path fill="none" stroke="#404040" d="M1011.04,-1168.23C1003.02,-1133.72 988.37,-1070.72 972.04,-1000.5"/>
<polygon fill="none" stroke="#404040" points="972.01,-1000.4 966.76,-995.46 969.29,-988.71 974.55,-993.65 972.01,-1000.4"/>
<text text-anchor="middle" x="1011" y="-1015.5" font-family="Helvetica,sans-Serif" font-size="10.00"> +controllerKind</text>
</g>
<!-- Node18 -->
<g id="node18" class="node">
<title>Node18</title>
<g id="a_node18"><a xlink:title=" ">
<polygon fill="none" stroke="#bfbfbf" points="1771,-1482.5 1771,-1539.5 1806,-1539.5 1806,-1482.5 1771,-1482.5"/>
<text text-anchor="middle" x="1788.5" y="-1527.5" font-family="Helvetica,sans-Serif" font-size="10.00">bool</text>
<polyline fill="none" stroke="#bfbfbf" points="1771,-1520.5 1806,-1520.5 "/>
<text text-anchor="middle" x="1788.5" y="-1508.5" font-family="Helvetica,sans-Serif" font-size="10.00"> </text>
<polyline fill="none" stroke="#bfbfbf" points="1771,-1501.5 1806,-1501.5 "/>
<text text-anchor="middle" x="1788.5" y="-1489.5" font-family="Helvetica,sans-Serif" font-size="10.00"> </text>
</a>
</g>
</g>
<!-- Node18&#45;&gt;Node1 -->
<g id="edge28" class="edge">
<title>Node18&#45;&gt;Node1</title>
<path fill="none" stroke="#404040" d="M1806.05,-1491.88C1832,-1463.66 1879.5,-1406.29 1897.5,-1347 1936.23,-1219.42 1918.83,-1178.62 1897.5,-1047 1843.47,-713.62 1823.97,-619.85 1657.5,-326 1639.21,-293.71 1614.66,-261.85 1590.51,-234.1"/>
<polygon fill="none" stroke="#404040" points="1590.29,-233.85 1583.32,-232 1582.34,-224.85 1589.31,-226.7 1590.29,-233.85"/>
<text text-anchor="middle" x="1924" y="-1021" font-family="Helvetica,sans-Serif" font-size="10.00"> +transformed</text>
<text text-anchor="middle" x="1924" y="-1010" font-family="Helvetica,sans-Serif" font-size="10.00">+transforming</text>
</g>
<!-- Node18&#45;&gt;Node2 -->
<g id="edge19" class="edge">
<title>Node18&#45;&gt;Node2</title>
<path fill="none" stroke="#404040" d="M1789.48,-1482.28C1792.78,-1382.56 1801.79,-1045.95 1774.5,-1007 1591.57,-745.92 1180.8,-680.41 991.49,-663.99"/>
<polygon fill="none" stroke="#404040" points="991.31,-663.97 984.99,-667.46 979.35,-662.97 985.66,-659.49 991.31,-663.97"/>
<text text-anchor="middle" x="1843.5" y="-1216.5" font-family="Helvetica,sans-Serif" font-size="10.00"> #canInteract</text>
<text text-anchor="middle" x="1843.5" y="-1205.5" font-family="Helvetica,sans-Serif" font-size="10.00">#dead</text>
<text text-anchor="middle" x="1843.5" y="-1194.5" font-family="Helvetica,sans-Serif" font-size="10.00">#isInvencible</text>
<text text-anchor="middle" x="1843.5" y="-1183.5" font-family="Helvetica,sans-Serif" font-size="10.00">#lastGroundDetected</text>
<text text-anchor="middle" x="1843.5" y="-1172.5" font-family="Helvetica,sans-Serif" font-size="10.00">#playerFacingDirection</text>
</g>
<!-- Node18&#45;&gt;Node20 -->
<g id="edge25" class="edge">
<title>Node18&#45;&gt;Node20</title>
<path fill="none" stroke="#404040" d="M1770.66,-1503.33C1710.38,-1481 1508.42,-1407.85 1336.5,-1365 1296.11,-1354.93 1276.49,-1370.36 1237.94,-1346.96"/>
<polygon fill="none" stroke="#404040" points="1237.69,-1346.79 1230.48,-1346.79 1227.71,-1340.13 1234.92,-1340.13 1237.69,-1346.79"/>
<text text-anchor="middle" x="1643" y="-1434" font-family="Helvetica,sans-Serif" font-size="10.00"> +isEnrolledInDialogue</text>
<text text-anchor="middle" x="1643" y="-1423" font-family="Helvetica,sans-Serif" font-size="10.00">+warpActioned</text>
<text text-anchor="middle" x="1643" y="-1412" font-family="Helvetica,sans-Serif" font-size="10.00">~moveOnDamaged</text>
<text text-anchor="middle" x="1643" y="-1401" font-family="Helvetica,sans-Serif" font-size="10.00">~praying</text>
<text text-anchor="middle" x="1643" y="-1390" font-family="Helvetica,sans-Serif" font-size="10.00">~respawning</text>
<text text-anchor="middle" x="1643" y="-1379" font-family="Helvetica,sans-Serif" font-size="10.00">~roll</text>
<text text-anchor="middle" x="1643" y="-1368" font-family="Helvetica,sans-Serif" font-size="10.00">~rollAnim</text>
</g>
<!-- Node19 -->
<g id="node19" class="node">
<title>Node19</title>
<g id="a_node19"><a xlink:title=" ">
<polygon fill="none" stroke="#bfbfbf" points="1245.5,-1168.5 1245.5,-1225.5 1317.5,-1225.5 1317.5,-1168.5 1245.5,-1168.5"/>
<text text-anchor="middle" x="1281.5" y="-1213.5" font-family="Helvetica,sans-Serif" font-size="10.00">AudioSource</text>
<polyline fill="none" stroke="#bfbfbf" points="1245.5,-1206.5 1317.5,-1206.5 "/>
<text text-anchor="middle" x="1281.5" y="-1194.5" font-family="Helvetica,sans-Serif" font-size="10.00"> </text>
<polyline fill="none" stroke="#bfbfbf" points="1245.5,-1187.5 1317.5,-1187.5 "/>
<text text-anchor="middle" x="1281.5" y="-1175.5" font-family="Helvetica,sans-Serif" font-size="10.00"> </text>
</a>
</g>
</g>
<!-- Node19&#45;&gt;Node2 -->
<g id="edge20" class="edge">
<title>Node19&#45;&gt;Node2</title>
<path fill="none" stroke="#404040" d="M1276.83,-1168.22C1270.79,-1137.19 1258.36,-1086.17 1236.5,-1047 1170.98,-929.59 1064.93,-817.03 987.88,-743.58"/>
<polygon fill="none" stroke="#404040" points="987.82,-743.52 980.71,-742.29 979.11,-735.26 986.22,-736.48 987.82,-743.52"/>
<text text-anchor="middle" x="1257" y="-1021" font-family="Helvetica,sans-Serif" font-size="10.00"> #hitAttackSFX1</text>
<text text-anchor="middle" x="1257" y="-1010" font-family="Helvetica,sans-Serif" font-size="10.00">#hitAttackSFX2</text>
</g>
<!-- Node20&#45;&gt;Node2 -->
<g id="edge21" class="edge">
<title>Node20&#45;&gt;Node2</title>
<path fill="none" stroke="#404040" d="M1080.59,-1047.35C1050.84,-985.83 1015.97,-913.75 984.39,-848.47"/>
<polygon fill="none" stroke="#404040" points="984.38,-848.44 978.16,-844.78 979.15,-837.64 985.36,-841.29 984.38,-848.44"/>
<text text-anchor="middle" x="1105.5" y="-1015.5" font-family="Helvetica,sans-Serif" font-size="10.00"> #playerController</text>
</g>
</g>
</svg>
