<?xml version="1.0" encoding="UTF-8" standalone="no"?>
<!DOCTYPE svg PUBLIC "-//W3C//DTD SVG 1.1//EN"
 "http://www.w3.org/Graphics/SVG/1.1/DTD/svg11.dtd">
<!-- Generated by graphviz version 2.48.0 (20210717.1556)
 -->
<!-- Title: UI_JoystickController Pages: 1 -->
<svg width="828pt" height="182pt"
 viewBox="0.00 0.00 827.50 182.00" xmlns="http://www.w3.org/2000/svg" xmlns:xlink="http://www.w3.org/1999/xlink">
<g id="graph0" class="graph" transform="scale(1 1) rotate(0) translate(4 178)">
<title>UI_JoystickController</title>
<!-- Node1 -->
<g id="node1" class="node">
<title>Node1</title>
<g id="a_node1"><a xlink:title=" ">
<polygon fill="#bfbfbf" stroke="black" points="344.5,-0.5 344.5,-57.5 452.5,-57.5 452.5,-0.5 344.5,-0.5"/>
<text text-anchor="middle" x="398.5" y="-45.5" font-family="Helvetica,sans-Serif" font-size="10.00">UI_JoystickController</text>
<polyline fill="none" stroke="black" points="344.5,-38.5 452.5,-38.5 "/>
<text text-anchor="middle" x="398.5" y="-26.5" font-family="Helvetica,sans-Serif" font-size="10.00"> </text>
<polyline fill="none" stroke="black" points="344.5,-19.5 452.5,-19.5 "/>
<text text-anchor="middle" x="398.5" y="-7.5" font-family="Helvetica,sans-Serif" font-size="10.00"> </text>
</a>
</g>
</g>
<!-- Node2 -->
<g id="node2" class="node">
<title>Node2</title>
<g id="a_node2"><a xlink:title=" ">
<polygon fill="none" stroke="#bfbfbf" points="0,-116.5 0,-173.5 83,-173.5 83,-116.5 0,-116.5"/>
<text text-anchor="middle" x="41.5" y="-161.5" font-family="Helvetica,sans-Serif" font-size="10.00">MonoBehaviour</text>
<polyline fill="none" stroke="#bfbfbf" points="0,-154.5 83,-154.5 "/>
<text text-anchor="middle" x="41.5" y="-142.5" font-family="Helvetica,sans-Serif" font-size="10.00"> </text>
<polyline fill="none" stroke="#bfbfbf" points="0,-135.5 83,-135.5 "/>
<text text-anchor="middle" x="41.5" y="-123.5" font-family="Helvetica,sans-Serif" font-size="10.00"> </text>
</a>
</g>
</g>
<!-- Node2&#45;&gt;Node1 -->
<g id="edge1" class="edge">
<title>Node2&#45;&gt;Node1</title>
<path fill="none" stroke="midnightblue" d="M84.15,-110.23C101.91,-97.7 123.31,-84.5 144.5,-76 210.22,-49.65 291.57,-38.3 344.22,-33.48"/>
<polygon fill="none" stroke="midnightblue" points="81.8,-107.6 75.74,-116.29 85.9,-113.28 81.8,-107.6"/>
</g>
<!-- Node3 -->
<g id="node3" class="node">
<title>Node3</title>
<g id="a_node3"><a xlink:title=" ">
<polygon fill="none" stroke="#bfbfbf" points="101,-116.5 101,-173.5 172,-173.5 172,-116.5 101,-116.5"/>
<text text-anchor="middle" x="136.5" y="-161.5" font-family="Helvetica,sans-Serif" font-size="10.00">GameObject</text>
<polyline fill="none" stroke="#bfbfbf" points="101,-154.5 172,-154.5 "/>
<text text-anchor="middle" x="136.5" y="-142.5" font-family="Helvetica,sans-Serif" font-size="10.00"> </text>
<polyline fill="none" stroke="#bfbfbf" points="101,-135.5 172,-135.5 "/>
<text text-anchor="middle" x="136.5" y="-123.5" font-family="Helvetica,sans-Serif" font-size="10.00"> </text>
</a>
</g>
</g>
<!-- Node3&#45;&gt;Node1 -->
<g id="edge2" class="edge">
<title>Node3&#45;&gt;Node1</title>
<path fill="none" stroke="#404040" d="M140.54,-116.45C144.03,-102.35 150.5,-86.09 162.5,-76 187.72,-54.8 271.59,-42.25 332.18,-35.75"/>
<polygon fill="none" stroke="#404040" points="332.4,-35.72 337.96,-31.13 344.34,-34.49 338.78,-39.09 332.4,-35.72"/>
<text text-anchor="middle" x="199.5" y="-84.5" font-family="Helvetica,sans-Serif" font-size="10.00"> +ButtonSelector</text>
</g>
<!-- Node4 -->
<g id="node4" class="node">
<title>Node4</title>
<g id="a_node4"><a xlink:title=" ">
<polygon fill="none" stroke="#bfbfbf" points="208.5,-116.5 208.5,-173.5 258.5,-173.5 258.5,-116.5 208.5,-116.5"/>
<text text-anchor="middle" x="233.5" y="-161.5" font-family="Helvetica,sans-Serif" font-size="10.00">Vector2</text>
<polyline fill="none" stroke="#bfbfbf" points="208.5,-154.5 258.5,-154.5 "/>
<text text-anchor="middle" x="233.5" y="-142.5" font-family="Helvetica,sans-Serif" font-size="10.00"> </text>
<polyline fill="none" stroke="#bfbfbf" points="208.5,-135.5 258.5,-135.5 "/>
<text text-anchor="middle" x="233.5" y="-123.5" font-family="Helvetica,sans-Serif" font-size="10.00"> </text>
</a>
</g>
</g>
<!-- Node4&#45;&gt;Node1 -->
<g id="edge3" class="edge">
<title>Node4&#45;&gt;Node1</title>
<path fill="none" stroke="#404040" d="M235.12,-116.44C237.3,-102.69 242.1,-86.75 252.5,-76 273.44,-54.36 304.45,-42.87 332.51,-36.77"/>
<polygon fill="none" stroke="#404040" points="332.54,-36.77 337.66,-31.7 344.31,-34.48 339.19,-39.55 332.54,-36.77"/>
<text text-anchor="middle" x="323.5" y="-84.5" font-family="Helvetica,sans-Serif" font-size="10.00"> +OrderedButtonsLocalPositions</text>
</g>
<!-- Node5 -->
<g id="node5" class="node">
<title>Node5</title>
<g id="a_node5"><a xlink:title=" ">
<polygon fill="none" stroke="#bfbfbf" points="384,-116.5 384,-173.5 413,-173.5 413,-116.5 384,-116.5"/>
<text text-anchor="middle" x="398.5" y="-161.5" font-family="Helvetica,sans-Serif" font-size="10.00">int</text>
<polyline fill="none" stroke="#bfbfbf" points="384,-154.5 413,-154.5 "/>
<text text-anchor="middle" x="398.5" y="-142.5" font-family="Helvetica,sans-Serif" font-size="10.00"> </text>
<polyline fill="none" stroke="#bfbfbf" points="384,-135.5 413,-135.5 "/>
<text text-anchor="middle" x="398.5" y="-123.5" font-family="Helvetica,sans-Serif" font-size="10.00"> </text>
</a>
</g>
</g>
<!-- Node5&#45;&gt;Node1 -->
<g id="edge4" class="edge">
<title>Node5&#45;&gt;Node1</title>
<path fill="none" stroke="#404040" d="M398.5,-116.4C398.5,-102.5 398.5,-85.39 398.5,-70.07"/>
<polygon fill="none" stroke="#404040" points="398.5,-69.74 394.5,-63.74 398.5,-57.74 402.5,-63.74 398.5,-69.74"/>
<text text-anchor="middle" x="439.5" y="-84.5" font-family="Helvetica,sans-Serif" font-size="10.00"> +MainMenuPhase</text>
</g>
<!-- Node6 -->
<g id="node6" class="node">
<title>Node6</title>
<g id="a_node6"><a xlink:title=" ">
<polygon fill="none" stroke="#bfbfbf" points="486,-116.5 486,-173.5 521,-173.5 521,-116.5 486,-116.5"/>
<text text-anchor="middle" x="503.5" y="-161.5" font-family="Helvetica,sans-Serif" font-size="10.00">bool</text>
<polyline fill="none" stroke="#bfbfbf" points="486,-154.5 521,-154.5 "/>
<text text-anchor="middle" x="503.5" y="-142.5" font-family="Helvetica,sans-Serif" font-size="10.00"> </text>
<polyline fill="none" stroke="#bfbfbf" points="486,-135.5 521,-135.5 "/>
<text text-anchor="middle" x="503.5" y="-123.5" font-family="Helvetica,sans-Serif" font-size="10.00"> </text>
</a>
</g>
</g>
<!-- Node6&#45;&gt;Node1 -->
<g id="edge5" class="edge">
<title>Node6&#45;&gt;Node1</title>
<path fill="none" stroke="#404040" d="M499.41,-116.21C496.3,-102.89 490.89,-87.4 481.5,-76 476.22,-69.59 469.81,-63.92 462.91,-58.95"/>
<polygon fill="none" stroke="#404040" points="462.57,-58.73 455.36,-58.79 452.52,-52.16 459.74,-52.1 462.57,-58.73"/>
<text text-anchor="middle" x="524.5" y="-84.5" font-family="Helvetica,sans-Serif" font-size="10.00"> +IsMainMenu</text>
</g>
<!-- Node7 -->
<g id="node7" class="node">
<title>Node7</title>
<g id="a_node7"><a xlink:title=" ">
<polygon fill="none" stroke="#bfbfbf" points="552.5,-116.5 552.5,-173.5 624.5,-173.5 624.5,-116.5 552.5,-116.5"/>
<text text-anchor="middle" x="588.5" y="-161.5" font-family="Helvetica,sans-Serif" font-size="10.00">AudioSource</text>
<polyline fill="none" stroke="#bfbfbf" points="552.5,-154.5 624.5,-154.5 "/>
<text text-anchor="middle" x="588.5" y="-142.5" font-family="Helvetica,sans-Serif" font-size="10.00"> </text>
<polyline fill="none" stroke="#bfbfbf" points="552.5,-135.5 624.5,-135.5 "/>
<text text-anchor="middle" x="588.5" y="-123.5" font-family="Helvetica,sans-Serif" font-size="10.00"> </text>
</a>
</g>
</g>
<!-- Node7&#45;&gt;Node1 -->
<g id="edge6" class="edge">
<title>Node7&#45;&gt;Node1</title>
<path fill="none" stroke="#404040" d="M582.74,-116.47C578.49,-102.55 571.34,-86.44 559.5,-76 533.41,-52.98 496.51,-41.43 464.62,-35.65"/>
<polygon fill="none" stroke="#404040" points="464.53,-35.64 457.96,-38.62 452.68,-33.71 459.25,-30.73 464.53,-35.64"/>
<text text-anchor="middle" x="623" y="-84.5" font-family="Helvetica,sans-Serif" font-size="10.00"> +SelectorChangeSFX</text>
</g>
<!-- Node8 -->
<g id="node8" class="node">
<title>Node8</title>
<g id="a_node8"><a xlink:title=" ">
<polygon fill="none" stroke="#bfbfbf" points="686,-116.5 686,-173.5 731,-173.5 731,-116.5 686,-116.5"/>
<text text-anchor="middle" x="708.5" y="-161.5" font-family="Helvetica,sans-Serif" font-size="10.00">Button</text>
<polyline fill="none" stroke="#bfbfbf" points="686,-154.5 731,-154.5 "/>
<text text-anchor="middle" x="708.5" y="-142.5" font-family="Helvetica,sans-Serif" font-size="10.00"> </text>
<polyline fill="none" stroke="#bfbfbf" points="686,-135.5 731,-135.5 "/>
<text text-anchor="middle" x="708.5" y="-123.5" font-family="Helvetica,sans-Serif" font-size="10.00"> </text>
</a>
</g>
</g>
<!-- Node8&#45;&gt;Node1 -->
<g id="edge7" class="edge">
<title>Node8&#45;&gt;Node1</title>
<path fill="none" stroke="#404040" d="M701.62,-116.18C696.68,-102 688.53,-85.74 675.5,-76 643.08,-51.77 536.2,-39.62 465.08,-34.07"/>
<polygon fill="none" stroke="#404040" points="464.64,-34.04 458.36,-37.58 452.68,-33.15 458.96,-29.61 464.64,-34.04"/>
<text text-anchor="middle" x="756.5" y="-90" font-family="Helvetica,sans-Serif" font-size="10.00"> +OrderedButtonsTransfroms</text>
<text text-anchor="middle" x="756.5" y="-79" font-family="Helvetica,sans-Serif" font-size="10.00">+SelectedButton</text>
</g>
</g>
</svg>
