<?xml version="1.0" encoding="UTF-8" standalone="no"?>
<!DOCTYPE svg PUBLIC "-//W3C//DTD SVG 1.1//EN"
 "http://www.w3.org/Graphics/SVG/1.1/DTD/svg11.dtd">
<!-- Generated by graphviz version 2.48.0 (20210717.1556)
 -->
<!-- Title: Controllers.StateMachine.States.Data.DamageStateData Pages: 1 -->
<svg width="168pt" height="182pt"
 viewBox="0.00 0.00 168.00 182.00" xmlns="http://www.w3.org/2000/svg" xmlns:xlink="http://www.w3.org/1999/xlink">
<g id="graph0" class="graph" transform="scale(1 1) rotate(0) translate(4 178)">
<title>Controllers.StateMachine.States.Data.DamageStateData</title>
<!-- Node1 -->
<g id="node1" class="node">
<title>Node1</title>
<g id="a_node1"><a xlink:title=" ">
<polygon fill="#bfbfbf" stroke="black" points="9,-0.5 9,-68.5 160,-68.5 160,-0.5 9,-0.5"/>
<text text-anchor="start" x="17" y="-56.5" font-family="Helvetica,sans-Serif" font-size="10.00">Controllers.StateMachine.</text>
<text text-anchor="middle" x="84.5" y="-45.5" font-family="Helvetica,sans-Serif" font-size="10.00">States.Data.DamageStateData</text>
<polyline fill="none" stroke="black" points="9,-38.5 160,-38.5 "/>
<text text-anchor="middle" x="84.5" y="-26.5" font-family="Helvetica,sans-Serif" font-size="10.00"> </text>
<polyline fill="none" stroke="black" points="9,-19.5 160,-19.5 "/>
<text text-anchor="middle" x="84.5" y="-7.5" font-family="Helvetica,sans-Serif" font-size="10.00"> </text>
</a>
</g>
</g>
<!-- Node2 -->
<g id="node2" class="node">
<title>Node2</title>
<g id="a_node2"><a xlink:href="class_scriptable_object.html" target="_top" xlink:title=" ">
<polygon fill="none" stroke="black" points="0,-116.5 0,-173.5 89,-173.5 89,-116.5 0,-116.5"/>
<text text-anchor="middle" x="44.5" y="-161.5" font-family="Helvetica,sans-Serif" font-size="10.00">ScriptableObject</text>
<polyline fill="none" stroke="black" points="0,-154.5 89,-154.5 "/>
<text text-anchor="middle" x="44.5" y="-142.5" font-family="Helvetica,sans-Serif" font-size="10.00"> </text>
<polyline fill="none" stroke="black" points="0,-135.5 89,-135.5 "/>
<text text-anchor="middle" x="44.5" y="-123.5" font-family="Helvetica,sans-Serif" font-size="10.00"> </text>
</a>
</g>
</g>
<!-- Node2&#45;&gt;Node1 -->
<g id="edge1" class="edge">
<title>Node2&#45;&gt;Node1</title>
<path fill="none" stroke="midnightblue" d="M58.24,-106.73C62.82,-94.31 67.88,-80.58 72.33,-68.52"/>
<polygon fill="none" stroke="midnightblue" points="54.87,-105.75 54.7,-116.34 61.44,-108.17 54.87,-105.75"/>
</g>
<!-- Node3 -->
<g id="node3" class="node">
<title>Node3</title>
<g id="a_node3"><a xlink:title=" ">
<polygon fill="none" stroke="#bfbfbf" points="107,-116.5 107,-173.5 142,-173.5 142,-116.5 107,-116.5"/>
<text text-anchor="middle" x="124.5" y="-161.5" font-family="Helvetica,sans-Serif" font-size="10.00">float</text>
<polyline fill="none" stroke="#bfbfbf" points="107,-154.5 142,-154.5 "/>
<text text-anchor="middle" x="124.5" y="-142.5" font-family="Helvetica,sans-Serif" font-size="10.00"> </text>
<polyline fill="none" stroke="#bfbfbf" points="107,-135.5 142,-135.5 "/>
<text text-anchor="middle" x="124.5" y="-123.5" font-family="Helvetica,sans-Serif" font-size="10.00"> </text>
</a>
</g>
</g>
<!-- Node3&#45;&gt;Node1 -->
<g id="edge2" class="edge">
<title>Node3&#45;&gt;Node1</title>
<path fill="none" stroke="#404040" d="M114.3,-116.34C110.23,-105.3 105.44,-92.31 100.91,-80.01"/>
<polygon fill="none" stroke="#404040" points="100.82,-79.78 95,-75.53 96.67,-68.52 102.5,-72.76 100.82,-79.78"/>
<text text-anchor="middle" x="128.5" y="-90" font-family="Helvetica,sans-Serif" font-size="10.00"> +duration</text>
</g>
</g>
</svg>
