<?xml version="1.0" encoding="UTF-8" standalone="no"?>
<!DOCTYPE svg PUBLIC "-//W3C//DTD SVG 1.1//EN"
 "http://www.w3.org/Graphics/SVG/1.1/DTD/svg11.dtd">
<!-- Generated by graphviz version 2.48.0 (20210717.1556)
 -->
<!-- Title: Controllers.StateMachine.States.Data.IdleStateData Pages: 1 -->
<svg width="180pt" height="193pt"
 viewBox="0.00 0.00 179.50 193.00" xmlns="http://www.w3.org/2000/svg" xmlns:xlink="http://www.w3.org/1999/xlink">
<g id="graph0" class="graph" transform="scale(1 1) rotate(0) translate(4 189)">
<title>Controllers.StateMachine.States.Data.IdleStateData</title>
<!-- Node1 -->
<g id="node1" class="node">
<title>Node1</title>
<g id="a_node1"><a xlink:title=" ">
<polygon fill="#bfbfbf" stroke="black" points="19.5,-0.5 19.5,-68.5 149.5,-68.5 149.5,-0.5 19.5,-0.5"/>
<text text-anchor="start" x="27.5" y="-56.5" font-family="Helvetica,sans-Serif" font-size="10.00">Controllers.StateMachine.</text>
<text text-anchor="middle" x="84.5" y="-45.5" font-family="Helvetica,sans-Serif" font-size="10.00">States.Data.IdleStateData</text>
<polyline fill="none" stroke="black" points="19.5,-38.5 149.5,-38.5 "/>
<text text-anchor="middle" x="84.5" y="-26.5" font-family="Helvetica,sans-Serif" font-size="10.00"> </text>
<polyline fill="none" stroke="black" points="19.5,-19.5 149.5,-19.5 "/>
<text text-anchor="middle" x="84.5" y="-7.5" font-family="Helvetica,sans-Serif" font-size="10.00"> </text>
</a>
</g>
</g>
<!-- Node2 -->
<g id="node2" class="node">
<title>Node2</title>
<g id="a_node2"><a xlink:href="class_scriptable_object.html" target="_top" xlink:title=" ">
<polygon fill="none" stroke="black" points="0,-127.5 0,-184.5 89,-184.5 89,-127.5 0,-127.5"/>
<text text-anchor="middle" x="44.5" y="-172.5" font-family="Helvetica,sans-Serif" font-size="10.00">ScriptableObject</text>
<polyline fill="none" stroke="black" points="0,-165.5 89,-165.5 "/>
<text text-anchor="middle" x="44.5" y="-153.5" font-family="Helvetica,sans-Serif" font-size="10.00"> </text>
<polyline fill="none" stroke="black" points="0,-146.5 89,-146.5 "/>
<text text-anchor="middle" x="44.5" y="-134.5" font-family="Helvetica,sans-Serif" font-size="10.00"> </text>
</a>
</g>
</g>
<!-- Node2&#45;&gt;Node1 -->
<g id="edge1" class="edge">
<title>Node2&#45;&gt;Node1</title>
<path fill="none" stroke="midnightblue" d="M57.09,-117.39C62.33,-101.74 68.36,-83.73 73.42,-68.59"/>
<polygon fill="none" stroke="midnightblue" points="53.63,-116.69 53.78,-127.28 60.27,-118.91 53.63,-116.69"/>
</g>
<!-- Node3 -->
<g id="node3" class="node">
<title>Node3</title>
<g id="a_node3"><a xlink:title=" ">
<polygon fill="none" stroke="#bfbfbf" points="107,-127.5 107,-184.5 142,-184.5 142,-127.5 107,-127.5"/>
<text text-anchor="middle" x="124.5" y="-172.5" font-family="Helvetica,sans-Serif" font-size="10.00">float</text>
<polyline fill="none" stroke="#bfbfbf" points="107,-165.5 142,-165.5 "/>
<text text-anchor="middle" x="124.5" y="-153.5" font-family="Helvetica,sans-Serif" font-size="10.00"> </text>
<polyline fill="none" stroke="#bfbfbf" points="107,-146.5 142,-146.5 "/>
<text text-anchor="middle" x="124.5" y="-134.5" font-family="Helvetica,sans-Serif" font-size="10.00"> </text>
</a>
</g>
</g>
<!-- Node3&#45;&gt;Node1 -->
<g id="edge2" class="edge">
<title>Node3&#45;&gt;Node1</title>
<path fill="none" stroke="#404040" d="M115.22,-127.28C110.55,-113.33 104.77,-96.06 99.49,-80.28"/>
<polygon fill="none" stroke="#404040" points="99.38,-79.97 93.69,-75.55 95.58,-68.59 101.27,-73.01 99.38,-79.97"/>
<text text-anchor="middle" x="139.5" y="-101" font-family="Helvetica,sans-Serif" font-size="10.00"> +maxIdleTime</text>
<text text-anchor="middle" x="139.5" y="-90" font-family="Helvetica,sans-Serif" font-size="10.00">+minIdleTime</text>
</g>
</g>
</svg>
