<?xml version="1.0" encoding="UTF-8" standalone="no"?>
<!DOCTYPE svg PUBLIC "-//W3C//DTD SVG 1.1//EN"
 "http://www.w3.org/Graphics/SVG/1.1/DTD/svg11.dtd">
<!-- Generated by graphviz version 2.48.0 (20210717.1556)
 -->
<!-- Title: Controllers.Froggy.States.Data.OLC_AttackStateData Pages: 1 -->
<svg width="186pt" height="182pt"
 viewBox="0.00 0.00 186.00 182.00" xmlns="http://www.w3.org/2000/svg" xmlns:xlink="http://www.w3.org/1999/xlink">
<g id="graph0" class="graph" transform="scale(1 1) rotate(0) translate(4 178)">
<title>Controllers.Froggy.States.Data.OLC_AttackStateData</title>
<!-- Node1 -->
<g id="node1" class="node">
<title>Node1</title>
<g id="a_node1"><a xlink:title=" ">
<polygon fill="#bfbfbf" stroke="black" points="25,-0.5 25,-68.5 162,-68.5 162,-0.5 25,-0.5"/>
<text text-anchor="start" x="33" y="-56.5" font-family="Helvetica,sans-Serif" font-size="10.00">Controllers.Froggy.States.</text>
<text text-anchor="middle" x="93.5" y="-45.5" font-family="Helvetica,sans-Serif" font-size="10.00">Data.OLC_AttackStateData</text>
<polyline fill="none" stroke="black" points="25,-38.5 162,-38.5 "/>
<text text-anchor="middle" x="93.5" y="-26.5" font-family="Helvetica,sans-Serif" font-size="10.00"> </text>
<polyline fill="none" stroke="black" points="25,-19.5 162,-19.5 "/>
<text text-anchor="middle" x="93.5" y="-7.5" font-family="Helvetica,sans-Serif" font-size="10.00"> </text>
</a>
</g>
</g>
<!-- Node2 -->
<g id="node2" class="node">
<title>Node2</title>
<g id="a_node2"><a xlink:href="class_scriptable_object.html" target="_top" xlink:title=" ">
<polygon fill="none" stroke="black" points="0,-116.5 0,-173.5 89,-173.5 89,-116.5 0,-116.5"/>
<text text-anchor="middle" x="44.5" y="-161.5" font-family="Helvetica,sans-Serif" font-size="10.00">ScriptableObject</text>
<polyline fill="none" stroke="black" points="0,-154.5 89,-154.5 "/>
<text text-anchor="middle" x="44.5" y="-142.5" font-family="Helvetica,sans-Serif" font-size="10.00"> </text>
<polyline fill="none" stroke="black" points="0,-135.5 89,-135.5 "/>
<text text-anchor="middle" x="44.5" y="-123.5" font-family="Helvetica,sans-Serif" font-size="10.00"> </text>
</a>
</g>
</g>
<!-- Node2&#45;&gt;Node1 -->
<g id="edge1" class="edge">
<title>Node2&#45;&gt;Node1</title>
<path fill="none" stroke="midnightblue" d="M61.17,-107.09C66.82,-94.59 73.09,-80.7 78.59,-68.52"/>
<polygon fill="none" stroke="midnightblue" points="57.92,-105.79 56.99,-116.34 64.3,-108.67 57.92,-105.79"/>
</g>
<!-- Node3 -->
<g id="node3" class="node">
<title>Node3</title>
<g id="a_node3"><a xlink:title=" ">
<polygon fill="none" stroke="#bfbfbf" points="107,-116.5 107,-173.5 178,-173.5 178,-116.5 107,-116.5"/>
<text text-anchor="middle" x="142.5" y="-161.5" font-family="Helvetica,sans-Serif" font-size="10.00">GameObject</text>
<polyline fill="none" stroke="#bfbfbf" points="107,-154.5 178,-154.5 "/>
<text text-anchor="middle" x="142.5" y="-142.5" font-family="Helvetica,sans-Serif" font-size="10.00"> </text>
<polyline fill="none" stroke="#bfbfbf" points="107,-135.5 178,-135.5 "/>
<text text-anchor="middle" x="142.5" y="-123.5" font-family="Helvetica,sans-Serif" font-size="10.00"> </text>
</a>
</g>
</g>
<!-- Node3&#45;&gt;Node1 -->
<g id="edge2" class="edge">
<title>Node3&#45;&gt;Node1</title>
<path fill="none" stroke="#404040" d="M130.01,-116.34C124.97,-105.19 119.04,-92.04 113.43,-79.63"/>
<polygon fill="none" stroke="#404040" points="113.35,-79.46 107.24,-75.63 108.41,-68.52 114.53,-72.34 113.35,-79.46"/>
<text text-anchor="middle" x="145" y="-90" font-family="Helvetica,sans-Serif" font-size="10.00"> +projectile</text>
</g>
</g>
</svg>
