<?xml version="1.0" encoding="UTF-8" standalone="no"?>
<!DOCTYPE svg PUBLIC "-//W3C//DTD SVG 1.1//EN"
 "http://www.w3.org/Graphics/SVG/1.1/DTD/svg11.dtd">
<!-- Generated by graphviz version 2.48.0 (20210717.1556)
 -->
<!-- Title: ScriptableObject Pages: 1 -->
<!--zoomable 259 -->
<svg id="main" version="1.1" xmlns="http://www.w3.org/2000/svg" xmlns:xlink="http://www.w3.org/1999/xlink" xml:space="preserve" onload="init(evt)">
<style type="text/css"><![CDATA[
.edge:hover path { stroke: red; }
.edge:hover polygon { stroke: red; fill: red; }
]]></style>
<script type="text/javascript"><![CDATA[
var edges = document.getElementsByTagName('g');
if (edges && edges.length) {
  for (var i=0;i<edges.length;i++) {
    if (edges[i].id.substr(0,4)=='edge') {
      edges[i].setAttribute('class','edge');
    }
  }
}
]]></script>
        <defs>
                <circle id="rim" cx="0" cy="0" r="7"/>
                <circle id="rim2" cx="0" cy="0" r="3.5"/>
                <g id="zoomPlus">
                        <use xlink:href="#rim" fill="#404040">
                                <set attributeName="fill" to="#808080" begin="zoomplus.mouseover" end="zoomplus.mouseout"/>
                        </use>
                        <path d="M-4,0h8M0,-4v8" fill="none" stroke="white" stroke-width="1.5" pointer-events="none"/>
                </g>
                <g id="zoomMin">
                        <use xlink:href="#rim" fill="#404040">
                                <set attributeName="fill" to="#808080" begin="zoomminus.mouseover" end="zoomminus.mouseout"/>
                        </use>
                        <path d="M-4,0h8" fill="none" stroke="white" stroke-width="1.5" pointer-events="none"/>
                </g>
                <g id="dirArrow">
                        <path fill="none" stroke="white" stroke-width="1.5" d="M0,-3.0v7 M-2.5,-0.5L0,-3.0L2.5,-0.5"/>
                </g>
               <g id="resetDef">
                       <use xlink:href="#rim2" fill="#404040">
                               <set attributeName="fill" to="#808080" begin="reset.mouseover" end="reset.mouseout"/>
                       </use>
               </g>
        </defs>

<script type="text/javascript">
var viewWidth = 1476;
var viewHeight = 259;
var sectionId = 'dynsection-0';
</script>
<script xlink:href="svgpan.js"/>
<svg id="graph" class="graph">
<g id="viewport">
<title>ScriptableObject</title>
<!-- Node1 -->
<g id="node1" class="node">
<title>Node1</title>
<g id="a_node1"><a xlink:title=" ">
<polygon fill="#bfbfbf" stroke="black" points="688,-193.5 688,-250.5 777,-250.5 777,-193.5 688,-193.5"/>
<text text-anchor="middle" x="732.5" y="-238.5" font-family="Helvetica,sans-Serif" font-size="10.00">ScriptableObject</text>
<polyline fill="none" stroke="black" points="688,-231.5 777,-231.5 "/>
<text text-anchor="middle" x="732.5" y="-219.5" font-family="Helvetica,sans-Serif" font-size="10.00"> </text>
<polyline fill="none" stroke="black" points="688,-212.5 777,-212.5 "/>
<text text-anchor="middle" x="732.5" y="-200.5" font-family="Helvetica,sans-Serif" font-size="10.00"> </text>
</a>
</g>
</g>
<!-- Node2 -->
<g id="node2" class="node">
<title>Node2</title>
<g id="a_node2"><a xlink:href="class_controllers_1_1_froggy_1_1_states_1_1_data_1_1_o_l_c___attack_state_data.html" target="_top" xlink:title=" ">
<polygon fill="none" stroke="black" points="0,-44.5 0,-112.5 137,-112.5 137,-44.5 0,-44.5"/>
<text text-anchor="start" x="8" y="-100.5" font-family="Helvetica,sans-Serif" font-size="10.00">Controllers.Froggy.States.</text>
<text text-anchor="middle" x="68.5" y="-89.5" font-family="Helvetica,sans-Serif" font-size="10.00">Data.OLC_AttackStateData</text>
<polyline fill="none" stroke="black" points="0,-82.5 137,-82.5 "/>
<text text-anchor="start" x="8" y="-70.5" font-family="Helvetica,sans-Serif" font-size="10.00">+ GameObject projectile</text>
<polyline fill="none" stroke="black" points="0,-63.5 137,-63.5 "/>
<text text-anchor="middle" x="68.5" y="-51.5" font-family="Helvetica,sans-Serif" font-size="10.00"> </text>
</a>
</g>
</g>
<!-- Node1&#45;&gt;Node2 -->
<g id="edge1" class="edge">
<title>Node1&#45;&gt;Node2</title>
<path fill="none" stroke="midnightblue" d="M677.29,-219.64C549.8,-215.77 238.71,-201.87 145.5,-157 124.65,-146.96 106.19,-128.89 92.57,-112.72"/>
<polygon fill="none" stroke="midnightblue" points="677.5,-223.15 687.6,-219.95 677.7,-216.15 677.5,-223.15"/>
</g>
<!-- Node3 -->
<g id="node3" class="node">
<title>Node3</title>
<g id="a_node3"><a xlink:href="class_controllers_1_1_state_machine_1_1_states_1_1_data_1_1_attack_state_data.html" target="_top" xlink:title=" ">
<polygon fill="none" stroke="black" points="155,-39 155,-118 298,-118 298,-39 155,-39"/>
<text text-anchor="start" x="163" y="-106" font-family="Helvetica,sans-Serif" font-size="10.00">Controllers.StateMachine.</text>
<text text-anchor="middle" x="226.5" y="-95" font-family="Helvetica,sans-Serif" font-size="10.00">States.Data.AttackStateData</text>
<polyline fill="none" stroke="black" points="155,-88 298,-88 "/>
<text text-anchor="start" x="163" y="-76" font-family="Helvetica,sans-Serif" font-size="10.00">+ float duration</text>
<text text-anchor="start" x="163" y="-65" font-family="Helvetica,sans-Serif" font-size="10.00">+ float damage</text>
<polyline fill="none" stroke="black" points="155,-58 298,-58 "/>
<text text-anchor="middle" x="226.5" y="-46" font-family="Helvetica,sans-Serif" font-size="10.00"> </text>
</a>
</g>
</g>
<!-- Node1&#45;&gt;Node3 -->
<g id="edge2" class="edge">
<title>Node1&#45;&gt;Node3</title>
<path fill="none" stroke="midnightblue" d="M677.71,-216.88C578.1,-208.72 371.7,-188.52 307.5,-157 288.81,-147.82 271.59,-132.78 257.88,-118.37"/>
<polygon fill="none" stroke="midnightblue" points="677.62,-220.39 687.87,-217.7 678.18,-213.41 677.62,-220.39"/>
</g>
<!-- Node4 -->
<g id="node4" class="node">
<title>Node4</title>
<g id="a_node4"><a xlink:href="class_controllers_1_1_state_machine_1_1_states_1_1_data_1_1_controller_data.html" target="_top" xlink:title=" ">
<polygon fill="none" stroke="black" points="316.5,-0.5 316.5,-156.5 476.5,-156.5 476.5,-0.5 316.5,-0.5"/>
<text text-anchor="start" x="324.5" y="-144.5" font-family="Helvetica,sans-Serif" font-size="10.00">Controllers.StateMachine.</text>
<text text-anchor="middle" x="396.5" y="-133.5" font-family="Helvetica,sans-Serif" font-size="10.00">States.Data.ControllerData</text>
<polyline fill="none" stroke="black" points="316.5,-126.5 476.5,-126.5 "/>
<text text-anchor="start" x="324.5" y="-114.5" font-family="Helvetica,sans-Serif" font-size="10.00">+ float wallCheckDistance</text>
<text text-anchor="start" x="324.5" y="-103.5" font-family="Helvetica,sans-Serif" font-size="10.00">+ float ledgeCheckDistacne</text>
<text text-anchor="start" x="324.5" y="-92.5" font-family="Helvetica,sans-Serif" font-size="10.00">+ float groundCheckDistance</text>
<text text-anchor="start" x="324.5" y="-81.5" font-family="Helvetica,sans-Serif" font-size="10.00">+ float topCheckDistance</text>
<text text-anchor="start" x="324.5" y="-70.5" font-family="Helvetica,sans-Serif" font-size="10.00">+ float playerNearRangeDistance</text>
<text text-anchor="start" x="324.5" y="-59.5" font-family="Helvetica,sans-Serif" font-size="10.00">+ float playerLongRangeDistance</text>
<text text-anchor="start" x="324.5" y="-48.5" font-family="Helvetica,sans-Serif" font-size="10.00">+ int generalDamage</text>
<text text-anchor="start" x="324.5" y="-37.5" font-family="Helvetica,sans-Serif" font-size="10.00">+ int maxHealth</text>
<text text-anchor="start" x="324.5" y="-26.5" font-family="Helvetica,sans-Serif" font-size="10.00">+ LayerMask whatIsGround</text>
<polyline fill="none" stroke="black" points="316.5,-19.5 476.5,-19.5 "/>
<text text-anchor="middle" x="396.5" y="-7.5" font-family="Helvetica,sans-Serif" font-size="10.00"> </text>
</a>
</g>
</g>
<!-- Node1&#45;&gt;Node4 -->
<g id="edge3" class="edge">
<title>Node1&#45;&gt;Node4</title>
<path fill="none" stroke="midnightblue" d="M677.89,-214.24C626.02,-206.16 547.04,-189.43 485.5,-157 482.51,-155.42 479.53,-153.73 476.59,-151.94"/>
<polygon fill="none" stroke="midnightblue" points="677.48,-217.72 687.89,-215.74 678.52,-210.8 677.48,-217.72"/>
</g>
<!-- Node5 -->
<g id="node5" class="node">
<title>Node5</title>
<g id="a_node5"><a xlink:href="class_controllers_1_1_state_machine_1_1_states_1_1_data_1_1_damage_state_data.html" target="_top" xlink:title=" ">
<polygon fill="none" stroke="black" points="495,-44.5 495,-112.5 646,-112.5 646,-44.5 495,-44.5"/>
<text text-anchor="start" x="503" y="-100.5" font-family="Helvetica,sans-Serif" font-size="10.00">Controllers.StateMachine.</text>
<text text-anchor="middle" x="570.5" y="-89.5" font-family="Helvetica,sans-Serif" font-size="10.00">States.Data.DamageStateData</text>
<polyline fill="none" stroke="black" points="495,-82.5 646,-82.5 "/>
<text text-anchor="start" x="503" y="-70.5" font-family="Helvetica,sans-Serif" font-size="10.00">+ float duration</text>
<polyline fill="none" stroke="black" points="495,-63.5 646,-63.5 "/>
<text text-anchor="middle" x="570.5" y="-51.5" font-family="Helvetica,sans-Serif" font-size="10.00"> </text>
</a>
</g>
</g>
<!-- Node1&#45;&gt;Node5 -->
<g id="edge4" class="edge">
<title>Node1&#45;&gt;Node5</title>
<path fill="none" stroke="midnightblue" d="M690.08,-186.94C678.43,-177.39 665.88,-166.9 654.5,-157 638.19,-142.8 620.54,-126.64 605.64,-112.77"/>
<polygon fill="none" stroke="midnightblue" points="688.01,-189.77 697.97,-193.39 692.44,-184.35 688.01,-189.77"/>
</g>
<!-- Node6 -->
<g id="node6" class="node">
<title>Node6</title>
<g id="a_node6"><a xlink:href="class_controllers_1_1_state_machine_1_1_states_1_1_data_1_1_dead_state_data.html" target="_top" xlink:title=" ">
<polygon fill="none" stroke="black" points="664,-33.5 664,-123.5 801,-123.5 801,-33.5 664,-33.5"/>
<text text-anchor="start" x="672" y="-111.5" font-family="Helvetica,sans-Serif" font-size="10.00">Controllers.StateMachine.</text>
<text text-anchor="middle" x="732.5" y="-100.5" font-family="Helvetica,sans-Serif" font-size="10.00">States.Data.DeadStateData</text>
<polyline fill="none" stroke="black" points="664,-93.5 801,-93.5 "/>
<text text-anchor="start" x="672" y="-81.5" font-family="Helvetica,sans-Serif" font-size="10.00">+ bool applyTorque</text>
<text text-anchor="start" x="672" y="-70.5" font-family="Helvetica,sans-Serif" font-size="10.00">+ GameObject lapida</text>
<text text-anchor="start" x="672" y="-59.5" font-family="Helvetica,sans-Serif" font-size="10.00">+ bool showLapida</text>
<polyline fill="none" stroke="black" points="664,-52.5 801,-52.5 "/>
<text text-anchor="middle" x="732.5" y="-40.5" font-family="Helvetica,sans-Serif" font-size="10.00"> </text>
</a>
</g>
</g>
<!-- Node1&#45;&gt;Node6 -->
<g id="edge5" class="edge">
<title>Node1&#45;&gt;Node6</title>
<path fill="none" stroke="midnightblue" d="M732.5,-183.36C732.5,-165.04 732.5,-142.89 732.5,-123.75"/>
<polygon fill="none" stroke="midnightblue" points="729,-183.38 732.5,-193.38 736,-183.38 729,-183.38"/>
</g>
<!-- Node7 -->
<g id="node7" class="node">
<title>Node7</title>
<g id="a_node7"><a xlink:href="class_controllers_1_1_state_machine_1_1_states_1_1_data_1_1_idle_state_data.html" target="_top" xlink:title=" ">
<polygon fill="none" stroke="black" points="819.5,-39 819.5,-118 949.5,-118 949.5,-39 819.5,-39"/>
<text text-anchor="start" x="827.5" y="-106" font-family="Helvetica,sans-Serif" font-size="10.00">Controllers.StateMachine.</text>
<text text-anchor="middle" x="884.5" y="-95" font-family="Helvetica,sans-Serif" font-size="10.00">States.Data.IdleStateData</text>
<polyline fill="none" stroke="black" points="819.5,-88 949.5,-88 "/>
<text text-anchor="start" x="827.5" y="-76" font-family="Helvetica,sans-Serif" font-size="10.00">+ float minIdleTime</text>
<text text-anchor="start" x="827.5" y="-65" font-family="Helvetica,sans-Serif" font-size="10.00">+ float maxIdleTime</text>
<polyline fill="none" stroke="black" points="819.5,-58 949.5,-58 "/>
<text text-anchor="middle" x="884.5" y="-46" font-family="Helvetica,sans-Serif" font-size="10.00"> </text>
</a>
</g>
</g>
<!-- Node1&#45;&gt;Node7 -->
<g id="edge6" class="edge">
<title>Node1&#45;&gt;Node7</title>
<path fill="none" stroke="midnightblue" d="M776,-186.87C787.46,-177.46 799.65,-167.07 810.5,-157 823.59,-144.86 837.27,-130.92 849.26,-118.25"/>
<polygon fill="none" stroke="midnightblue" points="773.76,-184.18 768.21,-193.21 778.18,-189.61 773.76,-184.18"/>
</g>
<!-- Node8 -->
<g id="node8" class="node">
<title>Node8</title>
<g id="a_node8"><a xlink:href="class_controllers_1_1_state_machine_1_1_states_1_1_data_1_1_jump_state_data.html" target="_top" xlink:title=" ">
<polygon fill="none" stroke="black" points="967.5,-11.5 967.5,-145.5 1125.5,-145.5 1125.5,-11.5 967.5,-11.5"/>
<text text-anchor="start" x="975.5" y="-133.5" font-family="Helvetica,sans-Serif" font-size="10.00">Controllers.StateMachine.</text>
<text text-anchor="middle" x="1046.5" y="-122.5" font-family="Helvetica,sans-Serif" font-size="10.00">States.Data.JumpStateData</text>
<polyline fill="none" stroke="black" points="967.5,-115.5 1125.5,-115.5 "/>
<text text-anchor="start" x="975.5" y="-103.5" font-family="Helvetica,sans-Serif" font-size="10.00">+ Vector2 jumpingForce</text>
<text text-anchor="start" x="975.5" y="-92.5" font-family="Helvetica,sans-Serif" font-size="10.00">+ float jumpingCooldownRandom</text>
<text text-anchor="start" x="975.5" y="-81.5" font-family="Helvetica,sans-Serif" font-size="10.00">RangeFrom</text>
<text text-anchor="start" x="975.5" y="-70.5" font-family="Helvetica,sans-Serif" font-size="10.00">+ float jumpingCooldownRandom</text>
<text text-anchor="start" x="975.5" y="-59.5" font-family="Helvetica,sans-Serif" font-size="10.00">RangeTo</text>
<text text-anchor="start" x="975.5" y="-48.5" font-family="Helvetica,sans-Serif" font-size="10.00">+ AudioClip jumpSFX</text>
<text text-anchor="start" x="975.5" y="-37.5" font-family="Helvetica,sans-Serif" font-size="10.00">+ AudioClip landSFX</text>
<polyline fill="none" stroke="black" points="967.5,-30.5 1125.5,-30.5 "/>
<text text-anchor="middle" x="1046.5" y="-18.5" font-family="Helvetica,sans-Serif" font-size="10.00"> </text>
</a>
</g>
</g>
<!-- Node1&#45;&gt;Node8 -->
<g id="edge7" class="edge">
<title>Node1&#45;&gt;Node8</title>
<path fill="none" stroke="midnightblue" d="M787.28,-212.56C834.74,-203.63 904.13,-186.63 958.5,-157 964.67,-153.64 970.77,-149.78 976.71,-145.61"/>
<polygon fill="none" stroke="midnightblue" points="786.41,-209.16 777.2,-214.39 787.67,-216.04 786.41,-209.16"/>
</g>
<!-- Node9 -->
<g id="node9" class="node">
<title>Node9</title>
<g id="a_node9"><a xlink:href="class_controllers_1_1_state_machine_1_1_states_1_1_data_1_1_prepare_attack_state_data.html" target="_top" xlink:title=" ">
<polygon fill="none" stroke="black" points="1144,-39 1144,-118 1321,-118 1321,-39 1144,-39"/>
<text text-anchor="start" x="1152" y="-106" font-family="Helvetica,sans-Serif" font-size="10.00">Controllers.StateMachine.</text>
<text text-anchor="middle" x="1232.5" y="-95" font-family="Helvetica,sans-Serif" font-size="10.00">States.Data.PrepareAttackStateData</text>
<polyline fill="none" stroke="black" points="1144,-88 1321,-88 "/>
<text text-anchor="start" x="1152" y="-76" font-family="Helvetica,sans-Serif" font-size="10.00">+ bool followPlayerDirection</text>
<text text-anchor="start" x="1152" y="-65" font-family="Helvetica,sans-Serif" font-size="10.00">+ float cooldown</text>
<polyline fill="none" stroke="black" points="1144,-58 1321,-58 "/>
<text text-anchor="middle" x="1232.5" y="-46" font-family="Helvetica,sans-Serif" font-size="10.00"> </text>
</a>
</g>
</g>
<!-- Node1&#45;&gt;Node9 -->
<g id="edge8" class="edge">
<title>Node1&#45;&gt;Node9</title>
<path fill="none" stroke="midnightblue" d="M787.38,-220.93C867.13,-218.95 1018.22,-208.02 1134.5,-157 1155.75,-147.67 1176.36,-132.6 1193.15,-118.22"/>
<polygon fill="none" stroke="midnightblue" points="787,-217.44 777.08,-221.15 787.15,-224.44 787,-217.44"/>
</g>
<!-- Node10 -->
<g id="node10" class="node">
<title>Node10</title>
<g id="a_node10"><a xlink:href="class_controllers_1_1_state_machine_1_1_states_1_1_data_1_1_super_froggy___second_phase_state_data.html" target="_top" xlink:title=" ">
<polygon fill="none" stroke="black" points="1339,-33.5 1339,-123.5 1468,-123.5 1468,-33.5 1339,-33.5"/>
<text text-anchor="start" x="1347" y="-111.5" font-family="Helvetica,sans-Serif" font-size="10.00">Controllers.StateMachine.</text>
<text text-anchor="start" x="1347" y="-100.5" font-family="Helvetica,sans-Serif" font-size="10.00">States.Data.SuperFroggy</text>
<text text-anchor="middle" x="1403.5" y="-89.5" font-family="Helvetica,sans-Serif" font-size="10.00">_SecondPhaseStateData</text>
<polyline fill="none" stroke="black" points="1339,-82.5 1468,-82.5 "/>
<text text-anchor="start" x="1347" y="-70.5" font-family="Helvetica,sans-Serif" font-size="10.00">+ GameObject bombs</text>
<text text-anchor="start" x="1347" y="-59.5" font-family="Helvetica,sans-Serif" font-size="10.00">+ float bombCooldown</text>
<polyline fill="none" stroke="black" points="1339,-52.5 1468,-52.5 "/>
<text text-anchor="middle" x="1403.5" y="-40.5" font-family="Helvetica,sans-Serif" font-size="10.00"> </text>
</a>
</g>
</g>
<!-- Node1&#45;&gt;Node10 -->
<g id="edge9" class="edge">
<title>Node1&#45;&gt;Node10</title>
<path fill="none" stroke="midnightblue" d="M787.5,-219.94C916.7,-216.7 1235.81,-204.03 1330.5,-157 1346.23,-149.19 1360.33,-136.5 1371.86,-123.64"/>
<polygon fill="none" stroke="midnightblue" points="787.34,-216.45 777.43,-220.19 787.51,-223.45 787.34,-216.45"/>
</g>
</g>
</svg>
        <g id="navigator" transform="translate(0 0)" fill="#404254">
                <rect fill="#f2f5e9" fill-opacity="0.5" stroke="#606060" stroke-width=".5" x="0" y="0" width="60" height="60"/>
                <use id="zoomplus" xlink:href="#zoomPlus" x="17" y="9" onmousedown="handleZoom(evt,'in')"/>
                <use id="zoomminus" xlink:href="#zoomMin" x="42" y="9" onmousedown="handleZoom(evt,'out')"/>
                <use id="reset" xlink:href="#resetDef" x="30" y="36" onmousedown="handleReset()"/>
                <g id="arrowUp" xlink:href="#dirArrow" transform="translate(30 24)" onmousedown="handlePan(0,-1)">
                  <use xlink:href="#rim" fill="#404040">
                        <set attributeName="fill" to="#808080" begin="arrowUp.mouseover" end="arrowUp.mouseout"/>
                  </use>
                  <path fill="none" stroke="white" stroke-width="1.5" d="M0,-3.0v7 M-2.5,-0.5L0,-3.0L2.5,-0.5"/>
                </g>
                <g id="arrowRight" xlink:href="#dirArrow" transform="rotate(90) translate(36 -43)" onmousedown="handlePan(1,0)">
                  <use xlink:href="#rim" fill="#404040">
                        <set attributeName="fill" to="#808080" begin="arrowRight.mouseover" end="arrowRight.mouseout"/>
                  </use>
                  <path fill="none" stroke="white" stroke-width="1.5" d="M0,-3.0v7 M-2.5,-0.5L0,-3.0L2.5,-0.5"/>
                </g>
                <g id="arrowDown" xlink:href="#dirArrow" transform="rotate(180) translate(-30 -48)" onmousedown="handlePan(0,1)">
                  <use xlink:href="#rim" fill="#404040">
                        <set attributeName="fill" to="#808080" begin="arrowDown.mouseover" end="arrowDown.mouseout"/>
                  </use>
                  <path fill="none" stroke="white" stroke-width="1.5" d="M0,-3.0v7 M-2.5,-0.5L0,-3.0L2.5,-0.5"/>
                </g>
                <g id="arrowLeft" xlink:href="#dirArrow" transform="rotate(270) translate(-36 17)" onmousedown="handlePan(-1,0)">
                  <use xlink:href="#rim" fill="#404040">
                        <set attributeName="fill" to="#808080" begin="arrowLeft.mouseover" end="arrowLeft.mouseout"/>
                  </use>
                  <path fill="none" stroke="white" stroke-width="1.5" d="M0,-3.0v7 M-2.5,-0.5L0,-3.0L2.5,-0.5"/>
                </g>
        </g>
        <svg viewBox="0 0 15 15" width="100%" height="30px" preserveAspectRatio="xMaxYMin meet">
         <g id="arrow_out" transform="scale(0.3 0.3)">
          <a xlink:href="class_scriptable_object__inherit__graph_org.svg" target="_base">
           <rect id="button" ry="5" rx="5" y="6" x="6" height="38" width="38"
                fill="#f2f5e9" fill-opacity="0.5" stroke="#606060" stroke-width="1.0"/>
           <path id="arrow"
             d="M 11.500037,31.436501 C 11.940474,20.09759 22.043105,11.32322 32.158766,21.979434 L 37.068811,17.246167 C 37.068811,17.246167 37.088388,32 37.088388,32 L 22.160133,31.978069 C 22.160133,31.978069 26.997745,27.140456 26.997745,27.140456 C 18.528582,18.264221 13.291696,25.230495 11.500037,31.436501 z"
             style="fill:#404040;"/>
          </a>
         </g>
        </svg>
</svg>
