<?xml version="1.0" encoding="UTF-8" standalone="no"?>
<!DOCTYPE svg PUBLIC "-//W3C//DTD SVG 1.1//EN"
 "http://www.w3.org/Graphics/SVG/1.1/DTD/svg11.dtd">
<!-- Generated by graphviz version 2.48.0 (20210717.1556)
 -->
<!-- Title: Controllers.Froggy.FroggyTongueController Pages: 1 -->
<svg width="234pt" height="237pt"
 viewBox="0.00 0.00 233.50 237.00" xmlns="http://www.w3.org/2000/svg" xmlns:xlink="http://www.w3.org/1999/xlink">
<g id="graph0" class="graph" transform="scale(1 1) rotate(0) translate(4 233)">
<title>Controllers.Froggy.FroggyTongueController</title>
<!-- Node1 -->
<g id="node1" class="node">
<title>Node1</title>
<g id="a_node1"><a xlink:title=" ">
<polygon fill="#bfbfbf" stroke="black" points="6,-0.5 6,-123.5 179,-123.5 179,-0.5 6,-0.5"/>
<text text-anchor="start" x="14" y="-111.5" font-family="Helvetica,sans-Serif" font-size="10.00">Controllers.Froggy.Froggy</text>
<text text-anchor="middle" x="92.5" y="-100.5" font-family="Helvetica,sans-Serif" font-size="10.00">TongueController</text>
<polyline fill="none" stroke="black" points="6,-93.5 179,-93.5 "/>
<text text-anchor="middle" x="92.5" y="-81.5" font-family="Helvetica,sans-Serif" font-size="10.00"> </text>
<polyline fill="none" stroke="black" points="6,-74.5 179,-74.5 "/>
<text text-anchor="start" x="14" y="-62.5" font-family="Helvetica,sans-Serif" font-size="10.00">+ void Anim_OnTongueAnimEnded()</text>
<text text-anchor="start" x="14" y="-51.5" font-family="Helvetica,sans-Serif" font-size="10.00">+ void Anim_FirstSlapEnded()</text>
<text text-anchor="start" x="14" y="-40.5" font-family="Helvetica,sans-Serif" font-size="10.00">+ void SetProps(FroggyController</text>
<text text-anchor="start" x="14" y="-29.5" font-family="Helvetica,sans-Serif" font-size="10.00"> froggyController, Froggy</text>
<text text-anchor="start" x="14" y="-18.5" font-family="Helvetica,sans-Serif" font-size="10.00">_AttackState attackState)</text>
<text text-anchor="start" x="14" y="-7.5" font-family="Helvetica,sans-Serif" font-size="10.00">+ void Cancel()</text>
</a>
</g>
</g>
<!-- Node2 -->
<g id="node2" class="node">
<title>Node2</title>
<g id="a_node2"><a xlink:title=" ">
<polygon fill="none" stroke="#bfbfbf" points="0,-171.5 0,-228.5 83,-228.5 83,-171.5 0,-171.5"/>
<text text-anchor="middle" x="41.5" y="-216.5" font-family="Helvetica,sans-Serif" font-size="10.00">MonoBehaviour</text>
<polyline fill="none" stroke="#bfbfbf" points="0,-209.5 83,-209.5 "/>
<text text-anchor="middle" x="41.5" y="-197.5" font-family="Helvetica,sans-Serif" font-size="10.00"> </text>
<polyline fill="none" stroke="#bfbfbf" points="0,-190.5 83,-190.5 "/>
<text text-anchor="middle" x="41.5" y="-178.5" font-family="Helvetica,sans-Serif" font-size="10.00"> </text>
</a>
</g>
</g>
<!-- Node2&#45;&gt;Node1 -->
<g id="edge1" class="edge">
<title>Node2&#45;&gt;Node1</title>
<path fill="none" stroke="midnightblue" d="M55.39,-161.95C59.83,-150.11 64.87,-136.68 69.77,-123.62"/>
<polygon fill="none" stroke="midnightblue" points="52.05,-160.89 51.82,-171.48 58.61,-163.34 52.05,-160.89"/>
</g>
<!-- Node3 -->
<g id="node3" class="node">
<title>Node3</title>
<g id="a_node3"><a xlink:title=" ">
<polygon fill="none" stroke="#bfbfbf" points="101.5,-171.5 101.5,-228.5 185.5,-228.5 185.5,-171.5 101.5,-171.5"/>
<text text-anchor="middle" x="143.5" y="-216.5" font-family="Helvetica,sans-Serif" font-size="10.00">ContactFilter2D</text>
<polyline fill="none" stroke="#bfbfbf" points="101.5,-209.5 185.5,-209.5 "/>
<text text-anchor="middle" x="143.5" y="-197.5" font-family="Helvetica,sans-Serif" font-size="10.00"> </text>
<polyline fill="none" stroke="#bfbfbf" points="101.5,-190.5 185.5,-190.5 "/>
<text text-anchor="middle" x="143.5" y="-178.5" font-family="Helvetica,sans-Serif" font-size="10.00"> </text>
</a>
</g>
</g>
<!-- Node3&#45;&gt;Node1 -->
<g id="edge2" class="edge">
<title>Node3&#45;&gt;Node1</title>
<path fill="none" stroke="#404040" d="M133.18,-171.48C129.17,-160.79 124.38,-148.01 119.51,-135.03"/>
<polygon fill="none" stroke="#404040" points="119.45,-134.86 113.6,-130.65 115.23,-123.62 121.09,-127.84 119.45,-134.86"/>
<text text-anchor="middle" x="175.5" y="-145" font-family="Helvetica,sans-Serif" font-size="10.00"> +whatCanBeDamaged</text>
</g>
</g>
</svg>
