<?xml version="1.0" encoding="UTF-8" standalone="no"?>
<!DOCTYPE svg PUBLIC "-//W3C//DTD SVG 1.1//EN"
 "http://www.w3.org/Graphics/SVG/1.1/DTD/svg11.dtd">
<!-- Generated by graphviz version 2.48.0 (20210717.1556)
 -->
<!-- Title: Controllers.Froggy.OLC_Controller Pages: 1 -->
<svg width="2038pt" height="1481pt"
 viewBox="0.00 0.00 2037.50 1481.00" xmlns="http://www.w3.org/2000/svg" xmlns:xlink="http://www.w3.org/1999/xlink">
<g id="graph0" class="graph" transform="scale(1 1) rotate(0) translate(4 1477)">
<title>Controllers.Froggy.OLC_Controller</title>
<!-- Node1 -->
<g id="node1" class="node">
<title>Node1</title>
<g id="a_node1"><a xlink:title=" ">
<polygon fill="#bfbfbf" stroke="black" points="1617,-0.5 1617,-167.5 1796,-167.5 1796,-0.5 1617,-0.5"/>
<text text-anchor="start" x="1625" y="-155.5" font-family="Helvetica,sans-Serif" font-size="10.00">Controllers.Froggy.OLC</text>
<text text-anchor="middle" x="1706.5" y="-144.5" font-family="Helvetica,sans-Serif" font-size="10.00">_Controller</text>
<polyline fill="none" stroke="black" points="1617,-137.5 1796,-137.5 "/>
<text text-anchor="start" x="1625" y="-125.5" font-family="Helvetica,sans-Serif" font-size="10.00">+ OLC_IdleState _idleState</text>
<text text-anchor="start" x="1625" y="-114.5" font-family="Helvetica,sans-Serif" font-size="10.00">+ OLC_RenegadeState </text>
<text text-anchor="start" x="1625" y="-103.5" font-family="Helvetica,sans-Serif" font-size="10.00">_renegadeState</text>
<text text-anchor="start" x="1625" y="-92.5" font-family="Helvetica,sans-Serif" font-size="10.00">+ OLC_AttackState _attackState</text>
<text text-anchor="start" x="1625" y="-81.5" font-family="Helvetica,sans-Serif" font-size="10.00">+ OLC_StunnedState _stunned</text>
<text text-anchor="start" x="1625" y="-70.5" font-family="Helvetica,sans-Serif" font-size="10.00">State</text>
<text text-anchor="start" x="1625" y="-59.5" font-family="Helvetica,sans-Serif" font-size="10.00">+ OLC_SecondPhase _secondPhase</text>
<polyline fill="none" stroke="black" points="1617,-52.5 1796,-52.5 "/>
<text text-anchor="start" x="1625" y="-40.5" font-family="Helvetica,sans-Serif" font-size="10.00">+ override void Damage</text>
<text text-anchor="start" x="1625" y="-29.5" font-family="Helvetica,sans-Serif" font-size="10.00">(DamageInfo damageInfo)</text>
<text text-anchor="start" x="1625" y="-18.5" font-family="Helvetica,sans-Serif" font-size="10.00"># override void Start()</text>
<text text-anchor="start" x="1625" y="-7.5" font-family="Helvetica,sans-Serif" font-size="10.00"># override void Update()</text>
</a>
</g>
</g>
<!-- Node2 -->
<g id="node2" class="node">
<title>Node2</title>
<g id="a_node2"><a xlink:href="class_controllers_1_1_base_controller.html" target="_top" xlink:title=" ">
<polygon fill="none" stroke="black" points="806,-237.5 806,-899.5 979,-899.5 979,-237.5 806,-237.5"/>
<text text-anchor="middle" x="892.5" y="-887.5" font-family="Helvetica,sans-Serif" font-size="10.00">BaseController</text>
<polyline fill="none" stroke="black" points="806,-880.5 979,-880.5 "/>
<text text-anchor="start" x="814" y="-868.5" font-family="Helvetica,sans-Serif" font-size="10.00">+ int FacingDirection</text>
<text text-anchor="start" x="814" y="-857.5" font-family="Helvetica,sans-Serif" font-size="10.00">+ bool IsReadyToAttack</text>
<text text-anchor="start" x="814" y="-846.5" font-family="Helvetica,sans-Serif" font-size="10.00">+ bool wallDetected</text>
<text text-anchor="start" x="814" y="-835.5" font-family="Helvetica,sans-Serif" font-size="10.00">+ bool groundDetected</text>
<text text-anchor="start" x="814" y="-824.5" font-family="Helvetica,sans-Serif" font-size="10.00">+ bool topDetected</text>
<polyline fill="none" stroke="black" points="806,-817.5 979,-817.5 "/>
<text text-anchor="start" x="814" y="-805.5" font-family="Helvetica,sans-Serif" font-size="10.00">+ virtual void Damage</text>
<text text-anchor="start" x="814" y="-794.5" font-family="Helvetica,sans-Serif" font-size="10.00">(float amount, int attackN)</text>
<text text-anchor="start" x="814" y="-783.5" font-family="Helvetica,sans-Serif" font-size="10.00">+ virtual void Damage</text>
<text text-anchor="start" x="814" y="-772.5" font-family="Helvetica,sans-Serif" font-size="10.00">(DamageInfo damageInfo)</text>
<text text-anchor="start" x="814" y="-761.5" font-family="Helvetica,sans-Serif" font-size="10.00">+ void Damage(BaseController</text>
<text text-anchor="start" x="814" y="-750.5" font-family="Helvetica,sans-Serif" font-size="10.00"> controller, DamageInfo</text>
<text text-anchor="start" x="814" y="-739.5" font-family="Helvetica,sans-Serif" font-size="10.00"> damageInfo)</text>
<text text-anchor="start" x="814" y="-728.5" font-family="Helvetica,sans-Serif" font-size="10.00">+ void Kill()</text>
<text text-anchor="start" x="814" y="-717.5" font-family="Helvetica,sans-Serif" font-size="10.00">+ bool Interact(BaseController</text>
<text text-anchor="start" x="814" y="-706.5" font-family="Helvetica,sans-Serif" font-size="10.00"> controller, EInteractionKind</text>
<text text-anchor="start" x="814" y="-695.5" font-family="Helvetica,sans-Serif" font-size="10.00"> interactionKind)</text>
<text text-anchor="start" x="814" y="-684.5" font-family="Helvetica,sans-Serif" font-size="10.00">+ virtual bool Interact</text>
<text text-anchor="start" x="814" y="-673.5" font-family="Helvetica,sans-Serif" font-size="10.00">(PlayerController controller,</text>
<text text-anchor="start" x="814" y="-662.5" font-family="Helvetica,sans-Serif" font-size="10.00"> EInteractionKind interactionKind)</text>
<text text-anchor="start" x="814" y="-651.5" font-family="Helvetica,sans-Serif" font-size="10.00">+ void ReadyToInteract</text>
<text text-anchor="start" x="814" y="-640.5" font-family="Helvetica,sans-Serif" font-size="10.00">(PlayerController controller,</text>
<text text-anchor="start" x="814" y="-629.5" font-family="Helvetica,sans-Serif" font-size="10.00"> bool isReady)</text>
<text text-anchor="start" x="814" y="-618.5" font-family="Helvetica,sans-Serif" font-size="10.00">+ void ReadyToInteract</text>
<text text-anchor="start" x="814" y="-607.5" font-family="Helvetica,sans-Serif" font-size="10.00">(BaseController controller,</text>
<text text-anchor="start" x="814" y="-596.5" font-family="Helvetica,sans-Serif" font-size="10.00"> bool isReady)</text>
<text text-anchor="start" x="814" y="-585.5" font-family="Helvetica,sans-Serif" font-size="10.00">+ void Flip()</text>
<text text-anchor="start" x="814" y="-574.5" font-family="Helvetica,sans-Serif" font-size="10.00">+ void SetVelocity(float</text>
<text text-anchor="start" x="814" y="-563.5" font-family="Helvetica,sans-Serif" font-size="10.00"> velocity)</text>
<text text-anchor="start" x="814" y="-552.5" font-family="Helvetica,sans-Serif" font-size="10.00">+ void AddForce(Vector2</text>
<text text-anchor="start" x="814" y="-541.5" font-family="Helvetica,sans-Serif" font-size="10.00"> newForce, bool isImpulse)</text>
<text text-anchor="start" x="814" y="-530.5" font-family="Helvetica,sans-Serif" font-size="10.00">+ void AddTorque(float</text>
<text text-anchor="start" x="814" y="-519.5" font-family="Helvetica,sans-Serif" font-size="10.00"> newTorque, bool isImpulse)</text>
<text text-anchor="start" x="814" y="-508.5" font-family="Helvetica,sans-Serif" font-size="10.00">+ T GetMovementController</text>
<text text-anchor="start" x="814" y="-497.5" font-family="Helvetica,sans-Serif" font-size="10.00">&lt; T &gt;()</text>
<text text-anchor="start" x="814" y="-486.5" font-family="Helvetica,sans-Serif" font-size="10.00">+ Animator GetAnimator()</text>
<text text-anchor="start" x="814" y="-475.5" font-family="Helvetica,sans-Serif" font-size="10.00">+ Transform GetTransfrom()</text>
<text text-anchor="start" x="814" y="-464.5" font-family="Helvetica,sans-Serif" font-size="10.00">+ GameObject GetDialogueBubble()</text>
<text text-anchor="start" x="814" y="-453.5" font-family="Helvetica,sans-Serif" font-size="10.00">+ bool CheckWall()</text>
<text text-anchor="start" x="814" y="-442.5" font-family="Helvetica,sans-Serif" font-size="10.00">+ bool CheckLedge()</text>
<text text-anchor="start" x="814" y="-431.5" font-family="Helvetica,sans-Serif" font-size="10.00">+ bool CheckGround()</text>
<text text-anchor="start" x="814" y="-420.5" font-family="Helvetica,sans-Serif" font-size="10.00">+ bool CheckTop()</text>
<text text-anchor="start" x="814" y="-409.5" font-family="Helvetica,sans-Serif" font-size="10.00">+ bool CheckPlayerInNearRange()</text>
<text text-anchor="start" x="814" y="-398.5" font-family="Helvetica,sans-Serif" font-size="10.00">+ bool CheckPlayerInLongRange()</text>
<text text-anchor="start" x="814" y="-387.5" font-family="Helvetica,sans-Serif" font-size="10.00">+ void CheckTouchDamage()</text>
<text text-anchor="start" x="814" y="-376.5" font-family="Helvetica,sans-Serif" font-size="10.00">+ virtual void Die()</text>
<text text-anchor="start" x="814" y="-365.5" font-family="Helvetica,sans-Serif" font-size="10.00">+ void DestroyNow()</text>
<text text-anchor="start" x="814" y="-354.5" font-family="Helvetica,sans-Serif" font-size="10.00">+ void DestroyNow(GameObject</text>
<text text-anchor="start" x="814" y="-343.5" font-family="Helvetica,sans-Serif" font-size="10.00"> lapida)</text>
<text text-anchor="start" x="814" y="-332.5" font-family="Helvetica,sans-Serif" font-size="10.00">+ bool CanCharacterInteract()</text>
<text text-anchor="start" x="814" y="-321.5" font-family="Helvetica,sans-Serif" font-size="10.00">+ bool IsDead()</text>
<text text-anchor="start" x="814" y="-310.5" font-family="Helvetica,sans-Serif" font-size="10.00"># virtual void Start()</text>
<text text-anchor="start" x="814" y="-299.5" font-family="Helvetica,sans-Serif" font-size="10.00"># virtual void Update()</text>
<text text-anchor="start" x="814" y="-288.5" font-family="Helvetica,sans-Serif" font-size="10.00"># virtual void OnDrawGizmos()</text>
<text text-anchor="start" x="814" y="-277.5" font-family="Helvetica,sans-Serif" font-size="10.00"># void MoveOnDamaged</text>
<text text-anchor="start" x="814" y="-266.5" font-family="Helvetica,sans-Serif" font-size="10.00">(int direction, Vector2</text>
<text text-anchor="start" x="814" y="-255.5" font-family="Helvetica,sans-Serif" font-size="10.00"> moveOnDamagedForce)</text>
<text text-anchor="start" x="814" y="-244.5" font-family="Helvetica,sans-Serif" font-size="10.00"># IEnumerator DamageEffect()</text>
</a>
</g>
</g>
<!-- Node2&#45;&gt;Node1 -->
<g id="edge1" class="edge">
<title>Node2&#45;&gt;Node1</title>
<path fill="none" stroke="midnightblue" d="M988.05,-510.86C1146.68,-416.84 1462.17,-229.82 1616.82,-138.16"/>
<polygon fill="none" stroke="midnightblue" points="986.04,-507.98 979.23,-516.09 989.61,-514 986.04,-507.98"/>
</g>
<!-- Node3 -->
<g id="node3" class="node">
<title>Node3</title>
<g id="a_node3"><a xlink:href="interface_controllers_1_1_i_damageable.html" target="_top" xlink:title="Interfaz para todos los NPCs/Enemigos/Objetos que pueden ser daniados.">
<polygon fill="none" stroke="black" points="392.5,-1371.5 392.5,-1472.5 540.5,-1472.5 540.5,-1371.5 392.5,-1371.5"/>
<text text-anchor="middle" x="466.5" y="-1460.5" font-family="Helvetica,sans-Serif" font-size="10.00">IDamageable</text>
<polyline fill="none" stroke="black" points="392.5,-1453.5 540.5,-1453.5 "/>
<text text-anchor="middle" x="466.5" y="-1441.5" font-family="Helvetica,sans-Serif" font-size="10.00"> </text>
<polyline fill="none" stroke="black" points="392.5,-1434.5 540.5,-1434.5 "/>
<text text-anchor="start" x="400.5" y="-1422.5" font-family="Helvetica,sans-Serif" font-size="10.00">+ void Damage(BaseController</text>
<text text-anchor="start" x="400.5" y="-1411.5" font-family="Helvetica,sans-Serif" font-size="10.00"> controller, DamageInfo</text>
<text text-anchor="start" x="400.5" y="-1400.5" font-family="Helvetica,sans-Serif" font-size="10.00"> damageInfo)</text>
<text text-anchor="start" x="400.5" y="-1389.5" font-family="Helvetica,sans-Serif" font-size="10.00">+ void Damage(DamageInfo</text>
<text text-anchor="start" x="400.5" y="-1378.5" font-family="Helvetica,sans-Serif" font-size="10.00"> damageInfo)</text>
</a>
</g>
</g>
<!-- Node3&#45;&gt;Node2 -->
<g id="edge2" class="edge">
<title>Node3&#45;&gt;Node2</title>
<path fill="none" stroke="midnightblue" d="M453.48,-1361.41C436.54,-1270.06 415.69,-1091.9 475.5,-958 544,-804.64 705.01,-683.85 805.72,-619.86"/>
<polygon fill="none" stroke="midnightblue" points="450.05,-1362.15 455.36,-1371.32 456.93,-1360.84 450.05,-1362.15"/>
</g>
<!-- Node20 -->
<g id="node20" class="node">
<title>Node20</title>
<g id="a_node20"><a xlink:href="class_player_1_1_player_controller.html" target="_top" xlink:title=" ">
<polygon fill="none" stroke="black" points="1077.5,-958.5 1077.5,-1257.5 1227.5,-1257.5 1227.5,-958.5 1077.5,-958.5"/>
<text text-anchor="middle" x="1152.5" y="-1245.5" font-family="Helvetica,sans-Serif" font-size="10.00">Player.PlayerController</text>
<polyline fill="none" stroke="black" points="1077.5,-1238.5 1227.5,-1238.5 "/>
<text text-anchor="middle" x="1152.5" y="-1226.5" font-family="Helvetica,sans-Serif" font-size="10.00"> </text>
<polyline fill="none" stroke="black" points="1077.5,-1219.5 1227.5,-1219.5 "/>
<text text-anchor="start" x="1085.5" y="-1207.5" font-family="Helvetica,sans-Serif" font-size="10.00">+ void Damage(BaseController</text>
<text text-anchor="start" x="1085.5" y="-1196.5" font-family="Helvetica,sans-Serif" font-size="10.00"> controller, DamageInfo</text>
<text text-anchor="start" x="1085.5" y="-1185.5" font-family="Helvetica,sans-Serif" font-size="10.00"> damageInfo)</text>
<text text-anchor="start" x="1085.5" y="-1174.5" font-family="Helvetica,sans-Serif" font-size="10.00">+ void Damage(DamageInfo</text>
<text text-anchor="start" x="1085.5" y="-1163.5" font-family="Helvetica,sans-Serif" font-size="10.00"> damageInfo)</text>
<text text-anchor="start" x="1085.5" y="-1152.5" font-family="Helvetica,sans-Serif" font-size="10.00">+ void ExitInteractionMode()</text>
<text text-anchor="start" x="1085.5" y="-1141.5" font-family="Helvetica,sans-Serif" font-size="10.00">+ void EnterInteractionMode()</text>
<text text-anchor="start" x="1085.5" y="-1130.5" font-family="Helvetica,sans-Serif" font-size="10.00">+ int GetFacingDirection()</text>
<text text-anchor="start" x="1085.5" y="-1119.5" font-family="Helvetica,sans-Serif" font-size="10.00">+ void LandEvt()</text>
<text text-anchor="start" x="1085.5" y="-1108.5" font-family="Helvetica,sans-Serif" font-size="10.00">+ void OnAirEvt()</text>
<text text-anchor="start" x="1085.5" y="-1097.5" font-family="Helvetica,sans-Serif" font-size="10.00">+ bool IsFacingRight()</text>
<text text-anchor="start" x="1085.5" y="-1086.5" font-family="Helvetica,sans-Serif" font-size="10.00">+ void AddEffect(EEffectKind</text>
<text text-anchor="start" x="1085.5" y="-1075.5" font-family="Helvetica,sans-Serif" font-size="10.00"> kind, float lifetime)</text>
<text text-anchor="start" x="1085.5" y="-1064.5" font-family="Helvetica,sans-Serif" font-size="10.00">+ void AddPowerUp(EPowerUp</text>
<text text-anchor="start" x="1085.5" y="-1053.5" font-family="Helvetica,sans-Serif" font-size="10.00">Kind kind)</text>
<text text-anchor="start" x="1085.5" y="-1042.5" font-family="Helvetica,sans-Serif" font-size="10.00">+ void AnimStartPrayingEvt()</text>
<text text-anchor="start" x="1085.5" y="-1031.5" font-family="Helvetica,sans-Serif" font-size="10.00">+ void AnimRollEndEvt()</text>
<text text-anchor="start" x="1085.5" y="-1020.5" font-family="Helvetica,sans-Serif" font-size="10.00">+ void AnimFootStep1Evt()</text>
<text text-anchor="start" x="1085.5" y="-1009.5" font-family="Helvetica,sans-Serif" font-size="10.00">+ void AnimFootStep2Evt()</text>
<text text-anchor="start" x="1085.5" y="-998.5" font-family="Helvetica,sans-Serif" font-size="10.00">+ void KrownsAdded()</text>
<text text-anchor="start" x="1085.5" y="-987.5" font-family="Helvetica,sans-Serif" font-size="10.00">+ void KrownsRemoved()</text>
<text text-anchor="start" x="1085.5" y="-976.5" font-family="Helvetica,sans-Serif" font-size="10.00">~ void OnEnable()</text>
<text text-anchor="start" x="1085.5" y="-965.5" font-family="Helvetica,sans-Serif" font-size="10.00">~ void OnDisable()</text>
</a>
</g>
</g>
<!-- Node3&#45;&gt;Node20 -->
<g id="edge22" class="edge">
<title>Node3&#45;&gt;Node20</title>
<path fill="none" stroke="midnightblue" d="M551.07,-1418.23C676.5,-1410.03 913.65,-1378.41 1068.5,-1258 1071.55,-1255.63 1074.5,-1253.12 1077.37,-1250.48"/>
<polygon fill="none" stroke="midnightblue" points="550.53,-1414.75 540.76,-1418.86 550.96,-1421.74 550.53,-1414.75"/>
</g>
<!-- Node4 -->
<g id="node4" class="node">
<title>Node4</title>
<g id="a_node4"><a xlink:href="interface_interactions_1_1_interfaces_1_1_i_interactive.html" target="_top" xlink:title=" ">
<polygon fill="none" stroke="black" points="1441,-1019 1441,-1197 1592,-1197 1592,-1019 1441,-1019"/>
<text text-anchor="middle" x="1516.5" y="-1185" font-family="Helvetica,sans-Serif" font-size="10.00">IInteractive</text>
<polyline fill="none" stroke="black" points="1441,-1178 1592,-1178 "/>
<text text-anchor="middle" x="1516.5" y="-1166" font-family="Helvetica,sans-Serif" font-size="10.00"> </text>
<polyline fill="none" stroke="black" points="1441,-1159 1592,-1159 "/>
<text text-anchor="start" x="1449" y="-1147" font-family="Helvetica,sans-Serif" font-size="10.00">+ bool Interact(BaseController</text>
<text text-anchor="start" x="1449" y="-1136" font-family="Helvetica,sans-Serif" font-size="10.00"> controller, EInteractionKind</text>
<text text-anchor="start" x="1449" y="-1125" font-family="Helvetica,sans-Serif" font-size="10.00"> interactionKind)</text>
<text text-anchor="start" x="1449" y="-1114" font-family="Helvetica,sans-Serif" font-size="10.00">+ bool Interact(PlayerController</text>
<text text-anchor="start" x="1449" y="-1103" font-family="Helvetica,sans-Serif" font-size="10.00"> controller, EInteractionKind</text>
<text text-anchor="start" x="1449" y="-1092" font-family="Helvetica,sans-Serif" font-size="10.00"> interactionKind)</text>
<text text-anchor="start" x="1449" y="-1081" font-family="Helvetica,sans-Serif" font-size="10.00">+ void ReadyToInteract</text>
<text text-anchor="start" x="1449" y="-1070" font-family="Helvetica,sans-Serif" font-size="10.00">(PlayerController controller,</text>
<text text-anchor="start" x="1449" y="-1059" font-family="Helvetica,sans-Serif" font-size="10.00"> bool isReady)</text>
<text text-anchor="start" x="1449" y="-1048" font-family="Helvetica,sans-Serif" font-size="10.00">+ void ReadyToInteract</text>
<text text-anchor="start" x="1449" y="-1037" font-family="Helvetica,sans-Serif" font-size="10.00">(BaseController controller,</text>
<text text-anchor="start" x="1449" y="-1026" font-family="Helvetica,sans-Serif" font-size="10.00"> bool isReady)</text>
</a>
</g>
</g>
<!-- Node4&#45;&gt;Node2 -->
<g id="edge3" class="edge">
<title>Node4&#45;&gt;Node2</title>
<path fill="none" stroke="midnightblue" d="M1465.68,-1010.04C1454.03,-991.81 1440.81,-973.59 1426.5,-958 1291.22,-810.61 1092.25,-683.65 979.27,-617.74"/>
<polygon fill="none" stroke="midnightblue" points="1463,-1012.36 1471.27,-1018.98 1468.94,-1008.65 1463,-1012.36"/>
</g>
<!-- Node5 -->
<g id="node5" class="node">
<title>Node5</title>
<g id="a_node5"><a xlink:title=" ">
<polygon fill="none" stroke="#bfbfbf" points="1610,-1079.5 1610,-1136.5 1681,-1136.5 1681,-1079.5 1610,-1079.5"/>
<text text-anchor="middle" x="1645.5" y="-1124.5" font-family="Helvetica,sans-Serif" font-size="10.00">Rigidbody2D</text>
<polyline fill="none" stroke="#bfbfbf" points="1610,-1117.5 1681,-1117.5 "/>
<text text-anchor="middle" x="1645.5" y="-1105.5" font-family="Helvetica,sans-Serif" font-size="10.00"> </text>
<polyline fill="none" stroke="#bfbfbf" points="1610,-1098.5 1681,-1098.5 "/>
<text text-anchor="middle" x="1645.5" y="-1086.5" font-family="Helvetica,sans-Serif" font-size="10.00"> </text>
</a>
</g>
</g>
<!-- Node5&#45;&gt;Node2 -->
<g id="edge4" class="edge">
<title>Node5&#45;&gt;Node2</title>
<path fill="none" stroke="#404040" d="M1643.4,-1079.36C1639.66,-1047.05 1629.25,-993.48 1600.5,-958 1438.21,-757.76 1143.9,-644.77 990.87,-596.97"/>
<polygon fill="none" stroke="#404040" points="990.67,-596.91 983.76,-598.96 979.2,-593.37 986.12,-591.32 990.67,-596.91"/>
<text text-anchor="middle" x="1590" y="-926.5" font-family="Helvetica,sans-Serif" font-size="10.00"> ~rBody</text>
</g>
<!-- Node6 -->
<g id="node6" class="node">
<title>Node6</title>
<g id="a_node6"><a xlink:title=" ">
<polygon fill="none" stroke="#bfbfbf" points="90.5,-1079.5 90.5,-1136.5 146.5,-1136.5 146.5,-1079.5 90.5,-1079.5"/>
<text text-anchor="middle" x="118.5" y="-1124.5" font-family="Helvetica,sans-Serif" font-size="10.00">Animator</text>
<polyline fill="none" stroke="#bfbfbf" points="90.5,-1117.5 146.5,-1117.5 "/>
<text text-anchor="middle" x="118.5" y="-1105.5" font-family="Helvetica,sans-Serif" font-size="10.00"> </text>
<polyline fill="none" stroke="#bfbfbf" points="90.5,-1098.5 146.5,-1098.5 "/>
<text text-anchor="middle" x="118.5" y="-1086.5" font-family="Helvetica,sans-Serif" font-size="10.00"> </text>
</a>
</g>
</g>
<!-- Node6&#45;&gt;Node2 -->
<g id="edge5" class="edge">
<title>Node6&#45;&gt;Node2</title>
<path fill="none" stroke="#404040" d="M118.87,-1079.16C120.95,-1038.25 130.88,-961.98 174.5,-918 352.96,-738.03 642.97,-637.32 794,-594.49"/>
<polygon fill="none" stroke="#404040" points="794.41,-594.37 799.11,-588.9 805.96,-591.13 801.27,-596.6 794.41,-594.37"/>
<text text-anchor="middle" x="218.5" y="-926.5" font-family="Helvetica,sans-Serif" font-size="10.00"> #characterAnimator</text>
</g>
<!-- Node7 -->
<g id="node7" class="node">
<title>Node7</title>
<g id="a_node7"><a xlink:title=" ">
<polygon fill="none" stroke="#bfbfbf" points="0,-1079.5 0,-1136.5 71,-1136.5 71,-1079.5 0,-1079.5"/>
<text text-anchor="middle" x="35.5" y="-1124.5" font-family="Helvetica,sans-Serif" font-size="10.00">GameObject</text>
<polyline fill="none" stroke="#bfbfbf" points="0,-1117.5 71,-1117.5 "/>
<text text-anchor="middle" x="35.5" y="-1105.5" font-family="Helvetica,sans-Serif" font-size="10.00"> </text>
<polyline fill="none" stroke="#bfbfbf" points="0,-1098.5 71,-1098.5 "/>
<text text-anchor="middle" x="35.5" y="-1086.5" font-family="Helvetica,sans-Serif" font-size="10.00"> </text>
</a>
</g>
</g>
<!-- Node7&#45;&gt;Node1 -->
<g id="edge26" class="edge">
<title>Node7&#45;&gt;Node1</title>
<path fill="none" stroke="#404040" d="M34.07,-1079.49C33.21,-1041.28 35.76,-970.86 61.5,-918 246.06,-539.07 347.08,-430.54 721.5,-237 874.53,-157.9 1385.37,-109.89 1604.86,-92.46"/>
<polygon fill="none" stroke="#404040" points="1605.03,-92.45 1610.7,-87.99 1616.99,-91.51 1611.33,-95.97 1605.03,-92.45"/>
<text text-anchor="middle" x="759" y="-566" font-family="Helvetica,sans-Serif" font-size="10.00"> +_plumasAttack</text>
</g>
<!-- Node7&#45;&gt;Node2 -->
<g id="edge6" class="edge">
<title>Node7&#45;&gt;Node2</title>
<path fill="none" stroke="#404040" d="M34.54,-1079.21C34.63,-1039.04 40.56,-964.49 79.5,-918 91.83,-903.28 581.33,-698.76 794.73,-610.06"/>
<polygon fill="none" stroke="#404040" points="794.83,-610.02 798.84,-604.02 805.91,-605.41 801.91,-611.41 794.83,-610.02"/>
<text text-anchor="middle" x="117" y="-932" font-family="Helvetica,sans-Serif" font-size="10.00"> #dialogueBubble</text>
<text text-anchor="middle" x="117" y="-921" font-family="Helvetica,sans-Serif" font-size="10.00">#hitParticles</text>
</g>
<!-- Node8 -->
<g id="node8" class="node">
<title>Node8</title>
<g id="a_node8"><a xlink:href="class_controllers_1_1_state_machine_1_1_states_1_1_data_1_1_controller_data.html" target="_top" xlink:title=" ">
<polygon fill="none" stroke="black" points="165,-1074 165,-1142 298,-1142 298,-1074 165,-1074"/>
<text text-anchor="start" x="173" y="-1130" font-family="Helvetica,sans-Serif" font-size="10.00">Controllers.StateMachine.</text>
<text text-anchor="middle" x="231.5" y="-1119" font-family="Helvetica,sans-Serif" font-size="10.00">States.Data.ControllerData</text>
<polyline fill="none" stroke="black" points="165,-1112 298,-1112 "/>
<text text-anchor="middle" x="231.5" y="-1100" font-family="Helvetica,sans-Serif" font-size="10.00"> </text>
<polyline fill="none" stroke="black" points="165,-1093 298,-1093 "/>
<text text-anchor="middle" x="231.5" y="-1081" font-family="Helvetica,sans-Serif" font-size="10.00"> </text>
</a>
</g>
</g>
<!-- Node8&#45;&gt;Node2 -->
<g id="edge7" class="edge">
<title>Node8&#45;&gt;Node2</title>
<path fill="none" stroke="#404040" d="M231.82,-1073.92C233.81,-1033.33 242.59,-964.21 277.5,-918 409.67,-743.05 656.91,-642.55 794.23,-597.8"/>
<polygon fill="none" stroke="#404040" points="794.53,-597.7 799.01,-592.06 805.95,-594.03 801.46,-599.67 794.53,-597.7"/>
<text text-anchor="middle" x="299" y="-926.5" font-family="Helvetica,sans-Serif" font-size="10.00"> +ctrlData</text>
</g>
<!-- Node9 -->
<g id="node9" class="node">
<title>Node9</title>
<g id="a_node9"><a xlink:href="class_scriptable_object.html" target="_top" xlink:title=" ">
<polygon fill="none" stroke="black" points="133,-1393.5 133,-1450.5 222,-1450.5 222,-1393.5 133,-1393.5"/>
<text text-anchor="middle" x="177.5" y="-1438.5" font-family="Helvetica,sans-Serif" font-size="10.00">ScriptableObject</text>
<polyline fill="none" stroke="black" points="133,-1431.5 222,-1431.5 "/>
<text text-anchor="middle" x="177.5" y="-1419.5" font-family="Helvetica,sans-Serif" font-size="10.00"> </text>
<polyline fill="none" stroke="black" points="133,-1412.5 222,-1412.5 "/>
<text text-anchor="middle" x="177.5" y="-1400.5" font-family="Helvetica,sans-Serif" font-size="10.00"> </text>
</a>
</g>
</g>
<!-- Node9&#45;&gt;Node8 -->
<g id="edge8" class="edge">
<title>Node9&#45;&gt;Node8</title>
<path fill="none" stroke="midnightblue" d="M179.71,-1383.09C181.78,-1353.73 185.46,-1312.1 191.5,-1276 199.34,-1229.1 212.94,-1175.81 222.08,-1142.31"/>
<polygon fill="none" stroke="midnightblue" points="176.21,-1383.11 179.03,-1393.32 183.19,-1383.58 176.21,-1383.11"/>
</g>
<!-- Node10 -->
<g id="node10" class="node">
<title>Node10</title>
<g id="a_node10"><a xlink:title=" ">
<polygon fill="none" stroke="#bfbfbf" points="328,-1393.5 328,-1450.5 363,-1450.5 363,-1393.5 328,-1393.5"/>
<text text-anchor="middle" x="345.5" y="-1438.5" font-family="Helvetica,sans-Serif" font-size="10.00">float</text>
<polyline fill="none" stroke="#bfbfbf" points="328,-1431.5 363,-1431.5 "/>
<text text-anchor="middle" x="345.5" y="-1419.5" font-family="Helvetica,sans-Serif" font-size="10.00"> </text>
<polyline fill="none" stroke="#bfbfbf" points="328,-1412.5 363,-1412.5 "/>
<text text-anchor="middle" x="345.5" y="-1400.5" font-family="Helvetica,sans-Serif" font-size="10.00"> </text>
</a>
</g>
</g>
<!-- Node10&#45;&gt;Node2 -->
<g id="edge15" class="edge">
<title>Node10&#45;&gt;Node2</title>
<path fill="none" stroke="#404040" d="M343.57,-1393.44C337.22,-1299.65 318.47,-996.51 338.5,-958 434.56,-773.31 663.09,-658.16 794.67,-604.77"/>
<polygon fill="none" stroke="#404040" points="794.78,-604.72 798.86,-598.77 805.92,-600.25 801.84,-606.2 794.78,-604.72"/>
<text text-anchor="middle" x="385.5" y="-1111" font-family="Helvetica,sans-Serif" font-size="10.00"> #moveOnAttackStart</text>
<text text-anchor="middle" x="385.5" y="-1100" font-family="Helvetica,sans-Serif" font-size="10.00">+deadMaxWait</text>
</g>
<!-- Node10&#45;&gt;Node8 -->
<g id="edge9" class="edge">
<title>Node10&#45;&gt;Node8</title>
<path fill="none" stroke="#404040" d="M327.8,-1414.67C294.51,-1402.35 224.71,-1374.51 211.5,-1353 174.06,-1292.01 194.52,-1205.69 212.92,-1153.75"/>
<polygon fill="none" stroke="#404040" points="213,-1153.52 211.32,-1146.51 217.15,-1142.26 218.83,-1149.28 213,-1153.52"/>
<text text-anchor="middle" x="271.5" y="-1339.5" font-family="Helvetica,sans-Serif" font-size="10.00"> +groundCheckDistance</text>
<text text-anchor="middle" x="271.5" y="-1328.5" font-family="Helvetica,sans-Serif" font-size="10.00">+ledgeCheckDistacne</text>
<text text-anchor="middle" x="271.5" y="-1317.5" font-family="Helvetica,sans-Serif" font-size="10.00">+playerLongRangeDistance</text>
<text text-anchor="middle" x="271.5" y="-1306.5" font-family="Helvetica,sans-Serif" font-size="10.00">+playerNearRangeDistance</text>
<text text-anchor="middle" x="271.5" y="-1295.5" font-family="Helvetica,sans-Serif" font-size="10.00">+topCheckDistance</text>
<text text-anchor="middle" x="271.5" y="-1284.5" font-family="Helvetica,sans-Serif" font-size="10.00">+wallCheckDistance</text>
</g>
<!-- Node10&#45;&gt;Node20 -->
<g id="edge23" class="edge">
<title>Node10&#45;&gt;Node20</title>
<path fill="none" stroke="#404040" d="M361.38,-1393.25C367.34,-1384.99 374.82,-1376.65 383.5,-1371 537.42,-1270.93 603.91,-1303.03 785.5,-1276 814.29,-1271.71 1008.64,-1274.28 1066.03,-1256.67"/>
<polygon fill="none" stroke="#404040" points="1066.22,-1256.59 1070.17,-1250.56 1077.26,-1251.89 1073.31,-1257.92 1066.22,-1256.59"/>
<text text-anchor="middle" x="836" y="-1317.5" font-family="Helvetica,sans-Serif" font-size="10.00"> #interactionRadius</text>
<text text-anchor="middle" x="836" y="-1306.5" font-family="Helvetica,sans-Serif" font-size="10.00">+specialMoveWaitTime</text>
</g>
<!-- Node11 -->
<g id="node11" class="node">
<title>Node11</title>
<g id="a_node11"><a xlink:title=" ">
<polygon fill="none" stroke="#bfbfbf" points="50,-1393.5 50,-1450.5 115,-1450.5 115,-1393.5 50,-1393.5"/>
<text text-anchor="middle" x="82.5" y="-1438.5" font-family="Helvetica,sans-Serif" font-size="10.00">LayerMask</text>
<polyline fill="none" stroke="#bfbfbf" points="50,-1431.5 115,-1431.5 "/>
<text text-anchor="middle" x="82.5" y="-1419.5" font-family="Helvetica,sans-Serif" font-size="10.00"> </text>
<polyline fill="none" stroke="#bfbfbf" points="50,-1412.5 115,-1412.5 "/>
<text text-anchor="middle" x="82.5" y="-1400.5" font-family="Helvetica,sans-Serif" font-size="10.00"> </text>
</a>
</g>
</g>
<!-- Node11&#45;&gt;Node8 -->
<g id="edge10" class="edge">
<title>Node11&#45;&gt;Node8</title>
<path fill="none" stroke="#404040" d="M80.17,-1393.41C79.01,-1361.55 82,-1309.25 109.5,-1276 123.49,-1259.08 139.23,-1272.74 155.5,-1258 186.46,-1229.96 206.62,-1186.39 218.34,-1153.6"/>
<polygon fill="none" stroke="#404040" points="218.41,-1153.41 216.56,-1146.44 222.29,-1142.05 224.13,-1149.02 218.41,-1153.41"/>
<text text-anchor="middle" x="144" y="-1312" font-family="Helvetica,sans-Serif" font-size="10.00"> +whatIsGround</text>
</g>
<!-- Node12 -->
<g id="node12" class="node">
<title>Node12</title>
<g id="a_node12"><a xlink:title=" ">
<polygon fill="none" stroke="#bfbfbf" points="1282,-1393.5 1282,-1450.5 1311,-1450.5 1311,-1393.5 1282,-1393.5"/>
<text text-anchor="middle" x="1296.5" y="-1438.5" font-family="Helvetica,sans-Serif" font-size="10.00">int</text>
<polyline fill="none" stroke="#bfbfbf" points="1282,-1431.5 1311,-1431.5 "/>
<text text-anchor="middle" x="1296.5" y="-1419.5" font-family="Helvetica,sans-Serif" font-size="10.00"> </text>
<polyline fill="none" stroke="#bfbfbf" points="1282,-1412.5 1311,-1412.5 "/>
<text text-anchor="middle" x="1296.5" y="-1400.5" font-family="Helvetica,sans-Serif" font-size="10.00"> </text>
</a>
</g>
</g>
<!-- Node12&#45;&gt;Node1 -->
<g id="edge27" class="edge">
<title>Node12&#45;&gt;Node1</title>
<path fill="none" stroke="#404040" d="M1311.22,-1420.76C1375.9,-1419.36 1633.82,-1410.21 1684.5,-1353 1761.6,-1265.97 1726.44,-459.25 1711.79,-179.77"/>
<polygon fill="none" stroke="#404040" points="1711.78,-179.65 1707.47,-173.87 1711.15,-167.66 1715.46,-173.44 1711.78,-179.65"/>
<text text-anchor="middle" x="1766" y="-932" font-family="Helvetica,sans-Serif" font-size="10.00"> +currentPhase</text>
<text text-anchor="middle" x="1766" y="-921" font-family="Helvetica,sans-Serif" font-size="10.00">+hallPosition</text>
</g>
<!-- Node12&#45;&gt;Node2 -->
<g id="edge18" class="edge">
<title>Node12&#45;&gt;Node2</title>
<path fill="none" stroke="#404040" d="M1311.05,-1400.69C1319.42,-1387.73 1329.13,-1370.19 1333.5,-1353 1343.67,-1313.03 1363.47,-1067.83 1326.5,-958 1272.02,-796.14 1100.56,-678.77 990.16,-617.62"/>
<polygon fill="none" stroke="#404040" points="989.87,-617.46 982.68,-618.09 979.34,-611.7 986.52,-611.07 989.87,-617.46"/>
<text text-anchor="middle" x="1383" y="-1111" font-family="Helvetica,sans-Serif" font-size="10.00"> +KrownReward</text>
<text text-anchor="middle" x="1383" y="-1100" font-family="Helvetica,sans-Serif" font-size="10.00">+currentHealth</text>
</g>
<!-- Node12&#45;&gt;Node8 -->
<g id="edge11" class="edge">
<title>Node12&#45;&gt;Node8</title>
<path fill="none" stroke="#404040" d="M1281.86,-1413.86C1230.01,-1389.01 1049.72,-1306.14 890.5,-1276 827.37,-1264.05 367.21,-1291.69 312.5,-1258 275.38,-1235.14 254.11,-1188.89 242.76,-1153.95"/>
<polygon fill="none" stroke="#404040" points="242.66,-1153.6 237.08,-1149.02 239.16,-1142.12 244.73,-1146.69 242.66,-1153.6"/>
<text text-anchor="middle" x="1174" y="-1317.5" font-family="Helvetica,sans-Serif" font-size="10.00"> +generalDamage</text>
<text text-anchor="middle" x="1174" y="-1306.5" font-family="Helvetica,sans-Serif" font-size="10.00">+maxHealth</text>
</g>
<!-- Node12&#45;&gt;Node20 -->
<g id="edge24" class="edge">
<title>Node12&#45;&gt;Node20</title>
<path fill="none" stroke="#404040" d="M1283.72,-1393.31C1270.41,-1364.47 1248.44,-1316.86 1226.24,-1268.77"/>
<polygon fill="none" stroke="#404040" points="1226.23,-1268.76 1220.09,-1264.99 1221.21,-1257.86 1227.35,-1261.63 1226.23,-1268.76"/>
<text text-anchor="middle" x="1296" y="-1317.5" font-family="Helvetica,sans-Serif" font-size="10.00"> +currentHealth</text>
<text text-anchor="middle" x="1296" y="-1306.5" font-family="Helvetica,sans-Serif" font-size="10.00">+maxHealth</text>
</g>
<!-- Node13 -->
<g id="node13" class="node">
<title>Node13</title>
<g id="a_node13"><a xlink:title=" ">
<polygon fill="none" stroke="#bfbfbf" points="485,-1079.5 485,-1136.5 574,-1136.5 574,-1079.5 485,-1079.5"/>
<text text-anchor="middle" x="529.5" y="-1124.5" font-family="Helvetica,sans-Serif" font-size="10.00">ECharacterState</text>
<polyline fill="none" stroke="#bfbfbf" points="485,-1117.5 574,-1117.5 "/>
<text text-anchor="middle" x="529.5" y="-1105.5" font-family="Helvetica,sans-Serif" font-size="10.00"> </text>
<polyline fill="none" stroke="#bfbfbf" points="485,-1098.5 574,-1098.5 "/>
<text text-anchor="middle" x="529.5" y="-1086.5" font-family="Helvetica,sans-Serif" font-size="10.00"> </text>
</a>
</g>
</g>
<!-- Node13&#45;&gt;Node2 -->
<g id="edge12" class="edge">
<title>Node13&#45;&gt;Node2</title>
<path fill="none" stroke="#404040" d="M537.22,-1079.3C546.21,-1048.77 562.43,-998.61 582.5,-958 637.43,-846.87 728.33,-738.12 797.54,-664.08"/>
<polygon fill="none" stroke="#404040" points="797.64,-663.97 798.84,-656.85 805.86,-655.22 804.67,-662.34 797.64,-663.97"/>
<text text-anchor="middle" x="632.5" y="-926.5" font-family="Helvetica,sans-Serif" font-size="10.00"> #currentState</text>
</g>
<!-- Node14 -->
<g id="node14" class="node">
<title>Node14</title>
<g id="a_node14"><a xlink:title=" ">
<polygon fill="none" stroke="#bfbfbf" points="592,-1079.5 592,-1136.5 655,-1136.5 655,-1079.5 592,-1079.5"/>
<text text-anchor="middle" x="623.5" y="-1124.5" font-family="Helvetica,sans-Serif" font-size="10.00">UnityEvent</text>
<polyline fill="none" stroke="#bfbfbf" points="592,-1117.5 655,-1117.5 "/>
<text text-anchor="middle" x="623.5" y="-1105.5" font-family="Helvetica,sans-Serif" font-size="10.00"> </text>
<polyline fill="none" stroke="#bfbfbf" points="592,-1098.5 655,-1098.5 "/>
<text text-anchor="middle" x="623.5" y="-1086.5" font-family="Helvetica,sans-Serif" font-size="10.00"> </text>
</a>
</g>
</g>
<!-- Node14&#45;&gt;Node2 -->
<g id="edge13" class="edge">
<title>Node14&#45;&gt;Node2</title>
<path fill="none" stroke="#404040" d="M628.83,-1079.36C635.22,-1048.89 647.28,-998.78 664.5,-958 701.11,-871.31 753.68,-780.28 799.12,-708.14"/>
<polygon fill="none" stroke="#404040" points="799.35,-707.78 799.18,-700.57 805.77,-697.64 805.94,-704.85 799.35,-707.78"/>
<text text-anchor="middle" x="713" y="-926.5" font-family="Helvetica,sans-Serif" font-size="10.00"> +OnLandEvent</text>
</g>
<!-- Node15 -->
<g id="node15" class="node">
<title>Node15</title>
<g id="a_node15"><a xlink:href="class_controllers_1_1_movement_1_1_base_movement_controller.html" target="_top" xlink:title=" ">
<polygon fill="none" stroke="black" points="673.5,-1074 673.5,-1142 809.5,-1142 809.5,-1074 673.5,-1074"/>
<text text-anchor="start" x="681.5" y="-1130" font-family="Helvetica,sans-Serif" font-size="10.00">Controllers.Movement.Base</text>
<text text-anchor="middle" x="741.5" y="-1119" font-family="Helvetica,sans-Serif" font-size="10.00">MovementController</text>
<polyline fill="none" stroke="black" points="673.5,-1112 809.5,-1112 "/>
<text text-anchor="middle" x="741.5" y="-1100" font-family="Helvetica,sans-Serif" font-size="10.00"> </text>
<polyline fill="none" stroke="black" points="673.5,-1093 809.5,-1093 "/>
<text text-anchor="middle" x="741.5" y="-1081" font-family="Helvetica,sans-Serif" font-size="10.00"> </text>
</a>
</g>
</g>
<!-- Node15&#45;&gt;Node2 -->
<g id="edge14" class="edge">
<title>Node15&#45;&gt;Node2</title>
<path fill="none" stroke="#404040" d="M745.46,-1073.89C750.38,-1035.89 759.84,-971.87 773.5,-918 781.76,-885.43 791.64,-851.55 802.14,-818.26"/>
<polygon fill="none" stroke="#404040" points="802.23,-817.95 800.24,-811.02 805.87,-806.52 807.87,-813.45 802.23,-817.95"/>
<text text-anchor="middle" x="831" y="-926.5" font-family="Helvetica,sans-Serif" font-size="10.00"> #baseMovementController</text>
</g>
<!-- Node16 -->
<g id="node16" class="node">
<title>Node16</title>
<g id="a_node16"><a xlink:href="class_controllers_1_1_state_machine_1_1_controller_state_machine.html" target="_top" xlink:title="Controla el estado de un enemigo o NPC, desde que spawnea hasta que muere. Casi todos los metodos son...">
<polygon fill="none" stroke="black" points="828,-1057.5 828,-1158.5 957,-1158.5 957,-1057.5 828,-1057.5"/>
<text text-anchor="start" x="836" y="-1146.5" font-family="Helvetica,sans-Serif" font-size="10.00">Controllers.StateMachine.</text>
<text text-anchor="middle" x="892.5" y="-1135.5" font-family="Helvetica,sans-Serif" font-size="10.00">ControllerStateMachine</text>
<polyline fill="none" stroke="black" points="828,-1128.5 957,-1128.5 "/>
<text text-anchor="start" x="836" y="-1116.5" font-family="Helvetica,sans-Serif" font-size="10.00">+ State CurrentState</text>
<polyline fill="none" stroke="black" points="828,-1109.5 957,-1109.5 "/>
<text text-anchor="start" x="836" y="-1097.5" font-family="Helvetica,sans-Serif" font-size="10.00">+ void Initialize(State</text>
<text text-anchor="start" x="836" y="-1086.5" font-family="Helvetica,sans-Serif" font-size="10.00"> startState)</text>
<text text-anchor="start" x="836" y="-1075.5" font-family="Helvetica,sans-Serif" font-size="10.00">+ void ChangeState(State</text>
<text text-anchor="start" x="836" y="-1064.5" font-family="Helvetica,sans-Serif" font-size="10.00"> nextState)</text>
</a>
</g>
</g>
<!-- Node16&#45;&gt;Node2 -->
<g id="edge16" class="edge">
<title>Node16&#45;&gt;Node2</title>
<path fill="none" stroke="#404040" d="M892.5,-1057.4C892.5,-1021.37 892.5,-969.08 892.5,-911.97"/>
<polygon fill="none" stroke="#404040" points="892.5,-911.72 888.5,-905.72 892.5,-899.72 896.5,-905.72 892.5,-911.72"/>
<text text-anchor="middle" x="927.5" y="-926.5" font-family="Helvetica,sans-Serif" font-size="10.00"> +StateMachine</text>
</g>
<!-- Node17 -->
<g id="node17" class="node">
<title>Node17</title>
<g id="a_node17"><a xlink:title=" ">
<polygon fill="none" stroke="#bfbfbf" points="975.5,-1079.5 975.5,-1136.5 1059.5,-1136.5 1059.5,-1079.5 975.5,-1079.5"/>
<text text-anchor="middle" x="1017.5" y="-1124.5" font-family="Helvetica,sans-Serif" font-size="10.00">EControllerKind</text>
<polyline fill="none" stroke="#bfbfbf" points="975.5,-1117.5 1059.5,-1117.5 "/>
<text text-anchor="middle" x="1017.5" y="-1105.5" font-family="Helvetica,sans-Serif" font-size="10.00"> </text>
<polyline fill="none" stroke="#bfbfbf" points="975.5,-1098.5 1059.5,-1098.5 "/>
<text text-anchor="middle" x="1017.5" y="-1086.5" font-family="Helvetica,sans-Serif" font-size="10.00"> </text>
</a>
</g>
</g>
<!-- Node17&#45;&gt;Node2 -->
<g id="edge17" class="edge">
<title>Node17&#45;&gt;Node2</title>
<path fill="none" stroke="#404040" d="M1011.04,-1079.23C1003.02,-1044.72 988.37,-981.72 972.04,-911.5"/>
<polygon fill="none" stroke="#404040" points="972.01,-911.4 966.76,-906.46 969.29,-899.71 974.55,-904.65 972.01,-911.4"/>
<text text-anchor="middle" x="1012" y="-926.5" font-family="Helvetica,sans-Serif" font-size="10.00"> +controllerKind</text>
</g>
<!-- Node18 -->
<g id="node18" class="node">
<title>Node18</title>
<g id="a_node18"><a xlink:title=" ">
<polygon fill="none" stroke="#bfbfbf" points="1771,-1393.5 1771,-1450.5 1806,-1450.5 1806,-1393.5 1771,-1393.5"/>
<text text-anchor="middle" x="1788.5" y="-1438.5" font-family="Helvetica,sans-Serif" font-size="10.00">bool</text>
<polyline fill="none" stroke="#bfbfbf" points="1771,-1431.5 1806,-1431.5 "/>
<text text-anchor="middle" x="1788.5" y="-1419.5" font-family="Helvetica,sans-Serif" font-size="10.00"> </text>
<polyline fill="none" stroke="#bfbfbf" points="1771,-1412.5 1806,-1412.5 "/>
<text text-anchor="middle" x="1788.5" y="-1400.5" font-family="Helvetica,sans-Serif" font-size="10.00"> </text>
</a>
</g>
</g>
<!-- Node18&#45;&gt;Node1 -->
<g id="edge28" class="edge">
<title>Node18&#45;&gt;Node1</title>
<path fill="none" stroke="#404040" d="M1806.2,-1402.91C1832.4,-1374.74 1880.33,-1317.42 1898.5,-1258 1937.5,-1130.5 1912.9,-1090.55 1898.5,-958 1867.22,-670.15 1779.55,-338.15 1734.3,-179.27"/>
<polygon fill="none" stroke="#404040" points="1734.28,-179.21 1728.78,-174.54 1730.98,-167.67 1736.48,-172.34 1734.28,-179.21"/>
<text text-anchor="middle" x="1926" y="-932" font-family="Helvetica,sans-Serif" font-size="10.00"> +transformed</text>
<text text-anchor="middle" x="1926" y="-921" font-family="Helvetica,sans-Serif" font-size="10.00">+transforming</text>
</g>
<!-- Node18&#45;&gt;Node2 -->
<g id="edge19" class="edge">
<title>Node18&#45;&gt;Node2</title>
<path fill="none" stroke="#404040" d="M1789.48,-1393.28C1792.78,-1293.56 1801.79,-956.95 1774.5,-918 1591.57,-656.92 1180.8,-591.41 991.49,-574.99"/>
<polygon fill="none" stroke="#404040" points="991.31,-574.97 984.99,-578.46 979.35,-573.97 985.66,-570.49 991.31,-574.97"/>
<text text-anchor="middle" x="1844.5" y="-1127.5" font-family="Helvetica,sans-Serif" font-size="10.00"> #canInteract</text>
<text text-anchor="middle" x="1844.5" y="-1116.5" font-family="Helvetica,sans-Serif" font-size="10.00">#dead</text>
<text text-anchor="middle" x="1844.5" y="-1105.5" font-family="Helvetica,sans-Serif" font-size="10.00">#isInvencible</text>
<text text-anchor="middle" x="1844.5" y="-1094.5" font-family="Helvetica,sans-Serif" font-size="10.00">#lastGroundDetected</text>
<text text-anchor="middle" x="1844.5" y="-1083.5" font-family="Helvetica,sans-Serif" font-size="10.00">#playerFacingDirection</text>
</g>
<!-- Node18&#45;&gt;Node20 -->
<g id="edge25" class="edge">
<title>Node18&#45;&gt;Node20</title>
<path fill="none" stroke="#404040" d="M1770.95,-1414.53C1710.75,-1392.52 1506.79,-1319.51 1333.5,-1276 1294.3,-1266.16 1275.26,-1280.83 1237.69,-1257.81"/>
<polygon fill="none" stroke="#404040" points="1237.68,-1257.8 1230.47,-1257.78 1227.72,-1251.11 1234.93,-1251.14 1237.68,-1257.8"/>
<text text-anchor="middle" x="1632" y="-1345" font-family="Helvetica,sans-Serif" font-size="10.00"> +isEnrolledInDialogue</text>
<text text-anchor="middle" x="1632" y="-1334" font-family="Helvetica,sans-Serif" font-size="10.00">+warpActioned</text>
<text text-anchor="middle" x="1632" y="-1323" font-family="Helvetica,sans-Serif" font-size="10.00">~moveOnDamaged</text>
<text text-anchor="middle" x="1632" y="-1312" font-family="Helvetica,sans-Serif" font-size="10.00">~praying</text>
<text text-anchor="middle" x="1632" y="-1301" font-family="Helvetica,sans-Serif" font-size="10.00">~respawning</text>
<text text-anchor="middle" x="1632" y="-1290" font-family="Helvetica,sans-Serif" font-size="10.00">~roll</text>
<text text-anchor="middle" x="1632" y="-1279" font-family="Helvetica,sans-Serif" font-size="10.00">~rollAnim</text>
</g>
<!-- Node19 -->
<g id="node19" class="node">
<title>Node19</title>
<g id="a_node19"><a xlink:title=" ">
<polygon fill="none" stroke="#bfbfbf" points="1245.5,-1079.5 1245.5,-1136.5 1317.5,-1136.5 1317.5,-1079.5 1245.5,-1079.5"/>
<text text-anchor="middle" x="1281.5" y="-1124.5" font-family="Helvetica,sans-Serif" font-size="10.00">AudioSource</text>
<polyline fill="none" stroke="#bfbfbf" points="1245.5,-1117.5 1317.5,-1117.5 "/>
<text text-anchor="middle" x="1281.5" y="-1105.5" font-family="Helvetica,sans-Serif" font-size="10.00"> </text>
<polyline fill="none" stroke="#bfbfbf" points="1245.5,-1098.5 1317.5,-1098.5 "/>
<text text-anchor="middle" x="1281.5" y="-1086.5" font-family="Helvetica,sans-Serif" font-size="10.00"> </text>
</a>
</g>
</g>
<!-- Node19&#45;&gt;Node2 -->
<g id="edge20" class="edge">
<title>Node19&#45;&gt;Node2</title>
<path fill="none" stroke="#404040" d="M1276.83,-1079.22C1270.79,-1048.19 1258.36,-997.17 1236.5,-958 1170.98,-840.59 1064.93,-728.03 987.88,-654.58"/>
<polygon fill="none" stroke="#404040" points="987.82,-654.52 980.71,-653.29 979.11,-646.26 986.22,-647.48 987.82,-654.52"/>
<text text-anchor="middle" x="1258" y="-932" font-family="Helvetica,sans-Serif" font-size="10.00"> #hitAttackSFX1</text>
<text text-anchor="middle" x="1258" y="-921" font-family="Helvetica,sans-Serif" font-size="10.00">#hitAttackSFX2</text>
</g>
<!-- Node20&#45;&gt;Node2 -->
<g id="edge21" class="edge">
<title>Node20&#45;&gt;Node2</title>
<path fill="none" stroke="#404040" d="M1080.59,-958.35C1050.84,-896.83 1015.97,-824.75 984.39,-759.47"/>
<polygon fill="none" stroke="#404040" points="984.38,-759.44 978.16,-755.78 979.15,-748.64 985.36,-752.29 984.38,-759.44"/>
<text text-anchor="middle" x="1106.5" y="-926.5" font-family="Helvetica,sans-Serif" font-size="10.00"> #playerController</text>
</g>
<!-- Node21 -->
<g id="node21" class="node">
<title>Node21</title>
<g id="a_node21"><a xlink:title=" ">
<polygon fill="none" stroke="#bfbfbf" points="1945,-540 1945,-597 2004,-597 2004,-540 1945,-540"/>
<text text-anchor="middle" x="1974.5" y="-585" font-family="Helvetica,sans-Serif" font-size="10.00">Transform</text>
<polyline fill="none" stroke="#bfbfbf" points="1945,-578 2004,-578 "/>
<text text-anchor="middle" x="1974.5" y="-566" font-family="Helvetica,sans-Serif" font-size="10.00"> </text>
<polyline fill="none" stroke="#bfbfbf" points="1945,-559 2004,-559 "/>
<text text-anchor="middle" x="1974.5" y="-547" font-family="Helvetica,sans-Serif" font-size="10.00"> </text>
</a>
</g>
</g>
<!-- Node21&#45;&gt;Node1 -->
<g id="edge29" class="edge">
<title>Node21&#45;&gt;Node1</title>
<path fill="none" stroke="#404040" d="M1979.81,-539.77C1991.13,-472 2010.54,-295.55 1930.5,-186 1901.21,-145.92 1852.27,-121.41 1807.58,-106.59"/>
<polygon fill="none" stroke="#404040" points="1807.47,-106.55 1800.54,-108.56 1796.03,-102.94 1802.95,-100.93 1807.47,-106.55"/>
<text text-anchor="middle" x="1988" y="-211" font-family="Helvetica,sans-Serif" font-size="10.00"> +arrowsPos</text>
<text text-anchor="middle" x="1988" y="-200" font-family="Helvetica,sans-Serif" font-size="10.00">+projectilePos</text>
<text text-anchor="middle" x="1988" y="-189" font-family="Helvetica,sans-Serif" font-size="10.00">+secondPhasePos</text>
</g>
</g>
</svg>
