<?xml version="1.0" encoding="UTF-8" standalone="no"?>
<!DOCTYPE svg PUBLIC "-//W3C//DTD SVG 1.1//EN"
 "http://www.w3.org/Graphics/SVG/1.1/DTD/svg11.dtd">
<!-- Generated by graphviz version 2.48.0 (20210717.1556)
 -->
<!-- Title: Controllers.StateMachine.States.Data.JumpStateData Pages: 1 -->
<svg width="453pt" height="204pt"
 viewBox="0.00 0.00 452.50 204.00" xmlns="http://www.w3.org/2000/svg" xmlns:xlink="http://www.w3.org/1999/xlink">
<g id="graph0" class="graph" transform="scale(1 1) rotate(0) translate(4 200)">
<title>Controllers.StateMachine.States.Data.JumpStateData</title>
<!-- Node1 -->
<g id="node1" class="node">
<title>Node1</title>
<g id="a_node1"><a xlink:title=" ">
<polygon fill="#bfbfbf" stroke="black" points="103.5,-0.5 103.5,-68.5 241.5,-68.5 241.5,-0.5 103.5,-0.5"/>
<text text-anchor="start" x="111.5" y="-56.5" font-family="Helvetica,sans-Serif" font-size="10.00">Controllers.StateMachine.</text>
<text text-anchor="middle" x="172.5" y="-45.5" font-family="Helvetica,sans-Serif" font-size="10.00">States.Data.JumpStateData</text>
<polyline fill="none" stroke="black" points="103.5,-38.5 241.5,-38.5 "/>
<text text-anchor="middle" x="172.5" y="-26.5" font-family="Helvetica,sans-Serif" font-size="10.00"> </text>
<polyline fill="none" stroke="black" points="103.5,-19.5 241.5,-19.5 "/>
<text text-anchor="middle" x="172.5" y="-7.5" font-family="Helvetica,sans-Serif" font-size="10.00"> </text>
</a>
</g>
</g>
<!-- Node2 -->
<g id="node2" class="node">
<title>Node2</title>
<g id="a_node2"><a xlink:href="class_scriptable_object.html" target="_top" xlink:title=" ">
<polygon fill="none" stroke="black" points="0,-138.5 0,-195.5 89,-195.5 89,-138.5 0,-138.5"/>
<text text-anchor="middle" x="44.5" y="-183.5" font-family="Helvetica,sans-Serif" font-size="10.00">ScriptableObject</text>
<polyline fill="none" stroke="black" points="0,-176.5 89,-176.5 "/>
<text text-anchor="middle" x="44.5" y="-164.5" font-family="Helvetica,sans-Serif" font-size="10.00"> </text>
<polyline fill="none" stroke="black" points="0,-157.5 89,-157.5 "/>
<text text-anchor="middle" x="44.5" y="-145.5" font-family="Helvetica,sans-Serif" font-size="10.00"> </text>
</a>
</g>
</g>
<!-- Node2&#45;&gt;Node1 -->
<g id="edge1" class="edge">
<title>Node2&#45;&gt;Node1</title>
<path fill="none" stroke="midnightblue" d="M78.69,-131.14C97.69,-111.77 121.22,-87.79 139.95,-68.68"/>
<polygon fill="none" stroke="midnightblue" points="76.15,-128.73 71.65,-138.32 81.15,-133.64 76.15,-128.73"/>
</g>
<!-- Node3 -->
<g id="node3" class="node">
<title>Node3</title>
<g id="a_node3"><a xlink:title=" ">
<polygon fill="none" stroke="#bfbfbf" points="107.5,-138.5 107.5,-195.5 165.5,-195.5 165.5,-138.5 107.5,-138.5"/>
<text text-anchor="middle" x="136.5" y="-183.5" font-family="Helvetica,sans-Serif" font-size="10.00">AudioClip</text>
<polyline fill="none" stroke="#bfbfbf" points="107.5,-176.5 165.5,-176.5 "/>
<text text-anchor="middle" x="136.5" y="-164.5" font-family="Helvetica,sans-Serif" font-size="10.00"> </text>
<polyline fill="none" stroke="#bfbfbf" points="107.5,-157.5 165.5,-157.5 "/>
<text text-anchor="middle" x="136.5" y="-145.5" font-family="Helvetica,sans-Serif" font-size="10.00"> </text>
</a>
</g>
</g>
<!-- Node3&#45;&gt;Node1 -->
<g id="edge2" class="edge">
<title>Node3&#45;&gt;Node1</title>
<path fill="none" stroke="#404040" d="M133,-138.33C131.99,-122.88 132.31,-103.49 137.5,-87 138.3,-84.44 139.28,-81.9 140.39,-79.39"/>
<polygon fill="none" stroke="#404040" points="140.43,-79.32 139.64,-72.15 145.96,-68.67 146.74,-75.84 140.43,-79.32"/>
<text text-anchor="middle" x="162" y="-106.5" font-family="Helvetica,sans-Serif" font-size="10.00"> +jumpSFX</text>
<text text-anchor="middle" x="162" y="-95.5" font-family="Helvetica,sans-Serif" font-size="10.00">+landSFX</text>
</g>
<!-- Node4 -->
<g id="node4" class="node">
<title>Node4</title>
<g id="a_node4"><a xlink:title=" ">
<polygon fill="none" stroke="#bfbfbf" points="191,-138.5 191,-195.5 226,-195.5 226,-138.5 191,-138.5"/>
<text text-anchor="middle" x="208.5" y="-183.5" font-family="Helvetica,sans-Serif" font-size="10.00">float</text>
<polyline fill="none" stroke="#bfbfbf" points="191,-176.5 226,-176.5 "/>
<text text-anchor="middle" x="208.5" y="-164.5" font-family="Helvetica,sans-Serif" font-size="10.00"> </text>
<polyline fill="none" stroke="#bfbfbf" points="191,-157.5 226,-157.5 "/>
<text text-anchor="middle" x="208.5" y="-145.5" font-family="Helvetica,sans-Serif" font-size="10.00"> </text>
</a>
</g>
</g>
<!-- Node4&#45;&gt;Node1 -->
<g id="edge3" class="edge">
<title>Node4&#45;&gt;Node1</title>
<path fill="none" stroke="#404040" d="M200.87,-138.32C196.22,-121.47 190.17,-99.55 184.85,-80.27"/>
<polygon fill="none" stroke="#404040" points="184.85,-80.25 179.39,-75.53 181.65,-68.68 187.11,-73.4 184.85,-80.25"/>
<text text-anchor="start" x="194.5" y="-112" font-family="Helvetica,sans-Serif" font-size="10.00"> +jumpingCooldownRandomRange</text>
<text text-anchor="middle" x="273" y="-101" font-family="Helvetica,sans-Serif" font-size="10.00">From</text>
<text text-anchor="middle" x="273" y="-90" font-family="Helvetica,sans-Serif" font-size="10.00">+jumpingCooldownRandomRangeTo</text>
</g>
<!-- Node5 -->
<g id="node5" class="node">
<title>Node5</title>
<g id="a_node5"><a xlink:title=" ">
<polygon fill="none" stroke="#bfbfbf" points="363.5,-138.5 363.5,-195.5 413.5,-195.5 413.5,-138.5 363.5,-138.5"/>
<text text-anchor="middle" x="388.5" y="-183.5" font-family="Helvetica,sans-Serif" font-size="10.00">Vector2</text>
<polyline fill="none" stroke="#bfbfbf" points="363.5,-176.5 413.5,-176.5 "/>
<text text-anchor="middle" x="388.5" y="-164.5" font-family="Helvetica,sans-Serif" font-size="10.00"> </text>
<polyline fill="none" stroke="#bfbfbf" points="363.5,-157.5 413.5,-157.5 "/>
<text text-anchor="middle" x="388.5" y="-145.5" font-family="Helvetica,sans-Serif" font-size="10.00"> </text>
</a>
</g>
</g>
<!-- Node5&#45;&gt;Node1 -->
<g id="edge4" class="edge">
<title>Node5&#45;&gt;Node1</title>
<path fill="none" stroke="#404040" d="M383.32,-138.27C378.75,-121.23 370.41,-100.2 355.5,-87 327.54,-62.24 288.54,-49.31 253.73,-42.58"/>
<polygon fill="none" stroke="#404040" points="253.43,-42.53 246.83,-45.43 241.61,-40.45 248.21,-37.55 253.43,-42.53"/>
<text text-anchor="middle" x="410.5" y="-101" font-family="Helvetica,sans-Serif" font-size="10.00"> +jumpingForce</text>
</g>
</g>
</svg>
