<?xml version="1.0" encoding="UTF-8" standalone="no"?>
<!DOCTYPE svg PUBLIC "-//W3C//DTD SVG 1.1//EN"
 "http://www.w3.org/Graphics/SVG/1.1/DTD/svg11.dtd">
<!-- Generated by graphviz version 2.48.0 (20210717.1556)
 -->
<!-- Title: ScreenOpts Pages: 1 -->
<svg width="181pt" height="204pt"
 viewBox="0.00 0.00 181.00 204.00" xmlns="http://www.w3.org/2000/svg" xmlns:xlink="http://www.w3.org/1999/xlink">
<g id="graph0" class="graph" transform="scale(1 1) rotate(0) translate(4 200)">
<title>ScreenOpts</title>
<!-- Node1 -->
<g id="node1" class="node">
<title>Node1</title>
<g id="a_node1"><a xlink:title=" ">
<polygon fill="#bfbfbf" stroke="black" points="0,-0.5 0,-101.5 173,-101.5 173,-0.5 0,-0.5"/>
<text text-anchor="middle" x="86.5" y="-89.5" font-family="Helvetica,sans-Serif" font-size="10.00">ScreenOpts</text>
<polyline fill="none" stroke="black" points="0,-82.5 173,-82.5 "/>
<text text-anchor="start" x="8" y="-70.5" font-family="Helvetica,sans-Serif" font-size="10.00">+ int currentFPS</text>
<text text-anchor="start" x="8" y="-59.5" font-family="Helvetica,sans-Serif" font-size="10.00">+ LocalizeStringEvent</text>
<text text-anchor="start" x="8" y="-48.5" font-family="Helvetica,sans-Serif" font-size="10.00"> localizeString</text>
<text text-anchor="start" x="8" y="-37.5" font-family="Helvetica,sans-Serif" font-size="10.00">+ static string sliderFPSamountSTR</text>
<polyline fill="none" stroke="black" points="0,-30.5 173,-30.5 "/>
<text text-anchor="start" x="8" y="-18.5" font-family="Helvetica,sans-Serif" font-size="10.00">~ void SetFPSStr(int</text>
<text text-anchor="start" x="8" y="-7.5" font-family="Helvetica,sans-Serif" font-size="10.00"> sliderFPSamount)</text>
</a>
</g>
</g>
<!-- Node2 -->
<g id="node2" class="node">
<title>Node2</title>
<g id="a_node2"><a xlink:title=" ">
<polygon fill="none" stroke="#bfbfbf" points="45,-138.5 45,-195.5 128,-195.5 128,-138.5 45,-138.5"/>
<text text-anchor="middle" x="86.5" y="-183.5" font-family="Helvetica,sans-Serif" font-size="10.00">MonoBehaviour</text>
<polyline fill="none" stroke="#bfbfbf" points="45,-176.5 128,-176.5 "/>
<text text-anchor="middle" x="86.5" y="-164.5" font-family="Helvetica,sans-Serif" font-size="10.00"> </text>
<polyline fill="none" stroke="#bfbfbf" points="45,-157.5 128,-157.5 "/>
<text text-anchor="middle" x="86.5" y="-145.5" font-family="Helvetica,sans-Serif" font-size="10.00"> </text>
</a>
</g>
</g>
<!-- Node2&#45;&gt;Node1 -->
<g id="edge1" class="edge">
<title>Node2&#45;&gt;Node1</title>
<path fill="none" stroke="midnightblue" d="M86.5,-128.35C86.5,-119.8 86.5,-110.58 86.5,-101.61"/>
<polygon fill="none" stroke="midnightblue" points="83,-128.4 86.5,-138.4 90,-128.4 83,-128.4"/>
</g>
</g>
</svg>
