<?xml version="1.0" encoding="UTF-8" standalone="no"?>
<!DOCTYPE svg PUBLIC "-//W3C//DTD SVG 1.1//EN"
 "http://www.w3.org/Graphics/SVG/1.1/DTD/svg11.dtd">
<!-- Generated by graphviz version 2.48.0 (20210717.1556)
 -->
<!-- Title: UI_ButtonMenu Pages: 1 -->
<svg width="232pt" height="193pt"
 viewBox="0.00 0.00 232.00 193.00" xmlns="http://www.w3.org/2000/svg" xmlns:xlink="http://www.w3.org/1999/xlink">
<g id="graph0" class="graph" transform="scale(1 1) rotate(0) translate(4 189)">
<title>UI_ButtonMenu</title>
<!-- Node1 -->
<g id="node1" class="node">
<title>Node1</title>
<g id="a_node1"><a xlink:title=" ">
<polygon fill="#bfbfbf" stroke="black" points="41.5,-0.5 41.5,-90.5 184.5,-90.5 184.5,-0.5 41.5,-0.5"/>
<text text-anchor="middle" x="113" y="-78.5" font-family="Helvetica,sans-Serif" font-size="10.00">UI_ButtonMenu</text>
<polyline fill="none" stroke="black" points="41.5,-71.5 184.5,-71.5 "/>
<text text-anchor="middle" x="113" y="-59.5" font-family="Helvetica,sans-Serif" font-size="10.00"> </text>
<polyline fill="none" stroke="black" points="41.5,-52.5 184.5,-52.5 "/>
<text text-anchor="start" x="49.5" y="-40.5" font-family="Helvetica,sans-Serif" font-size="10.00">+ void OnPointerEnter</text>
<text text-anchor="start" x="49.5" y="-29.5" font-family="Helvetica,sans-Serif" font-size="10.00">(PointerEventData eventData)</text>
<text text-anchor="start" x="49.5" y="-18.5" font-family="Helvetica,sans-Serif" font-size="10.00">+ void OnPointerExit</text>
<text text-anchor="start" x="49.5" y="-7.5" font-family="Helvetica,sans-Serif" font-size="10.00">(PointerEventData eventData)</text>
</a>
</g>
</g>
<!-- Node2 -->
<g id="node2" class="node">
<title>Node2</title>
<g id="a_node2"><a xlink:href="class_i_pointer_enter_handler.html" target="_top" xlink:title=" ">
<polygon fill="none" stroke="black" points="0,-127.5 0,-184.5 106,-184.5 106,-127.5 0,-127.5"/>
<text text-anchor="middle" x="53" y="-172.5" font-family="Helvetica,sans-Serif" font-size="10.00">IPointerEnterHandler</text>
<polyline fill="none" stroke="black" points="0,-165.5 106,-165.5 "/>
<text text-anchor="middle" x="53" y="-153.5" font-family="Helvetica,sans-Serif" font-size="10.00"> </text>
<polyline fill="none" stroke="black" points="0,-146.5 106,-146.5 "/>
<text text-anchor="middle" x="53" y="-134.5" font-family="Helvetica,sans-Serif" font-size="10.00"> </text>
</a>
</g>
</g>
<!-- Node2&#45;&gt;Node1 -->
<g id="edge1" class="edge">
<title>Node2&#45;&gt;Node1</title>
<path fill="none" stroke="midnightblue" d="M73.27,-118.34C78.21,-109.42 83.53,-99.78 88.64,-90.55"/>
<polygon fill="none" stroke="midnightblue" points="70.07,-116.9 68.3,-127.34 76.2,-120.28 70.07,-116.9"/>
</g>
<!-- Node3 -->
<g id="node3" class="node">
<title>Node3</title>
<g id="a_node3"><a xlink:href="class_i_pointer_exit_handler.html" target="_top" xlink:title=" ">
<polygon fill="none" stroke="black" points="124,-127.5 124,-184.5 224,-184.5 224,-127.5 124,-127.5"/>
<text text-anchor="middle" x="174" y="-172.5" font-family="Helvetica,sans-Serif" font-size="10.00">IPointerExitHandler</text>
<polyline fill="none" stroke="black" points="124,-165.5 224,-165.5 "/>
<text text-anchor="middle" x="174" y="-153.5" font-family="Helvetica,sans-Serif" font-size="10.00"> </text>
<polyline fill="none" stroke="black" points="124,-146.5 224,-146.5 "/>
<text text-anchor="middle" x="174" y="-134.5" font-family="Helvetica,sans-Serif" font-size="10.00"> </text>
</a>
</g>
</g>
<!-- Node3&#45;&gt;Node1 -->
<g id="edge2" class="edge">
<title>Node3&#45;&gt;Node1</title>
<path fill="none" stroke="midnightblue" d="M153.39,-118.34C148.37,-109.42 142.96,-99.78 137.77,-90.55"/>
<polygon fill="none" stroke="midnightblue" points="150.5,-120.34 158.45,-127.34 156.6,-116.91 150.5,-120.34"/>
</g>
</g>
</svg>
