<?xml version="1.0" encoding="UTF-8" standalone="no"?>
<!DOCTYPE svg PUBLIC "-//W3C//DTD SVG 1.1//EN"
 "http://www.w3.org/Graphics/SVG/1.1/DTD/svg11.dtd">
<!-- Generated by graphviz version 2.48.0 (20210717.1556)
 -->
<!-- Title: UI.UI_GameButton Pages: 1 -->
<svg width="247pt" height="182pt"
 viewBox="0.00 0.00 246.50 182.00" xmlns="http://www.w3.org/2000/svg" xmlns:xlink="http://www.w3.org/1999/xlink">
<g id="graph0" class="graph" transform="scale(1 1) rotate(0) translate(4 178)">
<title>UI.UI_GameButton</title>
<!-- Node1 -->
<g id="node1" class="node">
<title>Node1</title>
<g id="a_node1"><a xlink:title=" ">
<polygon fill="#bfbfbf" stroke="black" points="91,-0.5 91,-68.5 200,-68.5 200,-0.5 91,-0.5"/>
<text text-anchor="middle" x="145.5" y="-56.5" font-family="Helvetica,sans-Serif" font-size="10.00">UI.UI_GameButton</text>
<polyline fill="none" stroke="black" points="91,-49.5 200,-49.5 "/>
<text text-anchor="middle" x="145.5" y="-37.5" font-family="Helvetica,sans-Serif" font-size="10.00"> </text>
<polyline fill="none" stroke="black" points="91,-30.5 200,-30.5 "/>
<text text-anchor="start" x="99" y="-18.5" font-family="Helvetica,sans-Serif" font-size="10.00">+ void OnClick()</text>
<text text-anchor="start" x="99" y="-7.5" font-family="Helvetica,sans-Serif" font-size="10.00">+ void RestartGame()</text>
</a>
</g>
</g>
<!-- Node2 -->
<g id="node2" class="node">
<title>Node2</title>
<g id="a_node2"><a xlink:title=" ">
<polygon fill="none" stroke="#bfbfbf" points="0,-116.5 0,-173.5 83,-173.5 83,-116.5 0,-116.5"/>
<text text-anchor="middle" x="41.5" y="-161.5" font-family="Helvetica,sans-Serif" font-size="10.00">MonoBehaviour</text>
<polyline fill="none" stroke="#bfbfbf" points="0,-154.5 83,-154.5 "/>
<text text-anchor="middle" x="41.5" y="-142.5" font-family="Helvetica,sans-Serif" font-size="10.00"> </text>
<polyline fill="none" stroke="#bfbfbf" points="0,-135.5 83,-135.5 "/>
<text text-anchor="middle" x="41.5" y="-123.5" font-family="Helvetica,sans-Serif" font-size="10.00"> </text>
</a>
</g>
</g>
<!-- Node2&#45;&gt;Node1 -->
<g id="edge1" class="edge">
<title>Node2&#45;&gt;Node1</title>
<path fill="none" stroke="midnightblue" d="M75.12,-108.92C87.56,-95.95 101.6,-81.3 113.85,-68.52"/>
<polygon fill="none" stroke="midnightblue" points="72.41,-106.7 68.01,-116.34 77.46,-111.54 72.41,-106.7"/>
</g>
<!-- Node3 -->
<g id="node3" class="node">
<title>Node3</title>
<g id="a_node3"><a xlink:title=" ">
<polygon fill="none" stroke="#bfbfbf" points="101,-116.5 101,-173.5 190,-173.5 190,-116.5 101,-116.5"/>
<text text-anchor="middle" x="145.5" y="-161.5" font-family="Helvetica,sans-Serif" font-size="10.00">EButtonFunction</text>
<polyline fill="none" stroke="#bfbfbf" points="101,-154.5 190,-154.5 "/>
<text text-anchor="middle" x="145.5" y="-142.5" font-family="Helvetica,sans-Serif" font-size="10.00"> </text>
<polyline fill="none" stroke="#bfbfbf" points="101,-135.5 190,-135.5 "/>
<text text-anchor="middle" x="145.5" y="-123.5" font-family="Helvetica,sans-Serif" font-size="10.00"> </text>
</a>
</g>
</g>
<!-- Node3&#45;&gt;Node1 -->
<g id="edge2" class="edge">
<title>Node3&#45;&gt;Node1</title>
<path fill="none" stroke="#404040" d="M145.5,-116.34C145.5,-105.53 145.5,-92.85 145.5,-80.77"/>
<polygon fill="none" stroke="#404040" points="145.5,-80.52 141.5,-74.52 145.5,-68.52 149.5,-74.52 145.5,-80.52"/>
<text text-anchor="middle" x="169" y="-90" font-family="Helvetica,sans-Serif" font-size="10.00"> +Function</text>
</g>
<!-- Node4 -->
<g id="node4" class="node">
<title>Node4</title>
<g id="a_node4"><a xlink:title=" ">
<polygon fill="none" stroke="#bfbfbf" points="208,-116.5 208,-173.5 237,-173.5 237,-116.5 208,-116.5"/>
<text text-anchor="middle" x="222.5" y="-161.5" font-family="Helvetica,sans-Serif" font-size="10.00">int</text>
<polyline fill="none" stroke="#bfbfbf" points="208,-154.5 237,-154.5 "/>
<text text-anchor="middle" x="222.5" y="-142.5" font-family="Helvetica,sans-Serif" font-size="10.00"> </text>
<polyline fill="none" stroke="#bfbfbf" points="208,-135.5 237,-135.5 "/>
<text text-anchor="middle" x="222.5" y="-123.5" font-family="Helvetica,sans-Serif" font-size="10.00"> </text>
</a>
</g>
</g>
<!-- Node4&#45;&gt;Node1 -->
<g id="edge3" class="edge">
<title>Node4&#45;&gt;Node1</title>
<path fill="none" stroke="#404040" d="M212.19,-116.27C208,-106.61 202.68,-95.95 196.5,-87 194.39,-83.94 192.08,-80.9 189.66,-77.92"/>
<polygon fill="none" stroke="#404040" points="189.46,-77.69 182.51,-75.78 181.6,-68.63 188.56,-70.54 189.46,-77.69"/>
<text text-anchor="middle" x="220.5" y="-90" font-family="Helvetica,sans-Serif" font-size="10.00"> +scene</text>
</g>
</g>
</svg>
