<?xml version="1.0" encoding="UTF-8" standalone="no"?>
<!DOCTYPE svg PUBLIC "-//W3C//DTD SVG 1.1//EN"
 "http://www.w3.org/Graphics/SVG/1.1/DTD/svg11.dtd">
<!-- Generated by graphviz version 2.48.0 (20210717.1556)
 -->
<!-- Title: Representaci칩n gr치fica de la clase Pages: 1 -->
<svg width="473pt" height="165pt"
 viewBox="0.00 0.00 473.00 165.00" xmlns="http://www.w3.org/2000/svg" xmlns:xlink="http://www.w3.org/1999/xlink">
<g id="graph0" class="graph" transform="scale(1 1) rotate(0) translate(4 161)">
<title>Representaci칩n gr치fica de la clase</title>
<!-- Node0 -->
<g id="node1" class="node">
<title>Node0</title>
<g id="a_node1"><a xlink:href="interface_controllers_1_1_i_damageable.html" target="_top" xlink:title="Interfaz para todos los NPCs/Enemigos/Objetos que pueden ser daniados.">
<polygon fill="none" stroke="black" points="0,-27.5 0,-46.5 122,-46.5 122,-27.5 0,-27.5"/>
<text text-anchor="middle" x="61" y="-34.5" font-family="Helvetica,sans-Serif" font-size="10.00">Controllers.IDamageable</text>
</a>
</g>
</g>
<!-- Node1 -->
<g id="node2" class="node">
<title>Node1</title>
<g id="a_node2"><a xlink:href="class_controllers_1_1_base_controller.html" target="_top" xlink:title=" ">
<polygon fill="none" stroke="black" points="158,-68.5 158,-87.5 288,-87.5 288,-68.5 158,-68.5"/>
<text text-anchor="middle" x="223" y="-75.5" font-family="Helvetica,sans-Serif" font-size="10.00">Controllers.BaseController</text>
</a>
</g>
</g>
<!-- Node0&#45;&gt;Node1 -->
<g id="edge1" class="edge">
<title>Node0&#45;&gt;Node1</title>
<path fill="none" stroke="midnightblue" d="M108.81,-48.99C133.02,-55.2 162.16,-62.67 184.82,-68.47"/>
<polygon fill="midnightblue" stroke="midnightblue" points="109.67,-45.6 99.11,-46.51 107.93,-52.38 109.67,-45.6"/>
</g>
<!-- Node6 -->
<g id="node7" class="node">
<title>Node6</title>
<g id="a_node7"><a xlink:href="class_player_1_1_player_controller.html" target="_top" xlink:title=" ">
<polygon fill="none" stroke="black" points="165,-27.5 165,-46.5 281,-46.5 281,-27.5 165,-27.5"/>
<text text-anchor="middle" x="223" y="-34.5" font-family="Helvetica,sans-Serif" font-size="10.00">Player.PlayerController</text>
</a>
</g>
</g>
<!-- Node0&#45;&gt;Node6 -->
<g id="edge6" class="edge">
<title>Node0&#45;&gt;Node6</title>
<path fill="none" stroke="midnightblue" d="M132.34,-37C143.19,-37 154.29,-37 164.81,-37"/>
<polygon fill="midnightblue" stroke="midnightblue" points="132.03,-33.5 122.03,-37 132.03,-40.5 132.03,-33.5"/>
</g>
<!-- Node2 -->
<g id="node3" class="node">
<title>Node2</title>
<g id="a_node3"><a xlink:href="class_controllers_1_1_dummy_controller.html" target="_top" xlink:title=" ">
<polygon fill="none" stroke="black" points="324,-137.5 324,-156.5 465,-156.5 465,-137.5 324,-137.5"/>
<text text-anchor="middle" x="394.5" y="-144.5" font-family="Helvetica,sans-Serif" font-size="10.00">Controllers.DummyController</text>
</a>
</g>
</g>
<!-- Node1&#45;&gt;Node2 -->
<g id="edge2" class="edge">
<title>Node1&#45;&gt;Node2</title>
<path fill="none" stroke="midnightblue" d="M249.53,-92.52C269.37,-103.37 297.82,-117.99 324,-128 333.35,-131.57 343.64,-134.77 353.37,-137.48"/>
<polygon fill="midnightblue" stroke="midnightblue" points="250.97,-89.32 240.53,-87.53 247.58,-95.44 250.97,-89.32"/>
</g>
<!-- Node3 -->
<g id="node4" class="node">
<title>Node3</title>
<g id="a_node4"><a xlink:href="class_controllers_1_1_froggy_1_1_froggy_controller.html" target="_top" xlink:title=" ">
<polygon fill="none" stroke="black" points="330,-88 330,-118 459,-118 459,-88 330,-88"/>
<text text-anchor="start" x="338" y="-106" font-family="Helvetica,sans-Serif" font-size="10.00">Controllers.Froggy.Froggy</text>
<text text-anchor="middle" x="394.5" y="-95" font-family="Helvetica,sans-Serif" font-size="10.00">Controller</text>
</a>
</g>
</g>
<!-- Node1&#45;&gt;Node3 -->
<g id="edge3" class="edge">
<title>Node1&#45;&gt;Node3</title>
<path fill="none" stroke="midnightblue" d="M298.14,-88.93C308.72,-90.5 319.53,-92.09 329.89,-93.62"/>
<polygon fill="midnightblue" stroke="midnightblue" points="298.48,-85.45 288.08,-87.45 297.46,-92.37 298.48,-85.45"/>
</g>
<!-- Node4 -->
<g id="node5" class="node">
<title>Node4</title>
<g id="a_node5"><a xlink:href="class_controllers_1_1_froggy_1_1_o_l_c___controller.html" target="_top" xlink:title=" ">
<polygon fill="none" stroke="black" points="335,-39 335,-69 454,-69 454,-39 335,-39"/>
<text text-anchor="start" x="343" y="-57" font-family="Helvetica,sans-Serif" font-size="10.00">Controllers.Froggy.OLC</text>
<text text-anchor="middle" x="394.5" y="-46" font-family="Helvetica,sans-Serif" font-size="10.00">_Controller</text>
</a>
</g>
</g>
<!-- Node1&#45;&gt;Node4 -->
<g id="edge4" class="edge">
<title>Node1&#45;&gt;Node4</title>
<path fill="none" stroke="midnightblue" d="M298.29,-67.48C310.55,-65.75 323.1,-63.97 334.91,-62.3"/>
<polygon fill="midnightblue" stroke="midnightblue" points="297.49,-64.06 288.08,-68.93 298.47,-70.99 297.49,-64.06"/>
</g>
<!-- Node5 -->
<g id="node6" class="node">
<title>Node5</title>
<g id="a_node6"><a xlink:href="class_controllers_1_1_njord_controller.html" target="_top" xlink:title=" ">
<polygon fill="none" stroke="black" points="329.5,-0.5 329.5,-19.5 459.5,-19.5 459.5,-0.5 329.5,-0.5"/>
<text text-anchor="middle" x="394.5" y="-7.5" font-family="Helvetica,sans-Serif" font-size="10.00">Controllers.NjordController</text>
</a>
</g>
</g>
<!-- Node1&#45;&gt;Node5 -->
<g id="edge5" class="edge">
<title>Node1&#45;&gt;Node5</title>
<path fill="none" stroke="midnightblue" d="M267.51,-65.11C274.52,-62.45 281.58,-59.4 288,-56 305.67,-46.64 306.04,-37.79 324,-29 331.75,-25.21 340.37,-22.08 348.83,-19.53"/>
<polygon fill="midnightblue" stroke="midnightblue" points="266.28,-61.83 258.05,-68.49 268.64,-68.42 266.28,-61.83"/>
</g>
<!-- Node15 -->
<g id="node8" class="node">
<title>Node15</title>
<g id="a_node8"><a xlink:href="interface_interactions_1_1_interfaces_1_1_i_interactive.html" target="_top" xlink:title=" ">
<polygon fill="none" stroke="black" points="3.5,-66 3.5,-96 118.5,-96 118.5,-66 3.5,-66"/>
<text text-anchor="start" x="11.5" y="-84" font-family="Helvetica,sans-Serif" font-size="10.00">Interactions.Interfaces.</text>
<text text-anchor="middle" x="61" y="-73" font-family="Helvetica,sans-Serif" font-size="10.00">IInteractive</text>
</a>
</g>
</g>
<!-- Node15&#45;&gt;Node1 -->
<g id="edge7" class="edge">
<title>Node15&#45;&gt;Node1</title>
<path fill="none" stroke="midnightblue" d="M129.11,-79.74C138.66,-79.56 148.47,-79.38 157.97,-79.2"/>
<polygon fill="midnightblue" stroke="midnightblue" points="128.79,-76.25 118.86,-79.93 128.92,-83.25 128.79,-76.25"/>
</g>
</g>
</svg>
