<?xml version="1.0" encoding="UTF-8" standalone="no"?>
<!DOCTYPE svg PUBLIC "-//W3C//DTD SVG 1.1//EN"
 "http://www.w3.org/Graphics/SVG/1.1/DTD/svg11.dtd">
<!-- Generated by graphviz version 2.48.0 (20210717.1556)
 -->
<!-- Title: Representaci칩n gr치fica de la clase Pages: 1 -->
<svg width="233pt" height="66pt"
 viewBox="0.00 0.00 233.00 66.00" xmlns="http://www.w3.org/2000/svg" xmlns:xlink="http://www.w3.org/1999/xlink">
<g id="graph0" class="graph" transform="scale(1 1) rotate(0) translate(4 62)">
<title>Representaci칩n gr치fica de la clase</title>
<!-- Node0 -->
<g id="node1" class="node">
<title>Node0</title>
<g id="a_node1"><a xlink:href="class_i_pointer_enter_handler.html" target="_top" xlink:title=" ">
<polygon fill="none" stroke="black" points="0,-38.5 0,-57.5 106,-57.5 106,-38.5 0,-38.5"/>
<text text-anchor="middle" x="53" y="-45.5" font-family="Helvetica,sans-Serif" font-size="10.00">IPointerEnterHandler</text>
</a>
</g>
</g>
<!-- Node1 -->
<g id="node2" class="node">
<title>Node1</title>
<g id="a_node2"><a xlink:href="class_u_i___button_menu.html" target="_top" xlink:title=" ">
<polygon fill="none" stroke="black" points="142,-19.5 142,-38.5 225,-38.5 225,-19.5 142,-19.5"/>
<text text-anchor="middle" x="183.5" y="-26.5" font-family="Helvetica,sans-Serif" font-size="10.00">UI_ButtonMenu</text>
</a>
</g>
</g>
<!-- Node0&#45;&gt;Node1 -->
<g id="edge1" class="edge">
<title>Node0&#45;&gt;Node1</title>
<path fill="none" stroke="midnightblue" d="M116.33,-38.78C124.95,-37.51 133.62,-36.23 141.71,-35.03"/>
<polygon fill="midnightblue" stroke="midnightblue" points="115.65,-35.35 106.27,-40.27 116.67,-42.27 115.65,-35.35"/>
</g>
<!-- Node18 -->
<g id="node3" class="node">
<title>Node18</title>
<g id="a_node3"><a xlink:href="class_i_pointer_exit_handler.html" target="_top" xlink:title=" ">
<polygon fill="none" stroke="black" points="3,-0.5 3,-19.5 103,-19.5 103,-0.5 3,-0.5"/>
<text text-anchor="middle" x="53" y="-7.5" font-family="Helvetica,sans-Serif" font-size="10.00">IPointerExitHandler</text>
</a>
</g>
</g>
<!-- Node18&#45;&gt;Node1 -->
<g id="edge2" class="edge">
<title>Node18&#45;&gt;Node1</title>
<path fill="none" stroke="midnightblue" d="M113.3,-18.77C122.96,-20.2 132.78,-21.65 141.86,-22.99"/>
<polygon fill="midnightblue" stroke="midnightblue" points="113.72,-15.29 103.31,-17.29 112.69,-22.22 113.72,-15.29"/>
</g>
</g>
</svg>
