<?xml version="1.0" encoding="UTF-8" standalone="no"?>
<!DOCTYPE svg PUBLIC "-//W3C//DTD SVG 1.1//EN"
 "http://www.w3.org/Graphics/SVG/1.1/DTD/svg11.dtd">
<!-- Generated by graphviz version 2.48.0 (20210717.1556)
 -->
<!-- Title: Representaci칩n gr치fica de la clase Pages: 1 -->
<svg width="310pt" height="443pt"
 viewBox="0.00 0.00 310.00 442.50" xmlns="http://www.w3.org/2000/svg" xmlns:xlink="http://www.w3.org/1999/xlink">
<g id="graph0" class="graph" transform="scale(1 1) rotate(0) translate(4 438.5)">
<title>Representaci칩n gr치fica de la clase</title>
<!-- Node0 -->
<g id="node1" class="node">
<title>Node0</title>
<g id="a_node1"><a xlink:href="class_scriptable_object.html" target="_top" xlink:title=" ">
<polygon fill="none" stroke="black" points="0,-213.5 0,-232.5 89,-232.5 89,-213.5 0,-213.5"/>
<text text-anchor="middle" x="44.5" y="-220.5" font-family="Helvetica,sans-Serif" font-size="10.00">ScriptableObject</text>
</a>
</g>
</g>
<!-- Node1 -->
<g id="node2" class="node">
<title>Node1</title>
<g id="a_node2"><a xlink:href="class_controllers_1_1_froggy_1_1_states_1_1_data_1_1_o_l_c___attack_state_data.html" target="_top" xlink:title=" ">
<polygon fill="none" stroke="black" points="145,-404 145,-434 282,-434 282,-404 145,-404"/>
<text text-anchor="start" x="153" y="-422" font-family="Helvetica,sans-Serif" font-size="10.00">Controllers.Froggy.States.</text>
<text text-anchor="middle" x="213.5" y="-411" font-family="Helvetica,sans-Serif" font-size="10.00">Data.OLC_AttackStateData</text>
</a>
</g>
</g>
<!-- Node0&#45;&gt;Node1 -->
<g id="edge1" class="edge">
<title>Node0&#45;&gt;Node1</title>
<path fill="none" stroke="midnightblue" d="M48.97,-242.61C56.33,-278.4 76.98,-354.33 125,-395 130.89,-399.99 137.73,-403.95 144.94,-407.09"/>
<polygon fill="midnightblue" stroke="midnightblue" points="52.35,-241.66 47.02,-232.5 45.47,-242.98 52.35,-241.66"/>
</g>
<!-- Node2 -->
<g id="node3" class="node">
<title>Node2</title>
<g id="a_node3"><a xlink:href="class_controllers_1_1_state_machine_1_1_states_1_1_data_1_1_attack_state_data.html" target="_top" xlink:title=" ">
<polygon fill="none" stroke="black" points="142,-355 142,-385 285,-385 285,-355 142,-355"/>
<text text-anchor="start" x="150" y="-373" font-family="Helvetica,sans-Serif" font-size="10.00">Controllers.StateMachine.</text>
<text text-anchor="middle" x="213.5" y="-362" font-family="Helvetica,sans-Serif" font-size="10.00">States.Data.AttackStateData</text>
</a>
</g>
</g>
<!-- Node0&#45;&gt;Node2 -->
<g id="edge2" class="edge">
<title>Node0&#45;&gt;Node2</title>
<path fill="none" stroke="midnightblue" d="M52.75,-242.29C63.99,-269.57 88.24,-319.07 125,-346 130.08,-349.72 135.71,-352.87 141.6,-355.53"/>
<polygon fill="midnightblue" stroke="midnightblue" points="55.89,-240.72 48.96,-232.71 49.38,-243.3 55.89,-240.72"/>
</g>
<!-- Node3 -->
<g id="node4" class="node">
<title>Node3</title>
<g id="a_node4"><a xlink:href="class_controllers_1_1_state_machine_1_1_states_1_1_data_1_1_controller_data.html" target="_top" xlink:title=" ">
<polygon fill="none" stroke="black" points="147,-306 147,-336 280,-336 280,-306 147,-306"/>
<text text-anchor="start" x="155" y="-324" font-family="Helvetica,sans-Serif" font-size="10.00">Controllers.StateMachine.</text>
<text text-anchor="middle" x="213.5" y="-313" font-family="Helvetica,sans-Serif" font-size="10.00">States.Data.ControllerData</text>
</a>
</g>
</g>
<!-- Node0&#45;&gt;Node3 -->
<g id="edge3" class="edge">
<title>Node0&#45;&gt;Node3</title>
<path fill="none" stroke="midnightblue" d="M59.98,-240.73C74.67,-257.58 98.91,-282.46 125,-297 131.74,-300.76 139.11,-303.96 146.61,-306.67"/>
<polygon fill="midnightblue" stroke="midnightblue" points="62.35,-238.1 53.21,-232.74 57.01,-242.63 62.35,-238.1"/>
</g>
<!-- Node4 -->
<g id="node5" class="node">
<title>Node4</title>
<g id="a_node5"><a xlink:href="class_controllers_1_1_state_machine_1_1_states_1_1_data_1_1_damage_state_data.html" target="_top" xlink:title=" ">
<polygon fill="none" stroke="black" points="138,-257 138,-287 289,-287 289,-257 138,-257"/>
<text text-anchor="start" x="146" y="-275" font-family="Helvetica,sans-Serif" font-size="10.00">Controllers.StateMachine.</text>
<text text-anchor="middle" x="213.5" y="-264" font-family="Helvetica,sans-Serif" font-size="10.00">States.Data.DamageStateData</text>
</a>
</g>
</g>
<!-- Node0&#45;&gt;Node4 -->
<g id="edge4" class="edge">
<title>Node0&#45;&gt;Node4</title>
<path fill="none" stroke="midnightblue" d="M84.76,-235.66C97.56,-239.71 111.86,-244.13 125,-248 135.12,-250.98 145.94,-254.04 156.4,-256.94"/>
<polygon fill="midnightblue" stroke="midnightblue" points="85.46,-232.21 74.87,-232.52 83.34,-238.88 85.46,-232.21"/>
</g>
<!-- Node5 -->
<g id="node6" class="node">
<title>Node5</title>
<g id="a_node6"><a xlink:href="class_controllers_1_1_state_machine_1_1_states_1_1_data_1_1_dead_state_data.html" target="_top" xlink:title=" ">
<polygon fill="none" stroke="black" points="145,-208 145,-238 282,-238 282,-208 145,-208"/>
<text text-anchor="start" x="153" y="-226" font-family="Helvetica,sans-Serif" font-size="10.00">Controllers.StateMachine.</text>
<text text-anchor="middle" x="213.5" y="-215" font-family="Helvetica,sans-Serif" font-size="10.00">States.Data.DeadStateData</text>
</a>
</g>
</g>
<!-- Node0&#45;&gt;Node5 -->
<g id="edge5" class="edge">
<title>Node0&#45;&gt;Node5</title>
<path fill="none" stroke="midnightblue" d="M99.64,-223C114.1,-223 129.91,-223 145,-223"/>
<polygon fill="midnightblue" stroke="midnightblue" points="99.38,-219.5 89.38,-223 99.38,-226.5 99.38,-219.5"/>
</g>
<!-- Node6 -->
<g id="node7" class="node">
<title>Node6</title>
<g id="a_node7"><a xlink:href="class_controllers_1_1_state_machine_1_1_states_1_1_data_1_1_idle_state_data.html" target="_top" xlink:title=" ">
<polygon fill="none" stroke="black" points="148.5,-159 148.5,-189 278.5,-189 278.5,-159 148.5,-159"/>
<text text-anchor="start" x="156.5" y="-177" font-family="Helvetica,sans-Serif" font-size="10.00">Controllers.StateMachine.</text>
<text text-anchor="middle" x="213.5" y="-166" font-family="Helvetica,sans-Serif" font-size="10.00">States.Data.IdleStateData</text>
</a>
</g>
</g>
<!-- Node0&#45;&gt;Node6 -->
<g id="edge6" class="edge">
<title>Node0&#45;&gt;Node6</title>
<path fill="none" stroke="midnightblue" d="M86.42,-210.52C98.81,-206.78 112.45,-202.69 125,-199 136.07,-195.75 147.94,-192.32 159.25,-189.08"/>
<polygon fill="midnightblue" stroke="midnightblue" points="85.36,-207.18 76.81,-213.43 87.39,-213.88 85.36,-207.18"/>
</g>
<!-- Node7 -->
<g id="node8" class="node">
<title>Node7</title>
<g id="a_node8"><a xlink:href="class_controllers_1_1_state_machine_1_1_states_1_1_data_1_1_jump_state_data.html" target="_top" xlink:title=" ">
<polygon fill="none" stroke="black" points="144.5,-110 144.5,-140 282.5,-140 282.5,-110 144.5,-110"/>
<text text-anchor="start" x="152.5" y="-128" font-family="Helvetica,sans-Serif" font-size="10.00">Controllers.StateMachine.</text>
<text text-anchor="middle" x="213.5" y="-117" font-family="Helvetica,sans-Serif" font-size="10.00">States.Data.JumpStateData</text>
</a>
</g>
</g>
<!-- Node0&#45;&gt;Node7 -->
<g id="edge7" class="edge">
<title>Node0&#45;&gt;Node7</title>
<path fill="none" stroke="midnightblue" d="M60.07,-205.58C74.82,-189 99.11,-164.5 125,-150 131.89,-146.14 139.43,-142.83 147.1,-140.01"/>
<polygon fill="midnightblue" stroke="midnightblue" points="57.17,-203.58 53.26,-213.43 62.46,-208.17 57.17,-203.58"/>
</g>
<!-- Node8 -->
<g id="node9" class="node">
<title>Node8</title>
<g id="a_node9"><a xlink:href="class_controllers_1_1_state_machine_1_1_states_1_1_data_1_1_prepare_attack_state_data.html" target="_top" xlink:title=" ">
<polygon fill="none" stroke="black" points="125,-61 125,-91 302,-91 302,-61 125,-61"/>
<text text-anchor="start" x="133" y="-79" font-family="Helvetica,sans-Serif" font-size="10.00">Controllers.StateMachine.</text>
<text text-anchor="middle" x="213.5" y="-68" font-family="Helvetica,sans-Serif" font-size="10.00">States.Data.PrepareAttackStateData</text>
</a>
</g>
</g>
<!-- Node0&#45;&gt;Node8 -->
<g id="edge8" class="edge">
<title>Node0&#45;&gt;Node8</title>
<path fill="none" stroke="midnightblue" d="M52.83,-203.92C64.17,-176.93 88.55,-127.9 125,-101 130.21,-97.15 136,-93.9 142.04,-91.14"/>
<polygon fill="midnightblue" stroke="midnightblue" points="49.5,-202.81 49,-213.4 55.99,-205.43 49.5,-202.81"/>
</g>
<!-- Node9 -->
<g id="node10" class="node">
<title>Node9</title>
<g id="a_node10"><a xlink:href="class_controllers_1_1_state_machine_1_1_states_1_1_data_1_1_super_froggy___second_phase_state_data.html" target="_top" xlink:title=" ">
<polygon fill="none" stroke="black" points="149,-0.5 149,-41.5 278,-41.5 278,-0.5 149,-0.5"/>
<text text-anchor="start" x="157" y="-29.5" font-family="Helvetica,sans-Serif" font-size="10.00">Controllers.StateMachine.</text>
<text text-anchor="start" x="157" y="-18.5" font-family="Helvetica,sans-Serif" font-size="10.00">States.Data.SuperFroggy</text>
<text text-anchor="middle" x="213.5" y="-7.5" font-family="Helvetica,sans-Serif" font-size="10.00">_SecondPhaseStateData</text>
</a>
</g>
</g>
<!-- Node0&#45;&gt;Node9 -->
<g id="edge9" class="edge">
<title>Node0&#45;&gt;Node9</title>
<path fill="none" stroke="midnightblue" d="M49.4,-203.33C57.39,-168.08 78.89,-93.94 125,-52 131.92,-45.71 140.19,-40.68 148.85,-36.66"/>
<polygon fill="midnightblue" stroke="midnightblue" points="45.93,-202.8 47.27,-213.31 52.78,-204.27 45.93,-202.8"/>
</g>
</g>
</svg>
