<?xml version="1.0" encoding="UTF-8" standalone="no"?>
<!DOCTYPE svg PUBLIC "-//W3C//DTD SVG 1.1//EN"
 "http://www.w3.org/Graphics/SVG/1.1/DTD/svg11.dtd">
<!-- Generated by graphviz version 2.48.0 (20210717.1556)
 -->
<!-- Title: Representaci칩n gr치fica de la clase Pages: 1 -->
<svg width="288pt" height="1040pt"
 viewBox="0.00 0.00 288.00 1040.00" xmlns="http://www.w3.org/2000/svg" xmlns:xlink="http://www.w3.org/1999/xlink">
<g id="graph0" class="graph" transform="scale(1 1) rotate(0) translate(4 1036)">
<title>Representaci칩n gr치fica de la clase</title>
<!-- Node19 -->
<g id="node1" class="node">
<title>Node19</title>
<g id="a_node1"><a xlink:title=" ">
<polygon fill="none" stroke="#bfbfbf" points="0,-500.5 0,-519.5 83,-519.5 83,-500.5 0,-500.5"/>
<text text-anchor="middle" x="41.5" y="-507.5" font-family="Helvetica,sans-Serif" font-size="10.00">MonoBehaviour</text>
</a>
</g>
</g>
<!-- Node0 -->
<g id="node2" class="node">
<title>Node0</title>
<g id="a_node2"><a xlink:href="class_camera_trigger.html" target="_top" xlink:title=" ">
<polygon fill="none" stroke="black" points="159.5,-1012.5 159.5,-1031.5 239.5,-1031.5 239.5,-1012.5 159.5,-1012.5"/>
<text text-anchor="middle" x="199.5" y="-1019.5" font-family="Helvetica,sans-Serif" font-size="10.00">CameraTrigger</text>
</a>
</g>
</g>
<!-- Node19&#45;&gt;Node0 -->
<g id="edge1" class="edge">
<title>Node19&#45;&gt;Node0</title>
<path fill="none" stroke="midnightblue" d="M42.74,-529.98C44.15,-613.33 53.8,-932.31 119,-1003 129.2,-1014.06 144.58,-1019.21 159.11,-1021.46"/>
<polygon fill="midnightblue" stroke="midnightblue" points="46.24,-529.78 42.59,-519.83 39.24,-529.88 46.24,-529.78"/>
</g>
<!-- Node21 -->
<g id="node3" class="node">
<title>Node21</title>
<g id="a_node3"><a xlink:href="class_controllers_1_1_froggy_1_1_froggy_tongue_controller.html" target="_top" xlink:title=" ">
<polygon fill="none" stroke="black" points="135,-963 135,-993 264,-993 264,-963 135,-963"/>
<text text-anchor="start" x="143" y="-981" font-family="Helvetica,sans-Serif" font-size="10.00">Controllers.Froggy.Froggy</text>
<text text-anchor="middle" x="199.5" y="-970" font-family="Helvetica,sans-Serif" font-size="10.00">TongueController</text>
</a>
</g>
</g>
<!-- Node19&#45;&gt;Node21 -->
<g id="edge2" class="edge">
<title>Node19&#45;&gt;Node21</title>
<path fill="none" stroke="midnightblue" d="M43.25,-529.78C46.58,-607.16 62.43,-888.32 119,-953 123.38,-958.01 128.75,-962.03 134.62,-965.25"/>
<polygon fill="midnightblue" stroke="midnightblue" points="46.74,-529.38 42.83,-519.53 39.74,-529.66 46.74,-529.38"/>
</g>
<!-- Node22 -->
<g id="node4" class="node">
<title>Node22</title>
<g id="a_node4"><a xlink:href="class_death_bounds_component.html" target="_top" xlink:title=" ">
<polygon fill="none" stroke="black" points="137,-924.5 137,-943.5 262,-943.5 262,-924.5 137,-924.5"/>
<text text-anchor="middle" x="199.5" y="-931.5" font-family="Helvetica,sans-Serif" font-size="10.00">DeathBoundsComponent</text>
</a>
</g>
</g>
<!-- Node19&#45;&gt;Node22 -->
<g id="edge3" class="edge">
<title>Node19&#45;&gt;Node22</title>
<path fill="none" stroke="midnightblue" d="M43.48,-530.06C47.5,-603.8 65.11,-858.46 119,-915 123.99,-920.24 130.15,-924.14 136.81,-927.04"/>
<polygon fill="midnightblue" stroke="midnightblue" points="46.96,-529.65 42.95,-519.84 39.97,-530.01 46.96,-529.65"/>
</g>
<!-- Node23 -->
<g id="node5" class="node">
<title>Node23</title>
<g id="a_node5"><a xlink:href="class_dialogue_text_effector.html" target="_top" xlink:title=" ">
<polygon fill="none" stroke="black" points="146.5,-886.5 146.5,-905.5 252.5,-905.5 252.5,-886.5 146.5,-886.5"/>
<text text-anchor="middle" x="199.5" y="-893.5" font-family="Helvetica,sans-Serif" font-size="10.00">DialogueTextEffector</text>
</a>
</g>
</g>
<!-- Node19&#45;&gt;Node23 -->
<g id="edge4" class="edge">
<title>Node19&#45;&gt;Node23</title>
<path fill="none" stroke="midnightblue" d="M43.9,-529.93C49.14,-598.97 69.92,-826.47 119,-877 126.32,-884.53 136.05,-889.3 146.18,-892.27"/>
<polygon fill="midnightblue" stroke="midnightblue" points="47.36,-529.32 43.14,-519.6 40.38,-529.83 47.36,-529.32"/>
</g>
<!-- Node24 -->
<g id="node6" class="node">
<title>Node24</title>
<g id="a_node6"><a xlink:href="class_dialogues_1_1_dialogue_group.html" target="_top" xlink:title=" ">
<polygon fill="none" stroke="black" points="136.5,-848.5 136.5,-867.5 262.5,-867.5 262.5,-848.5 136.5,-848.5"/>
<text text-anchor="middle" x="199.5" y="-855.5" font-family="Helvetica,sans-Serif" font-size="10.00">Dialogues.DialogueGroup</text>
</a>
</g>
</g>
<!-- Node19&#45;&gt;Node24 -->
<g id="edge5" class="edge">
<title>Node19&#45;&gt;Node24</title>
<path fill="none" stroke="midnightblue" d="M44.41,-529.91C50.99,-594.18 74.73,-794.46 119,-839 123.9,-843.93 129.84,-847.67 136.24,-850.5"/>
<polygon fill="midnightblue" stroke="midnightblue" points="47.86,-529.17 43.38,-519.57 40.89,-529.86 47.86,-529.17"/>
</g>
<!-- Node25 -->
<g id="node7" class="node">
<title>Node25</title>
<g id="a_node7"><a xlink:href="class_froggy_nuke.html" target="_top" xlink:title=" ">
<polygon fill="none" stroke="black" points="165,-810.5 165,-829.5 234,-829.5 234,-810.5 165,-810.5"/>
<text text-anchor="middle" x="199.5" y="-817.5" font-family="Helvetica,sans-Serif" font-size="10.00">FroggyNuke</text>
</a>
</g>
</g>
<!-- Node19&#45;&gt;Node25 -->
<g id="edge6" class="edge">
<title>Node19&#45;&gt;Node25</title>
<path fill="none" stroke="midnightblue" d="M45.06,-529.9C53.08,-589.1 79.52,-762.4 119,-801 131.07,-812.81 149.1,-817.74 164.94,-819.64"/>
<polygon fill="midnightblue" stroke="midnightblue" points="48.49,-529.11 43.71,-519.65 41.55,-530.03 48.49,-529.11"/>
</g>
<!-- Node26 -->
<g id="node8" class="node">
<title>Node26</title>
<g id="a_node8"><a xlink:href="class_image_animation.html" target="_top" xlink:title=" ">
<polygon fill="none" stroke="black" points="156.5,-772.5 156.5,-791.5 242.5,-791.5 242.5,-772.5 156.5,-772.5"/>
<text text-anchor="middle" x="199.5" y="-779.5" font-family="Helvetica,sans-Serif" font-size="10.00">ImageAnimation</text>
</a>
</g>
</g>
<!-- Node19&#45;&gt;Node26 -->
<g id="edge7" class="edge">
<title>Node19&#45;&gt;Node26</title>
<path fill="none" stroke="midnightblue" d="M42.26,-529.98C42.85,-577.72 51.29,-699.17 119,-763 129.02,-772.44 142.86,-777.46 156.18,-780.04"/>
<polygon fill="midnightblue" stroke="midnightblue" points="45.76,-529.74 42.25,-519.75 38.76,-529.75 45.76,-529.74"/>
</g>
<!-- Node27 -->
<g id="node9" class="node">
<title>Node27</title>
<g id="a_node9"><a xlink:href="class_main_menu.html" target="_top" xlink:title="Script para el menu principal">
<polygon fill="none" stroke="black" points="168.5,-734.5 168.5,-753.5 230.5,-753.5 230.5,-734.5 168.5,-734.5"/>
<text text-anchor="middle" x="199.5" y="-741.5" font-family="Helvetica,sans-Serif" font-size="10.00">MainMenu</text>
</a>
</g>
</g>
<!-- Node19&#45;&gt;Node27 -->
<g id="edge8" class="edge">
<title>Node19&#45;&gt;Node27</title>
<path fill="none" stroke="midnightblue" d="M43.52,-530.13C46.81,-572.78 60.68,-672.62 119,-725 132.41,-737.04 152.08,-741.81 168.5,-743.56"/>
<polygon fill="midnightblue" stroke="midnightblue" points="47,-529.67 42.86,-519.92 40.01,-530.12 47,-529.67"/>
</g>
<!-- Node28 -->
<g id="node10" class="node">
<title>Node28</title>
<g id="a_node10"><a xlink:href="class_misc_1_1_effect_controller.html" target="_top" xlink:title=" ">
<polygon fill="none" stroke="black" points="146,-696.5 146,-715.5 253,-715.5 253,-696.5 146,-696.5"/>
<text text-anchor="middle" x="199.5" y="-703.5" font-family="Helvetica,sans-Serif" font-size="10.00">Misc.EffectController</text>
</a>
</g>
</g>
<!-- Node19&#45;&gt;Node28 -->
<g id="edge9" class="edge">
<title>Node19&#45;&gt;Node28</title>
<path fill="none" stroke="midnightblue" d="M45.21,-529.83C51.34,-566.66 69.75,-645.63 119,-687 126.61,-693.39 136,-697.71 145.63,-700.6"/>
<polygon fill="midnightblue" stroke="midnightblue" points="48.66,-529.2 43.69,-519.84 41.74,-530.26 48.66,-529.2"/>
</g>
<!-- Node29 -->
<g id="node11" class="node">
<title>Node29</title>
<g id="a_node11"><a xlink:href="class_misc_1_1_lapida.html" target="_top" xlink:title=" ">
<polygon fill="none" stroke="black" points="165,-658.5 165,-677.5 234,-677.5 234,-658.5 165,-658.5"/>
<text text-anchor="middle" x="199.5" y="-665.5" font-family="Helvetica,sans-Serif" font-size="10.00">Misc.Lapida</text>
</a>
</g>
</g>
<!-- Node19&#45;&gt;Node29 -->
<g id="edge10" class="edge">
<title>Node19&#45;&gt;Node29</title>
<path fill="none" stroke="midnightblue" d="M47.63,-529.33C56.72,-559.69 78.61,-618.22 119,-649 132.09,-658.98 149.64,-663.81 164.92,-666.12"/>
<polygon fill="midnightblue" stroke="midnightblue" points="50.95,-528.2 44.85,-519.53 44.21,-530.11 50.95,-528.2"/>
</g>
<!-- Node30 -->
<g id="node12" class="node">
<title>Node30</title>
<g id="a_node12"><a xlink:href="class_o_l_c___hall_trigger.html" target="_top" xlink:title=" ">
<polygon fill="none" stroke="black" points="156,-620.5 156,-639.5 243,-639.5 243,-620.5 156,-620.5"/>
<text text-anchor="middle" x="199.5" y="-627.5" font-family="Helvetica,sans-Serif" font-size="10.00">OLC_HallTrigger</text>
</a>
</g>
</g>
<!-- Node19&#45;&gt;Node30 -->
<g id="edge11" class="edge">
<title>Node19&#45;&gt;Node30</title>
<path fill="none" stroke="midnightblue" d="M51.47,-528.61C63.55,-551.62 87.24,-590.25 119,-611 129.93,-618.14 143.27,-622.6 155.88,-625.39"/>
<polygon fill="midnightblue" stroke="midnightblue" points="54.52,-526.88 46.89,-519.54 48.27,-530.04 54.52,-526.88"/>
</g>
<!-- Node31 -->
<g id="node13" class="node">
<title>Node31</title>
<g id="a_node13"><a xlink:href="class_o_l_c___projectile.html" target="_top" xlink:title=" ">
<polygon fill="none" stroke="black" points="158.5,-582.5 158.5,-601.5 240.5,-601.5 240.5,-582.5 158.5,-582.5"/>
<text text-anchor="middle" x="199.5" y="-589.5" font-family="Helvetica,sans-Serif" font-size="10.00">OLC_Projectile</text>
</a>
</g>
</g>
<!-- Node19&#45;&gt;Node31 -->
<g id="edge12" class="edge">
<title>Node19&#45;&gt;Node31</title>
<path fill="none" stroke="midnightblue" d="M58.56,-527.01C73.04,-541.36 95.61,-561.36 119,-573 131.2,-579.07 145.43,-583.26 158.45,-586.12"/>
<polygon fill="midnightblue" stroke="midnightblue" points="60.9,-524.39 51.39,-519.71 55.9,-529.3 60.9,-524.39"/>
</g>
<!-- Node32 -->
<g id="node14" class="node">
<title>Node32</title>
<g id="a_node14"><a xlink:href="class_player_1_1_player_combat_controller.html" target="_top" xlink:title=" ">
<polygon fill="none" stroke="black" points="124.5,-544.5 124.5,-563.5 274.5,-563.5 274.5,-544.5 124.5,-544.5"/>
<text text-anchor="middle" x="199.5" y="-551.5" font-family="Helvetica,sans-Serif" font-size="10.00">Player.PlayerCombatController</text>
</a>
</g>
</g>
<!-- Node19&#45;&gt;Node32 -->
<g id="edge13" class="edge">
<title>Node19&#45;&gt;Node32</title>
<path fill="none" stroke="midnightblue" d="M79.56,-522.78C92.03,-526.9 106.06,-531.34 119,-535 130.88,-538.36 143.87,-541.62 155.84,-544.48"/>
<polygon fill="midnightblue" stroke="midnightblue" points="80.55,-519.42 69.95,-519.57 78.33,-526.06 80.55,-519.42"/>
</g>
<!-- Node33 -->
<g id="node15" class="node">
<title>Node33</title>
<g id="a_node15"><a xlink:href="class_player_1_1_player_ladder_climbing_controller.html" target="_top" xlink:title=" ">
<polygon fill="none" stroke="black" points="128.5,-495 128.5,-525 270.5,-525 270.5,-495 128.5,-495"/>
<text text-anchor="start" x="136.5" y="-513" font-family="Helvetica,sans-Serif" font-size="10.00">Player.PlayerLadderClimbing</text>
<text text-anchor="middle" x="199.5" y="-502" font-family="Helvetica,sans-Serif" font-size="10.00">Controller</text>
</a>
</g>
</g>
<!-- Node19&#45;&gt;Node33 -->
<g id="edge14" class="edge">
<title>Node19&#45;&gt;Node33</title>
<path fill="none" stroke="midnightblue" d="M93.1,-510C104.31,-510 116.38,-510 128.21,-510"/>
<polygon fill="midnightblue" stroke="midnightblue" points="93.08,-506.5 83.08,-510 93.08,-513.5 93.08,-506.5"/>
</g>
<!-- Node34 -->
<g id="node16" class="node">
<title>Node34</title>
<g id="a_node16"><a xlink:href="class_player_1_1_player_movement_controller.html" target="_top" xlink:title=" ">
<polygon fill="none" stroke="black" points="119,-456.5 119,-475.5 280,-475.5 280,-456.5 119,-456.5"/>
<text text-anchor="middle" x="199.5" y="-463.5" font-family="Helvetica,sans-Serif" font-size="10.00">Player.PlayerMovementController</text>
</a>
</g>
</g>
<!-- Node19&#45;&gt;Node34 -->
<g id="edge15" class="edge">
<title>Node19&#45;&gt;Node34</title>
<path fill="none" stroke="midnightblue" d="M81.21,-497.38C93.28,-493.58 106.65,-489.49 119,-486 131.87,-482.36 146.01,-478.7 158.75,-475.52"/>
<polygon fill="midnightblue" stroke="midnightblue" points="79.91,-494.12 71.44,-500.49 82.03,-500.79 79.91,-494.12"/>
</g>
<!-- Node35 -->
<g id="node17" class="node">
<title>Node35</title>
<g id="a_node17"><a xlink:href="class_screen_opts.html" target="_top" xlink:title=" ">
<polygon fill="none" stroke="black" points="165.5,-418.5 165.5,-437.5 233.5,-437.5 233.5,-418.5 165.5,-418.5"/>
<text text-anchor="middle" x="199.5" y="-425.5" font-family="Helvetica,sans-Serif" font-size="10.00">ScreenOpts</text>
</a>
</g>
</g>
<!-- Node19&#45;&gt;Node35 -->
<g id="edge16" class="edge">
<title>Node19&#45;&gt;Node35</title>
<path fill="none" stroke="midnightblue" d="M58.56,-492.99C73.04,-478.64 95.61,-458.64 119,-447 133.36,-439.86 150.53,-435.32 165.23,-432.47"/>
<polygon fill="midnightblue" stroke="midnightblue" points="55.9,-490.7 51.39,-500.29 60.9,-495.61 55.9,-490.7"/>
</g>
<!-- Node36 -->
<g id="node18" class="node">
<title>Node36</title>
<g id="a_node18"><a xlink:href="class_super_froggy_area_trigger.html" target="_top" xlink:title=" ">
<polygon fill="none" stroke="black" points="138.5,-380.5 138.5,-399.5 260.5,-399.5 260.5,-380.5 138.5,-380.5"/>
<text text-anchor="middle" x="199.5" y="-387.5" font-family="Helvetica,sans-Serif" font-size="10.00">SuperFroggyAreaTrigger</text>
</a>
</g>
</g>
<!-- Node19&#45;&gt;Node36 -->
<g id="edge17" class="edge">
<title>Node19&#45;&gt;Node36</title>
<path fill="none" stroke="midnightblue" d="M51.47,-491.39C63.55,-468.38 87.24,-429.75 119,-409 124.94,-405.12 131.59,-402.03 138.45,-399.57"/>
<polygon fill="midnightblue" stroke="midnightblue" points="48.27,-489.96 46.89,-500.46 54.52,-493.12 48.27,-489.96"/>
</g>
<!-- Node37 -->
<g id="node19" class="node">
<title>Node37</title>
<g id="a_node19"><a xlink:href="class_super_froggy_phases.html" target="_top" xlink:title=" ">
<polygon fill="none" stroke="black" points="147,-342.5 147,-361.5 252,-361.5 252,-342.5 147,-342.5"/>
<text text-anchor="middle" x="199.5" y="-349.5" font-family="Helvetica,sans-Serif" font-size="10.00">SuperFroggyPhases</text>
</a>
</g>
</g>
<!-- Node19&#45;&gt;Node37 -->
<g id="edge18" class="edge">
<title>Node19&#45;&gt;Node37</title>
<path fill="none" stroke="midnightblue" d="M47.63,-490.67C56.72,-460.31 78.61,-401.78 119,-371 127.13,-364.81 136.97,-360.6 146.92,-357.74"/>
<polygon fill="midnightblue" stroke="midnightblue" points="44.21,-489.89 44.85,-500.47 50.95,-491.8 44.21,-489.89"/>
</g>
<!-- Node38 -->
<g id="node20" class="node">
<title>Node38</title>
<g id="a_node20"><a xlink:href="class_u_i_1_1_u_i___button_dialogue_selector.html" target="_top" xlink:title=" ">
<polygon fill="none" stroke="black" points="127,-304.5 127,-323.5 272,-323.5 272,-304.5 127,-304.5"/>
<text text-anchor="middle" x="199.5" y="-311.5" font-family="Helvetica,sans-Serif" font-size="10.00">UI.UI_ButtonDialogueSelector</text>
</a>
</g>
</g>
<!-- Node19&#45;&gt;Node38 -->
<g id="edge19" class="edge">
<title>Node19&#45;&gt;Node38</title>
<path fill="none" stroke="midnightblue" d="M45.21,-490.17C51.34,-453.34 69.75,-374.37 119,-333 123.56,-329.17 128.77,-326.08 134.28,-323.6"/>
<polygon fill="midnightblue" stroke="midnightblue" points="41.74,-489.74 43.69,-500.16 48.66,-490.8 41.74,-489.74"/>
</g>
<!-- Node39 -->
<g id="node21" class="node">
<title>Node39</title>
<g id="a_node21"><a xlink:href="class_u_i_1_1_u_i___game_button.html" target="_top" xlink:title=" ">
<polygon fill="none" stroke="black" points="150.5,-266.5 150.5,-285.5 248.5,-285.5 248.5,-266.5 150.5,-266.5"/>
<text text-anchor="middle" x="199.5" y="-273.5" font-family="Helvetica,sans-Serif" font-size="10.00">UI.UI_GameButton</text>
</a>
</g>
</g>
<!-- Node19&#45;&gt;Node39 -->
<g id="edge20" class="edge">
<title>Node19&#45;&gt;Node39</title>
<path fill="none" stroke="midnightblue" d="M43.52,-489.87C46.81,-447.22 60.68,-347.38 119,-295 127.66,-287.22 138.93,-282.48 150.24,-279.62"/>
<polygon fill="midnightblue" stroke="midnightblue" points="40.01,-489.88 42.86,-500.08 47,-490.33 40.01,-489.88"/>
</g>
<!-- Node40 -->
<g id="node22" class="node">
<title>Node40</title>
<g id="a_node22"><a xlink:href="class_u_i_1_1_u_i___h_u_d.html" target="_top" xlink:title=" ">
<polygon fill="none" stroke="black" points="168,-228.5 168,-247.5 231,-247.5 231,-228.5 168,-228.5"/>
<text text-anchor="middle" x="199.5" y="-235.5" font-family="Helvetica,sans-Serif" font-size="10.00">UI.UI_HUD</text>
</a>
</g>
</g>
<!-- Node19&#45;&gt;Node40 -->
<g id="edge21" class="edge">
<title>Node19&#45;&gt;Node40</title>
<path fill="none" stroke="midnightblue" d="M42.26,-490.02C42.85,-442.28 51.29,-320.83 119,-257 132.01,-244.74 151.47,-239.94 167.88,-238.23"/>
<polygon fill="midnightblue" stroke="midnightblue" points="38.76,-490.25 42.25,-500.25 45.76,-490.26 38.76,-490.25"/>
</g>
<!-- Node41 -->
<g id="node23" class="node">
<title>Node41</title>
<g id="a_node23"><a xlink:href="class_u_i___joystick_controller.html" target="_top" xlink:title=" ">
<polygon fill="none" stroke="black" points="145.5,-190.5 145.5,-209.5 253.5,-209.5 253.5,-190.5 145.5,-190.5"/>
<text text-anchor="middle" x="199.5" y="-197.5" font-family="Helvetica,sans-Serif" font-size="10.00">UI_JoystickController</text>
</a>
</g>
</g>
<!-- Node19&#45;&gt;Node41 -->
<g id="edge22" class="edge">
<title>Node19&#45;&gt;Node41</title>
<path fill="none" stroke="midnightblue" d="M45.06,-490.1C53.08,-430.9 79.52,-257.6 119,-219 126.2,-211.96 135.53,-207.36 145.24,-204.39"/>
<polygon fill="midnightblue" stroke="midnightblue" points="41.55,-489.97 43.71,-500.35 48.49,-490.89 41.55,-489.97"/>
</g>
<!-- Node42 -->
<g id="node24" class="node">
<title>Node42</title>
<g id="a_node24"><a xlink:href="class_u_i___panel_opacity.html" target="_top" xlink:title=" ">
<polygon fill="none" stroke="black" points="155,-152.5 155,-171.5 244,-171.5 244,-152.5 155,-152.5"/>
<text text-anchor="middle" x="199.5" y="-159.5" font-family="Helvetica,sans-Serif" font-size="10.00">UI_PanelOpacity</text>
</a>
</g>
</g>
<!-- Node19&#45;&gt;Node42 -->
<g id="edge23" class="edge">
<title>Node19&#45;&gt;Node42</title>
<path fill="none" stroke="midnightblue" d="M44.41,-490.09C50.99,-425.82 74.73,-225.54 119,-181 128.5,-171.44 141.9,-166.36 154.99,-163.75"/>
<polygon fill="midnightblue" stroke="midnightblue" points="40.89,-490.14 43.38,-500.43 47.86,-490.83 40.89,-490.14"/>
</g>
<!-- Node43 -->
<g id="node25" class="node">
<title>Node43</title>
<g id="a_node25"><a xlink:href="class_u_i___pause_menu_manager.html" target="_top" xlink:title=" ">
<polygon fill="none" stroke="black" points="139.5,-114.5 139.5,-133.5 259.5,-133.5 259.5,-114.5 139.5,-114.5"/>
<text text-anchor="middle" x="199.5" y="-121.5" font-family="Helvetica,sans-Serif" font-size="10.00">UI_PauseMenuManager</text>
</a>
</g>
</g>
<!-- Node19&#45;&gt;Node43 -->
<g id="edge24" class="edge">
<title>Node19&#45;&gt;Node43</title>
<path fill="none" stroke="midnightblue" d="M43.9,-490.07C49.14,-421.03 69.92,-193.53 119,-143 124.64,-137.2 131.7,-133.04 139.29,-130.08"/>
<polygon fill="midnightblue" stroke="midnightblue" points="40.38,-490.17 43.14,-500.4 47.36,-490.68 40.38,-490.17"/>
</g>
<!-- Node44 -->
<g id="node26" class="node">
<title>Node44</title>
<g id="a_node26"><a xlink:href="class_warp_marker.html" target="_top" xlink:title=" ">
<polygon fill="none" stroke="black" points="164.5,-76.5 164.5,-95.5 234.5,-95.5 234.5,-76.5 164.5,-76.5"/>
<text text-anchor="middle" x="199.5" y="-83.5" font-family="Helvetica,sans-Serif" font-size="10.00">WarpMarker</text>
</a>
</g>
</g>
<!-- Node19&#45;&gt;Node44 -->
<g id="edge25" class="edge">
<title>Node19&#45;&gt;Node44</title>
<path fill="none" stroke="midnightblue" d="M43.48,-489.94C47.5,-416.2 65.11,-161.54 119,-105 130.55,-92.88 148.35,-87.9 164.17,-86.04"/>
<polygon fill="midnightblue" stroke="midnightblue" points="39.97,-489.99 42.95,-500.16 46.96,-490.35 39.97,-489.99"/>
</g>
<!-- Node45 -->
<g id="node27" class="node">
<title>Node45</title>
<g id="a_node27"><a xlink:href="class_warp_particle.html" target="_top" xlink:title=" ">
<polygon fill="none" stroke="black" points="163,-38.5 163,-57.5 236,-57.5 236,-38.5 163,-38.5"/>
<text text-anchor="middle" x="199.5" y="-45.5" font-family="Helvetica,sans-Serif" font-size="10.00">WarpParticle</text>
</a>
</g>
</g>
<!-- Node19&#45;&gt;Node45 -->
<g id="edge26" class="edge">
<title>Node19&#45;&gt;Node45</title>
<path fill="none" stroke="midnightblue" d="M43.12,-490.11C45.95,-412.28 60.2,-129.66 119,-67 130.17,-55.1 147.34,-50.06 162.88,-48.11"/>
<polygon fill="midnightblue" stroke="midnightblue" points="39.61,-490.3 42.77,-500.41 46.61,-490.54 39.61,-490.3"/>
</g>
<!-- Node46 -->
<g id="node28" class="node">
<title>Node46</title>
<g id="a_node28"><a xlink:href="class_world_1_1_sound_controller.html" target="_top" xlink:title=" ">
<polygon fill="none" stroke="black" points="142.5,-0.5 142.5,-19.5 256.5,-19.5 256.5,-0.5 142.5,-0.5"/>
<text text-anchor="middle" x="199.5" y="-7.5" font-family="Helvetica,sans-Serif" font-size="10.00">World.SoundController</text>
</a>
</g>
</g>
<!-- Node19&#45;&gt;Node46 -->
<g id="edge27" class="edge">
<title>Node19&#45;&gt;Node46</title>
<path fill="none" stroke="midnightblue" d="M42.82,-490C44.57,-407.9 55.35,-97.75 119,-29 125.27,-22.23 133.48,-17.68 142.24,-14.64"/>
<polygon fill="midnightblue" stroke="midnightblue" points="39.32,-490.34 42.63,-500.41 46.32,-490.48 39.32,-490.34"/>
</g>
</g>
</svg>
