<?xml version="1.0" encoding="UTF-8" standalone="no"?>
<!DOCTYPE svg PUBLIC "-//W3C//DTD SVG 1.1//EN"
 "http://www.w3.org/Graphics/SVG/1.1/DTD/svg11.dtd">
<!-- Generated by graphviz version 2.48.0 (20210717.1556)
 -->
<!-- Title: Representaci칩n gr치fica de la clase Pages: 1 -->
<svg width="472pt" height="421pt"
 viewBox="0.00 0.00 472.00 420.50" xmlns="http://www.w3.org/2000/svg" xmlns:xlink="http://www.w3.org/1999/xlink">
<g id="graph0" class="graph" transform="scale(1 1) rotate(0) translate(4 416.5)">
<title>Representaci칩n gr치fica de la clase</title>
<!-- Node0 -->
<g id="node1" class="node">
<title>Node0</title>
<g id="a_node1"><a xlink:href="class_controllers_1_1_state_machine_1_1_state.html" target="_top" xlink:title="Clase base para los estados de cada personaje. Controla el ciclo de vida de cada estado (Enter,...">
<polygon fill="none" stroke="black" points="0,-186 0,-216 129,-216 129,-186 0,-186"/>
<text text-anchor="start" x="8" y="-204" font-family="Helvetica,sans-Serif" font-size="10.00">Controllers.StateMachine.</text>
<text text-anchor="middle" x="64.5" y="-193" font-family="Helvetica,sans-Serif" font-size="10.00">State</text>
</a>
</g>
</g>
<!-- Node1 -->
<g id="node2" class="node">
<title>Node1</title>
<g id="a_node2"><a xlink:href="class_controllers_1_1_froggy_1_1_froggy___near_attack_state.html" target="_top" xlink:title=" ">
<polygon fill="none" stroke="black" points="167.5,-382 167.5,-412 296.5,-412 296.5,-382 167.5,-382"/>
<text text-anchor="start" x="175.5" y="-400" font-family="Helvetica,sans-Serif" font-size="10.00">Controllers.Froggy.Froggy</text>
<text text-anchor="middle" x="232" y="-389" font-family="Helvetica,sans-Serif" font-size="10.00">_NearAttackState</text>
</a>
</g>
</g>
<!-- Node0&#45;&gt;Node1 -->
<g id="edge1" class="edge">
<title>Node0&#45;&gt;Node1</title>
<path fill="none" stroke="midnightblue" d="M73.6,-225.76C86.92,-262.83 116.91,-332.69 165,-373 169.11,-376.45 173.76,-379.42 178.64,-381.97"/>
<polygon fill="midnightblue" stroke="midnightblue" points="76.87,-224.52 70.28,-216.23 70.26,-226.82 76.87,-224.52"/>
</g>
<!-- Node2 -->
<g id="node3" class="node">
<title>Node2</title>
<g id="a_node3"><a xlink:href="class_controllers_1_1_froggy_1_1_super_froggy___second_phase.html" target="_top" xlink:title=" ">
<polygon fill="none" stroke="black" points="169.5,-333 169.5,-363 294.5,-363 294.5,-333 169.5,-333"/>
<text text-anchor="start" x="177.5" y="-351" font-family="Helvetica,sans-Serif" font-size="10.00">Controllers.Froggy.Super</text>
<text text-anchor="middle" x="232" y="-340" font-family="Helvetica,sans-Serif" font-size="10.00">Froggy_SecondPhase</text>
</a>
</g>
</g>
<!-- Node0&#45;&gt;Node2 -->
<g id="edge2" class="edge">
<title>Node0&#45;&gt;Node2</title>
<path fill="none" stroke="midnightblue" d="M79.1,-224.67C95.99,-252.12 127.23,-297.06 165,-324 169.76,-327.4 175.06,-330.37 180.53,-332.95"/>
<polygon fill="midnightblue" stroke="midnightblue" points="82.09,-222.84 73.93,-216.08 76.09,-226.45 82.09,-222.84"/>
</g>
<!-- Node3 -->
<g id="node4" class="node">
<title>Node3</title>
<g id="a_node4"><a xlink:href="class_controllers_1_1_state_machine_1_1_states_1_1_attack_state.html" target="_top" xlink:title=" ">
<polygon fill="none" stroke="black" points="167.5,-284 167.5,-314 296.5,-314 296.5,-284 167.5,-284"/>
<text text-anchor="start" x="175.5" y="-302" font-family="Helvetica,sans-Serif" font-size="10.00">Controllers.StateMachine.</text>
<text text-anchor="middle" x="232" y="-291" font-family="Helvetica,sans-Serif" font-size="10.00">States.AttackState</text>
</a>
</g>
</g>
<!-- Node0&#45;&gt;Node3 -->
<g id="edge3" class="edge">
<title>Node0&#45;&gt;Node3</title>
<path fill="none" stroke="midnightblue" d="M90.15,-222.53C109.49,-238.61 137.64,-260.26 165,-275 171.01,-278.24 177.55,-281.21 184.1,-283.87"/>
<polygon fill="midnightblue" stroke="midnightblue" points="92.33,-219.79 82.42,-216.02 87.81,-225.14 92.33,-219.79"/>
</g>
<!-- Node7 -->
<g id="node8" class="node">
<title>Node7</title>
<g id="a_node8"><a xlink:href="class_controllers_1_1_state_machine_1_1_states_1_1_damage_state.html" target="_top" xlink:title=" ">
<polygon fill="none" stroke="black" points="167.5,-235 167.5,-265 296.5,-265 296.5,-235 167.5,-235"/>
<text text-anchor="start" x="175.5" y="-253" font-family="Helvetica,sans-Serif" font-size="10.00">Controllers.StateMachine.</text>
<text text-anchor="middle" x="232" y="-242" font-family="Helvetica,sans-Serif" font-size="10.00">States.DamageState</text>
</a>
</g>
</g>
<!-- Node0&#45;&gt;Node7 -->
<g id="edge7" class="edge">
<title>Node0&#45;&gt;Node7</title>
<path fill="none" stroke="midnightblue" d="M126.18,-218.97C143.92,-224.22 163.11,-229.9 180.16,-234.95"/>
<polygon fill="midnightblue" stroke="midnightblue" points="127.09,-215.58 116.51,-216.1 125.1,-222.3 127.09,-215.58"/>
</g>
<!-- Node9 -->
<g id="node10" class="node">
<title>Node9</title>
<g id="a_node10"><a xlink:href="class_controllers_1_1_state_machine_1_1_states_1_1_dead_state.html" target="_top" xlink:title=" ">
<polygon fill="none" stroke="black" points="167.5,-186 167.5,-216 296.5,-216 296.5,-186 167.5,-186"/>
<text text-anchor="start" x="175.5" y="-204" font-family="Helvetica,sans-Serif" font-size="10.00">Controllers.StateMachine.</text>
<text text-anchor="middle" x="232" y="-193" font-family="Helvetica,sans-Serif" font-size="10.00">States.DeadState</text>
</a>
</g>
</g>
<!-- Node0&#45;&gt;Node9 -->
<g id="edge9" class="edge">
<title>Node0&#45;&gt;Node9</title>
<path fill="none" stroke="midnightblue" d="M139.15,-201C148.57,-201 158.14,-201 167.38,-201"/>
<polygon fill="midnightblue" stroke="midnightblue" points="139.01,-197.5 129.01,-201 139.01,-204.5 139.01,-197.5"/>
</g>
<!-- Node11 -->
<g id="node12" class="node">
<title>Node11</title>
<g id="a_node12"><a xlink:href="class_controllers_1_1_state_machine_1_1_states_1_1_idle_state.html" target="_top" xlink:title=" ">
<polygon fill="none" stroke="black" points="167.5,-137 167.5,-167 296.5,-167 296.5,-137 167.5,-137"/>
<text text-anchor="start" x="175.5" y="-155" font-family="Helvetica,sans-Serif" font-size="10.00">Controllers.StateMachine.</text>
<text text-anchor="middle" x="232" y="-144" font-family="Helvetica,sans-Serif" font-size="10.00">States.IdleState</text>
</a>
</g>
</g>
<!-- Node0&#45;&gt;Node11 -->
<g id="edge11" class="edge">
<title>Node0&#45;&gt;Node11</title>
<path fill="none" stroke="midnightblue" d="M126.18,-183.03C143.92,-177.78 163.11,-172.1 180.16,-167.05"/>
<polygon fill="midnightblue" stroke="midnightblue" points="125.1,-179.7 116.51,-185.9 127.09,-186.42 125.1,-179.7"/>
</g>
<!-- Node15 -->
<g id="node16" class="node">
<title>Node15</title>
<g id="a_node16"><a xlink:href="class_controllers_1_1_state_machine_1_1_states_1_1_jump_state.html" target="_top" xlink:title=" ">
<polygon fill="none" stroke="black" points="167.5,-88 167.5,-118 296.5,-118 296.5,-88 167.5,-88"/>
<text text-anchor="start" x="175.5" y="-106" font-family="Helvetica,sans-Serif" font-size="10.00">Controllers.StateMachine.</text>
<text text-anchor="middle" x="232" y="-95" font-family="Helvetica,sans-Serif" font-size="10.00">States.JumpState</text>
</a>
</g>
</g>
<!-- Node0&#45;&gt;Node15 -->
<g id="edge15" class="edge">
<title>Node0&#45;&gt;Node15</title>
<path fill="none" stroke="midnightblue" d="M90.6,-179.6C109.99,-163.83 137.98,-142.67 165,-128 171.68,-124.37 178.99,-121.04 186.24,-118.06"/>
<polygon fill="midnightblue" stroke="midnightblue" points="88.34,-176.93 82.85,-185.99 92.79,-182.33 88.34,-176.93"/>
</g>
<!-- Node16 -->
<g id="node17" class="node">
<title>Node16</title>
<g id="a_node17"><a xlink:href="class_controllers_1_1_state_machine_1_1_states_1_1_prepare_attack_state.html" target="_top" xlink:title=" ">
<polygon fill="none" stroke="black" points="165,-39 165,-69 299,-69 299,-39 165,-39"/>
<text text-anchor="start" x="173" y="-57" font-family="Helvetica,sans-Serif" font-size="10.00">Controllers.StateMachine.</text>
<text text-anchor="middle" x="232" y="-46" font-family="Helvetica,sans-Serif" font-size="10.00">States.PrepareAttackState</text>
</a>
</g>
</g>
<!-- Node0&#45;&gt;Node16 -->
<g id="edge16" class="edge">
<title>Node0&#45;&gt;Node16</title>
<path fill="none" stroke="midnightblue" d="M79.1,-177.33C95.99,-149.88 127.23,-104.94 165,-78 169.76,-74.6 175.06,-71.63 180.53,-69.05"/>
<polygon fill="midnightblue" stroke="midnightblue" points="76.09,-175.55 73.93,-185.92 82.09,-179.16 76.09,-175.55"/>
</g>
<!-- Node18 -->
<g id="node19" class="node">
<title>Node18</title>
<g id="a_node19"><a xlink:href="class_o_l_c___renegade_state.html" target="_top" xlink:title=" ">
<polygon fill="none" stroke="black" points="178,-0.5 178,-19.5 286,-19.5 286,-0.5 178,-0.5"/>
<text text-anchor="middle" x="232" y="-7.5" font-family="Helvetica,sans-Serif" font-size="10.00">OLC_RenegadeState</text>
</a>
</g>
</g>
<!-- Node0&#45;&gt;Node18 -->
<g id="edge18" class="edge">
<title>Node0&#45;&gt;Node18</title>
<path fill="none" stroke="midnightblue" d="M73.16,-176.1C85.99,-138.56 115.43,-67.74 165,-29 169.98,-25.11 175.73,-22.01 181.71,-19.55"/>
<polygon fill="midnightblue" stroke="midnightblue" points="69.78,-175.16 69.98,-185.76 76.43,-177.36 69.78,-175.16"/>
</g>
<!-- Node4 -->
<g id="node5" class="node">
<title>Node4</title>
<g id="a_node5"><a xlink:href="class_controllers_1_1_froggy_1_1_froggy___attack_state.html" target="_top" xlink:title=" ">
<polygon fill="none" stroke="black" points="335,-361 335,-391 464,-391 464,-361 335,-361"/>
<text text-anchor="start" x="343" y="-379" font-family="Helvetica,sans-Serif" font-size="10.00">Controllers.Froggy.Froggy</text>
<text text-anchor="middle" x="399.5" y="-368" font-family="Helvetica,sans-Serif" font-size="10.00">_AttackState</text>
</a>
</g>
</g>
<!-- Node3&#45;&gt;Node4 -->
<g id="edge4" class="edge">
<title>Node3&#45;&gt;Node4</title>
<path fill="none" stroke="midnightblue" d="M287.28,-318.13C291.31,-319.98 295.26,-321.94 299,-324 316.52,-333.64 317.54,-341.25 335,-351 341.41,-354.58 348.45,-357.89 355.42,-360.86"/>
<polygon fill="midnightblue" stroke="midnightblue" points="288.36,-314.78 277.79,-314 285.57,-321.2 288.36,-314.78"/>
</g>
<!-- Node5 -->
<g id="node6" class="node">
<title>Node5</title>
<g id="a_node6"><a xlink:href="class_o_l_c___attack_state.html" target="_top" xlink:title=" ">
<polygon fill="none" stroke="black" points="353,-322.5 353,-341.5 446,-341.5 446,-322.5 353,-322.5"/>
<text text-anchor="middle" x="399.5" y="-329.5" font-family="Helvetica,sans-Serif" font-size="10.00">OLC_AttackState</text>
</a>
</g>
</g>
<!-- Node3&#45;&gt;Node5 -->
<g id="edge5" class="edge">
<title>Node3&#45;&gt;Node5</title>
<path fill="none" stroke="midnightblue" d="M306.75,-313.7C322.45,-316.84 338.6,-320.06 352.88,-322.9"/>
<polygon fill="midnightblue" stroke="midnightblue" points="307,-310.19 296.51,-311.66 305.64,-317.05 307,-310.19"/>
</g>
<!-- Node6 -->
<g id="node7" class="node">
<title>Node6</title>
<g id="a_node7"><a xlink:href="class_o_l_c___second_phase.html" target="_top" xlink:title=" ">
<polygon fill="none" stroke="black" points="348.5,-284.5 348.5,-303.5 450.5,-303.5 450.5,-284.5 348.5,-284.5"/>
<text text-anchor="middle" x="399.5" y="-291.5" font-family="Helvetica,sans-Serif" font-size="10.00">OLC_SecondPhase</text>
</a>
</g>
</g>
<!-- Node3&#45;&gt;Node6 -->
<g id="edge6" class="edge">
<title>Node3&#45;&gt;Node6</title>
<path fill="none" stroke="midnightblue" d="M306.66,-296.77C320.72,-296.35 335.14,-295.91 348.25,-295.52"/>
<polygon fill="midnightblue" stroke="midnightblue" points="306.4,-293.28 296.51,-297.08 306.61,-300.28 306.4,-293.28"/>
</g>
<!-- Node8 -->
<g id="node9" class="node">
<title>Node8</title>
<g id="a_node9"><a xlink:href="class_controllers_1_1_froggy_1_1_froggy___damage_state.html" target="_top" xlink:title=" ">
<polygon fill="none" stroke="black" points="335,-235 335,-265 464,-265 464,-235 335,-235"/>
<text text-anchor="start" x="343" y="-253" font-family="Helvetica,sans-Serif" font-size="10.00">Controllers.Froggy.Froggy</text>
<text text-anchor="middle" x="399.5" y="-242" font-family="Helvetica,sans-Serif" font-size="10.00">_DamageState</text>
</a>
</g>
</g>
<!-- Node7&#45;&gt;Node8 -->
<g id="edge8" class="edge">
<title>Node7&#45;&gt;Node8</title>
<path fill="none" stroke="midnightblue" d="M306.65,-250C316.07,-250 325.64,-250 334.88,-250"/>
<polygon fill="midnightblue" stroke="midnightblue" points="306.51,-246.5 296.51,-250 306.51,-253.5 306.51,-246.5"/>
</g>
<!-- Node10 -->
<g id="node11" class="node">
<title>Node10</title>
<g id="a_node11"><a xlink:href="class_froggy___dead_state.html" target="_top" xlink:title=" ">
<polygon fill="none" stroke="black" points="350.5,-196.5 350.5,-215.5 448.5,-215.5 448.5,-196.5 350.5,-196.5"/>
<text text-anchor="middle" x="399.5" y="-203.5" font-family="Helvetica,sans-Serif" font-size="10.00">Froggy_DeadState</text>
</a>
</g>
</g>
<!-- Node9&#45;&gt;Node10 -->
<g id="edge10" class="edge">
<title>Node9&#45;&gt;Node10</title>
<path fill="none" stroke="midnightblue" d="M306.67,-203.23C321.47,-203.67 336.67,-204.13 350.32,-204.54"/>
<polygon fill="midnightblue" stroke="midnightblue" points="306.61,-199.72 296.51,-202.92 306.4,-206.72 306.61,-199.72"/>
</g>
<!-- Node12 -->
<g id="node13" class="node">
<title>Node12</title>
<g id="a_node13"><a xlink:href="class_froggy___idle_state.html" target="_top" xlink:title=" ">
<polygon fill="none" stroke="black" points="354.5,-158.5 354.5,-177.5 444.5,-177.5 444.5,-158.5 354.5,-158.5"/>
<text text-anchor="middle" x="399.5" y="-165.5" font-family="Helvetica,sans-Serif" font-size="10.00">Froggy_IdleState</text>
</a>
</g>
</g>
<!-- Node11&#45;&gt;Node12 -->
<g id="edge12" class="edge">
<title>Node11&#45;&gt;Node12</title>
<path fill="none" stroke="midnightblue" d="M306.59,-159.11C322.9,-160.69 339.7,-162.31 354.39,-163.74"/>
<polygon fill="midnightblue" stroke="midnightblue" points="306.8,-155.62 296.51,-158.14 306.13,-162.59 306.8,-155.62"/>
</g>
<!-- Node13 -->
<g id="node14" class="node">
<title>Node13</title>
<g id="a_node14"><a xlink:href="class_o_l_c___idle_state.html" target="_top" xlink:title=" ">
<polygon fill="none" stroke="black" points="359.5,-120.5 359.5,-139.5 439.5,-139.5 439.5,-120.5 359.5,-120.5"/>
<text text-anchor="middle" x="399.5" y="-127.5" font-family="Helvetica,sans-Serif" font-size="10.00">OLC_IdleState</text>
</a>
</g>
</g>
<!-- Node11&#45;&gt;Node13 -->
<g id="edge13" class="edge">
<title>Node11&#45;&gt;Node13</title>
<path fill="none" stroke="midnightblue" d="M306.53,-142.23C324.72,-139.81 343.51,-137.31 359.33,-135.21"/>
<polygon fill="midnightblue" stroke="midnightblue" points="305.96,-138.77 296.51,-143.56 306.89,-145.71 305.96,-138.77"/>
</g>
<!-- Node14 -->
<g id="node15" class="node">
<title>Node14</title>
<g id="a_node15"><a xlink:href="class_o_l_c___stunned_state.html" target="_top" xlink:title=" ">
<polygon fill="none" stroke="black" points="349,-82.5 349,-101.5 450,-101.5 450,-82.5 349,-82.5"/>
<text text-anchor="middle" x="399.5" y="-89.5" font-family="Helvetica,sans-Serif" font-size="10.00">OLC_StunnedState</text>
</a>
</g>
</g>
<!-- Node11&#45;&gt;Node14 -->
<g id="edge14" class="edge">
<title>Node11&#45;&gt;Node14</title>
<path fill="none" stroke="midnightblue" d="M285.56,-133.39C290.12,-131.62 294.66,-129.81 299,-128 315.33,-121.19 318.48,-117.33 335,-111 344.03,-107.54 353.97,-104.31 363.25,-101.52"/>
<polygon fill="midnightblue" stroke="midnightblue" points="284.29,-130.13 276.18,-136.95 286.77,-136.67 284.29,-130.13"/>
</g>
<!-- Node17 -->
<g id="node18" class="node">
<title>Node17</title>
<g id="a_node18"><a xlink:href="class_controllers_1_1_froggy_1_1_froggy___prepare_attack_state.html" target="_top" xlink:title=" ">
<polygon fill="none" stroke="black" points="335,-33 335,-63 464,-63 464,-33 335,-33"/>
<text text-anchor="start" x="343" y="-51" font-family="Helvetica,sans-Serif" font-size="10.00">Controllers.Froggy.Froggy</text>
<text text-anchor="middle" x="399.5" y="-40" font-family="Helvetica,sans-Serif" font-size="10.00">_PrepareAttackState</text>
</a>
</g>
</g>
<!-- Node16&#45;&gt;Node17 -->
<g id="edge17" class="edge">
<title>Node16&#45;&gt;Node17</title>
<path fill="none" stroke="midnightblue" d="M309.59,-51.22C318.03,-50.92 326.56,-50.61 334.81,-50.31"/>
<polygon fill="midnightblue" stroke="midnightblue" points="309.23,-47.73 299.36,-51.59 309.48,-54.73 309.23,-47.73"/>
</g>
</g>
</svg>
