<?xml version="1.0" encoding="UTF-8" standalone="no"?>
<!DOCTYPE svg PUBLIC "-//W3C//DTD SVG 1.1//EN"
 "http://www.w3.org/Graphics/SVG/1.1/DTD/svg11.dtd">
<!-- Generated by graphviz version 2.48.0 (20210717.1556)
 -->
<!-- Title: Controllers.Damage.DamageInfo Pages: 1 -->
<svg width="172pt" height="292pt"
 viewBox="0.00 0.00 172.00 292.00" xmlns="http://www.w3.org/2000/svg" xmlns:xlink="http://www.w3.org/1999/xlink">
<g id="graph0" class="graph" transform="scale(1 1) rotate(0) translate(4 288)">
<title>Controllers.Damage.DamageInfo</title>
<!-- Node1 -->
<g id="node1" class="node">
<title>Node1</title>
<g id="a_node1"><a xlink:title="Struct que contiene la informacion de un ataque.">
<polygon fill="#bfbfbf" stroke="black" points="0,-0.5 0,-167.5 164,-167.5 164,-0.5 0,-0.5"/>
<text text-anchor="middle" x="82" y="-155.5" font-family="Helvetica,sans-Serif" font-size="10.00">Controllers.Damage.DamageInfo</text>
<polyline fill="none" stroke="black" points="0,-148.5 164,-148.5 "/>
<text text-anchor="start" x="8" y="-136.5" font-family="Helvetica,sans-Serif" font-size="10.00">+ int DamageAmount</text>
<text text-anchor="start" x="8" y="-125.5" font-family="Helvetica,sans-Serif" font-size="10.00">+ float AttackXPosition</text>
<text text-anchor="start" x="8" y="-114.5" font-family="Helvetica,sans-Serif" font-size="10.00">+ bool MoveOnAttack</text>
<text text-anchor="start" x="8" y="-103.5" font-family="Helvetica,sans-Serif" font-size="10.00">+ bool Stun</text>
<text text-anchor="start" x="8" y="-92.5" font-family="Helvetica,sans-Serif" font-size="10.00">+ bool Slow</text>
<text text-anchor="start" x="8" y="-81.5" font-family="Helvetica,sans-Serif" font-size="10.00">+ Vector2 MoveOnAttackForce</text>
<polyline fill="none" stroke="black" points="0,-74.5 164,-74.5 "/>
<text text-anchor="start" x="8" y="-62.5" font-family="Helvetica,sans-Serif" font-size="10.00">+ DamageInfo(int damageAmount,</text>
<text text-anchor="start" x="8" y="-51.5" font-family="Helvetica,sans-Serif" font-size="10.00"> float attackXPosition, bool</text>
<text text-anchor="start" x="8" y="-40.5" font-family="Helvetica,sans-Serif" font-size="10.00"> moveOnAttack=false, bool stun</text>
<text text-anchor="start" x="8" y="-29.5" font-family="Helvetica,sans-Serif" font-size="10.00">=false, bool slow=false)</text>
<text text-anchor="start" x="8" y="-18.5" font-family="Helvetica,sans-Serif" font-size="10.00">+ int GetAttackDirection</text>
<text text-anchor="start" x="8" y="-7.5" font-family="Helvetica,sans-Serif" font-size="10.00">(float x)</text>
</a>
</g>
</g>
<!-- Node2 -->
<g id="node2" class="node">
<title>Node2</title>
<g id="a_node2"><a xlink:title=" ">
<polygon fill="none" stroke="#bfbfbf" points="20.5,-226.5 20.5,-283.5 55.5,-283.5 55.5,-226.5 20.5,-226.5"/>
<text text-anchor="middle" x="38" y="-271.5" font-family="Helvetica,sans-Serif" font-size="10.00">float</text>
<polyline fill="none" stroke="#bfbfbf" points="20.5,-264.5 55.5,-264.5 "/>
<text text-anchor="middle" x="38" y="-252.5" font-family="Helvetica,sans-Serif" font-size="10.00"> </text>
<polyline fill="none" stroke="#bfbfbf" points="20.5,-245.5 55.5,-245.5 "/>
<text text-anchor="middle" x="38" y="-233.5" font-family="Helvetica,sans-Serif" font-size="10.00"> </text>
</a>
</g>
</g>
<!-- Node2&#45;&gt;Node1 -->
<g id="edge1" class="edge">
<title>Node2&#45;&gt;Node1</title>
<path fill="none" stroke="#404040" d="M36,-226.27C35.72,-213.83 36.24,-199.05 39,-186 39.46,-183.82 39.97,-181.63 40.52,-179.44"/>
<polygon fill="none" stroke="#404040" points="40.58,-179.22 38.36,-172.36 43.84,-167.67 46.06,-174.53 40.58,-179.22"/>
<text text-anchor="middle" x="71.5" y="-200" font-family="Helvetica,sans-Serif" font-size="10.00"> +slowDuration</text>
<text text-anchor="middle" x="71.5" y="-189" font-family="Helvetica,sans-Serif" font-size="10.00">+stunDuration</text>
</g>
<!-- Node3 -->
<g id="node3" class="node">
<title>Node3</title>
<g id="a_node3"><a xlink:title=" ">
<polygon fill="none" stroke="#bfbfbf" points="108.5,-226.5 108.5,-283.5 143.5,-283.5 143.5,-226.5 108.5,-226.5"/>
<text text-anchor="middle" x="126" y="-271.5" font-family="Helvetica,sans-Serif" font-size="10.00">bool</text>
<polyline fill="none" stroke="#bfbfbf" points="108.5,-264.5 143.5,-264.5 "/>
<text text-anchor="middle" x="126" y="-252.5" font-family="Helvetica,sans-Serif" font-size="10.00"> </text>
<polyline fill="none" stroke="#bfbfbf" points="108.5,-245.5 143.5,-245.5 "/>
<text text-anchor="middle" x="126" y="-233.5" font-family="Helvetica,sans-Serif" font-size="10.00"> </text>
</a>
</g>
</g>
<!-- Node3&#45;&gt;Node1 -->
<g id="edge2" class="edge">
<title>Node3&#45;&gt;Node1</title>
<path fill="none" stroke="#404040" d="M118.83,-226.47C115.41,-213.32 111.09,-196.73 106.62,-179.58"/>
<polygon fill="none" stroke="#404040" points="106.54,-179.26 101.16,-174.46 103.52,-167.65 108.9,-172.45 106.54,-179.26"/>
<text text-anchor="middle" x="126.5" y="-200" font-family="Helvetica,sans-Serif" font-size="10.00"> +slow</text>
<text text-anchor="middle" x="126.5" y="-189" font-family="Helvetica,sans-Serif" font-size="10.00">+stun</text>
</g>
</g>
</svg>
