<?xml version="1.0" encoding="UTF-8" standalone="no"?>
<!DOCTYPE svg PUBLIC "-//W3C//DTD SVG 1.1//EN"
 "http://www.w3.org/Graphics/SVG/1.1/DTD/svg11.dtd">
<!-- Generated by graphviz version 2.48.0 (20210717.1556)
 -->
<!-- Title: Dialogues.DialogueData Pages: 1 -->
<svg width="216pt" height="204pt"
 viewBox="0.00 0.00 216.00 204.00" xmlns="http://www.w3.org/2000/svg" xmlns:xlink="http://www.w3.org/1999/xlink">
<g id="graph0" class="graph" transform="scale(1 1) rotate(0) translate(4 200)">
<title>Dialogues.DialogueData</title>
<!-- Node1 -->
<g id="node1" class="node">
<title>Node1</title>
<g id="a_node1"><a xlink:title=" ">
<polygon fill="#bfbfbf" stroke="black" points="8,-0.5 8,-90.5 187,-90.5 187,-0.5 8,-0.5"/>
<text text-anchor="middle" x="97.5" y="-78.5" font-family="Helvetica,sans-Serif" font-size="10.00">Dialogues.DialogueData</text>
<polyline fill="none" stroke="black" points="8,-71.5 187,-71.5 "/>
<text text-anchor="middle" x="97.5" y="-59.5" font-family="Helvetica,sans-Serif" font-size="10.00"> </text>
<polyline fill="none" stroke="black" points="8,-52.5 187,-52.5 "/>
<text text-anchor="start" x="16" y="-40.5" font-family="Helvetica,sans-Serif" font-size="10.00">+ DialogueData(LocalizedString</text>
<text text-anchor="start" x="16" y="-29.5" font-family="Helvetica,sans-Serif" font-size="10.00"> locale, DIALOGUE_ACTION</text>
<text text-anchor="start" x="16" y="-18.5" font-family="Helvetica,sans-Serif" font-size="10.00"> action, PerformAction performAction)</text>
<text text-anchor="start" x="16" y="-7.5" font-family="Helvetica,sans-Serif" font-size="10.00">+ void RunAction()</text>
</a>
</g>
</g>
<!-- Node2 -->
<g id="node2" class="node">
<title>Node2</title>
<g id="a_node2"><a xlink:title=" ">
<polygon fill="none" stroke="#bfbfbf" points="0,-138.5 0,-195.5 83,-195.5 83,-138.5 0,-138.5"/>
<text text-anchor="middle" x="41.5" y="-183.5" font-family="Helvetica,sans-Serif" font-size="10.00">LocalizedString</text>
<polyline fill="none" stroke="#bfbfbf" points="0,-176.5 83,-176.5 "/>
<text text-anchor="middle" x="41.5" y="-164.5" font-family="Helvetica,sans-Serif" font-size="10.00"> </text>
<polyline fill="none" stroke="#bfbfbf" points="0,-157.5 83,-157.5 "/>
<text text-anchor="middle" x="41.5" y="-145.5" font-family="Helvetica,sans-Serif" font-size="10.00"> </text>
</a>
</g>
</g>
<!-- Node2&#45;&gt;Node1 -->
<g id="edge1" class="edge">
<title>Node2&#45;&gt;Node1</title>
<path fill="none" stroke="#404040" d="M54.49,-138.28C59.59,-127.41 65.63,-114.51 71.54,-101.89"/>
<polygon fill="none" stroke="#404040" points="71.6,-101.78 70.52,-94.65 76.69,-90.91 77.76,-98.04 71.6,-101.78"/>
<text text-anchor="middle" x="87.5" y="-112" font-family="Helvetica,sans-Serif" font-size="10.00"> +Locale</text>
</g>
<!-- Node3 -->
<g id="node3" class="node">
<title>Node3</title>
<g id="a_node3"><a xlink:title=" ">
<polygon fill="none" stroke="#bfbfbf" points="101,-138.5 101,-195.5 208,-195.5 208,-138.5 101,-138.5"/>
<text text-anchor="middle" x="154.5" y="-183.5" font-family="Helvetica,sans-Serif" font-size="10.00">DIALOGUE_ACTION</text>
<polyline fill="none" stroke="#bfbfbf" points="101,-176.5 208,-176.5 "/>
<text text-anchor="middle" x="154.5" y="-164.5" font-family="Helvetica,sans-Serif" font-size="10.00"> </text>
<polyline fill="none" stroke="#bfbfbf" points="101,-157.5 208,-157.5 "/>
<text text-anchor="middle" x="154.5" y="-145.5" font-family="Helvetica,sans-Serif" font-size="10.00"> </text>
</a>
</g>
</g>
<!-- Node3&#45;&gt;Node1 -->
<g id="edge2" class="edge">
<title>Node3&#45;&gt;Node1</title>
<path fill="none" stroke="#404040" d="M141.28,-138.28C136.09,-127.41 129.94,-114.51 123.92,-101.89"/>
<polygon fill="none" stroke="#404040" points="123.85,-101.74 117.66,-98.05 118.68,-90.91 124.88,-94.61 123.85,-101.74"/>
<text text-anchor="middle" x="149" y="-112" font-family="Helvetica,sans-Serif" font-size="10.00"> +Action</text>
</g>
</g>
</svg>
